G75*
%MOIN*%
%OFA0B0*%
%FSLAX25Y25*%
%IPPOS*%
%LPD*%
%AMOC8*
5,1,8,0,0,1.08239X$1,22.5*
%
%ADD10R,0.03937X0.04331*%
%ADD11C,0.01181*%
%ADD12C,0.07400*%
%ADD13R,0.07874X0.04724*%
%ADD14R,0.05315X0.02362*%
%ADD15R,0.04331X0.03937*%
%ADD16C,0.01000*%
%ADD17R,0.02500X0.05000*%
%ADD18R,0.01772X0.01181*%
%ADD19C,0.00800*%
%ADD20C,0.02900*%
%ADD21C,0.01200*%
%ADD22C,0.00906*%
%ADD23C,0.00700*%
D10*
X0145833Y0066654D03*
X0145833Y0073346D03*
X0170833Y0073346D03*
X0170833Y0066654D03*
X0188333Y0068346D03*
X0198333Y0068346D03*
X0198333Y0061654D03*
X0188333Y0061654D03*
D11*
X0128164Y0061378D02*
X0128164Y0058622D01*
X0125408Y0058622D01*
X0125408Y0061378D01*
X0128164Y0061378D01*
X0128164Y0059744D02*
X0125408Y0059744D01*
X0125408Y0060866D02*
X0128164Y0060866D01*
X0121259Y0061378D02*
X0121259Y0058622D01*
X0118503Y0058622D01*
X0118503Y0061378D01*
X0121259Y0061378D01*
X0121259Y0059744D02*
X0118503Y0059744D01*
X0118503Y0060866D02*
X0121259Y0060866D01*
D12*
X0138333Y0045000D03*
X0148333Y0045000D03*
X0158333Y0045000D03*
X0168333Y0045000D03*
X0178333Y0045000D03*
D13*
X0197802Y0073976D03*
X0197802Y0096024D03*
X0118865Y0096024D03*
X0118865Y0073976D03*
D14*
X0133333Y0079094D03*
X0133333Y0083031D03*
X0133333Y0086969D03*
X0133333Y0090906D03*
X0183333Y0090906D03*
X0183333Y0086969D03*
X0183333Y0083031D03*
X0183333Y0079094D03*
D15*
X0161680Y0097500D03*
X0154987Y0097500D03*
X0126680Y0055000D03*
X0119987Y0055000D03*
D16*
X0116122Y0054978D02*
X0115533Y0054978D01*
X0116122Y0054978D01*
X0115533Y0054978D01*
X0116122Y0054978D01*
X0115533Y0054978D01*
X0116122Y0054978D01*
X0115533Y0054978D01*
X0115533Y0055976D02*
X0116122Y0055976D01*
X0115533Y0055976D01*
X0116122Y0055976D01*
X0115533Y0055976D01*
X0116122Y0055976D01*
X0115533Y0055976D01*
X0116122Y0055976D01*
X0116122Y0056975D02*
X0115533Y0056975D01*
X0116122Y0056975D01*
X0115533Y0056975D01*
X0116122Y0056975D01*
X0115533Y0056975D01*
X0116122Y0056975D01*
X0115533Y0056975D01*
X0116122Y0057673D02*
X0116122Y0052327D01*
X0117117Y0051331D01*
X0118032Y0051331D01*
X0121463Y0047900D01*
X0134013Y0047900D01*
X0133886Y0047725D01*
X0133514Y0046996D01*
X0133261Y0046218D01*
X0133148Y0045500D01*
X0137833Y0045500D01*
X0137833Y0044500D01*
X0133148Y0044500D01*
X0133261Y0043782D01*
X0133514Y0043004D01*
X0133886Y0042275D01*
X0133940Y0042200D01*
X0115533Y0042200D01*
X0115533Y0069914D01*
X0123506Y0069914D01*
X0124502Y0070910D01*
X0124502Y0077043D01*
X0123506Y0078039D01*
X0115533Y0078039D01*
X0115533Y0091961D01*
X0123506Y0091961D01*
X0124502Y0092957D01*
X0124502Y0099090D01*
X0123506Y0100086D01*
X0115533Y0100086D01*
X0115533Y0119710D01*
X0116021Y0118865D01*
X0116021Y0118865D01*
X0116021Y0118865D01*
X0115533Y0119710D01*
X0115533Y0100086D01*
X0123506Y0100086D01*
X0124502Y0099090D01*
X0124502Y0092957D01*
X0123506Y0091961D01*
X0115533Y0091961D01*
X0115533Y0078039D01*
X0123506Y0078039D01*
X0124502Y0077043D01*
X0124502Y0070910D01*
X0123506Y0069914D01*
X0115533Y0069914D01*
X0115533Y0042200D01*
X0133940Y0042200D01*
X0133886Y0042275D01*
X0133514Y0043004D01*
X0133261Y0043782D01*
X0133148Y0044500D01*
X0137833Y0044500D01*
X0137833Y0045500D01*
X0133148Y0045500D01*
X0133261Y0046218D01*
X0133514Y0046996D01*
X0133886Y0047725D01*
X0134013Y0047900D01*
X0121463Y0047900D01*
X0118032Y0051331D01*
X0117117Y0051331D01*
X0116122Y0052327D01*
X0116122Y0057673D01*
X0116493Y0058044D01*
X0116412Y0058347D01*
X0116412Y0059516D01*
X0119396Y0059516D01*
X0119396Y0060484D01*
X0116412Y0060484D01*
X0116412Y0061653D01*
X0116555Y0062185D01*
X0116830Y0062662D01*
X0117219Y0063051D01*
X0117696Y0063326D01*
X0118227Y0063468D01*
X0119396Y0063468D01*
X0119396Y0060484D01*
X0119396Y0059516D01*
X0116412Y0059516D01*
X0116412Y0058347D01*
X0116493Y0058044D01*
X0116122Y0057673D01*
X0116122Y0052327D01*
X0117117Y0051331D01*
X0118032Y0051331D01*
X0121463Y0047900D01*
X0134013Y0047900D01*
X0133886Y0047725D01*
X0133514Y0046996D01*
X0133261Y0046218D01*
X0133148Y0045500D01*
X0137833Y0045500D01*
X0137833Y0044500D01*
X0133148Y0044500D01*
X0133261Y0043782D01*
X0133514Y0043004D01*
X0133886Y0042275D01*
X0133940Y0042200D01*
X0115533Y0042200D01*
X0115533Y0069914D01*
X0123506Y0069914D01*
X0124502Y0070910D01*
X0124502Y0077043D01*
X0123506Y0078039D01*
X0115533Y0078039D01*
X0115533Y0091961D01*
X0123506Y0091961D01*
X0124502Y0092957D01*
X0124502Y0099090D01*
X0123506Y0100086D01*
X0115533Y0100086D01*
X0115533Y0119710D01*
X0116021Y0118865D01*
X0116021Y0118865D01*
X0116021Y0118865D01*
X0115533Y0119710D01*
X0115533Y0100086D01*
X0123506Y0100086D01*
X0124502Y0099090D01*
X0124502Y0092957D01*
X0123506Y0091961D01*
X0115533Y0091961D01*
X0115533Y0078039D01*
X0123506Y0078039D01*
X0124502Y0077043D01*
X0124502Y0070910D01*
X0123506Y0069914D01*
X0115533Y0069914D01*
X0115533Y0042200D01*
X0133940Y0042200D01*
X0133886Y0042275D01*
X0133514Y0043004D01*
X0133261Y0043782D01*
X0133148Y0044500D01*
X0137833Y0044500D01*
X0137833Y0045500D01*
X0133148Y0045500D01*
X0133261Y0046218D01*
X0133514Y0046996D01*
X0133886Y0047725D01*
X0134013Y0047900D01*
X0121463Y0047900D01*
X0118032Y0051331D01*
X0117117Y0051331D01*
X0116122Y0052327D01*
X0116122Y0057673D01*
X0116493Y0058044D01*
X0116412Y0058347D01*
X0116412Y0059516D01*
X0119396Y0059516D01*
X0119396Y0060484D01*
X0116412Y0060484D01*
X0116412Y0061653D01*
X0116555Y0062185D01*
X0116830Y0062662D01*
X0117219Y0063051D01*
X0117696Y0063326D01*
X0118227Y0063468D01*
X0119396Y0063468D01*
X0119396Y0060484D01*
X0116412Y0060484D01*
X0116412Y0061653D01*
X0116555Y0062185D01*
X0116830Y0062662D01*
X0117219Y0063051D01*
X0117696Y0063326D01*
X0118227Y0063468D01*
X0119396Y0063468D01*
X0119396Y0060484D01*
X0119396Y0059516D01*
X0116412Y0059516D01*
X0116412Y0058347D01*
X0116493Y0058044D01*
X0116122Y0057673D01*
X0116122Y0052327D01*
X0117117Y0051331D01*
X0118032Y0051331D01*
X0121463Y0047900D01*
X0134013Y0047900D01*
X0133886Y0047725D01*
X0133514Y0046996D01*
X0133261Y0046218D01*
X0133148Y0045500D01*
X0137833Y0045500D01*
X0137833Y0044500D01*
X0133148Y0044500D01*
X0133261Y0043782D01*
X0133514Y0043004D01*
X0133886Y0042275D01*
X0133940Y0042200D01*
X0115533Y0042200D01*
X0115533Y0069914D01*
X0123506Y0069914D01*
X0124502Y0070910D01*
X0124502Y0077043D01*
X0123506Y0078039D01*
X0115533Y0078039D01*
X0115533Y0091961D01*
X0123506Y0091961D01*
X0124502Y0092957D01*
X0124502Y0099090D01*
X0123506Y0100086D01*
X0115533Y0100086D01*
X0115533Y0119710D01*
X0116021Y0118865D01*
X0116021Y0118865D01*
X0116021Y0118865D01*
X0115533Y0119710D01*
X0115533Y0100086D01*
X0123506Y0100086D01*
X0124502Y0099090D01*
X0124502Y0092957D01*
X0123506Y0091961D01*
X0115533Y0091961D01*
X0115533Y0078039D01*
X0123506Y0078039D01*
X0124502Y0077043D01*
X0124502Y0070910D01*
X0123506Y0069914D01*
X0115533Y0069914D01*
X0115533Y0042200D01*
X0133940Y0042200D01*
X0133886Y0042275D01*
X0133514Y0043004D01*
X0133261Y0043782D01*
X0133148Y0044500D01*
X0137833Y0044500D01*
X0137833Y0045500D01*
X0133148Y0045500D01*
X0133261Y0046218D01*
X0133514Y0046996D01*
X0133886Y0047725D01*
X0134013Y0047900D01*
X0121463Y0047900D01*
X0118032Y0051331D01*
X0117117Y0051331D01*
X0116122Y0052327D01*
X0116122Y0057673D01*
X0116493Y0058044D01*
X0116412Y0058347D01*
X0116412Y0059516D01*
X0119396Y0059516D01*
X0119396Y0060484D01*
X0116412Y0060484D01*
X0116412Y0061653D01*
X0116555Y0062185D01*
X0116830Y0062662D01*
X0117219Y0063051D01*
X0117696Y0063326D01*
X0118227Y0063468D01*
X0119396Y0063468D01*
X0119396Y0060484D01*
X0116412Y0060484D01*
X0116412Y0061653D01*
X0116555Y0062185D01*
X0116830Y0062662D01*
X0117219Y0063051D01*
X0117696Y0063326D01*
X0118227Y0063468D01*
X0119396Y0063468D01*
X0119396Y0060484D01*
X0119396Y0059516D01*
X0116412Y0059516D01*
X0116412Y0058347D01*
X0116493Y0058044D01*
X0116122Y0057673D01*
X0116122Y0052327D01*
X0117117Y0051331D01*
X0118032Y0051331D01*
X0121463Y0047900D01*
X0134013Y0047900D01*
X0133886Y0047725D01*
X0133514Y0046996D01*
X0133261Y0046218D01*
X0133148Y0045500D01*
X0137833Y0045500D01*
X0137833Y0044500D01*
X0133148Y0044500D01*
X0133261Y0043782D01*
X0133514Y0043004D01*
X0133886Y0042275D01*
X0133940Y0042200D01*
X0115533Y0042200D01*
X0115533Y0069914D01*
X0123506Y0069914D01*
X0124502Y0070910D01*
X0124502Y0077043D01*
X0123506Y0078039D01*
X0115533Y0078039D01*
X0115533Y0091961D01*
X0123506Y0091961D01*
X0124502Y0092957D01*
X0124502Y0099090D01*
X0123506Y0100086D01*
X0115533Y0100086D01*
X0115533Y0119710D01*
X0116021Y0118865D01*
X0116021Y0118865D01*
X0118561Y0116734D01*
X0121676Y0115600D01*
X0124991Y0115600D01*
X0128106Y0116734D01*
X0130645Y0118865D01*
X0132303Y0121735D01*
X0132303Y0121735D01*
X0132303Y0121735D01*
X0130645Y0118865D01*
X0130645Y0118865D01*
X0130645Y0118865D01*
X0132303Y0121735D01*
X0132303Y0121735D01*
X0132303Y0121735D01*
X0130645Y0118865D01*
X0130645Y0118865D01*
X0130645Y0118865D01*
X0132303Y0121735D01*
X0132303Y0121735D01*
X0132303Y0121735D01*
X0130645Y0118865D01*
X0130645Y0118865D01*
X0130645Y0118865D01*
X0132303Y0121735D01*
X0132303Y0121735D01*
X0132878Y0125000D01*
X0132303Y0128265D01*
X0130645Y0131135D01*
X0130645Y0131135D01*
X0130645Y0131135D01*
X0132303Y0128265D01*
X0132303Y0128265D01*
X0132303Y0128265D01*
X0130645Y0131135D01*
X0130645Y0131135D01*
X0130645Y0131135D01*
X0132303Y0128265D01*
X0132303Y0128265D01*
X0132303Y0128265D01*
X0130645Y0131135D01*
X0130645Y0131135D01*
X0130645Y0131135D01*
X0132303Y0128265D01*
X0132303Y0128265D01*
X0132303Y0128265D01*
X0130645Y0131135D01*
X0130645Y0131135D01*
X0128661Y0132800D01*
X0188005Y0132800D01*
X0186021Y0131135D01*
X0184364Y0128265D01*
X0184364Y0128265D01*
X0184364Y0128265D01*
X0186021Y0131135D01*
X0186021Y0131135D01*
X0186021Y0131135D01*
X0184364Y0128265D01*
X0184364Y0128265D01*
X0184364Y0128265D01*
X0186021Y0131135D01*
X0186021Y0131135D01*
X0186021Y0131135D01*
X0184364Y0128265D01*
X0184364Y0128265D01*
X0184364Y0128265D01*
X0186021Y0131135D01*
X0186021Y0131135D01*
X0186021Y0131135D01*
X0184364Y0128265D01*
X0184364Y0128265D01*
X0183788Y0125000D01*
X0184364Y0121735D01*
X0186021Y0118865D01*
X0186021Y0118865D01*
X0186021Y0118865D01*
X0184364Y0121735D01*
X0184364Y0121735D01*
X0184364Y0121735D01*
X0186021Y0118865D01*
X0186021Y0118865D01*
X0186021Y0118865D01*
X0184364Y0121735D01*
X0184364Y0121735D01*
X0184364Y0121735D01*
X0186021Y0118865D01*
X0186021Y0118865D01*
X0186021Y0118865D01*
X0184364Y0121735D01*
X0184364Y0121735D01*
X0184364Y0121735D01*
X0186021Y0118865D01*
X0186021Y0118865D01*
X0188561Y0116734D01*
X0191676Y0115600D01*
X0194991Y0115600D01*
X0198106Y0116734D01*
X0200645Y0118865D01*
X0201133Y0119710D01*
X0201133Y0100086D01*
X0193161Y0100086D01*
X0192165Y0099090D01*
X0192165Y0092957D01*
X0193161Y0091961D01*
X0201133Y0091961D01*
X0201133Y0078039D01*
X0194986Y0078039D01*
X0194986Y0087892D01*
X0193725Y0089153D01*
X0189820Y0093059D01*
X0187423Y0093059D01*
X0186695Y0093787D01*
X0185383Y0093787D01*
X0185383Y0096603D01*
X0186083Y0097302D01*
X0186562Y0098460D01*
X0186562Y0099713D01*
X0186083Y0100871D01*
X0185196Y0101757D01*
X0184039Y0102237D01*
X0182785Y0102237D01*
X0181628Y0101757D01*
X0180742Y0100871D01*
X0180262Y0099713D01*
X0180262Y0098460D01*
X0180742Y0097302D01*
X0181283Y0096761D01*
X0181283Y0093787D01*
X0180615Y0093787D01*
X0180615Y0096838D01*
X0179385Y0098068D01*
X0173983Y0103470D01*
X0173983Y0104277D01*
X0173504Y0105434D01*
X0172618Y0106320D01*
X0171460Y0106800D01*
X0170207Y0106800D01*
X0169049Y0106320D01*
X0168163Y0105434D01*
X0167683Y0104277D01*
X0167683Y0103023D01*
X0168163Y0101866D01*
X0169049Y0100980D01*
X0170207Y0100500D01*
X0171013Y0100500D01*
X0176415Y0095099D01*
X0176415Y0091463D01*
X0175379Y0092500D01*
X0173225Y0094653D01*
X0173150Y0094653D01*
X0171703Y0096100D01*
X0165345Y0096100D01*
X0165345Y0097016D01*
X0162164Y0097016D01*
X0162164Y0097984D01*
X0165345Y0097984D01*
X0165345Y0099666D01*
X0165243Y0100047D01*
X0165045Y0100390D01*
X0164766Y0100669D01*
X0164424Y0100866D01*
X0164043Y0100968D01*
X0162164Y0100968D01*
X0162164Y0097984D01*
X0165345Y0097984D01*
X0165345Y0099666D01*
X0165243Y0100047D01*
X0165045Y0100390D01*
X0164766Y0100669D01*
X0164424Y0100866D01*
X0164043Y0100968D01*
X0162164Y0100968D01*
X0162164Y0097984D01*
X0162164Y0097016D01*
X0165345Y0097016D01*
X0165345Y0096100D01*
X0171703Y0096100D01*
X0173150Y0094653D01*
X0173225Y0094653D01*
X0175379Y0092500D01*
X0176415Y0091463D01*
X0176415Y0095099D01*
X0171013Y0100500D01*
X0170207Y0100500D01*
X0169049Y0100980D01*
X0168163Y0101866D01*
X0167683Y0103023D01*
X0167683Y0104277D01*
X0168163Y0105434D01*
X0169049Y0106320D01*
X0170207Y0106800D01*
X0171460Y0106800D01*
X0172618Y0106320D01*
X0173504Y0105434D01*
X0173983Y0104277D01*
X0173983Y0103470D01*
X0179385Y0098068D01*
X0180615Y0096838D01*
X0180615Y0093787D01*
X0181283Y0093787D01*
X0181283Y0096761D01*
X0180742Y0097302D01*
X0180262Y0098460D01*
X0180262Y0099713D01*
X0180742Y0100871D01*
X0181628Y0101757D01*
X0182785Y0102237D01*
X0184039Y0102237D01*
X0185196Y0101757D01*
X0186083Y0100871D01*
X0186562Y0099713D01*
X0186562Y0098460D01*
X0186083Y0097302D01*
X0185383Y0096603D01*
X0185383Y0093787D01*
X0186695Y0093787D01*
X0187423Y0093059D01*
X0189820Y0093059D01*
X0193725Y0089153D01*
X0194986Y0087892D01*
X0194986Y0078039D01*
X0201133Y0078039D01*
X0201133Y0091961D01*
X0193161Y0091961D01*
X0192165Y0092957D01*
X0192165Y0099090D01*
X0193161Y0100086D01*
X0201133Y0100086D01*
X0201133Y0119710D01*
X0200645Y0118865D01*
X0200645Y0118865D01*
X0200645Y0118865D01*
X0201133Y0119710D01*
X0201133Y0100086D01*
X0193161Y0100086D01*
X0192165Y0099090D01*
X0192165Y0092957D01*
X0193161Y0091961D01*
X0201133Y0091961D01*
X0201133Y0078039D01*
X0194986Y0078039D01*
X0194986Y0087892D01*
X0193725Y0089153D01*
X0189820Y0093059D01*
X0187423Y0093059D01*
X0186695Y0093787D01*
X0185383Y0093787D01*
X0185383Y0096603D01*
X0186083Y0097302D01*
X0186562Y0098460D01*
X0186562Y0099713D01*
X0186083Y0100871D01*
X0185196Y0101757D01*
X0184039Y0102237D01*
X0182785Y0102237D01*
X0181628Y0101757D01*
X0180742Y0100871D01*
X0180262Y0099713D01*
X0180262Y0098460D01*
X0180742Y0097302D01*
X0181283Y0096761D01*
X0181283Y0093787D01*
X0180615Y0093787D01*
X0180615Y0096838D01*
X0179385Y0098068D01*
X0173983Y0103470D01*
X0173983Y0104277D01*
X0173504Y0105434D01*
X0172618Y0106320D01*
X0171460Y0106800D01*
X0170207Y0106800D01*
X0169049Y0106320D01*
X0168163Y0105434D01*
X0167683Y0104277D01*
X0167683Y0103023D01*
X0168163Y0101866D01*
X0169049Y0100980D01*
X0170207Y0100500D01*
X0171013Y0100500D01*
X0176415Y0095099D01*
X0176415Y0091463D01*
X0175379Y0092500D01*
X0173225Y0094653D01*
X0173150Y0094653D01*
X0171703Y0096100D01*
X0165345Y0096100D01*
X0165345Y0097016D01*
X0162164Y0097016D01*
X0162164Y0097984D01*
X0165345Y0097984D01*
X0165345Y0099666D01*
X0165243Y0100047D01*
X0165045Y0100390D01*
X0164766Y0100669D01*
X0164424Y0100866D01*
X0164043Y0100968D01*
X0162164Y0100968D01*
X0162164Y0097984D01*
X0165345Y0097984D01*
X0165345Y0099666D01*
X0165243Y0100047D01*
X0165045Y0100390D01*
X0164766Y0100669D01*
X0164424Y0100866D01*
X0164043Y0100968D01*
X0162164Y0100968D01*
X0162164Y0097984D01*
X0162164Y0097016D01*
X0165345Y0097016D01*
X0165345Y0096100D01*
X0171703Y0096100D01*
X0173150Y0094653D01*
X0173225Y0094653D01*
X0175379Y0092500D01*
X0176415Y0091463D01*
X0176415Y0095099D01*
X0171013Y0100500D01*
X0170207Y0100500D01*
X0169049Y0100980D01*
X0168163Y0101866D01*
X0167683Y0103023D01*
X0167683Y0104277D01*
X0168163Y0105434D01*
X0169049Y0106320D01*
X0170207Y0106800D01*
X0171460Y0106800D01*
X0172618Y0106320D01*
X0173504Y0105434D01*
X0173983Y0104277D01*
X0173983Y0103470D01*
X0179385Y0098068D01*
X0180615Y0096838D01*
X0180615Y0093787D01*
X0181283Y0093787D01*
X0181283Y0096761D01*
X0180742Y0097302D01*
X0180262Y0098460D01*
X0180262Y0099713D01*
X0180742Y0100871D01*
X0181628Y0101757D01*
X0182785Y0102237D01*
X0184039Y0102237D01*
X0185196Y0101757D01*
X0186083Y0100871D01*
X0186562Y0099713D01*
X0186562Y0098460D01*
X0186083Y0097302D01*
X0185383Y0096603D01*
X0185383Y0093787D01*
X0186695Y0093787D01*
X0187423Y0093059D01*
X0189820Y0093059D01*
X0193725Y0089153D01*
X0194986Y0087892D01*
X0194986Y0078039D01*
X0201133Y0078039D01*
X0201133Y0091961D01*
X0193161Y0091961D01*
X0192165Y0092957D01*
X0192165Y0099090D01*
X0193161Y0100086D01*
X0201133Y0100086D01*
X0201133Y0119710D01*
X0200645Y0118865D01*
X0200645Y0118865D01*
X0200645Y0118865D01*
X0201133Y0119710D01*
X0201133Y0100086D01*
X0193161Y0100086D01*
X0192165Y0099090D01*
X0192165Y0092957D01*
X0193161Y0091961D01*
X0201133Y0091961D01*
X0201133Y0078039D01*
X0194986Y0078039D01*
X0194986Y0087892D01*
X0193725Y0089153D01*
X0189820Y0093059D01*
X0187423Y0093059D01*
X0186695Y0093787D01*
X0185383Y0093787D01*
X0185383Y0096603D01*
X0186083Y0097302D01*
X0186562Y0098460D01*
X0186562Y0099713D01*
X0186083Y0100871D01*
X0185196Y0101757D01*
X0184039Y0102237D01*
X0182785Y0102237D01*
X0181628Y0101757D01*
X0180742Y0100871D01*
X0180262Y0099713D01*
X0180262Y0098460D01*
X0180742Y0097302D01*
X0181283Y0096761D01*
X0181283Y0093787D01*
X0180615Y0093787D01*
X0180615Y0096838D01*
X0179385Y0098068D01*
X0173983Y0103470D01*
X0173983Y0104277D01*
X0173504Y0105434D01*
X0172618Y0106320D01*
X0171460Y0106800D01*
X0170207Y0106800D01*
X0169049Y0106320D01*
X0168163Y0105434D01*
X0167683Y0104277D01*
X0167683Y0103023D01*
X0168163Y0101866D01*
X0169049Y0100980D01*
X0170207Y0100500D01*
X0171013Y0100500D01*
X0176415Y0095099D01*
X0176415Y0091463D01*
X0175379Y0092500D01*
X0173225Y0094653D01*
X0173150Y0094653D01*
X0171703Y0096100D01*
X0165345Y0096100D01*
X0165345Y0097016D01*
X0162164Y0097016D01*
X0162164Y0097984D01*
X0165345Y0097984D01*
X0165345Y0099666D01*
X0165243Y0100047D01*
X0165045Y0100390D01*
X0164766Y0100669D01*
X0164424Y0100866D01*
X0164043Y0100968D01*
X0162164Y0100968D01*
X0162164Y0097984D01*
X0165345Y0097984D01*
X0165345Y0099666D01*
X0165243Y0100047D01*
X0165045Y0100390D01*
X0164766Y0100669D01*
X0164424Y0100866D01*
X0164043Y0100968D01*
X0162164Y0100968D01*
X0162164Y0097984D01*
X0162164Y0097016D01*
X0165345Y0097016D01*
X0165345Y0096100D01*
X0171703Y0096100D01*
X0173150Y0094653D01*
X0173225Y0094653D01*
X0175379Y0092500D01*
X0176415Y0091463D01*
X0176415Y0095099D01*
X0171013Y0100500D01*
X0170207Y0100500D01*
X0169049Y0100980D01*
X0168163Y0101866D01*
X0167683Y0103023D01*
X0167683Y0104277D01*
X0168163Y0105434D01*
X0169049Y0106320D01*
X0170207Y0106800D01*
X0171460Y0106800D01*
X0172618Y0106320D01*
X0173504Y0105434D01*
X0173983Y0104277D01*
X0173983Y0103470D01*
X0179385Y0098068D01*
X0180615Y0096838D01*
X0180615Y0093787D01*
X0181283Y0093787D01*
X0181283Y0096761D01*
X0180742Y0097302D01*
X0180262Y0098460D01*
X0180262Y0099713D01*
X0180742Y0100871D01*
X0181628Y0101757D01*
X0182785Y0102237D01*
X0184039Y0102237D01*
X0185196Y0101757D01*
X0186083Y0100871D01*
X0186562Y0099713D01*
X0186562Y0098460D01*
X0186083Y0097302D01*
X0185383Y0096603D01*
X0185383Y0093787D01*
X0186695Y0093787D01*
X0187423Y0093059D01*
X0189820Y0093059D01*
X0193725Y0089153D01*
X0194986Y0087892D01*
X0194986Y0078039D01*
X0201133Y0078039D01*
X0201133Y0091961D01*
X0193161Y0091961D01*
X0192165Y0092957D01*
X0192165Y0099090D01*
X0193161Y0100086D01*
X0201133Y0100086D01*
X0201133Y0119710D01*
X0200645Y0118865D01*
X0200645Y0118865D01*
X0200645Y0118865D01*
X0201133Y0119710D01*
X0201133Y0100086D01*
X0193161Y0100086D01*
X0192165Y0099090D01*
X0192165Y0092957D01*
X0193161Y0091961D01*
X0201133Y0091961D01*
X0201133Y0078039D01*
X0194986Y0078039D01*
X0194986Y0087892D01*
X0193725Y0089153D01*
X0189820Y0093059D01*
X0187423Y0093059D01*
X0186695Y0093787D01*
X0185383Y0093787D01*
X0185383Y0096603D01*
X0186083Y0097302D01*
X0186562Y0098460D01*
X0186562Y0099713D01*
X0186083Y0100871D01*
X0185196Y0101757D01*
X0184039Y0102237D01*
X0182785Y0102237D01*
X0181628Y0101757D01*
X0180742Y0100871D01*
X0180262Y0099713D01*
X0180262Y0098460D01*
X0180742Y0097302D01*
X0181283Y0096761D01*
X0181283Y0093787D01*
X0180615Y0093787D01*
X0180615Y0096838D01*
X0179385Y0098068D01*
X0173983Y0103470D01*
X0173983Y0104277D01*
X0173504Y0105434D01*
X0172618Y0106320D01*
X0171460Y0106800D01*
X0170207Y0106800D01*
X0169049Y0106320D01*
X0168163Y0105434D01*
X0167683Y0104277D01*
X0167683Y0103023D01*
X0168163Y0101866D01*
X0169049Y0100980D01*
X0170207Y0100500D01*
X0171013Y0100500D01*
X0176415Y0095099D01*
X0176415Y0091463D01*
X0175379Y0092500D01*
X0173225Y0094653D01*
X0173150Y0094653D01*
X0171703Y0096100D01*
X0165345Y0096100D01*
X0165345Y0097016D01*
X0162164Y0097016D01*
X0162164Y0097984D01*
X0165345Y0097984D01*
X0165345Y0099666D01*
X0165243Y0100047D01*
X0165045Y0100390D01*
X0164766Y0100669D01*
X0164424Y0100866D01*
X0164043Y0100968D01*
X0162164Y0100968D01*
X0162164Y0097984D01*
X0161196Y0097984D01*
X0161196Y0100968D01*
X0159317Y0100968D01*
X0158935Y0100866D01*
X0158593Y0100669D01*
X0158475Y0100550D01*
X0157856Y0101168D01*
X0153486Y0101168D01*
X0153486Y0104298D01*
X0154004Y0104816D01*
X0154483Y0105973D01*
X0154483Y0107227D01*
X0154004Y0108384D01*
X0153118Y0109270D01*
X0151960Y0109750D01*
X0150707Y0109750D01*
X0149549Y0109270D01*
X0148663Y0108384D01*
X0148183Y0107227D01*
X0148183Y0105973D01*
X0148663Y0104816D01*
X0149180Y0104298D01*
X0149180Y0097608D01*
X0150441Y0096347D01*
X0151122Y0095667D01*
X0151122Y0094827D01*
X0152117Y0093831D01*
X0152834Y0093831D01*
X0152834Y0093550D01*
X0148105Y0093550D01*
X0147783Y0093228D01*
X0147783Y0077212D01*
X0143161Y0077212D01*
X0142165Y0076216D01*
X0142165Y0075446D01*
X0141933Y0075446D01*
X0141933Y0084645D01*
X0142504Y0085216D01*
X0142983Y0086373D01*
X0142983Y0087627D01*
X0142504Y0088784D01*
X0141618Y0089670D01*
X0140460Y0090150D01*
X0139207Y0090150D01*
X0138049Y0089670D01*
X0137647Y0089268D01*
X0137422Y0089268D01*
X0137491Y0089527D01*
X0137491Y0090815D01*
X0133424Y0090815D01*
X0133424Y0090996D01*
X0137491Y0090996D01*
X0137491Y0092284D01*
X0137389Y0092666D01*
X0137191Y0093008D01*
X0136912Y0093287D01*
X0136570Y0093484D01*
X0136188Y0093587D01*
X0133424Y0093587D01*
X0133424Y0090996D01*
X0137491Y0090996D01*
X0137491Y0092284D01*
X0137389Y0092666D01*
X0137191Y0093008D01*
X0136912Y0093287D01*
X0136570Y0093484D01*
X0136188Y0093587D01*
X0133424Y0093587D01*
X0133424Y0090996D01*
X0133424Y0090815D01*
X0137491Y0090815D01*
X0137491Y0089527D01*
X0137422Y0089268D01*
X0137647Y0089268D01*
X0138049Y0089670D01*
X0139207Y0090150D01*
X0140460Y0090150D01*
X0141618Y0089670D01*
X0142504Y0088784D01*
X0142983Y0087627D01*
X0142983Y0086373D01*
X0142504Y0085216D01*
X0141933Y0084645D01*
X0141933Y0075446D01*
X0142165Y0075446D01*
X0142165Y0076216D01*
X0143161Y0077212D01*
X0147783Y0077212D01*
X0147783Y0093228D01*
X0148105Y0093550D01*
X0152834Y0093550D01*
X0152834Y0093831D01*
X0152117Y0093831D01*
X0151122Y0094827D01*
X0151122Y0095667D01*
X0150441Y0096347D01*
X0149180Y0097608D01*
X0149180Y0104298D01*
X0148663Y0104816D01*
X0148183Y0105973D01*
X0148183Y0107227D01*
X0148663Y0108384D01*
X0149549Y0109270D01*
X0150707Y0109750D01*
X0151960Y0109750D01*
X0153118Y0109270D01*
X0154004Y0108384D01*
X0154483Y0107227D01*
X0154483Y0105973D01*
X0154004Y0104816D01*
X0153486Y0104298D01*
X0153486Y0101168D01*
X0157856Y0101168D01*
X0158475Y0100550D01*
X0158593Y0100669D01*
X0158935Y0100866D01*
X0159317Y0100968D01*
X0161196Y0100968D01*
X0161196Y0097984D01*
X0162164Y0097984D01*
X0161196Y0097984D01*
X0161196Y0100968D01*
X0159317Y0100968D01*
X0158935Y0100866D01*
X0158593Y0100669D01*
X0158475Y0100550D01*
X0157856Y0101168D01*
X0153486Y0101168D01*
X0153486Y0104298D01*
X0154004Y0104816D01*
X0154483Y0105973D01*
X0154483Y0107227D01*
X0154004Y0108384D01*
X0153118Y0109270D01*
X0151960Y0109750D01*
X0150707Y0109750D01*
X0149549Y0109270D01*
X0148663Y0108384D01*
X0148183Y0107227D01*
X0148183Y0105973D01*
X0148663Y0104816D01*
X0149180Y0104298D01*
X0149180Y0097608D01*
X0150441Y0096347D01*
X0151122Y0095667D01*
X0151122Y0094827D01*
X0152117Y0093831D01*
X0152834Y0093831D01*
X0152834Y0093550D01*
X0148105Y0093550D01*
X0147783Y0093228D01*
X0147783Y0077212D01*
X0143161Y0077212D01*
X0142165Y0076216D01*
X0142165Y0075446D01*
X0141933Y0075446D01*
X0141933Y0084645D01*
X0142504Y0085216D01*
X0142983Y0086373D01*
X0142983Y0087627D01*
X0142504Y0088784D01*
X0141618Y0089670D01*
X0140460Y0090150D01*
X0139207Y0090150D01*
X0138049Y0089670D01*
X0137647Y0089268D01*
X0137422Y0089268D01*
X0137491Y0089527D01*
X0137491Y0090815D01*
X0133424Y0090815D01*
X0133424Y0090996D01*
X0137491Y0090996D01*
X0137491Y0092284D01*
X0137389Y0092666D01*
X0137191Y0093008D01*
X0136912Y0093287D01*
X0136570Y0093484D01*
X0136188Y0093587D01*
X0133424Y0093587D01*
X0133424Y0090996D01*
X0137491Y0090996D01*
X0137491Y0092284D01*
X0137389Y0092666D01*
X0137191Y0093008D01*
X0136912Y0093287D01*
X0136570Y0093484D01*
X0136188Y0093587D01*
X0133424Y0093587D01*
X0133424Y0090996D01*
X0133424Y0090815D01*
X0137491Y0090815D01*
X0137491Y0089527D01*
X0137422Y0089268D01*
X0137647Y0089268D01*
X0138049Y0089670D01*
X0139207Y0090150D01*
X0140460Y0090150D01*
X0141618Y0089670D01*
X0142504Y0088784D01*
X0142983Y0087627D01*
X0142983Y0086373D01*
X0142504Y0085216D01*
X0141933Y0084645D01*
X0141933Y0075446D01*
X0142165Y0075446D01*
X0142165Y0076216D01*
X0143161Y0077212D01*
X0147783Y0077212D01*
X0147783Y0093228D01*
X0148105Y0093550D01*
X0152834Y0093550D01*
X0152834Y0093831D01*
X0152117Y0093831D01*
X0151122Y0094827D01*
X0151122Y0095667D01*
X0150441Y0096347D01*
X0149180Y0097608D01*
X0149180Y0104298D01*
X0148663Y0104816D01*
X0148183Y0105973D01*
X0148183Y0107227D01*
X0148663Y0108384D01*
X0149549Y0109270D01*
X0150707Y0109750D01*
X0151960Y0109750D01*
X0153118Y0109270D01*
X0154004Y0108384D01*
X0154483Y0107227D01*
X0154483Y0105973D01*
X0154004Y0104816D01*
X0153486Y0104298D01*
X0153486Y0101168D01*
X0157856Y0101168D01*
X0158475Y0100550D01*
X0158593Y0100669D01*
X0158935Y0100866D01*
X0159317Y0100968D01*
X0161196Y0100968D01*
X0161196Y0097984D01*
X0162164Y0097984D01*
X0161196Y0097984D01*
X0161196Y0100968D01*
X0159317Y0100968D01*
X0158935Y0100866D01*
X0158593Y0100669D01*
X0158475Y0100550D01*
X0157856Y0101168D01*
X0153486Y0101168D01*
X0153486Y0104298D01*
X0154004Y0104816D01*
X0154483Y0105973D01*
X0154483Y0107227D01*
X0154004Y0108384D01*
X0153118Y0109270D01*
X0151960Y0109750D01*
X0150707Y0109750D01*
X0149549Y0109270D01*
X0148663Y0108384D01*
X0148183Y0107227D01*
X0148183Y0105973D01*
X0148663Y0104816D01*
X0149180Y0104298D01*
X0149180Y0097608D01*
X0150441Y0096347D01*
X0151122Y0095667D01*
X0151122Y0094827D01*
X0152117Y0093831D01*
X0152834Y0093831D01*
X0152834Y0093550D01*
X0148105Y0093550D01*
X0147783Y0093228D01*
X0147783Y0077212D01*
X0143161Y0077212D01*
X0142165Y0076216D01*
X0142165Y0075446D01*
X0141933Y0075446D01*
X0141933Y0084645D01*
X0142504Y0085216D01*
X0142983Y0086373D01*
X0142983Y0087627D01*
X0142504Y0088784D01*
X0141618Y0089670D01*
X0140460Y0090150D01*
X0139207Y0090150D01*
X0138049Y0089670D01*
X0137647Y0089268D01*
X0137422Y0089268D01*
X0137491Y0089527D01*
X0137491Y0090815D01*
X0133424Y0090815D01*
X0133424Y0090996D01*
X0137491Y0090996D01*
X0137491Y0092284D01*
X0137389Y0092666D01*
X0137191Y0093008D01*
X0136912Y0093287D01*
X0136570Y0093484D01*
X0136188Y0093587D01*
X0133424Y0093587D01*
X0133424Y0090996D01*
X0137491Y0090996D01*
X0137491Y0092284D01*
X0137389Y0092666D01*
X0137191Y0093008D01*
X0136912Y0093287D01*
X0136570Y0093484D01*
X0136188Y0093587D01*
X0133424Y0093587D01*
X0133424Y0090996D01*
X0133424Y0090815D01*
X0137491Y0090815D01*
X0137491Y0089527D01*
X0137422Y0089268D01*
X0137647Y0089268D01*
X0138049Y0089670D01*
X0139207Y0090150D01*
X0140460Y0090150D01*
X0141618Y0089670D01*
X0142504Y0088784D01*
X0142983Y0087627D01*
X0142983Y0086373D01*
X0142504Y0085216D01*
X0141933Y0084645D01*
X0141933Y0075446D01*
X0142165Y0075446D01*
X0142165Y0076216D01*
X0143161Y0077212D01*
X0147783Y0077212D01*
X0147783Y0093228D01*
X0148105Y0093550D01*
X0152834Y0093550D01*
X0152834Y0093831D01*
X0152117Y0093831D01*
X0151122Y0094827D01*
X0151122Y0095667D01*
X0150441Y0096347D01*
X0149180Y0097608D01*
X0149180Y0104298D01*
X0148663Y0104816D01*
X0148183Y0105973D01*
X0148183Y0107227D01*
X0148663Y0108384D01*
X0149549Y0109270D01*
X0150707Y0109750D01*
X0151960Y0109750D01*
X0153118Y0109270D01*
X0154004Y0108384D01*
X0154483Y0107227D01*
X0154483Y0105973D01*
X0154004Y0104816D01*
X0153486Y0104298D01*
X0153486Y0101168D01*
X0157856Y0101168D01*
X0158475Y0100550D01*
X0158593Y0100669D01*
X0158935Y0100866D01*
X0159317Y0100968D01*
X0161196Y0100968D01*
X0161196Y0097984D01*
X0162164Y0097984D01*
X0161196Y0097984D01*
X0161196Y0100968D01*
X0159317Y0100968D01*
X0158935Y0100866D01*
X0158593Y0100669D01*
X0158475Y0100550D01*
X0157856Y0101168D01*
X0153486Y0101168D01*
X0153486Y0104298D01*
X0154004Y0104816D01*
X0154483Y0105973D01*
X0154483Y0107227D01*
X0154004Y0108384D01*
X0153118Y0109270D01*
X0151960Y0109750D01*
X0150707Y0109750D01*
X0149549Y0109270D01*
X0148663Y0108384D01*
X0148183Y0107227D01*
X0148183Y0105973D01*
X0148663Y0104816D01*
X0149180Y0104298D01*
X0149180Y0097608D01*
X0150441Y0096347D01*
X0151122Y0095667D01*
X0151122Y0094827D01*
X0152117Y0093831D01*
X0152834Y0093831D01*
X0152834Y0093550D01*
X0148105Y0093550D01*
X0147783Y0093228D01*
X0147783Y0077212D01*
X0143161Y0077212D01*
X0142165Y0076216D01*
X0142165Y0075446D01*
X0141933Y0075446D01*
X0141933Y0084645D01*
X0142504Y0085216D01*
X0142983Y0086373D01*
X0142983Y0087627D01*
X0142504Y0088784D01*
X0141618Y0089670D01*
X0140460Y0090150D01*
X0139207Y0090150D01*
X0138049Y0089670D01*
X0137647Y0089268D01*
X0137422Y0089268D01*
X0137491Y0089527D01*
X0137491Y0090815D01*
X0133424Y0090815D01*
X0133424Y0090996D01*
X0137491Y0090996D01*
X0137491Y0092284D01*
X0137389Y0092666D01*
X0137191Y0093008D01*
X0136912Y0093287D01*
X0136570Y0093484D01*
X0136188Y0093587D01*
X0133424Y0093587D01*
X0133424Y0090996D01*
X0133243Y0090996D01*
X0133243Y0093587D01*
X0130478Y0093587D01*
X0130097Y0093484D01*
X0129755Y0093287D01*
X0129476Y0093008D01*
X0129278Y0092666D01*
X0129176Y0092284D01*
X0129176Y0090996D01*
X0133243Y0090996D01*
X0133243Y0093587D01*
X0130478Y0093587D01*
X0130097Y0093484D01*
X0129755Y0093287D01*
X0129476Y0093008D01*
X0129278Y0092666D01*
X0129176Y0092284D01*
X0129176Y0090996D01*
X0133243Y0090996D01*
X0133424Y0090996D01*
X0133243Y0090996D01*
X0133243Y0093587D01*
X0130478Y0093587D01*
X0130097Y0093484D01*
X0129755Y0093287D01*
X0129476Y0093008D01*
X0129278Y0092666D01*
X0129176Y0092284D01*
X0129176Y0090996D01*
X0133243Y0090996D01*
X0133243Y0093587D01*
X0130478Y0093587D01*
X0130097Y0093484D01*
X0129755Y0093287D01*
X0129476Y0093008D01*
X0129278Y0092666D01*
X0129176Y0092284D01*
X0129176Y0090996D01*
X0133243Y0090996D01*
X0133424Y0090996D01*
X0133243Y0090996D01*
X0133243Y0093587D01*
X0130478Y0093587D01*
X0130097Y0093484D01*
X0129755Y0093287D01*
X0129476Y0093008D01*
X0129278Y0092666D01*
X0129176Y0092284D01*
X0129176Y0090996D01*
X0133243Y0090996D01*
X0133243Y0093587D01*
X0130478Y0093587D01*
X0130097Y0093484D01*
X0129755Y0093287D01*
X0129476Y0093008D01*
X0129278Y0092666D01*
X0129176Y0092284D01*
X0129176Y0090996D01*
X0133243Y0090996D01*
X0133424Y0090996D01*
X0133243Y0090996D01*
X0133243Y0093587D01*
X0130478Y0093587D01*
X0130097Y0093484D01*
X0129755Y0093287D01*
X0129476Y0093008D01*
X0129278Y0092666D01*
X0129176Y0092284D01*
X0129176Y0090996D01*
X0133243Y0090996D01*
X0133243Y0090815D01*
X0129176Y0090815D01*
X0129176Y0089527D01*
X0129276Y0089154D01*
X0128976Y0088854D01*
X0128976Y0085083D01*
X0129059Y0085000D01*
X0128976Y0084917D01*
X0128976Y0081146D01*
X0129059Y0081063D01*
X0128976Y0080980D01*
X0128976Y0077209D01*
X0129972Y0076213D01*
X0131233Y0076213D01*
X0131233Y0072355D01*
X0130663Y0071784D01*
X0130183Y0070627D01*
X0130183Y0069373D01*
X0130663Y0068216D01*
X0131549Y0067330D01*
X0132707Y0066850D01*
X0133960Y0066850D01*
X0135118Y0067330D01*
X0136004Y0068216D01*
X0136233Y0068770D01*
X0136233Y0063594D01*
X0141625Y0058202D01*
X0141549Y0058170D01*
X0140663Y0057284D01*
X0140183Y0056127D01*
X0140183Y0054873D01*
X0140663Y0053716D01*
X0141233Y0053145D01*
X0141233Y0052100D01*
X0130318Y0052100D01*
X0130545Y0052327D01*
X0130545Y0057673D01*
X0130455Y0057763D01*
X0130455Y0062327D01*
X0129113Y0063668D01*
X0124459Y0063668D01*
X0123122Y0062331D01*
X0122931Y0062662D01*
X0122542Y0063051D01*
X0122065Y0063326D01*
X0121534Y0063468D01*
X0120365Y0063468D01*
X0120365Y0060484D01*
X0119396Y0060484D01*
X0116412Y0060484D01*
X0116412Y0061653D01*
X0116555Y0062185D01*
X0116830Y0062662D01*
X0117219Y0063051D01*
X0117696Y0063326D01*
X0118227Y0063468D01*
X0119396Y0063468D01*
X0119396Y0060484D01*
X0119396Y0059516D01*
X0116412Y0059516D01*
X0116412Y0058347D01*
X0116493Y0058044D01*
X0116122Y0057673D01*
X0116422Y0057973D02*
X0115533Y0057973D01*
X0116422Y0057973D01*
X0115533Y0057973D01*
X0116422Y0057973D01*
X0115533Y0057973D01*
X0116422Y0057973D01*
X0115533Y0057973D01*
X0115533Y0058972D02*
X0116412Y0058972D01*
X0115533Y0058972D01*
X0116412Y0058972D01*
X0115533Y0058972D01*
X0116412Y0058972D01*
X0115533Y0058972D01*
X0116412Y0058972D01*
X0115533Y0059970D02*
X0119396Y0059970D01*
X0115533Y0059970D01*
X0119396Y0059970D01*
X0115533Y0059970D01*
X0119396Y0059970D01*
X0115533Y0059970D01*
X0119396Y0059970D01*
X0119396Y0060484D02*
X0116412Y0060484D01*
X0116412Y0061653D01*
X0116555Y0062185D01*
X0116830Y0062662D01*
X0117219Y0063051D01*
X0117696Y0063326D01*
X0118227Y0063468D01*
X0119396Y0063468D01*
X0119396Y0060484D01*
X0120365Y0060484D01*
X0120365Y0063468D01*
X0121534Y0063468D01*
X0122065Y0063326D01*
X0122542Y0063051D01*
X0122931Y0062662D01*
X0123122Y0062331D01*
X0124459Y0063668D01*
X0129113Y0063668D01*
X0130455Y0062327D01*
X0130455Y0057763D01*
X0130545Y0057673D01*
X0130545Y0052327D01*
X0130318Y0052100D01*
X0141233Y0052100D01*
X0141233Y0053145D01*
X0140663Y0053716D01*
X0140183Y0054873D01*
X0140183Y0056127D01*
X0140663Y0057284D01*
X0141549Y0058170D01*
X0141625Y0058202D01*
X0136233Y0063594D01*
X0136233Y0068770D01*
X0136004Y0068216D01*
X0135118Y0067330D01*
X0133960Y0066850D01*
X0132707Y0066850D01*
X0131549Y0067330D01*
X0130663Y0068216D01*
X0130183Y0069373D01*
X0130183Y0070627D01*
X0130663Y0071784D01*
X0131233Y0072355D01*
X0131233Y0076213D01*
X0129972Y0076213D01*
X0128976Y0077209D01*
X0128976Y0080980D01*
X0129059Y0081063D01*
X0128976Y0081146D01*
X0128976Y0084917D01*
X0129059Y0085000D01*
X0128976Y0085083D01*
X0128976Y0088854D01*
X0129276Y0089154D01*
X0129176Y0089527D01*
X0129176Y0090815D01*
X0133243Y0090815D01*
X0133243Y0090996D01*
X0133243Y0090815D01*
X0129176Y0090815D01*
X0129176Y0089527D01*
X0129276Y0089154D01*
X0128976Y0088854D01*
X0128976Y0085083D01*
X0129059Y0085000D01*
X0128976Y0084917D01*
X0128976Y0081146D01*
X0129059Y0081063D01*
X0128976Y0080980D01*
X0128976Y0077209D01*
X0129972Y0076213D01*
X0131233Y0076213D01*
X0131233Y0072355D01*
X0130663Y0071784D01*
X0130183Y0070627D01*
X0130183Y0069373D01*
X0130663Y0068216D01*
X0131549Y0067330D01*
X0132707Y0066850D01*
X0133960Y0066850D01*
X0135118Y0067330D01*
X0136004Y0068216D01*
X0136233Y0068770D01*
X0136233Y0063594D01*
X0141625Y0058202D01*
X0141549Y0058170D01*
X0140663Y0057284D01*
X0140183Y0056127D01*
X0140183Y0054873D01*
X0140663Y0053716D01*
X0141233Y0053145D01*
X0141233Y0052100D01*
X0130318Y0052100D01*
X0130545Y0052327D01*
X0130545Y0057673D01*
X0130455Y0057763D01*
X0130455Y0062327D01*
X0129113Y0063668D01*
X0124459Y0063668D01*
X0123122Y0062331D01*
X0122931Y0062662D01*
X0122542Y0063051D01*
X0122065Y0063326D01*
X0121534Y0063468D01*
X0120365Y0063468D01*
X0120365Y0060484D01*
X0119396Y0060484D01*
X0120365Y0060484D01*
X0120365Y0063468D01*
X0121534Y0063468D01*
X0122065Y0063326D01*
X0122542Y0063051D01*
X0122931Y0062662D01*
X0123122Y0062331D01*
X0124459Y0063668D01*
X0129113Y0063668D01*
X0130455Y0062327D01*
X0130455Y0057763D01*
X0130545Y0057673D01*
X0130545Y0052327D01*
X0130318Y0052100D01*
X0141233Y0052100D01*
X0141233Y0053145D01*
X0140663Y0053716D01*
X0140183Y0054873D01*
X0140183Y0056127D01*
X0140663Y0057284D01*
X0141549Y0058170D01*
X0141625Y0058202D01*
X0136233Y0063594D01*
X0136233Y0068770D01*
X0136004Y0068216D01*
X0135118Y0067330D01*
X0133960Y0066850D01*
X0132707Y0066850D01*
X0131549Y0067330D01*
X0130663Y0068216D01*
X0130183Y0069373D01*
X0130183Y0070627D01*
X0130663Y0071784D01*
X0131233Y0072355D01*
X0131233Y0076213D01*
X0129972Y0076213D01*
X0128976Y0077209D01*
X0128976Y0080980D01*
X0129059Y0081063D01*
X0128976Y0081146D01*
X0128976Y0084917D01*
X0129059Y0085000D01*
X0128976Y0085083D01*
X0128976Y0088854D01*
X0129276Y0089154D01*
X0129176Y0089527D01*
X0129176Y0090815D01*
X0133243Y0090815D01*
X0133243Y0090996D01*
X0133243Y0090815D01*
X0129176Y0090815D01*
X0129176Y0089527D01*
X0129276Y0089154D01*
X0128976Y0088854D01*
X0128976Y0085083D01*
X0129059Y0085000D01*
X0128976Y0084917D01*
X0128976Y0081146D01*
X0129059Y0081063D01*
X0128976Y0080980D01*
X0128976Y0077209D01*
X0129972Y0076213D01*
X0131233Y0076213D01*
X0131233Y0072355D01*
X0130663Y0071784D01*
X0130183Y0070627D01*
X0130183Y0069373D01*
X0130663Y0068216D01*
X0131549Y0067330D01*
X0132707Y0066850D01*
X0133960Y0066850D01*
X0135118Y0067330D01*
X0136004Y0068216D01*
X0136233Y0068770D01*
X0136233Y0063594D01*
X0141625Y0058202D01*
X0141549Y0058170D01*
X0140663Y0057284D01*
X0140183Y0056127D01*
X0140183Y0054873D01*
X0140663Y0053716D01*
X0141233Y0053145D01*
X0141233Y0052100D01*
X0130318Y0052100D01*
X0130545Y0052327D01*
X0130545Y0057673D01*
X0130455Y0057763D01*
X0130455Y0062327D01*
X0129113Y0063668D01*
X0124459Y0063668D01*
X0123122Y0062331D01*
X0122931Y0062662D01*
X0122542Y0063051D01*
X0122065Y0063326D01*
X0121534Y0063468D01*
X0120365Y0063468D01*
X0120365Y0060484D01*
X0119396Y0060484D01*
X0120365Y0060484D01*
X0120365Y0063468D01*
X0121534Y0063468D01*
X0122065Y0063326D01*
X0122542Y0063051D01*
X0122931Y0062662D01*
X0123122Y0062331D01*
X0124459Y0063668D01*
X0129113Y0063668D01*
X0130455Y0062327D01*
X0130455Y0057763D01*
X0130545Y0057673D01*
X0130545Y0052327D01*
X0130318Y0052100D01*
X0141233Y0052100D01*
X0141233Y0053145D01*
X0140663Y0053716D01*
X0140183Y0054873D01*
X0140183Y0056127D01*
X0140663Y0057284D01*
X0141549Y0058170D01*
X0141625Y0058202D01*
X0136233Y0063594D01*
X0136233Y0068770D01*
X0136004Y0068216D01*
X0135118Y0067330D01*
X0133960Y0066850D01*
X0132707Y0066850D01*
X0131549Y0067330D01*
X0130663Y0068216D01*
X0130183Y0069373D01*
X0130183Y0070627D01*
X0130663Y0071784D01*
X0131233Y0072355D01*
X0131233Y0076213D01*
X0129972Y0076213D01*
X0128976Y0077209D01*
X0128976Y0080980D01*
X0129059Y0081063D01*
X0128976Y0081146D01*
X0128976Y0084917D01*
X0129059Y0085000D01*
X0128976Y0085083D01*
X0128976Y0088854D01*
X0129276Y0089154D01*
X0129176Y0089527D01*
X0129176Y0090815D01*
X0133243Y0090815D01*
X0133243Y0090996D01*
X0133243Y0090815D01*
X0129176Y0090815D01*
X0129176Y0089527D01*
X0129276Y0089154D01*
X0128976Y0088854D01*
X0128976Y0085083D01*
X0129059Y0085000D01*
X0128976Y0084917D01*
X0128976Y0081146D01*
X0129059Y0081063D01*
X0128976Y0080980D01*
X0128976Y0077209D01*
X0129972Y0076213D01*
X0131233Y0076213D01*
X0131233Y0072355D01*
X0130663Y0071784D01*
X0130183Y0070627D01*
X0130183Y0069373D01*
X0130663Y0068216D01*
X0131549Y0067330D01*
X0132707Y0066850D01*
X0133960Y0066850D01*
X0135118Y0067330D01*
X0136004Y0068216D01*
X0136233Y0068770D01*
X0136233Y0063594D01*
X0141625Y0058202D01*
X0141549Y0058170D01*
X0140663Y0057284D01*
X0140183Y0056127D01*
X0140183Y0054873D01*
X0140663Y0053716D01*
X0141233Y0053145D01*
X0141233Y0052100D01*
X0130318Y0052100D01*
X0130545Y0052327D01*
X0130545Y0057673D01*
X0130455Y0057763D01*
X0130455Y0062327D01*
X0129113Y0063668D01*
X0124459Y0063668D01*
X0123122Y0062331D01*
X0122931Y0062662D01*
X0122542Y0063051D01*
X0122065Y0063326D01*
X0121534Y0063468D01*
X0120365Y0063468D01*
X0120365Y0060484D01*
X0119396Y0060484D01*
X0119396Y0060969D02*
X0120365Y0060969D01*
X0119396Y0060969D01*
X0120365Y0060969D01*
X0119396Y0060969D01*
X0120365Y0060969D01*
X0119396Y0060969D01*
X0120365Y0060969D01*
X0120365Y0061967D02*
X0119396Y0061967D01*
X0120365Y0061967D01*
X0119396Y0061967D01*
X0120365Y0061967D01*
X0119396Y0061967D01*
X0120365Y0061967D01*
X0119396Y0061967D01*
X0119396Y0062966D02*
X0120365Y0062966D01*
X0119396Y0062966D01*
X0120365Y0062966D01*
X0119396Y0062966D01*
X0120365Y0062966D01*
X0119396Y0062966D01*
X0120365Y0062966D01*
X0122627Y0062966D02*
X0123757Y0062966D01*
X0122627Y0062966D01*
X0123757Y0062966D01*
X0122627Y0062966D01*
X0123757Y0062966D01*
X0122627Y0062966D01*
X0123757Y0062966D01*
X0129816Y0062966D02*
X0136862Y0062966D01*
X0129816Y0062966D01*
X0136862Y0062966D01*
X0129816Y0062966D01*
X0136862Y0062966D01*
X0129816Y0062966D01*
X0136862Y0062966D01*
X0136233Y0063964D02*
X0115533Y0063964D01*
X0136233Y0063964D01*
X0115533Y0063964D01*
X0136233Y0063964D01*
X0115533Y0063964D01*
X0136233Y0063964D01*
X0115533Y0063964D01*
X0115533Y0062966D02*
X0117134Y0062966D01*
X0115533Y0062966D01*
X0117134Y0062966D01*
X0115533Y0062966D01*
X0117134Y0062966D01*
X0115533Y0062966D01*
X0117134Y0062966D01*
X0116496Y0061967D02*
X0115533Y0061967D01*
X0116496Y0061967D01*
X0115533Y0061967D01*
X0116496Y0061967D01*
X0115533Y0061967D01*
X0116496Y0061967D01*
X0115533Y0061967D01*
X0115533Y0060969D02*
X0116412Y0060969D01*
X0115533Y0060969D01*
X0116412Y0060969D01*
X0115533Y0060969D01*
X0116412Y0060969D01*
X0115533Y0060969D01*
X0116412Y0060969D01*
X0115533Y0064963D02*
X0136233Y0064963D01*
X0115533Y0064963D01*
X0136233Y0064963D01*
X0115533Y0064963D01*
X0136233Y0064963D01*
X0115533Y0064963D01*
X0136233Y0064963D01*
X0136233Y0065961D02*
X0115533Y0065961D01*
X0136233Y0065961D01*
X0115533Y0065961D01*
X0136233Y0065961D01*
X0115533Y0065961D01*
X0136233Y0065961D01*
X0115533Y0065961D01*
X0115533Y0066960D02*
X0132442Y0066960D01*
X0115533Y0066960D01*
X0132442Y0066960D01*
X0115533Y0066960D01*
X0132442Y0066960D01*
X0115533Y0066960D01*
X0132442Y0066960D01*
X0134225Y0066960D02*
X0136233Y0066960D01*
X0134225Y0066960D01*
X0136233Y0066960D01*
X0134225Y0066960D01*
X0136233Y0066960D01*
X0134225Y0066960D01*
X0136233Y0066960D01*
X0136233Y0067958D02*
X0135746Y0067958D01*
X0136233Y0067958D01*
X0135746Y0067958D01*
X0136233Y0067958D01*
X0135746Y0067958D01*
X0136233Y0067958D01*
X0135746Y0067958D01*
X0130920Y0067958D02*
X0115533Y0067958D01*
X0130920Y0067958D01*
X0115533Y0067958D01*
X0130920Y0067958D01*
X0115533Y0067958D01*
X0130920Y0067958D01*
X0115533Y0067958D01*
X0115533Y0068957D02*
X0130356Y0068957D01*
X0115533Y0068957D01*
X0130356Y0068957D01*
X0115533Y0068957D01*
X0130356Y0068957D01*
X0115533Y0068957D01*
X0130356Y0068957D01*
X0130183Y0069955D02*
X0123547Y0069955D01*
X0130183Y0069955D01*
X0123547Y0069955D01*
X0130183Y0069955D01*
X0123547Y0069955D01*
X0130183Y0069955D01*
X0123547Y0069955D01*
X0124502Y0070954D02*
X0130319Y0070954D01*
X0124502Y0070954D01*
X0130319Y0070954D01*
X0124502Y0070954D01*
X0130319Y0070954D01*
X0124502Y0070954D01*
X0130319Y0070954D01*
X0130831Y0071952D02*
X0124502Y0071952D01*
X0130831Y0071952D01*
X0124502Y0071952D01*
X0130831Y0071952D01*
X0124502Y0071952D01*
X0130831Y0071952D01*
X0124502Y0071952D01*
X0124502Y0072951D02*
X0131233Y0072951D01*
X0124502Y0072951D01*
X0131233Y0072951D01*
X0124502Y0072951D01*
X0131233Y0072951D01*
X0124502Y0072951D01*
X0131233Y0072951D01*
X0131233Y0073949D02*
X0124502Y0073949D01*
X0131233Y0073949D01*
X0124502Y0073949D01*
X0131233Y0073949D01*
X0124502Y0073949D01*
X0131233Y0073949D01*
X0124502Y0073949D01*
X0124502Y0074948D02*
X0131233Y0074948D01*
X0124502Y0074948D01*
X0131233Y0074948D01*
X0124502Y0074948D01*
X0131233Y0074948D01*
X0124502Y0074948D01*
X0131233Y0074948D01*
X0131233Y0075946D02*
X0124502Y0075946D01*
X0131233Y0075946D01*
X0124502Y0075946D01*
X0131233Y0075946D01*
X0124502Y0075946D01*
X0131233Y0075946D01*
X0124502Y0075946D01*
X0124502Y0076945D02*
X0129240Y0076945D01*
X0124502Y0076945D01*
X0129240Y0076945D01*
X0124502Y0076945D01*
X0129240Y0076945D01*
X0124502Y0076945D01*
X0129240Y0076945D01*
X0128976Y0077943D02*
X0123601Y0077943D01*
X0128976Y0077943D01*
X0123601Y0077943D01*
X0128976Y0077943D01*
X0123601Y0077943D01*
X0128976Y0077943D01*
X0123601Y0077943D01*
X0128976Y0078942D02*
X0115533Y0078942D01*
X0128976Y0078942D01*
X0115533Y0078942D01*
X0128976Y0078942D01*
X0115533Y0078942D01*
X0128976Y0078942D01*
X0115533Y0078942D01*
X0115533Y0079940D02*
X0128976Y0079940D01*
X0115533Y0079940D01*
X0128976Y0079940D01*
X0115533Y0079940D01*
X0128976Y0079940D01*
X0115533Y0079940D01*
X0128976Y0079940D01*
X0128976Y0080939D02*
X0115533Y0080939D01*
X0128976Y0080939D01*
X0115533Y0080939D01*
X0128976Y0080939D01*
X0115533Y0080939D01*
X0128976Y0080939D01*
X0115533Y0080939D01*
X0115533Y0081937D02*
X0128976Y0081937D01*
X0115533Y0081937D01*
X0128976Y0081937D01*
X0115533Y0081937D01*
X0128976Y0081937D01*
X0115533Y0081937D01*
X0128976Y0081937D01*
X0128976Y0082936D02*
X0115533Y0082936D01*
X0128976Y0082936D01*
X0115533Y0082936D01*
X0128976Y0082936D01*
X0115533Y0082936D01*
X0128976Y0082936D01*
X0115533Y0082936D01*
X0115533Y0083934D02*
X0128976Y0083934D01*
X0115533Y0083934D01*
X0128976Y0083934D01*
X0115533Y0083934D01*
X0128976Y0083934D01*
X0115533Y0083934D01*
X0128976Y0083934D01*
X0128992Y0084933D02*
X0115533Y0084933D01*
X0128992Y0084933D01*
X0115533Y0084933D01*
X0128992Y0084933D01*
X0115533Y0084933D01*
X0128992Y0084933D01*
X0115533Y0084933D01*
X0115533Y0085932D02*
X0128976Y0085932D01*
X0115533Y0085932D01*
X0128976Y0085932D01*
X0115533Y0085932D01*
X0128976Y0085932D01*
X0115533Y0085932D01*
X0128976Y0085932D01*
X0128976Y0086930D02*
X0115533Y0086930D01*
X0128976Y0086930D01*
X0115533Y0086930D01*
X0128976Y0086930D01*
X0115533Y0086930D01*
X0128976Y0086930D01*
X0115533Y0086930D01*
X0115533Y0087929D02*
X0128976Y0087929D01*
X0115533Y0087929D01*
X0128976Y0087929D01*
X0115533Y0087929D01*
X0128976Y0087929D01*
X0115533Y0087929D01*
X0128976Y0087929D01*
X0129049Y0088927D02*
X0115533Y0088927D01*
X0129049Y0088927D01*
X0115533Y0088927D01*
X0129049Y0088927D01*
X0115533Y0088927D01*
X0129049Y0088927D01*
X0115533Y0088927D01*
X0115533Y0089926D02*
X0129176Y0089926D01*
X0115533Y0089926D01*
X0129176Y0089926D01*
X0115533Y0089926D01*
X0129176Y0089926D01*
X0115533Y0089926D01*
X0129176Y0089926D01*
X0129176Y0091923D02*
X0115533Y0091923D01*
X0129176Y0091923D01*
X0115533Y0091923D01*
X0129176Y0091923D01*
X0115533Y0091923D01*
X0129176Y0091923D01*
X0115533Y0091923D01*
X0115533Y0090924D02*
X0133243Y0090924D01*
X0115533Y0090924D01*
X0133243Y0090924D01*
X0115533Y0090924D01*
X0133243Y0090924D01*
X0115533Y0090924D01*
X0133243Y0090924D01*
X0133424Y0090924D02*
X0147783Y0090924D01*
X0133424Y0090924D01*
X0147783Y0090924D01*
X0133424Y0090924D01*
X0147783Y0090924D01*
X0133424Y0090924D01*
X0147783Y0090924D01*
X0147783Y0089926D02*
X0141002Y0089926D01*
X0147783Y0089926D01*
X0141002Y0089926D01*
X0147783Y0089926D01*
X0141002Y0089926D01*
X0147783Y0089926D01*
X0141002Y0089926D01*
X0142361Y0088927D02*
X0147783Y0088927D01*
X0142361Y0088927D01*
X0147783Y0088927D01*
X0142361Y0088927D01*
X0147783Y0088927D01*
X0142361Y0088927D01*
X0147783Y0088927D01*
X0147783Y0087929D02*
X0142858Y0087929D01*
X0147783Y0087929D01*
X0142858Y0087929D01*
X0147783Y0087929D01*
X0142858Y0087929D01*
X0147783Y0087929D01*
X0142858Y0087929D01*
X0142983Y0086930D02*
X0147783Y0086930D01*
X0142983Y0086930D01*
X0147783Y0086930D01*
X0142983Y0086930D01*
X0147783Y0086930D01*
X0142983Y0086930D01*
X0147783Y0086930D01*
X0147783Y0085932D02*
X0142800Y0085932D01*
X0147783Y0085932D01*
X0142800Y0085932D01*
X0147783Y0085932D01*
X0142800Y0085932D01*
X0147783Y0085932D01*
X0142800Y0085932D01*
X0142221Y0084933D02*
X0147783Y0084933D01*
X0142221Y0084933D01*
X0147783Y0084933D01*
X0142221Y0084933D01*
X0147783Y0084933D01*
X0142221Y0084933D01*
X0147783Y0084933D01*
X0147783Y0083934D02*
X0141933Y0083934D01*
X0147783Y0083934D01*
X0141933Y0083934D01*
X0147783Y0083934D01*
X0141933Y0083934D01*
X0147783Y0083934D01*
X0141933Y0083934D01*
X0141933Y0082936D02*
X0147783Y0082936D01*
X0141933Y0082936D01*
X0147783Y0082936D01*
X0141933Y0082936D01*
X0147783Y0082936D01*
X0141933Y0082936D01*
X0147783Y0082936D01*
X0147783Y0081937D02*
X0141933Y0081937D01*
X0147783Y0081937D01*
X0141933Y0081937D01*
X0147783Y0081937D01*
X0141933Y0081937D01*
X0147783Y0081937D01*
X0141933Y0081937D01*
X0141933Y0080939D02*
X0147783Y0080939D01*
X0141933Y0080939D01*
X0147783Y0080939D01*
X0141933Y0080939D01*
X0147783Y0080939D01*
X0141933Y0080939D01*
X0147783Y0080939D01*
X0147783Y0079940D02*
X0141933Y0079940D01*
X0147783Y0079940D01*
X0141933Y0079940D01*
X0147783Y0079940D01*
X0141933Y0079940D01*
X0147783Y0079940D01*
X0141933Y0079940D01*
X0141933Y0078942D02*
X0147783Y0078942D01*
X0141933Y0078942D01*
X0147783Y0078942D01*
X0141933Y0078942D01*
X0147783Y0078942D01*
X0141933Y0078942D01*
X0147783Y0078942D01*
X0147783Y0077943D02*
X0141933Y0077943D01*
X0147783Y0077943D01*
X0141933Y0077943D01*
X0147783Y0077943D01*
X0141933Y0077943D01*
X0147783Y0077943D01*
X0141933Y0077943D01*
X0141933Y0076945D02*
X0142894Y0076945D01*
X0141933Y0076945D01*
X0142894Y0076945D01*
X0141933Y0076945D01*
X0142894Y0076945D01*
X0141933Y0076945D01*
X0142894Y0076945D01*
X0142165Y0075946D02*
X0141933Y0075946D01*
X0142165Y0075946D01*
X0141933Y0075946D01*
X0142165Y0075946D01*
X0141933Y0075946D01*
X0142165Y0075946D01*
X0141933Y0075946D01*
X0149502Y0071246D02*
X0155050Y0071246D01*
X0156233Y0072430D01*
X0156233Y0062100D01*
X0143667Y0062100D01*
X0141917Y0063850D01*
X0141960Y0063850D01*
X0142431Y0064045D01*
X0142467Y0063909D01*
X0142665Y0063567D01*
X0142944Y0063288D01*
X0143286Y0063090D01*
X0143667Y0062988D01*
X0145349Y0062988D01*
X0145349Y0066169D01*
X0146318Y0066169D01*
X0146318Y0067138D01*
X0149302Y0067138D01*
X0149302Y0069016D01*
X0149200Y0069398D01*
X0149002Y0069740D01*
X0148883Y0069859D01*
X0149502Y0070477D01*
X0149502Y0071246D01*
X0155050Y0071246D01*
X0156233Y0072430D01*
X0156233Y0062100D01*
X0143667Y0062100D01*
X0141917Y0063850D01*
X0141960Y0063850D01*
X0142431Y0064045D01*
X0142467Y0063909D01*
X0142665Y0063567D01*
X0142944Y0063288D01*
X0143286Y0063090D01*
X0143667Y0062988D01*
X0145349Y0062988D01*
X0145349Y0066169D01*
X0146318Y0066169D01*
X0149302Y0066169D01*
X0149302Y0064291D01*
X0149200Y0063909D01*
X0149002Y0063567D01*
X0148723Y0063288D01*
X0148381Y0063090D01*
X0147999Y0062988D01*
X0146318Y0062988D01*
X0146318Y0066169D01*
X0146318Y0067138D01*
X0149302Y0067138D01*
X0149302Y0069016D01*
X0149200Y0069398D01*
X0149002Y0069740D01*
X0148883Y0069859D01*
X0149502Y0070477D01*
X0149502Y0071246D01*
X0155050Y0071246D01*
X0156233Y0072430D01*
X0156233Y0062100D01*
X0143667Y0062100D01*
X0141917Y0063850D01*
X0141960Y0063850D01*
X0142431Y0064045D01*
X0142467Y0063909D01*
X0142665Y0063567D01*
X0142944Y0063288D01*
X0143286Y0063090D01*
X0143667Y0062988D01*
X0145349Y0062988D01*
X0145349Y0066169D01*
X0146318Y0066169D01*
X0149302Y0066169D01*
X0149302Y0064291D01*
X0149200Y0063909D01*
X0149002Y0063567D01*
X0148723Y0063288D01*
X0148381Y0063090D01*
X0147999Y0062988D01*
X0146318Y0062988D01*
X0146318Y0066169D01*
X0146318Y0067138D01*
X0149302Y0067138D01*
X0149302Y0069016D01*
X0149200Y0069398D01*
X0149002Y0069740D01*
X0148883Y0069859D01*
X0149502Y0070477D01*
X0149502Y0071246D01*
X0155050Y0071246D01*
X0156233Y0072430D01*
X0156233Y0062100D01*
X0143667Y0062100D01*
X0141917Y0063850D01*
X0141960Y0063850D01*
X0142431Y0064045D01*
X0142467Y0063909D01*
X0142665Y0063567D01*
X0142944Y0063288D01*
X0143286Y0063090D01*
X0143667Y0062988D01*
X0145349Y0062988D01*
X0145349Y0066169D01*
X0146318Y0066169D01*
X0149302Y0066169D01*
X0149302Y0064291D01*
X0149200Y0063909D01*
X0149002Y0063567D01*
X0148723Y0063288D01*
X0148381Y0063090D01*
X0147999Y0062988D01*
X0146318Y0062988D01*
X0146318Y0066169D01*
X0146318Y0067138D01*
X0149302Y0067138D01*
X0149302Y0069016D01*
X0149200Y0069398D01*
X0149002Y0069740D01*
X0148883Y0069859D01*
X0149502Y0070477D01*
X0149502Y0071246D01*
X0155050Y0071246D01*
X0156233Y0072430D01*
X0156233Y0062100D01*
X0143667Y0062100D01*
X0141917Y0063850D01*
X0141960Y0063850D01*
X0142431Y0064045D01*
X0142467Y0063909D01*
X0142665Y0063567D01*
X0142944Y0063288D01*
X0143286Y0063090D01*
X0143667Y0062988D01*
X0145349Y0062988D01*
X0145349Y0066169D01*
X0146318Y0066169D01*
X0149302Y0066169D01*
X0149302Y0064291D01*
X0149200Y0063909D01*
X0149002Y0063567D01*
X0148723Y0063288D01*
X0148381Y0063090D01*
X0147999Y0062988D01*
X0146318Y0062988D01*
X0146318Y0066169D01*
X0146318Y0067138D01*
X0149302Y0067138D01*
X0149302Y0069016D01*
X0149200Y0069398D01*
X0149002Y0069740D01*
X0148883Y0069859D01*
X0149502Y0070477D01*
X0149502Y0071246D01*
X0155050Y0071246D01*
X0156233Y0072430D01*
X0156233Y0062100D01*
X0143667Y0062100D01*
X0141917Y0063850D01*
X0141960Y0063850D01*
X0142431Y0064045D01*
X0142467Y0063909D01*
X0142665Y0063567D01*
X0142944Y0063288D01*
X0143286Y0063090D01*
X0143667Y0062988D01*
X0145349Y0062988D01*
X0145349Y0066169D01*
X0146318Y0066169D01*
X0149302Y0066169D01*
X0149302Y0064291D01*
X0149200Y0063909D01*
X0149002Y0063567D01*
X0148723Y0063288D01*
X0148381Y0063090D01*
X0147999Y0062988D01*
X0146318Y0062988D01*
X0146318Y0066169D01*
X0146318Y0067138D01*
X0149302Y0067138D01*
X0149302Y0069016D01*
X0149200Y0069398D01*
X0149002Y0069740D01*
X0148883Y0069859D01*
X0149502Y0070477D01*
X0149502Y0071246D01*
X0155050Y0071246D01*
X0156233Y0072430D01*
X0156233Y0062100D01*
X0143667Y0062100D01*
X0141917Y0063850D01*
X0141960Y0063850D01*
X0142431Y0064045D01*
X0142467Y0063909D01*
X0142665Y0063567D01*
X0142944Y0063288D01*
X0143286Y0063090D01*
X0143667Y0062988D01*
X0145349Y0062988D01*
X0145349Y0066169D01*
X0146318Y0066169D01*
X0149302Y0066169D01*
X0149302Y0064291D01*
X0149200Y0063909D01*
X0149002Y0063567D01*
X0148723Y0063288D01*
X0148381Y0063090D01*
X0147999Y0062988D01*
X0146318Y0062988D01*
X0146318Y0066169D01*
X0146318Y0067138D01*
X0149302Y0067138D01*
X0149302Y0069016D01*
X0149200Y0069398D01*
X0149002Y0069740D01*
X0148883Y0069859D01*
X0149502Y0070477D01*
X0149502Y0071246D01*
X0149502Y0070954D02*
X0156233Y0070954D01*
X0149502Y0070954D01*
X0156233Y0070954D01*
X0149502Y0070954D01*
X0156233Y0070954D01*
X0149502Y0070954D01*
X0156233Y0070954D01*
X0156233Y0071952D02*
X0155756Y0071952D01*
X0156233Y0071952D01*
X0155756Y0071952D01*
X0156233Y0071952D01*
X0155756Y0071952D01*
X0156233Y0071952D01*
X0155756Y0071952D01*
X0156233Y0069955D02*
X0148980Y0069955D01*
X0156233Y0069955D01*
X0148980Y0069955D01*
X0156233Y0069955D01*
X0148980Y0069955D01*
X0156233Y0069955D01*
X0148980Y0069955D01*
X0149302Y0068957D02*
X0156233Y0068957D01*
X0149302Y0068957D01*
X0156233Y0068957D01*
X0149302Y0068957D01*
X0156233Y0068957D01*
X0149302Y0068957D01*
X0156233Y0068957D01*
X0156233Y0067958D02*
X0149302Y0067958D01*
X0156233Y0067958D01*
X0149302Y0067958D01*
X0156233Y0067958D01*
X0149302Y0067958D01*
X0156233Y0067958D01*
X0149302Y0067958D01*
X0149302Y0066169D02*
X0146318Y0066169D01*
X0146318Y0062988D01*
X0147999Y0062988D01*
X0148381Y0063090D01*
X0148723Y0063288D01*
X0149002Y0063567D01*
X0149200Y0063909D01*
X0149302Y0064291D01*
X0149302Y0066169D01*
X0149302Y0065961D02*
X0156233Y0065961D01*
X0149302Y0065961D01*
X0156233Y0065961D01*
X0149302Y0065961D01*
X0156233Y0065961D01*
X0149302Y0065961D01*
X0156233Y0065961D01*
X0156233Y0064963D02*
X0149302Y0064963D01*
X0156233Y0064963D01*
X0149302Y0064963D01*
X0156233Y0064963D01*
X0149302Y0064963D01*
X0156233Y0064963D01*
X0149302Y0064963D01*
X0149214Y0063964D02*
X0156233Y0063964D01*
X0149214Y0063964D01*
X0156233Y0063964D01*
X0149214Y0063964D01*
X0156233Y0063964D01*
X0149214Y0063964D01*
X0156233Y0063964D01*
X0156233Y0062966D02*
X0142801Y0062966D01*
X0156233Y0062966D01*
X0142801Y0062966D01*
X0156233Y0062966D01*
X0142801Y0062966D01*
X0156233Y0062966D01*
X0142801Y0062966D01*
X0142452Y0063964D02*
X0142236Y0063964D01*
X0142452Y0063964D01*
X0142236Y0063964D01*
X0142452Y0063964D01*
X0142236Y0063964D01*
X0142452Y0063964D01*
X0142236Y0063964D01*
X0145349Y0063964D02*
X0146318Y0063964D01*
X0145349Y0063964D01*
X0146318Y0063964D01*
X0145349Y0063964D01*
X0146318Y0063964D01*
X0145349Y0063964D01*
X0146318Y0063964D01*
X0146318Y0064963D02*
X0145349Y0064963D01*
X0146318Y0064963D01*
X0145349Y0064963D01*
X0146318Y0064963D01*
X0145349Y0064963D01*
X0146318Y0064963D01*
X0145349Y0064963D01*
X0145349Y0065961D02*
X0146318Y0065961D01*
X0145349Y0065961D01*
X0146318Y0065961D01*
X0145349Y0065961D01*
X0146318Y0065961D01*
X0145349Y0065961D01*
X0146318Y0065961D01*
X0146318Y0066960D02*
X0156233Y0066960D01*
X0146318Y0066960D01*
X0156233Y0066960D01*
X0146318Y0066960D01*
X0156233Y0066960D01*
X0146318Y0066960D01*
X0156233Y0066960D01*
X0139857Y0059970D02*
X0130455Y0059970D01*
X0139857Y0059970D01*
X0130455Y0059970D01*
X0139857Y0059970D01*
X0130455Y0059970D01*
X0139857Y0059970D01*
X0130455Y0059970D01*
X0130455Y0058972D02*
X0140856Y0058972D01*
X0130455Y0058972D01*
X0140856Y0058972D01*
X0130455Y0058972D01*
X0140856Y0058972D01*
X0130455Y0058972D01*
X0140856Y0058972D01*
X0141352Y0057973D02*
X0130455Y0057973D01*
X0141352Y0057973D01*
X0130455Y0057973D01*
X0141352Y0057973D01*
X0130455Y0057973D01*
X0141352Y0057973D01*
X0130455Y0057973D01*
X0130545Y0056975D02*
X0140535Y0056975D01*
X0130545Y0056975D01*
X0140535Y0056975D01*
X0130545Y0056975D01*
X0140535Y0056975D01*
X0130545Y0056975D01*
X0140535Y0056975D01*
X0140183Y0055976D02*
X0130545Y0055976D01*
X0140183Y0055976D01*
X0130545Y0055976D01*
X0140183Y0055976D01*
X0130545Y0055976D01*
X0140183Y0055976D01*
X0130545Y0055976D01*
X0130545Y0054978D02*
X0140183Y0054978D01*
X0130545Y0054978D01*
X0140183Y0054978D01*
X0130545Y0054978D01*
X0140183Y0054978D01*
X0130545Y0054978D01*
X0140183Y0054978D01*
X0140554Y0053979D02*
X0130545Y0053979D01*
X0140554Y0053979D01*
X0130545Y0053979D01*
X0140554Y0053979D01*
X0130545Y0053979D01*
X0140554Y0053979D01*
X0130545Y0053979D01*
X0130545Y0052981D02*
X0141233Y0052981D01*
X0130545Y0052981D01*
X0141233Y0052981D01*
X0130545Y0052981D01*
X0141233Y0052981D01*
X0130545Y0052981D01*
X0141233Y0052981D01*
X0133512Y0046990D02*
X0115533Y0046990D01*
X0133512Y0046990D01*
X0115533Y0046990D01*
X0133512Y0046990D01*
X0115533Y0046990D01*
X0133512Y0046990D01*
X0115533Y0046990D01*
X0115533Y0047988D02*
X0121375Y0047988D01*
X0115533Y0047988D01*
X0121375Y0047988D01*
X0115533Y0047988D01*
X0121375Y0047988D01*
X0115533Y0047988D01*
X0121375Y0047988D01*
X0120377Y0048987D02*
X0115533Y0048987D01*
X0120377Y0048987D01*
X0115533Y0048987D01*
X0120377Y0048987D01*
X0115533Y0048987D01*
X0120377Y0048987D01*
X0115533Y0048987D01*
X0115533Y0049985D02*
X0119378Y0049985D01*
X0115533Y0049985D01*
X0119378Y0049985D01*
X0115533Y0049985D01*
X0119378Y0049985D01*
X0115533Y0049985D01*
X0119378Y0049985D01*
X0118380Y0050984D02*
X0115533Y0050984D01*
X0118380Y0050984D01*
X0115533Y0050984D01*
X0118380Y0050984D01*
X0115533Y0050984D01*
X0118380Y0050984D01*
X0115533Y0050984D01*
X0115533Y0051982D02*
X0116467Y0051982D01*
X0115533Y0051982D01*
X0116467Y0051982D01*
X0115533Y0051982D01*
X0116467Y0051982D01*
X0115533Y0051982D01*
X0116467Y0051982D01*
X0116122Y0052981D02*
X0115533Y0052981D01*
X0116122Y0052981D01*
X0115533Y0052981D01*
X0116122Y0052981D01*
X0115533Y0052981D01*
X0116122Y0052981D01*
X0115533Y0052981D01*
X0115533Y0053979D02*
X0116122Y0053979D01*
X0115533Y0053979D01*
X0116122Y0053979D01*
X0115533Y0053979D01*
X0116122Y0053979D01*
X0115533Y0053979D01*
X0116122Y0053979D01*
X0130455Y0060969D02*
X0138859Y0060969D01*
X0130455Y0060969D01*
X0138859Y0060969D01*
X0130455Y0060969D01*
X0138859Y0060969D01*
X0130455Y0060969D01*
X0138859Y0060969D01*
X0137860Y0061967D02*
X0130455Y0061967D01*
X0137860Y0061967D01*
X0130455Y0061967D01*
X0137860Y0061967D01*
X0130455Y0061967D01*
X0137860Y0061967D01*
X0130455Y0061967D01*
X0133225Y0045991D02*
X0115533Y0045991D01*
X0133225Y0045991D01*
X0115533Y0045991D01*
X0133225Y0045991D01*
X0115533Y0045991D01*
X0133225Y0045991D01*
X0115533Y0045991D01*
X0115533Y0044993D02*
X0137833Y0044993D01*
X0115533Y0044993D01*
X0137833Y0044993D01*
X0115533Y0044993D01*
X0137833Y0044993D01*
X0115533Y0044993D01*
X0137833Y0044993D01*
X0133228Y0043994D02*
X0115533Y0043994D01*
X0133228Y0043994D01*
X0115533Y0043994D01*
X0133228Y0043994D01*
X0115533Y0043994D01*
X0133228Y0043994D01*
X0115533Y0043994D01*
X0115533Y0042996D02*
X0133519Y0042996D01*
X0115533Y0042996D01*
X0133519Y0042996D01*
X0115533Y0042996D01*
X0133519Y0042996D01*
X0115533Y0042996D01*
X0133519Y0042996D01*
X0189333Y0047500D02*
X0193333Y0047500D01*
X0197333Y0047500D01*
X0182665Y0071138D02*
X0182203Y0071600D01*
X0180615Y0073188D01*
X0180615Y0076413D01*
X0183243Y0076413D01*
X0183243Y0079004D01*
X0183424Y0079004D01*
X0183424Y0076413D01*
X0186188Y0076413D01*
X0186233Y0076425D01*
X0186233Y0075938D01*
X0183895Y0073600D01*
X0183895Y0073600D01*
X0183895Y0073600D01*
X0186233Y0075938D01*
X0186233Y0076425D01*
X0186188Y0076413D01*
X0183424Y0076413D01*
X0183424Y0079004D01*
X0183243Y0079004D01*
X0183243Y0076413D01*
X0180615Y0076413D01*
X0180615Y0073188D01*
X0182203Y0071600D01*
X0182665Y0071138D01*
X0182665Y0072370D01*
X0183895Y0073600D01*
X0183895Y0073600D01*
X0186233Y0075938D01*
X0186233Y0076425D01*
X0186188Y0076413D01*
X0183424Y0076413D01*
X0183424Y0079004D01*
X0183243Y0079004D01*
X0183243Y0076413D01*
X0180615Y0076413D01*
X0180615Y0073188D01*
X0182203Y0071600D01*
X0182665Y0071138D01*
X0182665Y0072370D01*
X0183895Y0073600D01*
X0183895Y0073600D01*
X0186233Y0075938D01*
X0186233Y0076425D01*
X0186188Y0076413D01*
X0183424Y0076413D01*
X0183424Y0079004D01*
X0183243Y0079004D01*
X0183243Y0076413D01*
X0180615Y0076413D01*
X0180615Y0073188D01*
X0182203Y0071600D01*
X0182665Y0071138D01*
X0182665Y0072370D01*
X0183895Y0073600D01*
X0183895Y0073600D01*
X0186233Y0075938D01*
X0186233Y0076425D01*
X0186188Y0076413D01*
X0183424Y0076413D01*
X0183424Y0079004D01*
X0183243Y0079004D01*
X0183243Y0076413D01*
X0180615Y0076413D01*
X0180615Y0073188D01*
X0182203Y0071600D01*
X0182665Y0071138D01*
X0182665Y0072370D01*
X0183895Y0073600D01*
X0183895Y0073600D01*
X0186233Y0075938D01*
X0186233Y0076425D01*
X0186188Y0076413D01*
X0183424Y0076413D01*
X0183424Y0079004D01*
X0183243Y0079004D01*
X0183243Y0076413D01*
X0180615Y0076413D01*
X0180615Y0073188D01*
X0182203Y0071600D01*
X0182665Y0071138D01*
X0182665Y0072370D01*
X0183895Y0073600D01*
X0183895Y0073600D01*
X0186233Y0075938D01*
X0186233Y0076425D01*
X0186188Y0076413D01*
X0183424Y0076413D01*
X0183424Y0079004D01*
X0183243Y0079004D01*
X0183243Y0076413D01*
X0180615Y0076413D01*
X0180615Y0073188D01*
X0182203Y0071600D01*
X0182665Y0071138D01*
X0182665Y0072370D01*
X0183895Y0073600D01*
X0182665Y0072370D01*
X0182665Y0071138D01*
X0182665Y0071952D02*
X0181851Y0071952D01*
X0182665Y0071952D01*
X0181851Y0071952D01*
X0182665Y0071952D01*
X0181851Y0071952D01*
X0182665Y0071952D01*
X0181851Y0071952D01*
X0180852Y0072951D02*
X0183246Y0072951D01*
X0180852Y0072951D01*
X0183246Y0072951D01*
X0180852Y0072951D01*
X0183246Y0072951D01*
X0180852Y0072951D01*
X0183246Y0072951D01*
X0184244Y0073949D02*
X0180615Y0073949D01*
X0184244Y0073949D01*
X0180615Y0073949D01*
X0184244Y0073949D01*
X0180615Y0073949D01*
X0184244Y0073949D01*
X0180615Y0073949D01*
X0180615Y0074948D02*
X0185243Y0074948D01*
X0180615Y0074948D01*
X0185243Y0074948D01*
X0180615Y0074948D01*
X0185243Y0074948D01*
X0180615Y0074948D01*
X0185243Y0074948D01*
X0186233Y0075946D02*
X0180615Y0075946D01*
X0186233Y0075946D01*
X0180615Y0075946D01*
X0186233Y0075946D01*
X0180615Y0075946D01*
X0186233Y0075946D01*
X0180615Y0075946D01*
X0183243Y0076945D02*
X0183424Y0076945D01*
X0183243Y0076945D01*
X0183424Y0076945D01*
X0183243Y0076945D01*
X0183424Y0076945D01*
X0183243Y0076945D01*
X0183424Y0076945D01*
X0183424Y0077943D02*
X0183243Y0077943D01*
X0183424Y0077943D01*
X0183243Y0077943D01*
X0183424Y0077943D01*
X0183243Y0077943D01*
X0183424Y0077943D01*
X0183243Y0077943D01*
X0183243Y0078942D02*
X0183424Y0078942D01*
X0183243Y0078942D01*
X0183424Y0078942D01*
X0183243Y0078942D01*
X0183424Y0078942D01*
X0183243Y0078942D01*
X0183424Y0078942D01*
X0194986Y0078942D02*
X0201133Y0078942D01*
X0194986Y0078942D01*
X0201133Y0078942D01*
X0194986Y0078942D01*
X0201133Y0078942D01*
X0194986Y0078942D01*
X0201133Y0078942D01*
X0201133Y0079940D02*
X0194986Y0079940D01*
X0201133Y0079940D01*
X0194986Y0079940D01*
X0201133Y0079940D01*
X0194986Y0079940D01*
X0201133Y0079940D01*
X0194986Y0079940D01*
X0194986Y0080939D02*
X0201133Y0080939D01*
X0194986Y0080939D01*
X0201133Y0080939D01*
X0194986Y0080939D01*
X0201133Y0080939D01*
X0194986Y0080939D01*
X0201133Y0080939D01*
X0201133Y0081937D02*
X0194986Y0081937D01*
X0201133Y0081937D01*
X0194986Y0081937D01*
X0201133Y0081937D01*
X0194986Y0081937D01*
X0201133Y0081937D01*
X0194986Y0081937D01*
X0194986Y0082936D02*
X0201133Y0082936D01*
X0194986Y0082936D01*
X0201133Y0082936D01*
X0194986Y0082936D01*
X0201133Y0082936D01*
X0194986Y0082936D01*
X0201133Y0082936D01*
X0201133Y0083934D02*
X0194986Y0083934D01*
X0201133Y0083934D01*
X0194986Y0083934D01*
X0201133Y0083934D01*
X0194986Y0083934D01*
X0201133Y0083934D01*
X0194986Y0083934D01*
X0194986Y0084933D02*
X0201133Y0084933D01*
X0194986Y0084933D01*
X0201133Y0084933D01*
X0194986Y0084933D01*
X0201133Y0084933D01*
X0194986Y0084933D01*
X0201133Y0084933D01*
X0201133Y0085932D02*
X0194986Y0085932D01*
X0201133Y0085932D01*
X0194986Y0085932D01*
X0201133Y0085932D01*
X0194986Y0085932D01*
X0201133Y0085932D01*
X0194986Y0085932D01*
X0194986Y0086930D02*
X0201133Y0086930D01*
X0194986Y0086930D01*
X0201133Y0086930D01*
X0194986Y0086930D01*
X0201133Y0086930D01*
X0194986Y0086930D01*
X0201133Y0086930D01*
X0201133Y0087929D02*
X0194950Y0087929D01*
X0201133Y0087929D01*
X0194950Y0087929D01*
X0201133Y0087929D01*
X0194950Y0087929D01*
X0201133Y0087929D01*
X0194950Y0087929D01*
X0193951Y0088927D02*
X0201133Y0088927D01*
X0193951Y0088927D01*
X0201133Y0088927D01*
X0193951Y0088927D01*
X0201133Y0088927D01*
X0193951Y0088927D01*
X0201133Y0088927D01*
X0201133Y0089926D02*
X0192953Y0089926D01*
X0201133Y0089926D01*
X0192953Y0089926D01*
X0201133Y0089926D01*
X0192953Y0089926D01*
X0201133Y0089926D01*
X0192953Y0089926D01*
X0191954Y0090924D02*
X0201133Y0090924D01*
X0191954Y0090924D01*
X0201133Y0090924D01*
X0191954Y0090924D01*
X0201133Y0090924D01*
X0191954Y0090924D01*
X0201133Y0090924D01*
X0201133Y0091923D02*
X0190956Y0091923D01*
X0201133Y0091923D01*
X0190956Y0091923D01*
X0201133Y0091923D01*
X0190956Y0091923D01*
X0201133Y0091923D01*
X0190956Y0091923D01*
X0189957Y0092921D02*
X0192201Y0092921D01*
X0189957Y0092921D01*
X0192201Y0092921D01*
X0189957Y0092921D01*
X0192201Y0092921D01*
X0189957Y0092921D01*
X0192201Y0092921D01*
X0192165Y0093920D02*
X0185383Y0093920D01*
X0192165Y0093920D01*
X0185383Y0093920D01*
X0192165Y0093920D01*
X0185383Y0093920D01*
X0192165Y0093920D01*
X0185383Y0093920D01*
X0185383Y0094918D02*
X0192165Y0094918D01*
X0185383Y0094918D01*
X0192165Y0094918D01*
X0185383Y0094918D01*
X0192165Y0094918D01*
X0185383Y0094918D01*
X0192165Y0094918D01*
X0192165Y0095917D02*
X0185383Y0095917D01*
X0192165Y0095917D01*
X0185383Y0095917D01*
X0192165Y0095917D01*
X0185383Y0095917D01*
X0192165Y0095917D01*
X0185383Y0095917D01*
X0185695Y0096915D02*
X0192165Y0096915D01*
X0185695Y0096915D01*
X0192165Y0096915D01*
X0185695Y0096915D01*
X0192165Y0096915D01*
X0185695Y0096915D01*
X0192165Y0096915D01*
X0192165Y0097914D02*
X0186336Y0097914D01*
X0192165Y0097914D01*
X0186336Y0097914D01*
X0192165Y0097914D01*
X0186336Y0097914D01*
X0192165Y0097914D01*
X0186336Y0097914D01*
X0186562Y0098912D02*
X0192165Y0098912D01*
X0186562Y0098912D01*
X0192165Y0098912D01*
X0186562Y0098912D01*
X0192165Y0098912D01*
X0186562Y0098912D01*
X0192165Y0098912D01*
X0192986Y0099911D02*
X0186480Y0099911D01*
X0192986Y0099911D01*
X0186480Y0099911D01*
X0192986Y0099911D01*
X0186480Y0099911D01*
X0192986Y0099911D01*
X0186480Y0099911D01*
X0186044Y0100909D02*
X0201133Y0100909D01*
X0186044Y0100909D01*
X0201133Y0100909D01*
X0186044Y0100909D01*
X0201133Y0100909D01*
X0186044Y0100909D01*
X0201133Y0100909D01*
X0201133Y0101908D02*
X0184833Y0101908D01*
X0201133Y0101908D01*
X0184833Y0101908D01*
X0201133Y0101908D01*
X0184833Y0101908D01*
X0201133Y0101908D01*
X0184833Y0101908D01*
X0181991Y0101908D02*
X0175545Y0101908D01*
X0181991Y0101908D01*
X0175545Y0101908D01*
X0181991Y0101908D01*
X0175545Y0101908D01*
X0181991Y0101908D01*
X0175545Y0101908D01*
X0174547Y0102906D02*
X0201133Y0102906D01*
X0174547Y0102906D01*
X0201133Y0102906D01*
X0174547Y0102906D01*
X0201133Y0102906D01*
X0174547Y0102906D01*
X0201133Y0102906D01*
X0201133Y0103905D02*
X0173983Y0103905D01*
X0201133Y0103905D01*
X0173983Y0103905D01*
X0201133Y0103905D01*
X0173983Y0103905D01*
X0201133Y0103905D01*
X0173983Y0103905D01*
X0173724Y0104903D02*
X0201133Y0104903D01*
X0173724Y0104903D01*
X0201133Y0104903D01*
X0173724Y0104903D01*
X0201133Y0104903D01*
X0173724Y0104903D01*
X0201133Y0104903D01*
X0201133Y0105902D02*
X0173036Y0105902D01*
X0201133Y0105902D01*
X0173036Y0105902D01*
X0201133Y0105902D01*
X0173036Y0105902D01*
X0201133Y0105902D01*
X0173036Y0105902D01*
X0168630Y0105902D02*
X0154454Y0105902D01*
X0168630Y0105902D01*
X0154454Y0105902D01*
X0168630Y0105902D01*
X0154454Y0105902D01*
X0168630Y0105902D01*
X0154454Y0105902D01*
X0154483Y0106900D02*
X0201133Y0106900D01*
X0154483Y0106900D01*
X0201133Y0106900D01*
X0154483Y0106900D01*
X0201133Y0106900D01*
X0154483Y0106900D01*
X0201133Y0106900D01*
X0201133Y0107899D02*
X0154205Y0107899D01*
X0201133Y0107899D01*
X0154205Y0107899D01*
X0201133Y0107899D01*
X0154205Y0107899D01*
X0201133Y0107899D01*
X0154205Y0107899D01*
X0153491Y0108897D02*
X0201133Y0108897D01*
X0153491Y0108897D01*
X0201133Y0108897D01*
X0153491Y0108897D01*
X0201133Y0108897D01*
X0153491Y0108897D01*
X0201133Y0108897D01*
X0201133Y0109896D02*
X0115533Y0109896D01*
X0201133Y0109896D01*
X0115533Y0109896D01*
X0201133Y0109896D01*
X0115533Y0109896D01*
X0201133Y0109896D01*
X0115533Y0109896D01*
X0115533Y0110894D02*
X0201133Y0110894D01*
X0115533Y0110894D01*
X0201133Y0110894D01*
X0115533Y0110894D01*
X0201133Y0110894D01*
X0115533Y0110894D01*
X0201133Y0110894D01*
X0201133Y0111893D02*
X0115533Y0111893D01*
X0201133Y0111893D01*
X0115533Y0111893D01*
X0201133Y0111893D01*
X0115533Y0111893D01*
X0201133Y0111893D01*
X0115533Y0111893D01*
X0115533Y0112891D02*
X0201133Y0112891D01*
X0115533Y0112891D01*
X0201133Y0112891D01*
X0115533Y0112891D01*
X0201133Y0112891D01*
X0115533Y0112891D01*
X0201133Y0112891D01*
X0201133Y0113890D02*
X0115533Y0113890D01*
X0201133Y0113890D01*
X0115533Y0113890D01*
X0201133Y0113890D01*
X0115533Y0113890D01*
X0201133Y0113890D01*
X0115533Y0113890D01*
X0115533Y0114888D02*
X0201133Y0114888D01*
X0115533Y0114888D01*
X0201133Y0114888D01*
X0115533Y0114888D01*
X0201133Y0114888D01*
X0115533Y0114888D01*
X0201133Y0114888D01*
X0201133Y0115887D02*
X0195779Y0115887D01*
X0201133Y0115887D01*
X0195779Y0115887D01*
X0201133Y0115887D01*
X0195779Y0115887D01*
X0201133Y0115887D01*
X0195779Y0115887D01*
X0194991Y0115600D02*
X0198106Y0116734D01*
X0198106Y0116734D01*
X0200645Y0118865D01*
X0200645Y0118865D01*
X0200645Y0118865D01*
X0200645Y0118865D01*
X0200645Y0118865D01*
X0198106Y0116734D01*
X0198106Y0116734D01*
X0198106Y0116734D01*
X0200645Y0118865D01*
X0200645Y0118865D01*
X0200645Y0118865D01*
X0198106Y0116734D01*
X0198106Y0116734D01*
X0198106Y0116734D01*
X0200645Y0118865D01*
X0200645Y0118865D01*
X0200645Y0118865D01*
X0198106Y0116734D01*
X0198106Y0116734D01*
X0198106Y0116734D01*
X0194991Y0115600D01*
X0191676Y0115600D01*
X0188561Y0116734D01*
X0188561Y0116734D01*
X0188561Y0116734D01*
X0191676Y0115600D01*
X0194991Y0115600D01*
X0198106Y0116734D01*
X0194991Y0115600D01*
X0191676Y0115600D01*
X0188561Y0116734D01*
X0188561Y0116734D01*
X0188561Y0116734D01*
X0191676Y0115600D01*
X0194991Y0115600D01*
X0198106Y0116734D01*
X0194991Y0115600D01*
X0191676Y0115600D01*
X0188561Y0116734D01*
X0188561Y0116734D01*
X0188561Y0116734D01*
X0191676Y0115600D01*
X0194991Y0115600D01*
X0198286Y0116885D02*
X0201133Y0116885D01*
X0198286Y0116885D01*
X0201133Y0116885D01*
X0198286Y0116885D01*
X0201133Y0116885D01*
X0198286Y0116885D01*
X0201133Y0116885D01*
X0201133Y0117884D02*
X0199476Y0117884D01*
X0201133Y0117884D01*
X0199476Y0117884D01*
X0201133Y0117884D01*
X0199476Y0117884D01*
X0201133Y0117884D01*
X0199476Y0117884D01*
X0200655Y0118882D02*
X0201133Y0118882D01*
X0200655Y0118882D01*
X0201133Y0118882D01*
X0200655Y0118882D01*
X0201133Y0118882D01*
X0200655Y0118882D01*
X0201133Y0118882D01*
X0190888Y0115887D02*
X0125779Y0115887D01*
X0190888Y0115887D01*
X0125779Y0115887D01*
X0190888Y0115887D01*
X0125779Y0115887D01*
X0190888Y0115887D01*
X0125779Y0115887D01*
X0124991Y0115600D02*
X0128106Y0116734D01*
X0128106Y0116734D01*
X0130645Y0118865D01*
X0130645Y0118865D01*
X0130645Y0118865D01*
X0130645Y0118865D01*
X0130645Y0118865D01*
X0128106Y0116734D01*
X0128106Y0116734D01*
X0128106Y0116734D01*
X0130645Y0118865D01*
X0130645Y0118865D01*
X0130645Y0118865D01*
X0128106Y0116734D01*
X0128106Y0116734D01*
X0128106Y0116734D01*
X0130645Y0118865D01*
X0130645Y0118865D01*
X0130645Y0118865D01*
X0128106Y0116734D01*
X0128106Y0116734D01*
X0128106Y0116734D01*
X0124991Y0115600D01*
X0121676Y0115600D01*
X0118561Y0116734D01*
X0118561Y0116734D01*
X0118561Y0116734D01*
X0121676Y0115600D01*
X0124991Y0115600D01*
X0128106Y0116734D01*
X0124991Y0115600D01*
X0121676Y0115600D01*
X0118561Y0116734D01*
X0118561Y0116734D01*
X0118561Y0116734D01*
X0121676Y0115600D01*
X0124991Y0115600D01*
X0128106Y0116734D01*
X0124991Y0115600D01*
X0121676Y0115600D01*
X0118561Y0116734D01*
X0118561Y0116734D01*
X0118561Y0116734D01*
X0121676Y0115600D01*
X0124991Y0115600D01*
X0128286Y0116885D02*
X0188380Y0116885D01*
X0128286Y0116885D01*
X0188380Y0116885D01*
X0128286Y0116885D01*
X0188380Y0116885D01*
X0128286Y0116885D01*
X0188380Y0116885D01*
X0188561Y0116734D02*
X0186021Y0118865D01*
X0188561Y0116734D01*
X0188561Y0116734D01*
X0186021Y0118865D01*
X0188561Y0116734D01*
X0186021Y0118865D01*
X0188561Y0116734D01*
X0187190Y0117884D02*
X0129476Y0117884D01*
X0187190Y0117884D01*
X0129476Y0117884D01*
X0187190Y0117884D01*
X0129476Y0117884D01*
X0187190Y0117884D01*
X0129476Y0117884D01*
X0130655Y0118882D02*
X0186011Y0118882D01*
X0130655Y0118882D01*
X0186011Y0118882D01*
X0130655Y0118882D01*
X0186011Y0118882D01*
X0130655Y0118882D01*
X0186011Y0118882D01*
X0185435Y0119881D02*
X0131232Y0119881D01*
X0185435Y0119881D01*
X0131232Y0119881D01*
X0185435Y0119881D01*
X0131232Y0119881D01*
X0185435Y0119881D01*
X0131232Y0119881D01*
X0131808Y0120879D02*
X0184858Y0120879D01*
X0131808Y0120879D01*
X0184858Y0120879D01*
X0131808Y0120879D01*
X0184858Y0120879D01*
X0131808Y0120879D01*
X0184858Y0120879D01*
X0184364Y0121735D02*
X0184364Y0121735D01*
X0183788Y0125000D01*
X0183788Y0125000D01*
X0183788Y0125000D01*
X0184364Y0128265D01*
X0183788Y0125000D01*
X0184364Y0121735D01*
X0183788Y0125000D01*
X0183788Y0125000D01*
X0183788Y0125000D01*
X0184364Y0128265D01*
X0183788Y0125000D01*
X0184364Y0121735D01*
X0183788Y0125000D01*
X0183788Y0125000D01*
X0183788Y0125000D01*
X0184364Y0128265D01*
X0183788Y0125000D01*
X0184364Y0121735D01*
X0184339Y0121878D02*
X0132328Y0121878D01*
X0184339Y0121878D01*
X0132328Y0121878D01*
X0184339Y0121878D01*
X0132328Y0121878D01*
X0184339Y0121878D01*
X0132328Y0121878D01*
X0132303Y0121735D02*
X0132878Y0125000D01*
X0132878Y0125000D01*
X0132303Y0128265D01*
X0132303Y0128265D01*
X0132878Y0125000D01*
X0132878Y0125000D01*
X0132878Y0125000D01*
X0132303Y0121735D01*
X0132878Y0125000D01*
X0132303Y0128265D01*
X0132878Y0125000D01*
X0132878Y0125000D01*
X0132878Y0125000D01*
X0132303Y0121735D01*
X0132878Y0125000D01*
X0132303Y0128265D01*
X0132878Y0125000D01*
X0132878Y0125000D01*
X0132878Y0125000D01*
X0132303Y0121735D01*
X0132504Y0122876D02*
X0184163Y0122876D01*
X0132504Y0122876D01*
X0184163Y0122876D01*
X0132504Y0122876D01*
X0184163Y0122876D01*
X0132504Y0122876D01*
X0184163Y0122876D01*
X0183987Y0123875D02*
X0132680Y0123875D01*
X0183987Y0123875D01*
X0132680Y0123875D01*
X0183987Y0123875D01*
X0132680Y0123875D01*
X0183987Y0123875D01*
X0132680Y0123875D01*
X0132856Y0124873D02*
X0183811Y0124873D01*
X0132856Y0124873D01*
X0183811Y0124873D01*
X0132856Y0124873D01*
X0183811Y0124873D01*
X0132856Y0124873D01*
X0183811Y0124873D01*
X0183788Y0125000D02*
X0183788Y0125000D01*
X0183942Y0125872D02*
X0132725Y0125872D01*
X0183942Y0125872D01*
X0132725Y0125872D01*
X0183942Y0125872D01*
X0132725Y0125872D01*
X0183942Y0125872D01*
X0132725Y0125872D01*
X0132549Y0126870D02*
X0184118Y0126870D01*
X0132549Y0126870D01*
X0184118Y0126870D01*
X0132549Y0126870D01*
X0184118Y0126870D01*
X0132549Y0126870D01*
X0184118Y0126870D01*
X0184294Y0127869D02*
X0132372Y0127869D01*
X0184294Y0127869D01*
X0132372Y0127869D01*
X0184294Y0127869D01*
X0132372Y0127869D01*
X0184294Y0127869D01*
X0132372Y0127869D01*
X0131955Y0128868D02*
X0184712Y0128868D01*
X0131955Y0128868D01*
X0184712Y0128868D01*
X0131955Y0128868D01*
X0184712Y0128868D01*
X0131955Y0128868D01*
X0184712Y0128868D01*
X0185289Y0129866D02*
X0131378Y0129866D01*
X0185289Y0129866D01*
X0131378Y0129866D01*
X0185289Y0129866D01*
X0131378Y0129866D01*
X0185289Y0129866D01*
X0131378Y0129866D01*
X0130802Y0130865D02*
X0185865Y0130865D01*
X0130802Y0130865D01*
X0185865Y0130865D01*
X0130802Y0130865D01*
X0185865Y0130865D01*
X0130802Y0130865D01*
X0185865Y0130865D01*
X0186021Y0131135D02*
X0188005Y0132800D01*
X0128661Y0132800D01*
X0130645Y0131135D01*
X0128661Y0132800D01*
X0188005Y0132800D01*
X0186021Y0131135D01*
X0186021Y0131135D01*
X0188005Y0132800D01*
X0128661Y0132800D01*
X0130645Y0131135D01*
X0128661Y0132800D01*
X0188005Y0132800D01*
X0186021Y0131135D01*
X0188005Y0132800D01*
X0128661Y0132800D01*
X0130645Y0131135D01*
X0128661Y0132800D01*
X0188005Y0132800D01*
X0186021Y0131135D01*
X0186889Y0131863D02*
X0129778Y0131863D01*
X0186889Y0131863D01*
X0129778Y0131863D01*
X0186889Y0131863D01*
X0129778Y0131863D01*
X0186889Y0131863D01*
X0129778Y0131863D01*
X0118561Y0116734D02*
X0116021Y0118865D01*
X0118561Y0116734D01*
X0118561Y0116734D01*
X0116021Y0118865D01*
X0118561Y0116734D01*
X0116021Y0118865D01*
X0118561Y0116734D01*
X0118380Y0116885D02*
X0115533Y0116885D01*
X0118380Y0116885D01*
X0115533Y0116885D01*
X0118380Y0116885D01*
X0115533Y0116885D01*
X0118380Y0116885D01*
X0115533Y0116885D01*
X0115533Y0115887D02*
X0120888Y0115887D01*
X0115533Y0115887D01*
X0120888Y0115887D01*
X0115533Y0115887D01*
X0120888Y0115887D01*
X0115533Y0115887D01*
X0120888Y0115887D01*
X0117190Y0117884D02*
X0115533Y0117884D01*
X0117190Y0117884D01*
X0115533Y0117884D01*
X0117190Y0117884D01*
X0115533Y0117884D01*
X0117190Y0117884D01*
X0115533Y0117884D01*
X0115533Y0118882D02*
X0116011Y0118882D01*
X0115533Y0118882D01*
X0116011Y0118882D01*
X0115533Y0118882D01*
X0116011Y0118882D01*
X0115533Y0118882D01*
X0116011Y0118882D01*
X0115533Y0108897D02*
X0149176Y0108897D01*
X0115533Y0108897D01*
X0149176Y0108897D01*
X0115533Y0108897D01*
X0149176Y0108897D01*
X0115533Y0108897D01*
X0149176Y0108897D01*
X0148462Y0107899D02*
X0115533Y0107899D01*
X0148462Y0107899D01*
X0115533Y0107899D01*
X0148462Y0107899D01*
X0115533Y0107899D01*
X0148462Y0107899D01*
X0115533Y0107899D01*
X0115533Y0106900D02*
X0148183Y0106900D01*
X0115533Y0106900D01*
X0148183Y0106900D01*
X0115533Y0106900D01*
X0148183Y0106900D01*
X0115533Y0106900D01*
X0148183Y0106900D01*
X0148213Y0105902D02*
X0115533Y0105902D01*
X0148213Y0105902D01*
X0115533Y0105902D01*
X0148213Y0105902D01*
X0115533Y0105902D01*
X0148213Y0105902D01*
X0115533Y0105902D01*
X0115533Y0104903D02*
X0148627Y0104903D01*
X0115533Y0104903D01*
X0148627Y0104903D01*
X0115533Y0104903D01*
X0148627Y0104903D01*
X0115533Y0104903D01*
X0148627Y0104903D01*
X0149180Y0103905D02*
X0115533Y0103905D01*
X0149180Y0103905D01*
X0115533Y0103905D01*
X0149180Y0103905D01*
X0115533Y0103905D01*
X0149180Y0103905D01*
X0115533Y0103905D01*
X0115533Y0102906D02*
X0149180Y0102906D01*
X0115533Y0102906D01*
X0149180Y0102906D01*
X0115533Y0102906D01*
X0149180Y0102906D01*
X0115533Y0102906D01*
X0149180Y0102906D01*
X0149180Y0101908D02*
X0115533Y0101908D01*
X0149180Y0101908D01*
X0115533Y0101908D01*
X0149180Y0101908D01*
X0115533Y0101908D01*
X0149180Y0101908D01*
X0115533Y0101908D01*
X0115533Y0100909D02*
X0149180Y0100909D01*
X0115533Y0100909D01*
X0149180Y0100909D01*
X0115533Y0100909D01*
X0149180Y0100909D01*
X0115533Y0100909D01*
X0149180Y0100909D01*
X0149180Y0099911D02*
X0123681Y0099911D01*
X0149180Y0099911D01*
X0123681Y0099911D01*
X0149180Y0099911D01*
X0123681Y0099911D01*
X0149180Y0099911D01*
X0123681Y0099911D01*
X0124502Y0098912D02*
X0149180Y0098912D01*
X0124502Y0098912D01*
X0149180Y0098912D01*
X0124502Y0098912D01*
X0149180Y0098912D01*
X0124502Y0098912D01*
X0149180Y0098912D01*
X0149180Y0097914D02*
X0124502Y0097914D01*
X0149180Y0097914D01*
X0124502Y0097914D01*
X0149180Y0097914D01*
X0124502Y0097914D01*
X0149180Y0097914D01*
X0124502Y0097914D01*
X0124502Y0096915D02*
X0149873Y0096915D01*
X0124502Y0096915D01*
X0149873Y0096915D01*
X0124502Y0096915D01*
X0149873Y0096915D01*
X0124502Y0096915D01*
X0149873Y0096915D01*
X0150872Y0095917D02*
X0124502Y0095917D01*
X0150872Y0095917D01*
X0124502Y0095917D01*
X0150872Y0095917D01*
X0124502Y0095917D01*
X0150872Y0095917D01*
X0124502Y0095917D01*
X0124502Y0094918D02*
X0151122Y0094918D01*
X0124502Y0094918D01*
X0151122Y0094918D01*
X0124502Y0094918D01*
X0151122Y0094918D01*
X0124502Y0094918D01*
X0151122Y0094918D01*
X0152029Y0093920D02*
X0124502Y0093920D01*
X0152029Y0093920D01*
X0124502Y0093920D01*
X0152029Y0093920D01*
X0124502Y0093920D01*
X0152029Y0093920D01*
X0124502Y0093920D01*
X0124466Y0092921D02*
X0129426Y0092921D01*
X0124466Y0092921D01*
X0129426Y0092921D01*
X0124466Y0092921D01*
X0129426Y0092921D01*
X0124466Y0092921D01*
X0129426Y0092921D01*
X0133243Y0092921D02*
X0133424Y0092921D01*
X0133243Y0092921D01*
X0133424Y0092921D01*
X0133243Y0092921D01*
X0133424Y0092921D01*
X0133243Y0092921D01*
X0133424Y0092921D01*
X0133424Y0091923D02*
X0133243Y0091923D01*
X0133424Y0091923D01*
X0133243Y0091923D01*
X0133424Y0091923D01*
X0133243Y0091923D01*
X0133424Y0091923D01*
X0133243Y0091923D01*
X0137241Y0092921D02*
X0147783Y0092921D01*
X0137241Y0092921D01*
X0147783Y0092921D01*
X0137241Y0092921D01*
X0147783Y0092921D01*
X0137241Y0092921D01*
X0147783Y0092921D01*
X0147783Y0091923D02*
X0137491Y0091923D01*
X0147783Y0091923D01*
X0137491Y0091923D01*
X0147783Y0091923D01*
X0137491Y0091923D01*
X0147783Y0091923D01*
X0137491Y0091923D01*
X0137491Y0089926D02*
X0138665Y0089926D01*
X0137491Y0089926D01*
X0138665Y0089926D01*
X0137491Y0089926D01*
X0138665Y0089926D01*
X0137491Y0089926D01*
X0138665Y0089926D01*
X0139833Y0087000D02*
X0139802Y0086969D01*
X0158164Y0094139D02*
X0158475Y0094450D01*
X0158593Y0094331D01*
X0158935Y0094134D01*
X0158984Y0094121D01*
X0158583Y0093720D01*
X0158164Y0094139D01*
X0158475Y0094450D01*
X0158593Y0094331D01*
X0158935Y0094134D01*
X0158984Y0094121D01*
X0158583Y0093720D01*
X0158164Y0094139D01*
X0158475Y0094450D01*
X0158593Y0094331D01*
X0158935Y0094134D01*
X0158984Y0094121D01*
X0158583Y0093720D01*
X0158164Y0094139D01*
X0158475Y0094450D01*
X0158593Y0094331D01*
X0158935Y0094134D01*
X0158984Y0094121D01*
X0158583Y0093720D01*
X0158164Y0094139D01*
X0158475Y0094450D01*
X0158593Y0094331D01*
X0158935Y0094134D01*
X0158984Y0094121D01*
X0158583Y0093720D01*
X0158164Y0094139D01*
X0158475Y0094450D01*
X0158593Y0094331D01*
X0158935Y0094134D01*
X0158984Y0094121D01*
X0158583Y0093720D01*
X0158164Y0094139D01*
X0158475Y0094450D01*
X0158593Y0094331D01*
X0158935Y0094134D01*
X0158984Y0094121D01*
X0158583Y0093720D01*
X0158164Y0094139D01*
X0158384Y0093920D02*
X0158783Y0093920D01*
X0158384Y0093920D01*
X0158783Y0093920D01*
X0158384Y0093920D01*
X0158783Y0093920D01*
X0158384Y0093920D01*
X0158783Y0093920D01*
X0165345Y0096915D02*
X0174598Y0096915D01*
X0165345Y0096915D01*
X0174598Y0096915D01*
X0165345Y0096915D01*
X0174598Y0096915D01*
X0165345Y0096915D01*
X0174598Y0096915D01*
X0173600Y0097914D02*
X0162164Y0097914D01*
X0173600Y0097914D01*
X0162164Y0097914D01*
X0173600Y0097914D01*
X0162164Y0097914D01*
X0173600Y0097914D01*
X0162164Y0097914D01*
X0162164Y0098912D02*
X0161196Y0098912D01*
X0162164Y0098912D01*
X0161196Y0098912D01*
X0162164Y0098912D01*
X0161196Y0098912D01*
X0162164Y0098912D01*
X0161196Y0098912D01*
X0161196Y0099911D02*
X0162164Y0099911D01*
X0161196Y0099911D01*
X0162164Y0099911D01*
X0161196Y0099911D01*
X0162164Y0099911D01*
X0161196Y0099911D01*
X0162164Y0099911D01*
X0162164Y0100909D02*
X0161196Y0100909D01*
X0162164Y0100909D01*
X0161196Y0100909D01*
X0162164Y0100909D01*
X0161196Y0100909D01*
X0162164Y0100909D01*
X0161196Y0100909D01*
X0159096Y0100909D02*
X0158116Y0100909D01*
X0159096Y0100909D01*
X0158116Y0100909D01*
X0159096Y0100909D01*
X0158116Y0100909D01*
X0159096Y0100909D01*
X0158116Y0100909D01*
X0153486Y0101908D02*
X0168145Y0101908D01*
X0153486Y0101908D01*
X0168145Y0101908D01*
X0153486Y0101908D01*
X0168145Y0101908D01*
X0153486Y0101908D01*
X0168145Y0101908D01*
X0167732Y0102906D02*
X0153486Y0102906D01*
X0167732Y0102906D01*
X0153486Y0102906D01*
X0167732Y0102906D01*
X0153486Y0102906D01*
X0167732Y0102906D01*
X0153486Y0102906D01*
X0153486Y0103905D02*
X0167683Y0103905D01*
X0153486Y0103905D01*
X0167683Y0103905D01*
X0153486Y0103905D01*
X0167683Y0103905D01*
X0153486Y0103905D01*
X0167683Y0103905D01*
X0167943Y0104903D02*
X0154040Y0104903D01*
X0167943Y0104903D01*
X0154040Y0104903D01*
X0167943Y0104903D01*
X0154040Y0104903D01*
X0167943Y0104903D01*
X0154040Y0104903D01*
X0164264Y0100909D02*
X0169219Y0100909D01*
X0164264Y0100909D01*
X0169219Y0100909D01*
X0164264Y0100909D01*
X0169219Y0100909D01*
X0164264Y0100909D01*
X0169219Y0100909D01*
X0171603Y0099911D02*
X0165280Y0099911D01*
X0171603Y0099911D01*
X0165280Y0099911D01*
X0171603Y0099911D01*
X0165280Y0099911D01*
X0171603Y0099911D01*
X0165280Y0099911D01*
X0165345Y0098912D02*
X0172601Y0098912D01*
X0165345Y0098912D01*
X0172601Y0098912D01*
X0165345Y0098912D01*
X0172601Y0098912D01*
X0165345Y0098912D01*
X0172601Y0098912D01*
X0176544Y0100909D02*
X0180780Y0100909D01*
X0176544Y0100909D01*
X0180780Y0100909D01*
X0176544Y0100909D01*
X0180780Y0100909D01*
X0176544Y0100909D01*
X0180780Y0100909D01*
X0180344Y0099911D02*
X0177542Y0099911D01*
X0180344Y0099911D01*
X0177542Y0099911D01*
X0180344Y0099911D01*
X0177542Y0099911D01*
X0180344Y0099911D01*
X0177542Y0099911D01*
X0178541Y0098912D02*
X0180262Y0098912D01*
X0178541Y0098912D01*
X0180262Y0098912D01*
X0178541Y0098912D01*
X0180262Y0098912D01*
X0178541Y0098912D01*
X0180262Y0098912D01*
X0180488Y0097914D02*
X0179540Y0097914D01*
X0180488Y0097914D01*
X0179540Y0097914D01*
X0180488Y0097914D01*
X0179540Y0097914D01*
X0180488Y0097914D01*
X0179540Y0097914D01*
X0180538Y0096915D02*
X0181129Y0096915D01*
X0180538Y0096915D01*
X0181129Y0096915D01*
X0180538Y0096915D01*
X0181129Y0096915D01*
X0180538Y0096915D01*
X0181129Y0096915D01*
X0181283Y0095917D02*
X0180615Y0095917D01*
X0181283Y0095917D01*
X0180615Y0095917D01*
X0181283Y0095917D01*
X0180615Y0095917D01*
X0181283Y0095917D01*
X0180615Y0095917D01*
X0180615Y0094918D02*
X0181283Y0094918D01*
X0180615Y0094918D01*
X0181283Y0094918D01*
X0180615Y0094918D01*
X0181283Y0094918D01*
X0180615Y0094918D01*
X0181283Y0094918D01*
X0181283Y0093920D02*
X0180615Y0093920D01*
X0181283Y0093920D01*
X0180615Y0093920D01*
X0181283Y0093920D01*
X0180615Y0093920D01*
X0181283Y0093920D01*
X0180615Y0093920D01*
X0176415Y0093920D02*
X0173959Y0093920D01*
X0176415Y0093920D01*
X0173959Y0093920D01*
X0176415Y0093920D01*
X0173959Y0093920D01*
X0176415Y0093920D01*
X0173959Y0093920D01*
X0174957Y0092921D02*
X0176415Y0092921D01*
X0174957Y0092921D01*
X0176415Y0092921D01*
X0174957Y0092921D01*
X0176415Y0092921D01*
X0174957Y0092921D01*
X0176415Y0092921D01*
X0176415Y0091923D02*
X0175956Y0091923D01*
X0176415Y0091923D01*
X0175956Y0091923D01*
X0176415Y0091923D01*
X0175956Y0091923D01*
X0176415Y0091923D01*
X0175956Y0091923D01*
X0176415Y0094918D02*
X0172885Y0094918D01*
X0176415Y0094918D01*
X0172885Y0094918D01*
X0176415Y0094918D01*
X0172885Y0094918D01*
X0176415Y0094918D01*
X0172885Y0094918D01*
X0171887Y0095917D02*
X0175597Y0095917D01*
X0171887Y0095917D01*
X0175597Y0095917D01*
X0171887Y0095917D01*
X0175597Y0095917D01*
X0171887Y0095917D01*
X0175597Y0095917D01*
D17*
X0189333Y0047500D03*
X0193333Y0047500D03*
X0197333Y0047500D03*
D18*
X0162172Y0082441D03*
X0162172Y0085000D03*
X0162172Y0087559D03*
X0154495Y0087559D03*
X0154495Y0085000D03*
X0154495Y0082441D03*
D19*
X0115433Y0070014D02*
X0115433Y0042100D01*
X0134136Y0042100D01*
X0133971Y0042327D01*
X0133607Y0043042D01*
X0133359Y0043806D01*
X0133233Y0044599D01*
X0133233Y0044600D01*
X0137933Y0044600D01*
X0137933Y0045400D01*
X0133233Y0045400D01*
X0133233Y0045401D01*
X0133359Y0046194D01*
X0133607Y0046958D01*
X0133971Y0047673D01*
X0134209Y0048000D01*
X0121505Y0048000D01*
X0118073Y0051431D01*
X0117159Y0051431D01*
X0116222Y0052369D01*
X0116222Y0057631D01*
X0116605Y0058014D01*
X0116512Y0058360D01*
X0116512Y0059600D01*
X0119481Y0059600D01*
X0119481Y0060400D01*
X0119481Y0063368D01*
X0118241Y0063368D01*
X0117734Y0063233D01*
X0117280Y0062971D01*
X0116910Y0062600D01*
X0116648Y0062146D01*
X0116512Y0061640D01*
X0116512Y0060400D01*
X0119481Y0060400D01*
X0120281Y0060400D01*
X0120281Y0063368D01*
X0121521Y0063368D01*
X0122027Y0063233D01*
X0122481Y0062971D01*
X0122851Y0062600D01*
X0123113Y0062146D01*
X0123218Y0061757D01*
X0123218Y0062285D01*
X0124501Y0063568D01*
X0129071Y0063568D01*
X0130355Y0062285D01*
X0130355Y0057722D01*
X0130445Y0057631D01*
X0130445Y0052369D01*
X0130076Y0052000D01*
X0141333Y0052000D01*
X0141333Y0053187D01*
X0140748Y0053772D01*
X0140283Y0054893D01*
X0140283Y0056107D01*
X0140748Y0057228D01*
X0141606Y0058086D01*
X0141802Y0058167D01*
X0136333Y0063636D01*
X0136333Y0069273D01*
X0135919Y0068272D01*
X0135061Y0067414D01*
X0133940Y0066950D01*
X0132727Y0066950D01*
X0131606Y0067414D01*
X0130748Y0068272D01*
X0130283Y0069393D01*
X0130283Y0070607D01*
X0130748Y0071728D01*
X0131333Y0072313D01*
X0131333Y0076313D01*
X0130013Y0076313D01*
X0129076Y0077251D01*
X0129076Y0080938D01*
X0129201Y0081063D01*
X0129076Y0081188D01*
X0129076Y0084875D01*
X0129201Y0085000D01*
X0129076Y0085125D01*
X0129076Y0088812D01*
X0129399Y0089136D01*
X0129371Y0089184D01*
X0129276Y0089540D01*
X0129276Y0090715D01*
X0133143Y0090715D01*
X0133143Y0091096D01*
X0133143Y0093487D01*
X0130492Y0093487D01*
X0130135Y0093391D01*
X0129816Y0093207D01*
X0129556Y0092946D01*
X0129371Y0092627D01*
X0129276Y0092271D01*
X0129276Y0091096D01*
X0133143Y0091096D01*
X0133524Y0091096D01*
X0137391Y0091096D01*
X0137391Y0092271D01*
X0137295Y0092627D01*
X0137111Y0092946D01*
X0136850Y0093207D01*
X0136531Y0093391D01*
X0136175Y0093487D01*
X0133524Y0093487D01*
X0133524Y0091096D01*
X0133524Y0090715D01*
X0137391Y0090715D01*
X0137391Y0089540D01*
X0137295Y0089184D01*
X0137286Y0089168D01*
X0137688Y0089168D01*
X0138106Y0089586D01*
X0139227Y0090050D01*
X0140440Y0090050D01*
X0141561Y0089586D01*
X0142419Y0088728D01*
X0142883Y0087607D01*
X0142883Y0086393D01*
X0142419Y0085272D01*
X0141833Y0084687D01*
X0141833Y0075346D01*
X0142265Y0075346D01*
X0142265Y0076175D01*
X0143202Y0077112D01*
X0147883Y0077112D01*
X0147883Y0093186D01*
X0148147Y0093450D01*
X0152980Y0093450D01*
X0152934Y0093496D01*
X0152934Y0093931D01*
X0152159Y0093931D01*
X0151222Y0094869D01*
X0151222Y0095708D01*
X0150483Y0096447D01*
X0149280Y0097650D01*
X0149280Y0104340D01*
X0148748Y0104872D01*
X0148283Y0105993D01*
X0148283Y0107207D01*
X0148748Y0108328D01*
X0149606Y0109186D01*
X0150727Y0109650D01*
X0151940Y0109650D01*
X0153061Y0109186D01*
X0153919Y0108328D01*
X0154383Y0107207D01*
X0154383Y0105993D01*
X0153919Y0104872D01*
X0153386Y0104340D01*
X0153386Y0101068D01*
X0157815Y0101068D01*
X0158475Y0100409D01*
X0158655Y0100589D01*
X0158974Y0100773D01*
X0159330Y0100868D01*
X0161280Y0100868D01*
X0161280Y0097900D01*
X0162080Y0097900D01*
X0165245Y0097900D01*
X0165245Y0099653D01*
X0165150Y0100009D01*
X0164965Y0100328D01*
X0164705Y0100589D01*
X0164386Y0100773D01*
X0164029Y0100868D01*
X0162080Y0100868D01*
X0162080Y0097900D01*
X0162080Y0097100D01*
X0165245Y0097100D01*
X0165245Y0096000D01*
X0171662Y0096000D01*
X0173109Y0094553D01*
X0173184Y0094553D01*
X0175337Y0092400D01*
X0176515Y0091222D01*
X0176515Y0095140D01*
X0171055Y0100600D01*
X0170227Y0100600D01*
X0169106Y0101064D01*
X0168248Y0101922D01*
X0167783Y0103043D01*
X0167783Y0104257D01*
X0168248Y0105378D01*
X0169106Y0106236D01*
X0170227Y0106700D01*
X0171440Y0106700D01*
X0172561Y0106236D01*
X0173419Y0105378D01*
X0173883Y0104257D01*
X0173883Y0103428D01*
X0179343Y0097968D01*
X0180515Y0096797D01*
X0180515Y0093687D01*
X0181383Y0093687D01*
X0181383Y0096802D01*
X0180826Y0097359D01*
X0180362Y0098480D01*
X0180362Y0099693D01*
X0180826Y0100814D01*
X0181684Y0101672D01*
X0182805Y0102137D01*
X0184019Y0102137D01*
X0185140Y0101672D01*
X0185998Y0100814D01*
X0186462Y0099693D01*
X0186462Y0098480D01*
X0185998Y0097359D01*
X0185283Y0096645D01*
X0185283Y0093687D01*
X0186654Y0093687D01*
X0187381Y0092959D01*
X0189778Y0092959D01*
X0193684Y0089053D01*
X0194886Y0087850D01*
X0194886Y0077939D01*
X0201233Y0077939D01*
X0201233Y0092061D01*
X0193202Y0092061D01*
X0192265Y0092999D01*
X0192265Y0099049D01*
X0193202Y0099986D01*
X0201233Y0099986D01*
X0201233Y0120083D01*
X0200567Y0118930D01*
X0200567Y0118930D01*
X0200567Y0118930D01*
X0198055Y0116822D01*
X0198055Y0116822D01*
X0194973Y0115700D01*
X0191693Y0115700D01*
X0188612Y0116822D01*
X0188612Y0116822D01*
X0186099Y0118930D01*
X0186099Y0118930D01*
X0184459Y0121770D01*
X0184459Y0121770D01*
X0183890Y0125000D01*
X0183890Y0125000D01*
X0184459Y0128230D01*
X0184459Y0128230D01*
X0186099Y0131070D01*
X0186099Y0131070D01*
X0188280Y0132900D01*
X0128387Y0132900D01*
X0130567Y0131070D01*
X0130567Y0131070D01*
X0132207Y0128230D01*
X0132207Y0128230D01*
X0132777Y0125000D01*
X0132777Y0125000D01*
X0132207Y0121770D01*
X0132207Y0121770D01*
X0130567Y0118930D01*
X0130567Y0118930D01*
X0130567Y0118930D01*
X0128055Y0116822D01*
X0128055Y0116822D01*
X0124973Y0115700D01*
X0121693Y0115700D01*
X0118612Y0116822D01*
X0118612Y0116822D01*
X0116099Y0118930D01*
X0116099Y0118930D01*
X0115433Y0120083D01*
X0115433Y0099986D01*
X0123465Y0099986D01*
X0124402Y0099049D01*
X0124402Y0092999D01*
X0123465Y0092061D01*
X0115433Y0092061D01*
X0115433Y0077939D01*
X0123465Y0077939D01*
X0124402Y0077001D01*
X0124402Y0070951D01*
X0123465Y0070014D01*
X0115433Y0070014D01*
X0115433Y0069545D02*
X0130283Y0069545D01*
X0130283Y0070343D02*
X0123794Y0070343D01*
X0124402Y0071142D02*
X0130505Y0071142D01*
X0130960Y0071940D02*
X0124402Y0071940D01*
X0124402Y0072739D02*
X0131333Y0072739D01*
X0131333Y0073537D02*
X0124402Y0073537D01*
X0124402Y0074336D02*
X0131333Y0074336D01*
X0131333Y0075134D02*
X0124402Y0075134D01*
X0124402Y0075933D02*
X0131333Y0075933D01*
X0129595Y0076732D02*
X0124402Y0076732D01*
X0123873Y0077530D02*
X0129076Y0077530D01*
X0129076Y0078329D02*
X0115433Y0078329D01*
X0115433Y0079127D02*
X0129076Y0079127D01*
X0129076Y0079926D02*
X0115433Y0079926D01*
X0115433Y0080724D02*
X0129076Y0080724D01*
X0129076Y0081523D02*
X0115433Y0081523D01*
X0115433Y0082321D02*
X0129076Y0082321D01*
X0129076Y0083120D02*
X0115433Y0083120D01*
X0115433Y0083918D02*
X0129076Y0083918D01*
X0129076Y0084717D02*
X0115433Y0084717D01*
X0115433Y0085515D02*
X0129076Y0085515D01*
X0129076Y0086314D02*
X0115433Y0086314D01*
X0115433Y0087112D02*
X0129076Y0087112D01*
X0129076Y0087911D02*
X0115433Y0087911D01*
X0115433Y0088709D02*
X0129076Y0088709D01*
X0129285Y0089508D02*
X0115433Y0089508D01*
X0115433Y0090306D02*
X0129276Y0090306D01*
X0129276Y0091105D02*
X0115433Y0091105D01*
X0115433Y0091903D02*
X0129276Y0091903D01*
X0129414Y0092702D02*
X0124105Y0092702D01*
X0124402Y0093500D02*
X0152934Y0093500D01*
X0151791Y0094299D02*
X0124402Y0094299D01*
X0124402Y0095097D02*
X0151222Y0095097D01*
X0151034Y0095896D02*
X0124402Y0095896D01*
X0124402Y0096694D02*
X0150235Y0096694D01*
X0149437Y0097493D02*
X0124402Y0097493D01*
X0124402Y0098291D02*
X0149280Y0098291D01*
X0149280Y0099090D02*
X0124361Y0099090D01*
X0123562Y0099888D02*
X0149280Y0099888D01*
X0149280Y0100687D02*
X0115433Y0100687D01*
X0115433Y0101485D02*
X0149280Y0101485D01*
X0149280Y0102284D02*
X0115433Y0102284D01*
X0115433Y0103082D02*
X0149280Y0103082D01*
X0149280Y0103881D02*
X0115433Y0103881D01*
X0115433Y0104679D02*
X0148941Y0104679D01*
X0148497Y0105478D02*
X0115433Y0105478D01*
X0115433Y0106276D02*
X0148283Y0106276D01*
X0148283Y0107075D02*
X0115433Y0107075D01*
X0115433Y0107873D02*
X0148560Y0107873D01*
X0149092Y0108672D02*
X0115433Y0108672D01*
X0115433Y0109470D02*
X0150293Y0109470D01*
X0152373Y0109470D02*
X0201233Y0109470D01*
X0201233Y0108672D02*
X0153575Y0108672D01*
X0154107Y0107873D02*
X0201233Y0107873D01*
X0201233Y0107075D02*
X0154383Y0107075D01*
X0154383Y0106276D02*
X0169204Y0106276D01*
X0168348Y0105478D02*
X0154170Y0105478D01*
X0153726Y0104679D02*
X0167958Y0104679D01*
X0167783Y0103881D02*
X0153386Y0103881D01*
X0153386Y0103082D02*
X0167783Y0103082D01*
X0168098Y0102284D02*
X0153386Y0102284D01*
X0153386Y0101485D02*
X0168685Y0101485D01*
X0170017Y0100687D02*
X0164535Y0100687D01*
X0165182Y0099888D02*
X0171767Y0099888D01*
X0172565Y0099090D02*
X0165245Y0099090D01*
X0165245Y0098291D02*
X0173364Y0098291D01*
X0174162Y0097493D02*
X0162080Y0097493D01*
X0161680Y0097500D02*
X0158333Y0094154D01*
X0158333Y0090000D01*
X0159833Y0088500D01*
X0159833Y0086839D01*
X0161672Y0085000D01*
X0162172Y0085000D01*
X0162172Y0082441D02*
X0162172Y0080839D01*
X0159833Y0078500D01*
X0159833Y0064953D01*
X0168333Y0056453D01*
X0168333Y0052000D01*
X0173333Y0052000D01*
X0168333Y0052000D02*
X0168326Y0052008D01*
X0163826Y0052008D01*
X0168333Y0052000D02*
X0168333Y0045000D01*
X0158333Y0045000D02*
X0158333Y0055984D01*
X0163499Y0055984D01*
X0158333Y0055984D02*
X0158333Y0060000D01*
X0142797Y0060000D01*
X0138333Y0064464D01*
X0138333Y0082000D01*
X0137333Y0083000D01*
X0133365Y0083000D01*
X0133333Y0083031D01*
X0141833Y0083120D02*
X0147883Y0083120D01*
X0147883Y0083918D02*
X0141833Y0083918D01*
X0141863Y0084717D02*
X0147883Y0084717D01*
X0147883Y0085515D02*
X0142520Y0085515D01*
X0142850Y0086314D02*
X0147883Y0086314D01*
X0147883Y0087112D02*
X0142883Y0087112D01*
X0142757Y0087911D02*
X0147883Y0087911D01*
X0147883Y0088709D02*
X0142427Y0088709D01*
X0141639Y0089508D02*
X0147883Y0089508D01*
X0147883Y0090306D02*
X0137391Y0090306D01*
X0137382Y0089508D02*
X0138028Y0089508D01*
X0137391Y0091105D02*
X0147883Y0091105D01*
X0147883Y0091903D02*
X0137391Y0091903D01*
X0137252Y0092702D02*
X0147883Y0092702D01*
X0155833Y0093500D02*
X0156833Y0092500D01*
X0156833Y0091000D01*
X0154495Y0088661D01*
X0154495Y0087559D01*
X0154495Y0085000D02*
X0152833Y0085000D01*
X0152333Y0084500D01*
X0152333Y0081500D01*
X0154333Y0079500D01*
X0156333Y0079500D01*
X0156833Y0079000D01*
X0156833Y0076000D01*
X0154180Y0073346D01*
X0145833Y0073346D01*
X0140180Y0073346D01*
X0139833Y0073000D01*
X0139833Y0068500D01*
X0141333Y0067000D01*
X0145433Y0066253D02*
X0146233Y0066253D01*
X0146233Y0063088D01*
X0147986Y0063088D01*
X0148342Y0063184D01*
X0148661Y0063368D01*
X0148922Y0063629D01*
X0149106Y0063948D01*
X0149202Y0064304D01*
X0149202Y0066254D01*
X0146233Y0066254D01*
X0146233Y0067054D01*
X0149202Y0067054D01*
X0149202Y0069003D01*
X0149106Y0069359D01*
X0148922Y0069679D01*
X0148742Y0069859D01*
X0149402Y0070518D01*
X0149402Y0071346D01*
X0155008Y0071346D01*
X0156333Y0072672D01*
X0156333Y0062000D01*
X0143626Y0062000D01*
X0141676Y0063950D01*
X0141940Y0063950D01*
X0142498Y0064181D01*
X0142560Y0063948D01*
X0142745Y0063629D01*
X0143005Y0063368D01*
X0143324Y0063184D01*
X0143680Y0063088D01*
X0145433Y0063088D01*
X0145433Y0066253D01*
X0145433Y0065552D02*
X0146233Y0065552D01*
X0146233Y0064754D02*
X0145433Y0064754D01*
X0145433Y0063955D02*
X0146233Y0063955D01*
X0146233Y0063157D02*
X0145433Y0063157D01*
X0143424Y0063157D02*
X0142469Y0063157D01*
X0142558Y0063955D02*
X0141953Y0063955D01*
X0143267Y0062358D02*
X0156333Y0062358D01*
X0156333Y0063157D02*
X0148242Y0063157D01*
X0149108Y0063955D02*
X0156333Y0063955D01*
X0156333Y0064754D02*
X0149202Y0064754D01*
X0149202Y0065552D02*
X0156333Y0065552D01*
X0156333Y0066351D02*
X0146233Y0066351D01*
X0149202Y0067149D02*
X0156333Y0067149D01*
X0156333Y0067948D02*
X0149202Y0067948D01*
X0149202Y0068746D02*
X0156333Y0068746D01*
X0156333Y0069545D02*
X0148999Y0069545D01*
X0149227Y0070343D02*
X0156333Y0070343D01*
X0156333Y0071142D02*
X0149402Y0071142D01*
X0155602Y0071940D02*
X0156333Y0071940D01*
X0142822Y0076732D02*
X0141833Y0076732D01*
X0141833Y0077530D02*
X0147883Y0077530D01*
X0147883Y0078329D02*
X0141833Y0078329D01*
X0141833Y0079127D02*
X0147883Y0079127D01*
X0147883Y0079926D02*
X0141833Y0079926D01*
X0141833Y0080724D02*
X0147883Y0080724D01*
X0147883Y0081523D02*
X0141833Y0081523D01*
X0141833Y0082321D02*
X0147883Y0082321D01*
X0154495Y0082441D02*
X0155936Y0081000D01*
X0157955Y0081000D01*
X0158333Y0080621D01*
X0158333Y0060000D01*
X0170833Y0064000D02*
X0171833Y0063000D01*
X0174833Y0063000D01*
X0170833Y0064000D02*
X0170833Y0066654D01*
X0174487Y0073346D02*
X0178333Y0069500D01*
X0178333Y0045000D01*
X0184765Y0045763D02*
X0187128Y0043400D01*
X0191233Y0043400D01*
X0193333Y0045500D01*
X0193333Y0047500D01*
X0189333Y0047500D02*
X0189333Y0051000D01*
X0188333Y0052000D01*
X0188333Y0061654D01*
X0181333Y0061000D02*
X0181333Y0069500D01*
X0178515Y0072319D01*
X0178515Y0086969D01*
X0178515Y0095969D01*
X0170833Y0103650D01*
X0173708Y0104679D02*
X0201233Y0104679D01*
X0201233Y0103881D02*
X0173883Y0103881D01*
X0174229Y0103082D02*
X0201233Y0103082D01*
X0201233Y0102284D02*
X0175028Y0102284D01*
X0175826Y0101485D02*
X0181497Y0101485D01*
X0180774Y0100687D02*
X0176625Y0100687D01*
X0177423Y0099888D02*
X0180443Y0099888D01*
X0180362Y0099090D02*
X0178222Y0099090D01*
X0179020Y0098291D02*
X0180440Y0098291D01*
X0180771Y0097493D02*
X0179819Y0097493D01*
X0180515Y0096694D02*
X0181383Y0096694D01*
X0181383Y0095896D02*
X0180515Y0095896D01*
X0180515Y0095097D02*
X0181383Y0095097D01*
X0181383Y0094299D02*
X0180515Y0094299D01*
X0176515Y0094299D02*
X0173438Y0094299D01*
X0174237Y0093500D02*
X0176515Y0093500D01*
X0176515Y0092702D02*
X0175035Y0092702D01*
X0175834Y0091903D02*
X0176515Y0091903D01*
X0172333Y0092500D02*
X0170833Y0094000D01*
X0161833Y0094000D01*
X0159833Y0092000D01*
X0159833Y0091000D01*
X0162172Y0088661D01*
X0162172Y0087559D01*
X0158583Y0093578D02*
X0158023Y0094139D01*
X0158475Y0094591D01*
X0158655Y0094411D01*
X0158974Y0094227D01*
X0159177Y0094172D01*
X0158583Y0093578D01*
X0158850Y0094299D02*
X0158182Y0094299D01*
X0165245Y0096694D02*
X0174961Y0096694D01*
X0175759Y0095896D02*
X0171766Y0095896D01*
X0172564Y0095097D02*
X0176515Y0095097D01*
X0185283Y0095097D02*
X0192265Y0095097D01*
X0192265Y0094299D02*
X0185283Y0094299D01*
X0185283Y0095896D02*
X0192265Y0095896D01*
X0192265Y0096694D02*
X0185333Y0096694D01*
X0186053Y0097493D02*
X0192265Y0097493D01*
X0192265Y0098291D02*
X0186384Y0098291D01*
X0186462Y0099090D02*
X0192306Y0099090D01*
X0193105Y0099888D02*
X0186381Y0099888D01*
X0186051Y0100687D02*
X0201233Y0100687D01*
X0201233Y0101485D02*
X0185327Y0101485D01*
X0173319Y0105478D02*
X0201233Y0105478D01*
X0201233Y0106276D02*
X0172463Y0106276D01*
X0162080Y0100687D02*
X0161280Y0100687D01*
X0161280Y0099888D02*
X0162080Y0099888D01*
X0162080Y0099090D02*
X0161280Y0099090D01*
X0161280Y0098291D02*
X0162080Y0098291D01*
X0158825Y0100687D02*
X0158197Y0100687D01*
X0133524Y0092702D02*
X0133143Y0092702D01*
X0133143Y0091903D02*
X0133524Y0091903D01*
X0133524Y0091105D02*
X0133143Y0091105D01*
X0139833Y0087000D02*
X0139833Y0073000D01*
X0141833Y0075933D02*
X0142265Y0075933D01*
X0133333Y0079094D02*
X0133333Y0070000D01*
X0130551Y0068746D02*
X0115433Y0068746D01*
X0115433Y0067948D02*
X0131072Y0067948D01*
X0132245Y0067149D02*
X0115433Y0067149D01*
X0115433Y0066351D02*
X0136333Y0066351D01*
X0136333Y0067149D02*
X0134421Y0067149D01*
X0135595Y0067948D02*
X0136333Y0067948D01*
X0136333Y0068746D02*
X0136115Y0068746D01*
X0136333Y0065552D02*
X0115433Y0065552D01*
X0115433Y0064754D02*
X0136333Y0064754D01*
X0136333Y0063955D02*
X0115433Y0063955D01*
X0115433Y0063157D02*
X0117603Y0063157D01*
X0116770Y0062358D02*
X0115433Y0062358D01*
X0115433Y0061560D02*
X0116512Y0061560D01*
X0116512Y0060761D02*
X0115433Y0060761D01*
X0115433Y0059963D02*
X0119481Y0059963D01*
X0119481Y0060761D02*
X0120281Y0060761D01*
X0120281Y0061560D02*
X0119481Y0061560D01*
X0119481Y0062358D02*
X0120281Y0062358D01*
X0120281Y0063157D02*
X0119481Y0063157D01*
X0122159Y0063157D02*
X0124089Y0063157D01*
X0123291Y0062358D02*
X0122991Y0062358D01*
X0126786Y0060000D02*
X0126786Y0055106D01*
X0126680Y0055000D01*
X0130445Y0055172D02*
X0140283Y0055172D01*
X0140283Y0055970D02*
X0130445Y0055970D01*
X0130445Y0056769D02*
X0140558Y0056769D01*
X0141087Y0057567D02*
X0130445Y0057567D01*
X0130355Y0058366D02*
X0141603Y0058366D01*
X0140805Y0059164D02*
X0130355Y0059164D01*
X0130355Y0059963D02*
X0140006Y0059963D01*
X0139208Y0060761D02*
X0130355Y0060761D01*
X0130355Y0061560D02*
X0138409Y0061560D01*
X0137611Y0062358D02*
X0130282Y0062358D01*
X0129483Y0063157D02*
X0136812Y0063157D01*
X0143333Y0055500D02*
X0143333Y0050000D01*
X0148333Y0050000D01*
X0148333Y0045000D01*
X0137933Y0044791D02*
X0115433Y0044791D01*
X0115433Y0043993D02*
X0133329Y0043993D01*
X0133558Y0043194D02*
X0115433Y0043194D01*
X0115433Y0042396D02*
X0133936Y0042396D01*
X0133263Y0045590D02*
X0115433Y0045590D01*
X0115433Y0046388D02*
X0133422Y0046388D01*
X0133724Y0047187D02*
X0115433Y0047187D01*
X0115433Y0047985D02*
X0134198Y0047985D01*
X0143333Y0050000D02*
X0122333Y0050000D01*
X0119987Y0052346D01*
X0119987Y0055000D01*
X0116222Y0055172D02*
X0115433Y0055172D01*
X0115433Y0055970D02*
X0116222Y0055970D01*
X0116222Y0056769D02*
X0115433Y0056769D01*
X0115433Y0057567D02*
X0116222Y0057567D01*
X0116512Y0058366D02*
X0115433Y0058366D01*
X0115433Y0059164D02*
X0116512Y0059164D01*
X0116222Y0054373D02*
X0115433Y0054373D01*
X0115433Y0053575D02*
X0116222Y0053575D01*
X0116222Y0052776D02*
X0115433Y0052776D01*
X0115433Y0051978D02*
X0116613Y0051978D01*
X0115433Y0051179D02*
X0118326Y0051179D01*
X0119124Y0050381D02*
X0115433Y0050381D01*
X0115433Y0049582D02*
X0119923Y0049582D01*
X0120721Y0048784D02*
X0115433Y0048784D01*
X0130445Y0052776D02*
X0141333Y0052776D01*
X0140945Y0053575D02*
X0130445Y0053575D01*
X0130445Y0054373D02*
X0140499Y0054373D01*
X0182162Y0071500D02*
X0182765Y0070897D01*
X0182765Y0072328D01*
X0183936Y0073500D01*
X0183936Y0073500D01*
X0186333Y0075897D01*
X0186333Y0076556D01*
X0186175Y0076513D01*
X0183524Y0076513D01*
X0183524Y0078904D01*
X0183143Y0078904D01*
X0183143Y0076513D01*
X0180515Y0076513D01*
X0180515Y0073147D01*
X0182162Y0071500D01*
X0182520Y0071142D02*
X0182765Y0071142D01*
X0182765Y0071940D02*
X0181721Y0071940D01*
X0180923Y0072739D02*
X0183175Y0072739D01*
X0183974Y0073537D02*
X0180515Y0073537D01*
X0180515Y0074336D02*
X0184772Y0074336D01*
X0185571Y0075134D02*
X0180515Y0075134D01*
X0180515Y0075933D02*
X0186333Y0075933D01*
X0188333Y0075069D02*
X0188333Y0083000D01*
X0190883Y0084056D02*
X0187971Y0086969D01*
X0183333Y0086969D01*
X0178515Y0086969D01*
X0183333Y0083031D02*
X0183365Y0083000D01*
X0190883Y0084056D02*
X0190883Y0074944D01*
X0188333Y0072394D01*
X0188333Y0068346D01*
X0184765Y0071500D02*
X0188333Y0075069D01*
X0183333Y0074500D02*
X0183333Y0079094D01*
X0183143Y0078329D02*
X0183524Y0078329D01*
X0183524Y0077530D02*
X0183143Y0077530D01*
X0183143Y0076732D02*
X0183524Y0076732D01*
X0174487Y0073346D02*
X0170833Y0073346D01*
X0184765Y0071500D02*
X0184765Y0045763D01*
X0197333Y0047500D02*
X0197333Y0051000D01*
X0198333Y0052000D01*
X0198333Y0061654D01*
X0201233Y0078329D02*
X0194886Y0078329D01*
X0194886Y0079127D02*
X0201233Y0079127D01*
X0201233Y0079926D02*
X0194886Y0079926D01*
X0194886Y0080724D02*
X0201233Y0080724D01*
X0201233Y0081523D02*
X0194886Y0081523D01*
X0194886Y0082321D02*
X0201233Y0082321D01*
X0201233Y0083120D02*
X0194886Y0083120D01*
X0194886Y0083918D02*
X0201233Y0083918D01*
X0201233Y0084717D02*
X0194886Y0084717D01*
X0194886Y0085515D02*
X0201233Y0085515D01*
X0201233Y0086314D02*
X0194886Y0086314D01*
X0194886Y0087112D02*
X0201233Y0087112D01*
X0201233Y0087911D02*
X0194826Y0087911D01*
X0194028Y0088709D02*
X0201233Y0088709D01*
X0201233Y0089508D02*
X0193229Y0089508D01*
X0192431Y0090306D02*
X0201233Y0090306D01*
X0201233Y0091105D02*
X0191632Y0091105D01*
X0190834Y0091903D02*
X0201233Y0091903D01*
X0192562Y0092702D02*
X0190035Y0092702D01*
X0192265Y0093500D02*
X0186840Y0093500D01*
X0201233Y0110269D02*
X0115433Y0110269D01*
X0115433Y0111068D02*
X0201233Y0111068D01*
X0201233Y0111866D02*
X0115433Y0111866D01*
X0115433Y0112665D02*
X0201233Y0112665D01*
X0201233Y0113463D02*
X0115433Y0113463D01*
X0115433Y0114262D02*
X0201233Y0114262D01*
X0201233Y0115060D02*
X0115433Y0115060D01*
X0115433Y0115859D02*
X0121258Y0115859D01*
X0119064Y0116657D02*
X0115433Y0116657D01*
X0115433Y0117456D02*
X0117856Y0117456D01*
X0116905Y0118254D02*
X0115433Y0118254D01*
X0115433Y0119053D02*
X0116028Y0119053D01*
X0115567Y0119851D02*
X0115433Y0119851D01*
X0125409Y0115859D02*
X0191258Y0115859D01*
X0189064Y0116657D02*
X0127603Y0116657D01*
X0128810Y0117456D02*
X0187856Y0117456D01*
X0186905Y0118254D02*
X0129762Y0118254D01*
X0130638Y0119053D02*
X0186028Y0119053D01*
X0185567Y0119851D02*
X0131099Y0119851D01*
X0131560Y0120650D02*
X0185106Y0120650D01*
X0184645Y0121448D02*
X0132021Y0121448D01*
X0132291Y0122247D02*
X0184375Y0122247D01*
X0184235Y0123045D02*
X0132432Y0123045D01*
X0132573Y0123844D02*
X0184094Y0123844D01*
X0183953Y0124642D02*
X0132714Y0124642D01*
X0132699Y0125441D02*
X0183968Y0125441D01*
X0184108Y0126239D02*
X0132558Y0126239D01*
X0132417Y0127038D02*
X0184249Y0127038D01*
X0184390Y0127836D02*
X0132277Y0127836D01*
X0131973Y0128635D02*
X0184693Y0128635D01*
X0185154Y0129433D02*
X0131512Y0129433D01*
X0131051Y0130232D02*
X0185615Y0130232D01*
X0186076Y0131030D02*
X0130590Y0131030D01*
X0129663Y0131829D02*
X0187003Y0131829D01*
X0187955Y0132627D02*
X0128712Y0132627D01*
X0195409Y0115859D02*
X0201233Y0115859D01*
X0201233Y0116657D02*
X0197603Y0116657D01*
X0198810Y0117456D02*
X0201233Y0117456D01*
X0201233Y0118254D02*
X0199762Y0118254D01*
X0200638Y0119053D02*
X0201233Y0119053D01*
X0201233Y0119851D02*
X0201099Y0119851D01*
D20*
X0170833Y0103650D03*
X0183412Y0099087D03*
X0151333Y0106600D03*
X0139833Y0087000D03*
X0133333Y0070000D03*
X0141333Y0067000D03*
X0153333Y0066500D03*
X0174833Y0063000D03*
X0181333Y0061000D03*
X0192833Y0063500D03*
X0183333Y0074500D03*
X0188333Y0083000D03*
X0163499Y0055984D03*
X0163826Y0052008D03*
X0173333Y0052000D03*
X0143333Y0055500D03*
D21*
X0183365Y0083000D02*
X0188333Y0083000D01*
X0139802Y0086969D02*
X0133333Y0086969D01*
D22*
X0154987Y0094346D02*
X0154987Y0097500D01*
X0152333Y0097500D01*
X0151333Y0098500D01*
X0151333Y0106600D01*
X0154987Y0094346D02*
X0155833Y0093500D01*
X0172333Y0092500D02*
X0174487Y0090346D01*
X0174487Y0073346D01*
X0192712Y0071137D02*
X0192833Y0071015D01*
X0192833Y0068500D01*
X0192987Y0068346D01*
X0198333Y0068346D01*
X0192833Y0068500D02*
X0192833Y0063500D01*
X0192712Y0071137D02*
X0192712Y0076816D01*
X0192833Y0076938D01*
X0192833Y0087000D01*
X0188928Y0090906D01*
X0183333Y0090906D01*
D23*
X0183333Y0099008D01*
X0183412Y0099087D01*
M02*
