G75*
%MOIN*%
%OFA0B0*%
%FSLAX25Y25*%
%IPPOS*%
%LPD*%
%AMOC8*
5,1,8,0,0,1.08239X$1,22.5*
%
%ADD10R,0.04737X0.05131*%
%ADD11C,0.01990*%
%ADD12C,0.08200*%
%ADD13R,0.08674X0.05524*%
%ADD14R,0.06115X0.03162*%
%ADD15R,0.05131X0.04737*%
%ADD16C,0.13800*%
%ADD17R,0.03300X0.05800*%
%ADD18C,0.00500*%
%ADD19R,0.02572X0.01981*%
D10*
X0145833Y0066654D03*
X0145833Y0073346D03*
X0170833Y0073346D03*
X0170833Y0066654D03*
X0188333Y0068346D03*
X0198333Y0068346D03*
X0198333Y0061654D03*
X0188333Y0061654D03*
D11*
X0128159Y0061373D02*
X0128159Y0058627D01*
X0125413Y0058627D01*
X0125413Y0061373D01*
X0128159Y0061373D01*
X0128159Y0060517D02*
X0125413Y0060517D01*
X0121254Y0061373D02*
X0121254Y0058627D01*
X0118508Y0058627D01*
X0118508Y0061373D01*
X0121254Y0061373D01*
X0121254Y0060517D02*
X0118508Y0060517D01*
D12*
X0138333Y0045000D03*
X0148333Y0045000D03*
X0158333Y0045000D03*
X0168333Y0045000D03*
X0178333Y0045000D03*
D13*
X0197802Y0073976D03*
X0197802Y0096024D03*
X0118865Y0096024D03*
X0118865Y0073976D03*
D14*
X0133333Y0079094D03*
X0133333Y0083031D03*
X0133333Y0086969D03*
X0133333Y0090906D03*
X0183333Y0090906D03*
X0183333Y0086969D03*
X0183333Y0083031D03*
X0183333Y0079094D03*
D15*
X0161680Y0097500D03*
X0154987Y0097500D03*
X0126680Y0055000D03*
X0119987Y0055000D03*
D16*
X0123333Y0125000D03*
X0193333Y0125000D03*
D17*
X0193333Y0047500D03*
X0189333Y0047500D03*
X0197333Y0047500D03*
D18*
X0196083Y0047478D02*
X0194583Y0047478D01*
X0194583Y0047000D02*
X0194583Y0048000D01*
X0196083Y0048000D01*
X0196083Y0047000D01*
X0194583Y0047000D01*
X0194583Y0047976D02*
X0196083Y0047976D01*
X0192083Y0047976D02*
X0190583Y0047976D01*
X0190583Y0048000D02*
X0192083Y0048000D01*
X0192083Y0047000D01*
X0190583Y0047000D01*
X0190583Y0048000D01*
X0190583Y0047478D02*
X0192083Y0047478D01*
D19*
X0162172Y0082441D03*
X0162172Y0085000D03*
X0162172Y0087559D03*
X0154495Y0087559D03*
X0154495Y0085000D03*
X0154495Y0082441D03*
M02*
