G75*
%MOIN*%
%OFA0B0*%
%FSLAX25Y25*%
%IPPOS*%
%LPD*%
%AMOC8*
5,1,8,0,0,1.08239X$1,22.5*
%
%ADD10R,0.03937X0.04331*%
%ADD11C,0.01181*%
%ADD12R,0.07874X0.04724*%
%ADD13R,0.05315X0.02362*%
%ADD14R,0.04331X0.03937*%
%ADD15R,0.01772X0.01181*%
D10*
X0145833Y0066654D03*
X0145833Y0073346D03*
X0170833Y0073346D03*
X0170833Y0066654D03*
X0188333Y0068346D03*
X0198333Y0068346D03*
X0198333Y0061654D03*
X0188333Y0061654D03*
D11*
X0128164Y0061378D02*
X0128164Y0058622D01*
X0125408Y0058622D01*
X0125408Y0061378D01*
X0128164Y0061378D01*
X0128164Y0059744D02*
X0125408Y0059744D01*
X0125408Y0060866D02*
X0128164Y0060866D01*
X0121259Y0061378D02*
X0121259Y0058622D01*
X0118503Y0058622D01*
X0118503Y0061378D01*
X0121259Y0061378D01*
X0121259Y0059744D02*
X0118503Y0059744D01*
X0118503Y0060866D02*
X0121259Y0060866D01*
D12*
X0118865Y0073976D03*
X0118865Y0096024D03*
X0197802Y0096024D03*
X0197802Y0073976D03*
D13*
X0183333Y0079094D03*
X0183333Y0083031D03*
X0183333Y0086969D03*
X0183333Y0090906D03*
X0133333Y0090906D03*
X0133333Y0086969D03*
X0133333Y0083031D03*
X0133333Y0079094D03*
D14*
X0119987Y0055000D03*
X0126680Y0055000D03*
X0154987Y0097500D03*
X0161680Y0097500D03*
D15*
X0162172Y0087559D03*
X0162172Y0085000D03*
X0162172Y0082441D03*
X0154495Y0082441D03*
X0154495Y0085000D03*
X0154495Y0087559D03*
M02*
