%
M48
M72
T01C0.0150
T02C0.0400
T03C0.1300
%
T01
X14333Y5550
X16350Y5598
X16383Y5201
X17333Y5200
X18133Y6100
X17483Y6300
X19283Y6350
X18333Y7450
X18833Y8300
X18341Y9909
X17083Y10365
X15133Y10660
X13983Y8700
X13333Y7000
X14133Y6700
X15333Y6650
T02
X13833Y4500
X14833Y4500
X15833Y4500
X16833Y4500
X17833Y4500
T03
X19333Y12500
X12333Y12500
M30
