G75*
%MOIN*%
%OFA0B0*%
%FSLAX25Y25*%
%IPPOS*%
%LPD*%
%AMOC8*
5,1,8,0,0,1.08239X$1,22.5*
%
%ADD10C,0.07400*%
%ADD11R,0.05000X0.02500*%
%ADD12C,0.01000*%
%ADD13C,0.02700*%
%ADD14C,0.00800*%
%ADD15C,0.01200*%
D10*
X0053750Y0033750D03*
X0063750Y0033750D03*
X0073750Y0033750D03*
X0083750Y0033750D03*
X0093750Y0033750D03*
X0145750Y0033750D03*
X0155750Y0033750D03*
X0165750Y0033750D03*
X0175750Y0033750D03*
X0185750Y0033750D03*
X0237750Y0033750D03*
X0247750Y0033750D03*
X0257750Y0033750D03*
X0267750Y0033750D03*
X0277750Y0033750D03*
X0277750Y0130750D03*
X0267750Y0130750D03*
X0257750Y0130750D03*
X0247750Y0130750D03*
X0237750Y0130750D03*
X0185750Y0130750D03*
X0175750Y0130750D03*
X0165750Y0130750D03*
X0155750Y0130750D03*
X0145750Y0130750D03*
X0093750Y0130750D03*
X0083750Y0130750D03*
X0073750Y0130750D03*
X0063750Y0130750D03*
X0053750Y0130750D03*
X0053750Y0227750D03*
X0063750Y0227750D03*
X0073750Y0227750D03*
X0083750Y0227750D03*
X0093750Y0227750D03*
X0145750Y0227750D03*
X0155750Y0227750D03*
X0165750Y0227750D03*
X0175750Y0227750D03*
X0185750Y0227750D03*
X0237750Y0227750D03*
X0247750Y0227750D03*
X0257750Y0227750D03*
X0267750Y0227750D03*
X0277750Y0227750D03*
D11*
X0277750Y0250750D03*
X0277750Y0254750D03*
X0282750Y0286150D03*
X0282750Y0289350D03*
X0257750Y0289350D03*
X0257750Y0286150D03*
X0232750Y0286150D03*
X0232750Y0289350D03*
X0190750Y0289350D03*
X0190750Y0286150D03*
X0165750Y0286150D03*
X0165750Y0289350D03*
X0140750Y0289350D03*
X0140750Y0286150D03*
X0098750Y0286150D03*
X0098750Y0289350D03*
X0073750Y0289350D03*
X0073750Y0286150D03*
X0048750Y0286150D03*
X0048750Y0289350D03*
X0093750Y0254750D03*
X0093750Y0250750D03*
X0098750Y0192350D03*
X0098750Y0189150D03*
X0073750Y0189150D03*
X0073750Y0192350D03*
X0048750Y0192350D03*
X0048750Y0189150D03*
X0093750Y0157750D03*
X0093750Y0153750D03*
X0140750Y0189150D03*
X0140750Y0192350D03*
X0165750Y0192350D03*
X0165750Y0189150D03*
X0190750Y0189150D03*
X0190750Y0192350D03*
X0185750Y0157750D03*
X0185750Y0153750D03*
X0232750Y0189150D03*
X0232750Y0192350D03*
X0257750Y0192350D03*
X0257750Y0189150D03*
X0282750Y0189150D03*
X0282750Y0192350D03*
X0277750Y0157750D03*
X0277750Y0153750D03*
X0282750Y0095350D03*
X0282750Y0092150D03*
X0257750Y0092150D03*
X0257750Y0095350D03*
X0232750Y0095350D03*
X0232750Y0092150D03*
X0190750Y0092150D03*
X0190750Y0095350D03*
X0165750Y0095350D03*
X0165750Y0092150D03*
X0140750Y0092150D03*
X0140750Y0095350D03*
X0098750Y0095350D03*
X0098750Y0092150D03*
X0073750Y0092150D03*
X0073750Y0095350D03*
X0048750Y0095350D03*
X0048750Y0092150D03*
X0093750Y0060750D03*
X0093750Y0056750D03*
X0185750Y0056750D03*
X0185750Y0060750D03*
X0277750Y0060750D03*
X0277750Y0056750D03*
X0185750Y0250750D03*
X0185750Y0254750D03*
D12*
X0030950Y0108460D02*
X0030950Y0030950D01*
X0049357Y0030950D01*
X0049303Y0031025D01*
X0048931Y0031754D01*
X0048678Y0032532D01*
X0048564Y0033250D01*
X0053250Y0033250D01*
X0053250Y0034250D01*
X0053250Y0038936D01*
X0052532Y0038822D01*
X0051754Y0038569D01*
X0051025Y0038197D01*
X0050362Y0037716D01*
X0049784Y0037138D01*
X0049303Y0036475D01*
X0048931Y0035746D01*
X0048678Y0034968D01*
X0048564Y0034250D01*
X0053250Y0034250D01*
X0054250Y0034250D01*
X0054250Y0038936D01*
X0054968Y0038822D01*
X0055746Y0038569D01*
X0056475Y0038197D01*
X0057138Y0037716D01*
X0057716Y0037138D01*
X0058197Y0036475D01*
X0058569Y0035746D01*
X0058641Y0035526D01*
X0059172Y0036809D01*
X0060691Y0038328D01*
X0062038Y0038886D01*
X0046650Y0054274D01*
X0046650Y0056537D01*
X0046164Y0057022D01*
X0045700Y0058143D01*
X0045700Y0059357D01*
X0046164Y0060478D01*
X0047022Y0061336D01*
X0048143Y0061800D01*
X0049357Y0061800D01*
X0050478Y0061336D01*
X0051336Y0060478D01*
X0051800Y0059357D01*
X0051800Y0058143D01*
X0051336Y0057022D01*
X0050850Y0056537D01*
X0050850Y0056014D01*
X0056039Y0050824D01*
X0055700Y0051643D01*
X0055700Y0052857D01*
X0056164Y0053978D01*
X0057022Y0054836D01*
X0058143Y0055300D01*
X0059357Y0055300D01*
X0060478Y0054836D01*
X0061336Y0053978D01*
X0061800Y0052857D01*
X0061800Y0051643D01*
X0061336Y0050522D01*
X0060850Y0050037D01*
X0060850Y0049620D01*
X0063670Y0046800D01*
X0064357Y0046800D01*
X0065478Y0046336D01*
X0066336Y0045478D01*
X0066800Y0044357D01*
X0066800Y0043143D01*
X0066678Y0042850D01*
X0074215Y0042850D01*
X0074094Y0043143D01*
X0074094Y0044357D01*
X0074558Y0045478D01*
X0075416Y0046336D01*
X0076537Y0046800D01*
X0077750Y0046800D01*
X0078871Y0046336D01*
X0079357Y0045850D01*
X0089880Y0045850D01*
X0093700Y0049670D01*
X0093700Y0050357D01*
X0093964Y0050994D01*
X0092620Y0049650D01*
X0091963Y0049650D01*
X0091478Y0049164D01*
X0090357Y0048700D01*
X0089143Y0048700D01*
X0088022Y0049164D01*
X0087164Y0050022D01*
X0086700Y0051143D01*
X0086700Y0052357D01*
X0087164Y0053478D01*
X0088022Y0054336D01*
X0089143Y0054800D01*
X0089550Y0054800D01*
X0089550Y0058704D01*
X0089596Y0058750D01*
X0089550Y0058796D01*
X0089550Y0062704D01*
X0090546Y0063700D01*
X0091650Y0063700D01*
X0091650Y0073450D01*
X0088297Y0073450D01*
X0083300Y0078447D01*
X0083300Y0065022D01*
X0082978Y0064700D01*
X0064522Y0064700D01*
X0064200Y0065022D01*
X0064200Y0074947D01*
X0064050Y0074797D01*
X0062703Y0073450D01*
X0060763Y0073450D01*
X0060478Y0073164D01*
X0059357Y0072700D01*
X0058143Y0072700D01*
X0057022Y0073164D01*
X0056164Y0074022D01*
X0055700Y0075143D01*
X0055700Y0075830D01*
X0046650Y0084880D01*
X0046650Y0089200D01*
X0045546Y0089200D01*
X0044550Y0090196D01*
X0044550Y0097304D01*
X0045546Y0098300D01*
X0051954Y0098300D01*
X0052804Y0097450D01*
X0064537Y0097450D01*
X0065022Y0097936D01*
X0066143Y0098400D01*
X0067357Y0098400D01*
X0068478Y0097936D01*
X0068963Y0097450D01*
X0069696Y0097450D01*
X0070546Y0098300D01*
X0076954Y0098300D01*
X0077804Y0097450D01*
X0094696Y0097450D01*
X0095546Y0098300D01*
X0101954Y0098300D01*
X0102950Y0097304D01*
X0102950Y0090196D01*
X0101954Y0089200D01*
X0100850Y0089200D01*
X0100850Y0087880D01*
X0096800Y0083830D01*
X0096800Y0083143D01*
X0096336Y0082022D01*
X0095478Y0081164D01*
X0094357Y0080700D01*
X0093143Y0080700D01*
X0092632Y0080912D01*
X0092800Y0080507D01*
X0092800Y0079293D01*
X0092336Y0078172D01*
X0092213Y0078050D01*
X0100703Y0078050D01*
X0103953Y0074800D01*
X0104357Y0074800D01*
X0105478Y0074336D01*
X0106336Y0073478D01*
X0106800Y0072357D01*
X0106800Y0071143D01*
X0106336Y0070022D01*
X0105478Y0069164D01*
X0104357Y0068700D01*
X0103143Y0068700D01*
X0102022Y0069164D01*
X0101164Y0070022D01*
X0100700Y0071143D01*
X0100700Y0071547D01*
X0098797Y0073450D01*
X0095850Y0073450D01*
X0095850Y0063700D01*
X0096954Y0063700D01*
X0097950Y0062704D01*
X0097950Y0058796D01*
X0097904Y0058750D01*
X0097950Y0058704D01*
X0097950Y0054796D01*
X0096954Y0053800D01*
X0095850Y0053800D01*
X0095850Y0052880D01*
X0095506Y0052536D01*
X0096143Y0052800D01*
X0097357Y0052800D01*
X0098478Y0052336D01*
X0099336Y0051478D01*
X0099800Y0050357D01*
X0099800Y0049143D01*
X0099336Y0048022D01*
X0098478Y0047164D01*
X0097357Y0046700D01*
X0096670Y0046700D01*
X0092820Y0042850D01*
X0103901Y0042850D01*
X0105200Y0044149D01*
X0105200Y0044836D01*
X0105664Y0045957D01*
X0106522Y0046815D01*
X0107643Y0047279D01*
X0108857Y0047279D01*
X0109978Y0046815D01*
X0110836Y0045957D01*
X0111300Y0044836D01*
X0111300Y0043622D01*
X0110836Y0042501D01*
X0109978Y0041643D01*
X0108857Y0041179D01*
X0108170Y0041179D01*
X0105641Y0038650D01*
X0096031Y0038650D01*
X0096809Y0038328D01*
X0098328Y0036809D01*
X0099150Y0034824D01*
X0099150Y0032676D01*
X0098435Y0030950D01*
X0116550Y0030950D01*
X0116550Y0108460D01*
X0116062Y0107615D01*
X0116062Y0107615D01*
X0116062Y0107615D01*
X0113523Y0105484D01*
X0113522Y0105484D01*
X0110407Y0104350D01*
X0107093Y0104350D01*
X0103977Y0105484D01*
X0103977Y0105484D01*
X0101438Y0107615D01*
X0101438Y0107615D01*
X0099781Y0110485D01*
X0099781Y0110485D01*
X0099205Y0113750D01*
X0099205Y0113750D01*
X0099781Y0117015D01*
X0099781Y0117015D01*
X0101438Y0119885D01*
X0101438Y0119885D01*
X0101438Y0119885D01*
X0103422Y0121550D01*
X0044078Y0121550D01*
X0046062Y0119885D01*
X0046062Y0119885D01*
X0047719Y0117015D01*
X0047719Y0117015D01*
X0048295Y0113750D01*
X0048295Y0113750D01*
X0047719Y0110485D01*
X0047719Y0110485D01*
X0046062Y0107615D01*
X0046062Y0107615D01*
X0046062Y0107615D01*
X0043523Y0105484D01*
X0043522Y0105484D01*
X0040407Y0104350D01*
X0037093Y0104350D01*
X0033977Y0105484D01*
X0033977Y0105484D01*
X0031438Y0107615D01*
X0031438Y0107615D01*
X0030950Y0108460D01*
X0030950Y0107632D02*
X0031428Y0107632D01*
X0030950Y0106634D02*
X0032607Y0106634D01*
X0033797Y0105635D02*
X0030950Y0105635D01*
X0030950Y0104637D02*
X0036304Y0104637D01*
X0030950Y0103638D02*
X0116550Y0103638D01*
X0116550Y0102640D02*
X0030950Y0102640D01*
X0030950Y0101641D02*
X0116550Y0101641D01*
X0116550Y0100643D02*
X0030950Y0100643D01*
X0030950Y0099644D02*
X0116550Y0099644D01*
X0116550Y0098646D02*
X0030950Y0098646D01*
X0030950Y0097647D02*
X0044893Y0097647D01*
X0044550Y0096649D02*
X0030950Y0096649D01*
X0030950Y0095650D02*
X0044550Y0095650D01*
X0044550Y0094652D02*
X0030950Y0094652D01*
X0030950Y0093653D02*
X0044550Y0093653D01*
X0044550Y0092655D02*
X0030950Y0092655D01*
X0030950Y0091656D02*
X0044550Y0091656D01*
X0044550Y0090658D02*
X0030950Y0090658D01*
X0030950Y0089659D02*
X0045087Y0089659D01*
X0046650Y0088661D02*
X0030950Y0088661D01*
X0030950Y0087662D02*
X0046650Y0087662D01*
X0046650Y0086664D02*
X0030950Y0086664D01*
X0030950Y0085665D02*
X0046650Y0085665D01*
X0046864Y0084667D02*
X0030950Y0084667D01*
X0030950Y0083668D02*
X0047862Y0083668D01*
X0048861Y0082670D02*
X0030950Y0082670D01*
X0030950Y0081671D02*
X0049859Y0081671D01*
X0050858Y0080673D02*
X0030950Y0080673D01*
X0030950Y0079674D02*
X0051856Y0079674D01*
X0052855Y0078676D02*
X0030950Y0078676D01*
X0030950Y0077677D02*
X0053853Y0077677D01*
X0054852Y0076679D02*
X0030950Y0076679D01*
X0030950Y0075680D02*
X0055700Y0075680D01*
X0055891Y0074682D02*
X0030950Y0074682D01*
X0030950Y0073683D02*
X0056504Y0073683D01*
X0062936Y0073683D02*
X0064200Y0073683D01*
X0064200Y0072684D02*
X0030950Y0072684D01*
X0030950Y0071686D02*
X0064200Y0071686D01*
X0064200Y0070687D02*
X0030950Y0070687D01*
X0030950Y0069689D02*
X0064200Y0069689D01*
X0064200Y0068690D02*
X0030950Y0068690D01*
X0030950Y0067692D02*
X0064200Y0067692D01*
X0064200Y0066693D02*
X0030950Y0066693D01*
X0030950Y0065695D02*
X0064200Y0065695D01*
X0064200Y0074682D02*
X0063934Y0074682D01*
X0051111Y0060702D02*
X0089550Y0060702D01*
X0089550Y0059704D02*
X0051656Y0059704D01*
X0051800Y0058705D02*
X0089551Y0058705D01*
X0089550Y0057707D02*
X0051619Y0057707D01*
X0051022Y0056708D02*
X0089550Y0056708D01*
X0089550Y0055710D02*
X0051154Y0055710D01*
X0052152Y0054711D02*
X0056898Y0054711D01*
X0056055Y0053713D02*
X0053151Y0053713D01*
X0054149Y0052714D02*
X0055700Y0052714D01*
X0055700Y0051716D02*
X0055148Y0051716D01*
X0052204Y0048720D02*
X0030950Y0048720D01*
X0030950Y0047722D02*
X0053202Y0047722D01*
X0054201Y0046723D02*
X0030950Y0046723D01*
X0030950Y0045725D02*
X0055199Y0045725D01*
X0056198Y0044726D02*
X0030950Y0044726D01*
X0030950Y0043728D02*
X0057196Y0043728D01*
X0058195Y0042729D02*
X0030950Y0042729D01*
X0030950Y0041731D02*
X0059193Y0041731D01*
X0060192Y0040732D02*
X0030950Y0040732D01*
X0030950Y0039734D02*
X0061190Y0039734D01*
X0061674Y0038735D02*
X0055235Y0038735D01*
X0054250Y0038735D02*
X0053250Y0038735D01*
X0052265Y0038735D02*
X0030950Y0038735D01*
X0030950Y0037737D02*
X0050390Y0037737D01*
X0049493Y0036738D02*
X0030950Y0036738D01*
X0030950Y0035740D02*
X0048929Y0035740D01*
X0048642Y0034741D02*
X0030950Y0034741D01*
X0030950Y0033743D02*
X0053250Y0033743D01*
X0053250Y0034741D02*
X0054250Y0034741D01*
X0054250Y0035740D02*
X0053250Y0035740D01*
X0053250Y0036738D02*
X0054250Y0036738D01*
X0054250Y0037737D02*
X0053250Y0037737D01*
X0057110Y0037737D02*
X0060100Y0037737D01*
X0059143Y0036738D02*
X0058007Y0036738D01*
X0058571Y0035740D02*
X0058729Y0035740D01*
X0048935Y0031746D02*
X0030950Y0031746D01*
X0030950Y0032744D02*
X0048645Y0032744D01*
X0051205Y0049719D02*
X0030950Y0049719D01*
X0030950Y0050717D02*
X0050207Y0050717D01*
X0049208Y0051716D02*
X0030950Y0051716D01*
X0030950Y0052714D02*
X0048210Y0052714D01*
X0047211Y0053713D02*
X0030950Y0053713D01*
X0030950Y0054711D02*
X0046650Y0054711D01*
X0046650Y0055710D02*
X0030950Y0055710D01*
X0030950Y0056708D02*
X0046478Y0056708D01*
X0045881Y0057707D02*
X0030950Y0057707D01*
X0030950Y0058705D02*
X0045700Y0058705D01*
X0045844Y0059704D02*
X0030950Y0059704D01*
X0030950Y0060702D02*
X0046389Y0060702D01*
X0047904Y0061701D02*
X0030950Y0061701D01*
X0030950Y0062699D02*
X0089550Y0062699D01*
X0089550Y0061701D02*
X0049596Y0061701D01*
X0060602Y0054711D02*
X0088929Y0054711D01*
X0087399Y0053713D02*
X0061445Y0053713D01*
X0061800Y0052714D02*
X0086848Y0052714D01*
X0086700Y0051716D02*
X0061800Y0051716D01*
X0061416Y0050717D02*
X0086876Y0050717D01*
X0087468Y0049719D02*
X0060850Y0049719D01*
X0061750Y0048720D02*
X0089094Y0048720D01*
X0090405Y0048720D02*
X0092750Y0048720D01*
X0092689Y0049719D02*
X0093700Y0049719D01*
X0093687Y0050717D02*
X0093849Y0050717D01*
X0095684Y0052714D02*
X0095936Y0052714D01*
X0095850Y0053713D02*
X0116550Y0053713D01*
X0116550Y0054711D02*
X0097865Y0054711D01*
X0097950Y0055710D02*
X0116550Y0055710D01*
X0116550Y0056708D02*
X0097950Y0056708D01*
X0097950Y0057707D02*
X0116550Y0057707D01*
X0116550Y0058705D02*
X0097949Y0058705D01*
X0097950Y0059704D02*
X0116550Y0059704D01*
X0116550Y0060702D02*
X0097950Y0060702D01*
X0097950Y0061701D02*
X0116550Y0061701D01*
X0116550Y0062699D02*
X0097950Y0062699D01*
X0096956Y0063698D02*
X0116550Y0063698D01*
X0116550Y0064696D02*
X0095850Y0064696D01*
X0095850Y0065695D02*
X0116550Y0065695D01*
X0116550Y0066693D02*
X0095850Y0066693D01*
X0095850Y0067692D02*
X0116550Y0067692D01*
X0116550Y0068690D02*
X0095850Y0068690D01*
X0095850Y0069689D02*
X0101498Y0069689D01*
X0100889Y0070687D02*
X0095850Y0070687D01*
X0095850Y0071686D02*
X0100561Y0071686D01*
X0099563Y0072684D02*
X0095850Y0072684D01*
X0091650Y0072684D02*
X0083300Y0072684D01*
X0083300Y0071686D02*
X0091650Y0071686D01*
X0091650Y0070687D02*
X0083300Y0070687D01*
X0083300Y0069689D02*
X0091650Y0069689D01*
X0091650Y0068690D02*
X0083300Y0068690D01*
X0083300Y0067692D02*
X0091650Y0067692D01*
X0091650Y0066693D02*
X0083300Y0066693D01*
X0083300Y0065695D02*
X0091650Y0065695D01*
X0091650Y0064696D02*
X0030950Y0064696D01*
X0030950Y0063698D02*
X0090544Y0063698D01*
X0093750Y0060250D02*
X0093750Y0057250D01*
X0097564Y0052714D02*
X0116550Y0052714D01*
X0116550Y0051716D02*
X0099098Y0051716D01*
X0099651Y0050717D02*
X0116550Y0050717D01*
X0116550Y0049719D02*
X0099800Y0049719D01*
X0099625Y0048720D02*
X0116550Y0048720D01*
X0116550Y0047722D02*
X0099035Y0047722D01*
X0097413Y0046723D02*
X0106431Y0046723D01*
X0105568Y0045725D02*
X0095695Y0045725D01*
X0094696Y0044726D02*
X0105200Y0044726D01*
X0104779Y0043728D02*
X0093698Y0043728D01*
X0090753Y0046723D02*
X0077936Y0046723D01*
X0076352Y0046723D02*
X0064542Y0046723D01*
X0066089Y0045725D02*
X0074805Y0045725D01*
X0074247Y0044726D02*
X0066647Y0044726D01*
X0066800Y0043728D02*
X0074094Y0043728D01*
X0062748Y0047722D02*
X0091752Y0047722D01*
X0097400Y0037737D02*
X0116550Y0037737D01*
X0116550Y0038735D02*
X0105726Y0038735D01*
X0106724Y0039734D02*
X0116550Y0039734D01*
X0116550Y0040732D02*
X0107723Y0040732D01*
X0110065Y0041731D02*
X0116550Y0041731D01*
X0116550Y0042729D02*
X0110930Y0042729D01*
X0111300Y0043728D02*
X0116550Y0043728D01*
X0116550Y0044726D02*
X0111300Y0044726D01*
X0110932Y0045725D02*
X0116550Y0045725D01*
X0116550Y0046723D02*
X0110069Y0046723D01*
X0116550Y0036738D02*
X0098357Y0036738D01*
X0098771Y0035740D02*
X0116550Y0035740D01*
X0116550Y0034741D02*
X0099150Y0034741D01*
X0099150Y0033743D02*
X0116550Y0033743D01*
X0116550Y0032744D02*
X0099150Y0032744D01*
X0098765Y0031746D02*
X0116550Y0031746D01*
X0122950Y0031746D02*
X0140935Y0031746D01*
X0140931Y0031754D02*
X0141303Y0031025D01*
X0141357Y0030950D01*
X0122950Y0030950D01*
X0122950Y0108460D01*
X0123438Y0107615D01*
X0123438Y0107615D01*
X0125977Y0105484D01*
X0125977Y0105484D01*
X0129093Y0104350D01*
X0132407Y0104350D01*
X0135522Y0105484D01*
X0135523Y0105484D01*
X0138062Y0107615D01*
X0139719Y0110485D01*
X0139719Y0110485D01*
X0140295Y0113750D01*
X0139719Y0117015D01*
X0138062Y0119885D01*
X0138062Y0119885D01*
X0136078Y0121550D01*
X0195422Y0121550D01*
X0193438Y0119885D01*
X0191781Y0117015D01*
X0191205Y0113750D01*
X0191205Y0113750D01*
X0191781Y0110485D01*
X0193438Y0107615D01*
X0193438Y0107615D01*
X0195977Y0105484D01*
X0195977Y0105484D01*
X0199093Y0104350D01*
X0202407Y0104350D01*
X0205522Y0105484D01*
X0205523Y0105484D01*
X0208062Y0107615D01*
X0208550Y0108460D01*
X0208550Y0030950D01*
X0190435Y0030950D01*
X0191150Y0032676D01*
X0191150Y0034824D01*
X0190328Y0036809D01*
X0188809Y0038328D01*
X0188031Y0038650D01*
X0197641Y0038650D01*
X0200170Y0041179D01*
X0200857Y0041179D01*
X0201978Y0041643D01*
X0202836Y0042501D01*
X0203300Y0043622D01*
X0203300Y0044836D01*
X0202836Y0045957D01*
X0201978Y0046815D01*
X0200857Y0047279D01*
X0199643Y0047279D01*
X0198522Y0046815D01*
X0197664Y0045957D01*
X0197200Y0044836D01*
X0197200Y0044149D01*
X0195901Y0042850D01*
X0184820Y0042850D01*
X0188670Y0046700D01*
X0189357Y0046700D01*
X0190478Y0047164D01*
X0191336Y0048022D01*
X0191800Y0049143D01*
X0191800Y0050357D01*
X0191336Y0051478D01*
X0190478Y0052336D01*
X0189357Y0052800D01*
X0188143Y0052800D01*
X0187506Y0052536D01*
X0187850Y0052880D01*
X0187850Y0053800D01*
X0188954Y0053800D01*
X0189950Y0054796D01*
X0189950Y0058704D01*
X0189904Y0058750D01*
X0189950Y0058796D01*
X0189950Y0062704D01*
X0188954Y0063700D01*
X0187850Y0063700D01*
X0187850Y0073450D01*
X0190797Y0073450D01*
X0192700Y0071547D01*
X0192700Y0071143D01*
X0193164Y0070022D01*
X0194022Y0069164D01*
X0195143Y0068700D01*
X0196357Y0068700D01*
X0197478Y0069164D01*
X0198336Y0070022D01*
X0198800Y0071143D01*
X0198800Y0072357D01*
X0198336Y0073478D01*
X0197478Y0074336D01*
X0196357Y0074800D01*
X0195953Y0074800D01*
X0192703Y0078050D01*
X0184213Y0078050D01*
X0184336Y0078172D01*
X0184800Y0079293D01*
X0184800Y0080507D01*
X0184632Y0080912D01*
X0185143Y0080700D01*
X0186357Y0080700D01*
X0187478Y0081164D01*
X0188336Y0082022D01*
X0188800Y0083143D01*
X0188800Y0083830D01*
X0192850Y0087880D01*
X0192850Y0089200D01*
X0193954Y0089200D01*
X0194950Y0090196D01*
X0194950Y0097304D01*
X0193954Y0098300D01*
X0187546Y0098300D01*
X0186696Y0097450D01*
X0169804Y0097450D01*
X0168954Y0098300D01*
X0162546Y0098300D01*
X0161696Y0097450D01*
X0160963Y0097450D01*
X0160478Y0097936D01*
X0159357Y0098400D01*
X0158143Y0098400D01*
X0157022Y0097936D01*
X0156537Y0097450D01*
X0144804Y0097450D01*
X0143954Y0098300D01*
X0137546Y0098300D01*
X0136550Y0097304D01*
X0136550Y0090196D01*
X0137546Y0089200D01*
X0138650Y0089200D01*
X0138650Y0084880D01*
X0147700Y0075830D01*
X0147700Y0075143D01*
X0148164Y0074022D01*
X0149022Y0073164D01*
X0150143Y0072700D01*
X0151357Y0072700D01*
X0152478Y0073164D01*
X0152763Y0073450D01*
X0154703Y0073450D01*
X0156050Y0074797D01*
X0156200Y0074947D01*
X0156200Y0065022D01*
X0156522Y0064700D01*
X0174978Y0064700D01*
X0175300Y0065022D01*
X0175300Y0078447D01*
X0180297Y0073450D01*
X0183650Y0073450D01*
X0183650Y0063700D01*
X0182546Y0063700D01*
X0181550Y0062704D01*
X0181550Y0058796D01*
X0181596Y0058750D01*
X0181550Y0058704D01*
X0181550Y0054800D01*
X0181143Y0054800D01*
X0180022Y0054336D01*
X0179164Y0053478D01*
X0178700Y0052357D01*
X0178700Y0051143D01*
X0179164Y0050022D01*
X0180022Y0049164D01*
X0181143Y0048700D01*
X0182357Y0048700D01*
X0183478Y0049164D01*
X0183963Y0049650D01*
X0184620Y0049650D01*
X0185964Y0050994D01*
X0185700Y0050357D01*
X0185700Y0049670D01*
X0181880Y0045850D01*
X0171357Y0045850D01*
X0170871Y0046336D01*
X0169750Y0046800D01*
X0168537Y0046800D01*
X0167416Y0046336D01*
X0166558Y0045478D01*
X0166094Y0044357D01*
X0166094Y0043143D01*
X0166215Y0042850D01*
X0158678Y0042850D01*
X0158800Y0043143D01*
X0158800Y0044357D01*
X0158336Y0045478D01*
X0157478Y0046336D01*
X0156357Y0046800D01*
X0155670Y0046800D01*
X0152850Y0049620D01*
X0152850Y0050037D01*
X0153336Y0050522D01*
X0153800Y0051643D01*
X0153800Y0052857D01*
X0153336Y0053978D01*
X0152478Y0054836D01*
X0151357Y0055300D01*
X0150143Y0055300D01*
X0149022Y0054836D01*
X0148164Y0053978D01*
X0147700Y0052857D01*
X0147700Y0051643D01*
X0148039Y0050824D01*
X0142850Y0056014D01*
X0142850Y0056537D01*
X0143336Y0057022D01*
X0143800Y0058143D01*
X0143800Y0059357D01*
X0143336Y0060478D01*
X0142478Y0061336D01*
X0141357Y0061800D01*
X0140143Y0061800D01*
X0139022Y0061336D01*
X0138164Y0060478D01*
X0137700Y0059357D01*
X0137700Y0058143D01*
X0138164Y0057022D01*
X0138650Y0056537D01*
X0138650Y0054274D01*
X0154038Y0038886D01*
X0152691Y0038328D01*
X0151172Y0036809D01*
X0150641Y0035526D01*
X0150569Y0035746D01*
X0150197Y0036475D01*
X0149716Y0037138D01*
X0149138Y0037716D01*
X0148475Y0038197D01*
X0147746Y0038569D01*
X0146968Y0038822D01*
X0146250Y0038936D01*
X0146250Y0034250D01*
X0145250Y0034250D01*
X0145250Y0038936D01*
X0144532Y0038822D01*
X0143754Y0038569D01*
X0143025Y0038197D01*
X0142362Y0037716D01*
X0141784Y0037138D01*
X0141303Y0036475D01*
X0140931Y0035746D01*
X0140678Y0034968D01*
X0140564Y0034250D01*
X0145250Y0034250D01*
X0145250Y0033250D01*
X0140564Y0033250D01*
X0140678Y0032532D01*
X0140931Y0031754D01*
X0140645Y0032744D02*
X0122950Y0032744D01*
X0122950Y0033743D02*
X0145250Y0033743D01*
X0145250Y0034741D02*
X0146250Y0034741D01*
X0146250Y0035740D02*
X0145250Y0035740D01*
X0145250Y0036738D02*
X0146250Y0036738D01*
X0146250Y0037737D02*
X0145250Y0037737D01*
X0145250Y0038735D02*
X0146250Y0038735D01*
X0147235Y0038735D02*
X0153674Y0038735D01*
X0153190Y0039734D02*
X0122950Y0039734D01*
X0122950Y0040732D02*
X0152192Y0040732D01*
X0151193Y0041731D02*
X0122950Y0041731D01*
X0122950Y0042729D02*
X0150195Y0042729D01*
X0149196Y0043728D02*
X0122950Y0043728D01*
X0122950Y0044726D02*
X0148198Y0044726D01*
X0147199Y0045725D02*
X0122950Y0045725D01*
X0122950Y0046723D02*
X0146201Y0046723D01*
X0145202Y0047722D02*
X0122950Y0047722D01*
X0122950Y0048720D02*
X0144204Y0048720D01*
X0143205Y0049719D02*
X0122950Y0049719D01*
X0122950Y0050717D02*
X0142207Y0050717D01*
X0141208Y0051716D02*
X0122950Y0051716D01*
X0122950Y0052714D02*
X0140210Y0052714D01*
X0139211Y0053713D02*
X0122950Y0053713D01*
X0122950Y0054711D02*
X0138650Y0054711D01*
X0138650Y0055710D02*
X0122950Y0055710D01*
X0122950Y0056708D02*
X0138478Y0056708D01*
X0137881Y0057707D02*
X0122950Y0057707D01*
X0122950Y0058705D02*
X0137700Y0058705D01*
X0137844Y0059704D02*
X0122950Y0059704D01*
X0122950Y0060702D02*
X0138389Y0060702D01*
X0139904Y0061701D02*
X0122950Y0061701D01*
X0122950Y0062699D02*
X0181550Y0062699D01*
X0181550Y0061701D02*
X0141596Y0061701D01*
X0143111Y0060702D02*
X0181550Y0060702D01*
X0181550Y0059704D02*
X0143656Y0059704D01*
X0143800Y0058705D02*
X0181551Y0058705D01*
X0181550Y0057707D02*
X0143619Y0057707D01*
X0143022Y0056708D02*
X0181550Y0056708D01*
X0181550Y0055710D02*
X0143154Y0055710D01*
X0144152Y0054711D02*
X0148898Y0054711D01*
X0148055Y0053713D02*
X0145151Y0053713D01*
X0146149Y0052714D02*
X0147700Y0052714D01*
X0147700Y0051716D02*
X0147148Y0051716D01*
X0152850Y0049719D02*
X0179468Y0049719D01*
X0178876Y0050717D02*
X0153416Y0050717D01*
X0153800Y0051716D02*
X0178700Y0051716D01*
X0178848Y0052714D02*
X0153800Y0052714D01*
X0153445Y0053713D02*
X0179399Y0053713D01*
X0180929Y0054711D02*
X0152602Y0054711D01*
X0153750Y0048720D02*
X0181094Y0048720D01*
X0182405Y0048720D02*
X0184750Y0048720D01*
X0184689Y0049719D02*
X0185700Y0049719D01*
X0185687Y0050717D02*
X0185849Y0050717D01*
X0187684Y0052714D02*
X0187936Y0052714D01*
X0187850Y0053713D02*
X0208550Y0053713D01*
X0208550Y0054711D02*
X0189865Y0054711D01*
X0189950Y0055710D02*
X0208550Y0055710D01*
X0208550Y0056708D02*
X0189950Y0056708D01*
X0189950Y0057707D02*
X0208550Y0057707D01*
X0208550Y0058705D02*
X0189949Y0058705D01*
X0189950Y0059704D02*
X0208550Y0059704D01*
X0208550Y0060702D02*
X0189950Y0060702D01*
X0189950Y0061701D02*
X0208550Y0061701D01*
X0208550Y0062699D02*
X0189950Y0062699D01*
X0188956Y0063698D02*
X0208550Y0063698D01*
X0208550Y0064696D02*
X0187850Y0064696D01*
X0187850Y0065695D02*
X0208550Y0065695D01*
X0208550Y0066693D02*
X0187850Y0066693D01*
X0187850Y0067692D02*
X0208550Y0067692D01*
X0208550Y0068690D02*
X0187850Y0068690D01*
X0187850Y0069689D02*
X0193498Y0069689D01*
X0192889Y0070687D02*
X0187850Y0070687D01*
X0187850Y0071686D02*
X0192561Y0071686D01*
X0191563Y0072684D02*
X0187850Y0072684D01*
X0183650Y0072684D02*
X0175300Y0072684D01*
X0175300Y0071686D02*
X0183650Y0071686D01*
X0183650Y0070687D02*
X0175300Y0070687D01*
X0175300Y0069689D02*
X0183650Y0069689D01*
X0183650Y0068690D02*
X0175300Y0068690D01*
X0175300Y0067692D02*
X0183650Y0067692D01*
X0183650Y0066693D02*
X0175300Y0066693D01*
X0175300Y0065695D02*
X0183650Y0065695D01*
X0183650Y0064696D02*
X0122950Y0064696D01*
X0122950Y0063698D02*
X0182544Y0063698D01*
X0185750Y0060250D02*
X0185750Y0057250D01*
X0189564Y0052714D02*
X0208550Y0052714D01*
X0208550Y0051716D02*
X0191098Y0051716D01*
X0191651Y0050717D02*
X0208550Y0050717D01*
X0208550Y0049719D02*
X0191800Y0049719D01*
X0191625Y0048720D02*
X0208550Y0048720D01*
X0208550Y0047722D02*
X0191035Y0047722D01*
X0189413Y0046723D02*
X0198431Y0046723D01*
X0197568Y0045725D02*
X0187695Y0045725D01*
X0186696Y0044726D02*
X0197200Y0044726D01*
X0196779Y0043728D02*
X0185698Y0043728D01*
X0182753Y0046723D02*
X0169936Y0046723D01*
X0168352Y0046723D02*
X0156542Y0046723D01*
X0158089Y0045725D02*
X0166805Y0045725D01*
X0166247Y0044726D02*
X0158647Y0044726D01*
X0158800Y0043728D02*
X0166094Y0043728D01*
X0154748Y0047722D02*
X0183752Y0047722D01*
X0189400Y0037737D02*
X0208550Y0037737D01*
X0208550Y0038735D02*
X0197726Y0038735D01*
X0198724Y0039734D02*
X0208550Y0039734D01*
X0208550Y0040732D02*
X0199723Y0040732D01*
X0202065Y0041731D02*
X0208550Y0041731D01*
X0208550Y0042729D02*
X0202930Y0042729D01*
X0203300Y0043728D02*
X0208550Y0043728D01*
X0208550Y0044726D02*
X0203300Y0044726D01*
X0202932Y0045725D02*
X0208550Y0045725D01*
X0208550Y0046723D02*
X0202069Y0046723D01*
X0208550Y0036738D02*
X0190357Y0036738D01*
X0190771Y0035740D02*
X0208550Y0035740D01*
X0208550Y0034741D02*
X0191150Y0034741D01*
X0191150Y0033743D02*
X0208550Y0033743D01*
X0208550Y0032744D02*
X0191150Y0032744D01*
X0190765Y0031746D02*
X0208550Y0031746D01*
X0214950Y0031746D02*
X0232935Y0031746D01*
X0232931Y0031754D02*
X0233303Y0031025D01*
X0233357Y0030950D01*
X0214950Y0030950D01*
X0214950Y0108460D01*
X0215438Y0107615D01*
X0215438Y0107615D01*
X0217977Y0105484D01*
X0217977Y0105484D01*
X0221093Y0104350D01*
X0224407Y0104350D01*
X0227522Y0105484D01*
X0227523Y0105484D01*
X0230062Y0107615D01*
X0231719Y0110485D01*
X0231719Y0110485D01*
X0232295Y0113750D01*
X0231719Y0117015D01*
X0230062Y0119885D01*
X0230062Y0119885D01*
X0228078Y0121550D01*
X0287422Y0121550D01*
X0285438Y0119885D01*
X0283781Y0117015D01*
X0283205Y0113750D01*
X0283205Y0113750D01*
X0283781Y0110485D01*
X0285438Y0107615D01*
X0285438Y0107615D01*
X0287977Y0105484D01*
X0287977Y0105484D01*
X0291093Y0104350D01*
X0294407Y0104350D01*
X0297522Y0105484D01*
X0297523Y0105484D01*
X0300062Y0107615D01*
X0300550Y0108460D01*
X0300550Y0030950D01*
X0282435Y0030950D01*
X0283150Y0032676D01*
X0283150Y0034824D01*
X0282328Y0036809D01*
X0280809Y0038328D01*
X0280031Y0038650D01*
X0289641Y0038650D01*
X0292170Y0041179D01*
X0292857Y0041179D01*
X0293978Y0041643D01*
X0294836Y0042501D01*
X0295300Y0043622D01*
X0295300Y0044836D01*
X0294836Y0045957D01*
X0293978Y0046815D01*
X0292857Y0047279D01*
X0291643Y0047279D01*
X0290522Y0046815D01*
X0289664Y0045957D01*
X0289200Y0044836D01*
X0289200Y0044149D01*
X0287901Y0042850D01*
X0276820Y0042850D01*
X0280670Y0046700D01*
X0281357Y0046700D01*
X0282478Y0047164D01*
X0283336Y0048022D01*
X0283800Y0049143D01*
X0283800Y0050357D01*
X0283336Y0051478D01*
X0282478Y0052336D01*
X0281357Y0052800D01*
X0280143Y0052800D01*
X0279506Y0052536D01*
X0279850Y0052880D01*
X0279850Y0053800D01*
X0280954Y0053800D01*
X0281950Y0054796D01*
X0281950Y0058704D01*
X0281904Y0058750D01*
X0281950Y0058796D01*
X0281950Y0062704D01*
X0280954Y0063700D01*
X0279850Y0063700D01*
X0279850Y0073450D01*
X0282797Y0073450D01*
X0284700Y0071547D01*
X0284700Y0071143D01*
X0285164Y0070022D01*
X0286022Y0069164D01*
X0287143Y0068700D01*
X0288357Y0068700D01*
X0289478Y0069164D01*
X0290336Y0070022D01*
X0290800Y0071143D01*
X0290800Y0072357D01*
X0290336Y0073478D01*
X0289478Y0074336D01*
X0288357Y0074800D01*
X0287953Y0074800D01*
X0284703Y0078050D01*
X0276213Y0078050D01*
X0276336Y0078172D01*
X0276800Y0079293D01*
X0276800Y0080507D01*
X0276632Y0080912D01*
X0277143Y0080700D01*
X0278357Y0080700D01*
X0279478Y0081164D01*
X0280336Y0082022D01*
X0280800Y0083143D01*
X0280800Y0083830D01*
X0284850Y0087880D01*
X0284850Y0089200D01*
X0285954Y0089200D01*
X0286950Y0090196D01*
X0286950Y0097304D01*
X0285954Y0098300D01*
X0279546Y0098300D01*
X0278696Y0097450D01*
X0261804Y0097450D01*
X0260954Y0098300D01*
X0254546Y0098300D01*
X0253696Y0097450D01*
X0252963Y0097450D01*
X0252478Y0097936D01*
X0251357Y0098400D01*
X0250143Y0098400D01*
X0249022Y0097936D01*
X0248537Y0097450D01*
X0236804Y0097450D01*
X0235954Y0098300D01*
X0229546Y0098300D01*
X0228550Y0097304D01*
X0228550Y0090196D01*
X0229546Y0089200D01*
X0230650Y0089200D01*
X0230650Y0084880D01*
X0239700Y0075830D01*
X0239700Y0075143D01*
X0240164Y0074022D01*
X0241022Y0073164D01*
X0242143Y0072700D01*
X0243357Y0072700D01*
X0244478Y0073164D01*
X0244763Y0073450D01*
X0246703Y0073450D01*
X0248050Y0074797D01*
X0248200Y0074947D01*
X0248200Y0065022D01*
X0248522Y0064700D01*
X0266978Y0064700D01*
X0267300Y0065022D01*
X0267300Y0078447D01*
X0272297Y0073450D01*
X0275650Y0073450D01*
X0275650Y0063700D01*
X0274546Y0063700D01*
X0273550Y0062704D01*
X0273550Y0058796D01*
X0273596Y0058750D01*
X0273550Y0058704D01*
X0273550Y0054800D01*
X0273143Y0054800D01*
X0272022Y0054336D01*
X0271164Y0053478D01*
X0270700Y0052357D01*
X0270700Y0051143D01*
X0271164Y0050022D01*
X0272022Y0049164D01*
X0273143Y0048700D01*
X0274357Y0048700D01*
X0275478Y0049164D01*
X0275963Y0049650D01*
X0276620Y0049650D01*
X0277964Y0050994D01*
X0277700Y0050357D01*
X0277700Y0049670D01*
X0273880Y0045850D01*
X0263357Y0045850D01*
X0262871Y0046336D01*
X0261750Y0046800D01*
X0260537Y0046800D01*
X0259416Y0046336D01*
X0258558Y0045478D01*
X0258094Y0044357D01*
X0258094Y0043143D01*
X0258215Y0042850D01*
X0250678Y0042850D01*
X0250800Y0043143D01*
X0250800Y0044357D01*
X0250336Y0045478D01*
X0249478Y0046336D01*
X0248357Y0046800D01*
X0247670Y0046800D01*
X0244850Y0049620D01*
X0244850Y0050037D01*
X0245336Y0050522D01*
X0245800Y0051643D01*
X0245800Y0052857D01*
X0245336Y0053978D01*
X0244478Y0054836D01*
X0243357Y0055300D01*
X0242143Y0055300D01*
X0241022Y0054836D01*
X0240164Y0053978D01*
X0239700Y0052857D01*
X0239700Y0051643D01*
X0240039Y0050824D01*
X0234850Y0056014D01*
X0234850Y0056537D01*
X0235336Y0057022D01*
X0235800Y0058143D01*
X0235800Y0059357D01*
X0235336Y0060478D01*
X0234478Y0061336D01*
X0233357Y0061800D01*
X0232143Y0061800D01*
X0231022Y0061336D01*
X0230164Y0060478D01*
X0229700Y0059357D01*
X0229700Y0058143D01*
X0230164Y0057022D01*
X0230650Y0056537D01*
X0230650Y0054274D01*
X0246038Y0038886D01*
X0244691Y0038328D01*
X0243172Y0036809D01*
X0242641Y0035526D01*
X0242569Y0035746D01*
X0242197Y0036475D01*
X0241716Y0037138D01*
X0241138Y0037716D01*
X0240475Y0038197D01*
X0239746Y0038569D01*
X0238968Y0038822D01*
X0238250Y0038936D01*
X0238250Y0034250D01*
X0237250Y0034250D01*
X0237250Y0038936D01*
X0236532Y0038822D01*
X0235754Y0038569D01*
X0235025Y0038197D01*
X0234362Y0037716D01*
X0233784Y0037138D01*
X0233303Y0036475D01*
X0232931Y0035746D01*
X0232678Y0034968D01*
X0232564Y0034250D01*
X0237250Y0034250D01*
X0237250Y0033250D01*
X0232564Y0033250D01*
X0232678Y0032532D01*
X0232931Y0031754D01*
X0232645Y0032744D02*
X0214950Y0032744D01*
X0214950Y0033743D02*
X0237250Y0033743D01*
X0237250Y0034741D02*
X0238250Y0034741D01*
X0238250Y0035740D02*
X0237250Y0035740D01*
X0237250Y0036738D02*
X0238250Y0036738D01*
X0238250Y0037737D02*
X0237250Y0037737D01*
X0237250Y0038735D02*
X0238250Y0038735D01*
X0239235Y0038735D02*
X0245674Y0038735D01*
X0245190Y0039734D02*
X0214950Y0039734D01*
X0214950Y0040732D02*
X0244192Y0040732D01*
X0243193Y0041731D02*
X0214950Y0041731D01*
X0214950Y0042729D02*
X0242195Y0042729D01*
X0241196Y0043728D02*
X0214950Y0043728D01*
X0214950Y0044726D02*
X0240198Y0044726D01*
X0239199Y0045725D02*
X0214950Y0045725D01*
X0214950Y0046723D02*
X0238201Y0046723D01*
X0237202Y0047722D02*
X0214950Y0047722D01*
X0214950Y0048720D02*
X0236204Y0048720D01*
X0235205Y0049719D02*
X0214950Y0049719D01*
X0214950Y0050717D02*
X0234207Y0050717D01*
X0233208Y0051716D02*
X0214950Y0051716D01*
X0214950Y0052714D02*
X0232210Y0052714D01*
X0231211Y0053713D02*
X0214950Y0053713D01*
X0214950Y0054711D02*
X0230650Y0054711D01*
X0230650Y0055710D02*
X0214950Y0055710D01*
X0214950Y0056708D02*
X0230478Y0056708D01*
X0229881Y0057707D02*
X0214950Y0057707D01*
X0214950Y0058705D02*
X0229700Y0058705D01*
X0229844Y0059704D02*
X0214950Y0059704D01*
X0214950Y0060702D02*
X0230389Y0060702D01*
X0231904Y0061701D02*
X0214950Y0061701D01*
X0214950Y0062699D02*
X0273550Y0062699D01*
X0273550Y0061701D02*
X0233596Y0061701D01*
X0235111Y0060702D02*
X0273550Y0060702D01*
X0273550Y0059704D02*
X0235656Y0059704D01*
X0235800Y0058705D02*
X0273551Y0058705D01*
X0273550Y0057707D02*
X0235619Y0057707D01*
X0235022Y0056708D02*
X0273550Y0056708D01*
X0273550Y0055710D02*
X0235154Y0055710D01*
X0236152Y0054711D02*
X0240898Y0054711D01*
X0240055Y0053713D02*
X0237151Y0053713D01*
X0238149Y0052714D02*
X0239700Y0052714D01*
X0239700Y0051716D02*
X0239148Y0051716D01*
X0244850Y0049719D02*
X0271468Y0049719D01*
X0270876Y0050717D02*
X0245416Y0050717D01*
X0245800Y0051716D02*
X0270700Y0051716D01*
X0270848Y0052714D02*
X0245800Y0052714D01*
X0245445Y0053713D02*
X0271399Y0053713D01*
X0272929Y0054711D02*
X0244602Y0054711D01*
X0245750Y0048720D02*
X0273094Y0048720D01*
X0274405Y0048720D02*
X0276750Y0048720D01*
X0276689Y0049719D02*
X0277700Y0049719D01*
X0277687Y0050717D02*
X0277849Y0050717D01*
X0279684Y0052714D02*
X0279936Y0052714D01*
X0279850Y0053713D02*
X0300550Y0053713D01*
X0300550Y0054711D02*
X0281865Y0054711D01*
X0281950Y0055710D02*
X0300550Y0055710D01*
X0300550Y0056708D02*
X0281950Y0056708D01*
X0281950Y0057707D02*
X0300550Y0057707D01*
X0300550Y0058705D02*
X0281949Y0058705D01*
X0281950Y0059704D02*
X0300550Y0059704D01*
X0300550Y0060702D02*
X0281950Y0060702D01*
X0281950Y0061701D02*
X0300550Y0061701D01*
X0300550Y0062699D02*
X0281950Y0062699D01*
X0280956Y0063698D02*
X0300550Y0063698D01*
X0300550Y0064696D02*
X0279850Y0064696D01*
X0279850Y0065695D02*
X0300550Y0065695D01*
X0300550Y0066693D02*
X0279850Y0066693D01*
X0279850Y0067692D02*
X0300550Y0067692D01*
X0300550Y0068690D02*
X0279850Y0068690D01*
X0279850Y0069689D02*
X0285498Y0069689D01*
X0284889Y0070687D02*
X0279850Y0070687D01*
X0279850Y0071686D02*
X0284561Y0071686D01*
X0283563Y0072684D02*
X0279850Y0072684D01*
X0275650Y0072684D02*
X0267300Y0072684D01*
X0267300Y0071686D02*
X0275650Y0071686D01*
X0275650Y0070687D02*
X0267300Y0070687D01*
X0267300Y0069689D02*
X0275650Y0069689D01*
X0275650Y0068690D02*
X0267300Y0068690D01*
X0267300Y0067692D02*
X0275650Y0067692D01*
X0275650Y0066693D02*
X0267300Y0066693D01*
X0267300Y0065695D02*
X0275650Y0065695D01*
X0275650Y0064696D02*
X0214950Y0064696D01*
X0214950Y0063698D02*
X0274544Y0063698D01*
X0277750Y0060250D02*
X0277750Y0057250D01*
X0281564Y0052714D02*
X0300550Y0052714D01*
X0300550Y0051716D02*
X0283098Y0051716D01*
X0283651Y0050717D02*
X0300550Y0050717D01*
X0300550Y0049719D02*
X0283800Y0049719D01*
X0283625Y0048720D02*
X0300550Y0048720D01*
X0300550Y0047722D02*
X0283035Y0047722D01*
X0281413Y0046723D02*
X0290431Y0046723D01*
X0289568Y0045725D02*
X0279695Y0045725D01*
X0278696Y0044726D02*
X0289200Y0044726D01*
X0288779Y0043728D02*
X0277698Y0043728D01*
X0274753Y0046723D02*
X0261936Y0046723D01*
X0260352Y0046723D02*
X0248542Y0046723D01*
X0250089Y0045725D02*
X0258805Y0045725D01*
X0258247Y0044726D02*
X0250647Y0044726D01*
X0250800Y0043728D02*
X0258094Y0043728D01*
X0246748Y0047722D02*
X0275752Y0047722D01*
X0281400Y0037737D02*
X0300550Y0037737D01*
X0300550Y0038735D02*
X0289726Y0038735D01*
X0290724Y0039734D02*
X0300550Y0039734D01*
X0300550Y0040732D02*
X0291723Y0040732D01*
X0294065Y0041731D02*
X0300550Y0041731D01*
X0300550Y0042729D02*
X0294930Y0042729D01*
X0295300Y0043728D02*
X0300550Y0043728D01*
X0300550Y0044726D02*
X0295300Y0044726D01*
X0294932Y0045725D02*
X0300550Y0045725D01*
X0300550Y0046723D02*
X0294069Y0046723D01*
X0300550Y0036738D02*
X0282357Y0036738D01*
X0282771Y0035740D02*
X0300550Y0035740D01*
X0300550Y0034741D02*
X0283150Y0034741D01*
X0283150Y0033743D02*
X0300550Y0033743D01*
X0300550Y0032744D02*
X0283150Y0032744D01*
X0282765Y0031746D02*
X0300550Y0031746D01*
X0300550Y0069689D02*
X0290002Y0069689D01*
X0290611Y0070687D02*
X0300550Y0070687D01*
X0300550Y0071686D02*
X0290800Y0071686D01*
X0290664Y0072684D02*
X0300550Y0072684D01*
X0300550Y0073683D02*
X0290130Y0073683D01*
X0288643Y0074682D02*
X0300550Y0074682D01*
X0300550Y0075680D02*
X0287073Y0075680D01*
X0286074Y0076679D02*
X0300550Y0076679D01*
X0300550Y0077677D02*
X0285076Y0077677D01*
X0280604Y0082670D02*
X0300550Y0082670D01*
X0300550Y0083668D02*
X0280800Y0083668D01*
X0281636Y0084667D02*
X0300550Y0084667D01*
X0300550Y0085665D02*
X0282635Y0085665D01*
X0283634Y0086664D02*
X0300550Y0086664D01*
X0300550Y0087662D02*
X0284632Y0087662D01*
X0284850Y0088661D02*
X0300550Y0088661D01*
X0300550Y0089659D02*
X0286413Y0089659D01*
X0286950Y0090658D02*
X0300550Y0090658D01*
X0300550Y0091656D02*
X0286950Y0091656D01*
X0286950Y0092655D02*
X0300550Y0092655D01*
X0300550Y0093653D02*
X0286950Y0093653D01*
X0286950Y0094652D02*
X0300550Y0094652D01*
X0300550Y0095650D02*
X0286950Y0095650D01*
X0286950Y0096649D02*
X0300550Y0096649D01*
X0300550Y0097647D02*
X0286607Y0097647D01*
X0278893Y0097647D02*
X0261607Y0097647D01*
X0253893Y0097647D02*
X0252766Y0097647D01*
X0248734Y0097647D02*
X0236607Y0097647D01*
X0228893Y0097647D02*
X0214950Y0097647D01*
X0214950Y0096649D02*
X0228550Y0096649D01*
X0228550Y0095650D02*
X0214950Y0095650D01*
X0214950Y0094652D02*
X0228550Y0094652D01*
X0228550Y0093653D02*
X0214950Y0093653D01*
X0214950Y0092655D02*
X0228550Y0092655D01*
X0228550Y0091656D02*
X0214950Y0091656D01*
X0214950Y0090658D02*
X0228550Y0090658D01*
X0229087Y0089659D02*
X0214950Y0089659D01*
X0214950Y0088661D02*
X0230650Y0088661D01*
X0230650Y0087662D02*
X0214950Y0087662D01*
X0214950Y0086664D02*
X0230650Y0086664D01*
X0230650Y0085665D02*
X0214950Y0085665D01*
X0214950Y0084667D02*
X0230864Y0084667D01*
X0231862Y0083668D02*
X0214950Y0083668D01*
X0214950Y0082670D02*
X0232861Y0082670D01*
X0233859Y0081671D02*
X0214950Y0081671D01*
X0214950Y0080673D02*
X0234858Y0080673D01*
X0235856Y0079674D02*
X0214950Y0079674D01*
X0214950Y0078676D02*
X0236855Y0078676D01*
X0237853Y0077677D02*
X0214950Y0077677D01*
X0214950Y0076679D02*
X0238852Y0076679D01*
X0239700Y0075680D02*
X0214950Y0075680D01*
X0214950Y0074682D02*
X0239891Y0074682D01*
X0240504Y0073683D02*
X0214950Y0073683D01*
X0214950Y0072684D02*
X0248200Y0072684D01*
X0248200Y0071686D02*
X0214950Y0071686D01*
X0214950Y0070687D02*
X0248200Y0070687D01*
X0248200Y0069689D02*
X0214950Y0069689D01*
X0214950Y0068690D02*
X0248200Y0068690D01*
X0248200Y0067692D02*
X0214950Y0067692D01*
X0214950Y0066693D02*
X0248200Y0066693D01*
X0248200Y0065695D02*
X0214950Y0065695D01*
X0208550Y0069689D02*
X0198002Y0069689D01*
X0198611Y0070687D02*
X0208550Y0070687D01*
X0208550Y0071686D02*
X0198800Y0071686D01*
X0198664Y0072684D02*
X0208550Y0072684D01*
X0208550Y0073683D02*
X0198130Y0073683D01*
X0196643Y0074682D02*
X0208550Y0074682D01*
X0208550Y0075680D02*
X0195073Y0075680D01*
X0194074Y0076679D02*
X0208550Y0076679D01*
X0208550Y0077677D02*
X0193076Y0077677D01*
X0187984Y0081671D02*
X0208550Y0081671D01*
X0208550Y0080673D02*
X0184731Y0080673D01*
X0184800Y0079674D02*
X0208550Y0079674D01*
X0208550Y0078676D02*
X0184544Y0078676D01*
X0188604Y0082670D02*
X0208550Y0082670D01*
X0208550Y0083668D02*
X0188800Y0083668D01*
X0189636Y0084667D02*
X0208550Y0084667D01*
X0208550Y0085665D02*
X0190635Y0085665D01*
X0191634Y0086664D02*
X0208550Y0086664D01*
X0208550Y0087662D02*
X0192632Y0087662D01*
X0192850Y0088661D02*
X0208550Y0088661D01*
X0208550Y0089659D02*
X0194413Y0089659D01*
X0194950Y0090658D02*
X0208550Y0090658D01*
X0208550Y0091656D02*
X0194950Y0091656D01*
X0194950Y0092655D02*
X0208550Y0092655D01*
X0208550Y0093653D02*
X0194950Y0093653D01*
X0194950Y0094652D02*
X0208550Y0094652D01*
X0208550Y0095650D02*
X0194950Y0095650D01*
X0194950Y0096649D02*
X0208550Y0096649D01*
X0208550Y0097647D02*
X0194607Y0097647D01*
X0186893Y0097647D02*
X0169607Y0097647D01*
X0161893Y0097647D02*
X0160766Y0097647D01*
X0156734Y0097647D02*
X0144607Y0097647D01*
X0136893Y0097647D02*
X0122950Y0097647D01*
X0122950Y0096649D02*
X0136550Y0096649D01*
X0136550Y0095650D02*
X0122950Y0095650D01*
X0122950Y0094652D02*
X0136550Y0094652D01*
X0136550Y0093653D02*
X0122950Y0093653D01*
X0122950Y0092655D02*
X0136550Y0092655D01*
X0136550Y0091656D02*
X0122950Y0091656D01*
X0122950Y0090658D02*
X0136550Y0090658D01*
X0137087Y0089659D02*
X0122950Y0089659D01*
X0122950Y0088661D02*
X0138650Y0088661D01*
X0138650Y0087662D02*
X0122950Y0087662D01*
X0122950Y0086664D02*
X0138650Y0086664D01*
X0138650Y0085665D02*
X0122950Y0085665D01*
X0122950Y0084667D02*
X0138864Y0084667D01*
X0139862Y0083668D02*
X0122950Y0083668D01*
X0122950Y0082670D02*
X0140861Y0082670D01*
X0141859Y0081671D02*
X0122950Y0081671D01*
X0122950Y0080673D02*
X0142858Y0080673D01*
X0143856Y0079674D02*
X0122950Y0079674D01*
X0122950Y0078676D02*
X0144855Y0078676D01*
X0145853Y0077677D02*
X0122950Y0077677D01*
X0122950Y0076679D02*
X0146852Y0076679D01*
X0147700Y0075680D02*
X0122950Y0075680D01*
X0122950Y0074682D02*
X0147891Y0074682D01*
X0148504Y0073683D02*
X0122950Y0073683D01*
X0122950Y0072684D02*
X0156200Y0072684D01*
X0156200Y0071686D02*
X0122950Y0071686D01*
X0122950Y0070687D02*
X0156200Y0070687D01*
X0156200Y0069689D02*
X0122950Y0069689D01*
X0122950Y0068690D02*
X0156200Y0068690D01*
X0156200Y0067692D02*
X0122950Y0067692D01*
X0122950Y0066693D02*
X0156200Y0066693D01*
X0156200Y0065695D02*
X0122950Y0065695D01*
X0116550Y0069689D02*
X0106002Y0069689D01*
X0106611Y0070687D02*
X0116550Y0070687D01*
X0116550Y0071686D02*
X0106800Y0071686D01*
X0106664Y0072684D02*
X0116550Y0072684D01*
X0116550Y0073683D02*
X0106130Y0073683D01*
X0104643Y0074682D02*
X0116550Y0074682D01*
X0116550Y0075680D02*
X0103073Y0075680D01*
X0102074Y0076679D02*
X0116550Y0076679D01*
X0116550Y0077677D02*
X0101076Y0077677D01*
X0095984Y0081671D02*
X0116550Y0081671D01*
X0116550Y0080673D02*
X0092731Y0080673D01*
X0092800Y0079674D02*
X0116550Y0079674D01*
X0116550Y0078676D02*
X0092544Y0078676D01*
X0096604Y0082670D02*
X0116550Y0082670D01*
X0116550Y0083668D02*
X0096800Y0083668D01*
X0097636Y0084667D02*
X0116550Y0084667D01*
X0116550Y0085665D02*
X0098635Y0085665D01*
X0099634Y0086664D02*
X0116550Y0086664D01*
X0116550Y0087662D02*
X0100632Y0087662D01*
X0100850Y0088661D02*
X0116550Y0088661D01*
X0116550Y0089659D02*
X0102413Y0089659D01*
X0102950Y0090658D02*
X0116550Y0090658D01*
X0116550Y0091656D02*
X0102950Y0091656D01*
X0102950Y0092655D02*
X0116550Y0092655D01*
X0116550Y0093653D02*
X0102950Y0093653D01*
X0102950Y0094652D02*
X0116550Y0094652D01*
X0116550Y0095650D02*
X0102950Y0095650D01*
X0102950Y0096649D02*
X0116550Y0096649D01*
X0116550Y0097647D02*
X0102607Y0097647D01*
X0094893Y0097647D02*
X0077607Y0097647D01*
X0069893Y0097647D02*
X0068766Y0097647D01*
X0064734Y0097647D02*
X0052607Y0097647D01*
X0044893Y0106634D02*
X0102607Y0106634D01*
X0101428Y0107632D02*
X0046072Y0107632D01*
X0046649Y0108631D02*
X0100851Y0108631D01*
X0100275Y0109629D02*
X0047225Y0109629D01*
X0047744Y0110628D02*
X0099755Y0110628D01*
X0099579Y0111626D02*
X0047921Y0111626D01*
X0048097Y0112625D02*
X0099403Y0112625D01*
X0099227Y0113623D02*
X0048273Y0113623D01*
X0048141Y0114622D02*
X0099359Y0114622D01*
X0099535Y0115620D02*
X0047965Y0115620D01*
X0047789Y0116619D02*
X0099711Y0116619D01*
X0100129Y0117618D02*
X0047371Y0117618D01*
X0046795Y0118616D02*
X0100705Y0118616D01*
X0101282Y0119615D02*
X0046218Y0119615D01*
X0045195Y0120613D02*
X0102305Y0120613D01*
X0098435Y0127950D02*
X0099150Y0129676D01*
X0099150Y0131824D01*
X0098328Y0133809D01*
X0096809Y0135328D01*
X0096031Y0135650D01*
X0105641Y0135650D01*
X0106871Y0136880D01*
X0106871Y0136880D01*
X0108170Y0138179D01*
X0108857Y0138179D01*
X0109978Y0138643D01*
X0110836Y0139501D01*
X0111300Y0140622D01*
X0111300Y0141836D01*
X0110836Y0142957D01*
X0109978Y0143815D01*
X0108857Y0144279D01*
X0107643Y0144279D01*
X0106522Y0143815D01*
X0105664Y0142957D01*
X0105200Y0141836D01*
X0105200Y0141149D01*
X0103901Y0139850D01*
X0092820Y0139850D01*
X0096670Y0143700D01*
X0097357Y0143700D01*
X0098478Y0144164D01*
X0099336Y0145022D01*
X0099800Y0146143D01*
X0099800Y0147357D01*
X0099336Y0148478D01*
X0098478Y0149336D01*
X0097357Y0149800D01*
X0096143Y0149800D01*
X0095506Y0149536D01*
X0095850Y0149880D01*
X0095850Y0150800D01*
X0096954Y0150800D01*
X0097950Y0151796D01*
X0097950Y0155704D01*
X0097904Y0155750D01*
X0097950Y0155796D01*
X0097950Y0159704D01*
X0096954Y0160700D01*
X0095850Y0160700D01*
X0095850Y0170450D01*
X0098797Y0170450D01*
X0100700Y0168547D01*
X0100700Y0168143D01*
X0101164Y0167022D01*
X0102022Y0166164D01*
X0103143Y0165700D01*
X0104357Y0165700D01*
X0105478Y0166164D01*
X0106336Y0167022D01*
X0106800Y0168143D01*
X0106800Y0169357D01*
X0106336Y0170478D01*
X0105478Y0171336D01*
X0104357Y0171800D01*
X0103953Y0171800D01*
X0100703Y0175050D01*
X0092213Y0175050D01*
X0092336Y0175172D01*
X0092800Y0176293D01*
X0092800Y0177507D01*
X0092632Y0177912D01*
X0093143Y0177700D01*
X0094357Y0177700D01*
X0095478Y0178164D01*
X0096336Y0179022D01*
X0096800Y0180143D01*
X0096800Y0180830D01*
X0100850Y0184880D01*
X0100850Y0186200D01*
X0101954Y0186200D01*
X0102950Y0187196D01*
X0102950Y0194304D01*
X0101954Y0195300D01*
X0095546Y0195300D01*
X0094696Y0194450D01*
X0077804Y0194450D01*
X0076954Y0195300D01*
X0070546Y0195300D01*
X0069696Y0194450D01*
X0068963Y0194450D01*
X0068478Y0194936D01*
X0067357Y0195400D01*
X0066143Y0195400D01*
X0065022Y0194936D01*
X0064537Y0194450D01*
X0052804Y0194450D01*
X0051954Y0195300D01*
X0045546Y0195300D01*
X0044550Y0194304D01*
X0044550Y0187196D01*
X0045546Y0186200D01*
X0046650Y0186200D01*
X0046650Y0181880D01*
X0055700Y0172830D01*
X0055700Y0172143D01*
X0056164Y0171022D01*
X0057022Y0170164D01*
X0058143Y0169700D01*
X0059357Y0169700D01*
X0060478Y0170164D01*
X0060763Y0170450D01*
X0062703Y0170450D01*
X0064050Y0171797D01*
X0064200Y0171947D01*
X0064200Y0162022D01*
X0064522Y0161700D01*
X0082978Y0161700D01*
X0083300Y0162022D01*
X0083300Y0175447D01*
X0088297Y0170450D01*
X0091650Y0170450D01*
X0091650Y0160700D01*
X0090546Y0160700D01*
X0089550Y0159704D01*
X0089550Y0155796D01*
X0089596Y0155750D01*
X0089550Y0155704D01*
X0089550Y0151800D01*
X0089143Y0151800D01*
X0088022Y0151336D01*
X0087164Y0150478D01*
X0086700Y0149357D01*
X0086700Y0148143D01*
X0087164Y0147022D01*
X0088022Y0146164D01*
X0089143Y0145700D01*
X0090357Y0145700D01*
X0091478Y0146164D01*
X0091963Y0146650D01*
X0092620Y0146650D01*
X0093964Y0147994D01*
X0093700Y0147357D01*
X0093700Y0146670D01*
X0089880Y0142850D01*
X0079357Y0142850D01*
X0078871Y0143336D01*
X0077750Y0143800D01*
X0076537Y0143800D01*
X0075416Y0143336D01*
X0074558Y0142478D01*
X0074094Y0141357D01*
X0074094Y0140143D01*
X0074215Y0139850D01*
X0066678Y0139850D01*
X0066800Y0140143D01*
X0066800Y0141357D01*
X0066336Y0142478D01*
X0065478Y0143336D01*
X0064357Y0143800D01*
X0063670Y0143800D01*
X0060850Y0146620D01*
X0060850Y0147037D01*
X0061336Y0147522D01*
X0061800Y0148643D01*
X0061800Y0149857D01*
X0061336Y0150978D01*
X0060478Y0151836D01*
X0059357Y0152300D01*
X0058143Y0152300D01*
X0057022Y0151836D01*
X0056164Y0150978D01*
X0055700Y0149857D01*
X0055700Y0148643D01*
X0056039Y0147824D01*
X0050850Y0153014D01*
X0050850Y0153537D01*
X0051336Y0154022D01*
X0051800Y0155143D01*
X0051800Y0156357D01*
X0051336Y0157478D01*
X0050478Y0158336D01*
X0049357Y0158800D01*
X0048143Y0158800D01*
X0047022Y0158336D01*
X0046164Y0157478D01*
X0045700Y0156357D01*
X0045700Y0155143D01*
X0046164Y0154022D01*
X0046650Y0153537D01*
X0046650Y0151274D01*
X0062038Y0135886D01*
X0060691Y0135328D01*
X0059172Y0133809D01*
X0058641Y0132526D01*
X0058569Y0132746D01*
X0058197Y0133475D01*
X0057716Y0134138D01*
X0057138Y0134716D01*
X0056475Y0135197D01*
X0055746Y0135569D01*
X0054968Y0135822D01*
X0054250Y0135936D01*
X0054250Y0131250D01*
X0053250Y0131250D01*
X0053250Y0135936D01*
X0052532Y0135822D01*
X0051754Y0135569D01*
X0051025Y0135197D01*
X0050362Y0134716D01*
X0049784Y0134138D01*
X0049303Y0133475D01*
X0048931Y0132746D01*
X0048678Y0131968D01*
X0048564Y0131250D01*
X0053250Y0131250D01*
X0053250Y0130250D01*
X0048564Y0130250D01*
X0048678Y0129532D01*
X0048931Y0128754D01*
X0049303Y0128025D01*
X0049357Y0127950D01*
X0030950Y0127950D01*
X0030950Y0205460D01*
X0031438Y0204615D01*
X0031438Y0204615D01*
X0033977Y0202484D01*
X0033977Y0202484D01*
X0037093Y0201350D01*
X0040407Y0201350D01*
X0043522Y0202484D01*
X0043523Y0202484D01*
X0046062Y0204615D01*
X0047719Y0207485D01*
X0048295Y0210750D01*
X0047719Y0214015D01*
X0046062Y0216885D01*
X0046062Y0216885D01*
X0044078Y0218550D01*
X0103422Y0218550D01*
X0101438Y0216885D01*
X0099781Y0214015D01*
X0099205Y0210750D01*
X0099205Y0210750D01*
X0099781Y0207485D01*
X0101438Y0204615D01*
X0101438Y0204615D01*
X0103977Y0202484D01*
X0103977Y0202484D01*
X0107093Y0201350D01*
X0110407Y0201350D01*
X0113522Y0202484D01*
X0113523Y0202484D01*
X0116062Y0204615D01*
X0116550Y0205460D01*
X0116550Y0127950D01*
X0098435Y0127950D01*
X0098705Y0128601D02*
X0116550Y0128601D01*
X0116550Y0129600D02*
X0099118Y0129600D01*
X0099150Y0130598D02*
X0116550Y0130598D01*
X0116550Y0131597D02*
X0099150Y0131597D01*
X0098831Y0132595D02*
X0116550Y0132595D01*
X0116550Y0133594D02*
X0098417Y0133594D01*
X0097545Y0134592D02*
X0116550Y0134592D01*
X0116550Y0135591D02*
X0096174Y0135591D01*
X0093553Y0140583D02*
X0104634Y0140583D01*
X0105200Y0141582D02*
X0094552Y0141582D01*
X0095550Y0142580D02*
X0105508Y0142580D01*
X0106286Y0143579D02*
X0096549Y0143579D01*
X0098891Y0144577D02*
X0116550Y0144577D01*
X0116550Y0143579D02*
X0110214Y0143579D01*
X0110992Y0142580D02*
X0116550Y0142580D01*
X0116550Y0141582D02*
X0111300Y0141582D01*
X0111284Y0140583D02*
X0116550Y0140583D01*
X0116550Y0139585D02*
X0110870Y0139585D01*
X0109840Y0138586D02*
X0116550Y0138586D01*
X0116550Y0137588D02*
X0107578Y0137588D01*
X0106580Y0136589D02*
X0116550Y0136589D01*
X0122950Y0136589D02*
X0153335Y0136589D01*
X0154038Y0135886D02*
X0152691Y0135328D01*
X0151172Y0133809D01*
X0150641Y0132526D01*
X0150569Y0132746D01*
X0150197Y0133475D01*
X0149716Y0134138D01*
X0149138Y0134716D01*
X0148475Y0135197D01*
X0147746Y0135569D01*
X0146968Y0135822D01*
X0146250Y0135936D01*
X0146250Y0131250D01*
X0145250Y0131250D01*
X0145250Y0135936D01*
X0144532Y0135822D01*
X0143754Y0135569D01*
X0143025Y0135197D01*
X0142362Y0134716D01*
X0141784Y0134138D01*
X0141303Y0133475D01*
X0140931Y0132746D01*
X0140678Y0131968D01*
X0140564Y0131250D01*
X0145250Y0131250D01*
X0145250Y0130250D01*
X0140564Y0130250D01*
X0140678Y0129532D01*
X0140931Y0128754D01*
X0141303Y0128025D01*
X0141357Y0127950D01*
X0122950Y0127950D01*
X0122950Y0205460D01*
X0123438Y0204615D01*
X0123438Y0204615D01*
X0125977Y0202484D01*
X0125977Y0202484D01*
X0129093Y0201350D01*
X0132407Y0201350D01*
X0135522Y0202484D01*
X0135523Y0202484D01*
X0138062Y0204615D01*
X0139719Y0207485D01*
X0139719Y0207485D01*
X0140295Y0210750D01*
X0139719Y0214015D01*
X0138062Y0216885D01*
X0138062Y0216885D01*
X0136078Y0218550D01*
X0195422Y0218550D01*
X0193438Y0216885D01*
X0191781Y0214015D01*
X0191205Y0210750D01*
X0191205Y0210750D01*
X0191781Y0207485D01*
X0193438Y0204615D01*
X0193438Y0204615D01*
X0195977Y0202484D01*
X0195977Y0202484D01*
X0199093Y0201350D01*
X0202407Y0201350D01*
X0205522Y0202484D01*
X0208062Y0204615D01*
X0208550Y0205460D01*
X0208550Y0127950D01*
X0190435Y0127950D01*
X0191150Y0129676D01*
X0191150Y0131824D01*
X0190328Y0133809D01*
X0188809Y0135328D01*
X0188031Y0135650D01*
X0197641Y0135650D01*
X0200170Y0138179D01*
X0200857Y0138179D01*
X0201978Y0138643D01*
X0202836Y0139501D01*
X0203300Y0140622D01*
X0203300Y0141836D01*
X0202836Y0142957D01*
X0201978Y0143815D01*
X0200857Y0144279D01*
X0199643Y0144279D01*
X0198522Y0143815D01*
X0197664Y0142957D01*
X0197200Y0141836D01*
X0197200Y0141149D01*
X0195901Y0139850D01*
X0184820Y0139850D01*
X0188670Y0143700D01*
X0189357Y0143700D01*
X0190478Y0144164D01*
X0191336Y0145022D01*
X0191800Y0146143D01*
X0191800Y0147357D01*
X0191336Y0148478D01*
X0190478Y0149336D01*
X0189357Y0149800D01*
X0188143Y0149800D01*
X0187506Y0149536D01*
X0187850Y0149880D01*
X0187850Y0150800D01*
X0188954Y0150800D01*
X0189950Y0151796D01*
X0189950Y0155704D01*
X0189904Y0155750D01*
X0189950Y0155796D01*
X0189950Y0159704D01*
X0188954Y0160700D01*
X0187850Y0160700D01*
X0187850Y0170450D01*
X0190797Y0170450D01*
X0192700Y0168547D01*
X0192700Y0168143D01*
X0193164Y0167022D01*
X0194022Y0166164D01*
X0195143Y0165700D01*
X0196357Y0165700D01*
X0197478Y0166164D01*
X0198336Y0167022D01*
X0198800Y0168143D01*
X0198800Y0169357D01*
X0198336Y0170478D01*
X0197478Y0171336D01*
X0196357Y0171800D01*
X0195953Y0171800D01*
X0192703Y0175050D01*
X0184213Y0175050D01*
X0184336Y0175172D01*
X0184800Y0176293D01*
X0184800Y0177507D01*
X0184632Y0177912D01*
X0185143Y0177700D01*
X0186357Y0177700D01*
X0187478Y0178164D01*
X0188336Y0179022D01*
X0188800Y0180143D01*
X0188800Y0180830D01*
X0192850Y0184880D01*
X0192850Y0186200D01*
X0193954Y0186200D01*
X0194950Y0187196D01*
X0194950Y0194304D01*
X0193954Y0195300D01*
X0187546Y0195300D01*
X0186696Y0194450D01*
X0169804Y0194450D01*
X0168954Y0195300D01*
X0162546Y0195300D01*
X0161696Y0194450D01*
X0160963Y0194450D01*
X0160478Y0194936D01*
X0159357Y0195400D01*
X0158143Y0195400D01*
X0157022Y0194936D01*
X0156537Y0194450D01*
X0144804Y0194450D01*
X0143954Y0195300D01*
X0137546Y0195300D01*
X0136550Y0194304D01*
X0136550Y0187196D01*
X0137546Y0186200D01*
X0138650Y0186200D01*
X0138650Y0181880D01*
X0147700Y0172830D01*
X0147700Y0172143D01*
X0148164Y0171022D01*
X0149022Y0170164D01*
X0150143Y0169700D01*
X0151357Y0169700D01*
X0152478Y0170164D01*
X0152763Y0170450D01*
X0154703Y0170450D01*
X0156050Y0171797D01*
X0156200Y0171947D01*
X0156200Y0162022D01*
X0156522Y0161700D01*
X0174978Y0161700D01*
X0175300Y0162022D01*
X0175300Y0175447D01*
X0180297Y0170450D01*
X0183650Y0170450D01*
X0183650Y0160700D01*
X0182546Y0160700D01*
X0181550Y0159704D01*
X0181550Y0155796D01*
X0181596Y0155750D01*
X0181550Y0155704D01*
X0181550Y0151800D01*
X0181143Y0151800D01*
X0180022Y0151336D01*
X0179164Y0150478D01*
X0178700Y0149357D01*
X0178700Y0148143D01*
X0179164Y0147022D01*
X0180022Y0146164D01*
X0181143Y0145700D01*
X0182357Y0145700D01*
X0183478Y0146164D01*
X0183963Y0146650D01*
X0184620Y0146650D01*
X0185964Y0147994D01*
X0185700Y0147357D01*
X0185700Y0146670D01*
X0181880Y0142850D01*
X0171357Y0142850D01*
X0170871Y0143336D01*
X0169750Y0143800D01*
X0168537Y0143800D01*
X0167416Y0143336D01*
X0166558Y0142478D01*
X0166094Y0141357D01*
X0166094Y0140143D01*
X0166215Y0139850D01*
X0158678Y0139850D01*
X0158800Y0140143D01*
X0158800Y0141357D01*
X0158336Y0142478D01*
X0157478Y0143336D01*
X0156357Y0143800D01*
X0155670Y0143800D01*
X0152850Y0146620D01*
X0152850Y0147037D01*
X0153336Y0147522D01*
X0153800Y0148643D01*
X0153800Y0149857D01*
X0153336Y0150978D01*
X0152478Y0151836D01*
X0151357Y0152300D01*
X0150143Y0152300D01*
X0149022Y0151836D01*
X0148164Y0150978D01*
X0147700Y0149857D01*
X0147700Y0148643D01*
X0148039Y0147824D01*
X0142850Y0153014D01*
X0142850Y0153537D01*
X0143336Y0154022D01*
X0143800Y0155143D01*
X0143800Y0156357D01*
X0143336Y0157478D01*
X0142478Y0158336D01*
X0141357Y0158800D01*
X0140143Y0158800D01*
X0139022Y0158336D01*
X0138164Y0157478D01*
X0137700Y0156357D01*
X0137700Y0155143D01*
X0138164Y0154022D01*
X0138650Y0153537D01*
X0138650Y0151274D01*
X0154038Y0135886D01*
X0153326Y0135591D02*
X0147679Y0135591D01*
X0146250Y0135591D02*
X0145250Y0135591D01*
X0145250Y0134592D02*
X0146250Y0134592D01*
X0146250Y0133594D02*
X0145250Y0133594D01*
X0145250Y0132595D02*
X0146250Y0132595D01*
X0146250Y0131597D02*
X0145250Y0131597D01*
X0145250Y0130598D02*
X0122950Y0130598D01*
X0122950Y0129600D02*
X0140667Y0129600D01*
X0141009Y0128601D02*
X0122950Y0128601D01*
X0122950Y0131597D02*
X0140619Y0131597D01*
X0140882Y0132595D02*
X0122950Y0132595D01*
X0122950Y0133594D02*
X0141389Y0133594D01*
X0142238Y0134592D02*
X0122950Y0134592D01*
X0122950Y0135591D02*
X0143821Y0135591D01*
X0149262Y0134592D02*
X0151955Y0134592D01*
X0151083Y0133594D02*
X0150111Y0133594D01*
X0150618Y0132595D02*
X0150669Y0132595D01*
X0152336Y0137588D02*
X0122950Y0137588D01*
X0122950Y0138586D02*
X0151338Y0138586D01*
X0150339Y0139585D02*
X0122950Y0139585D01*
X0122950Y0140583D02*
X0149341Y0140583D01*
X0148342Y0141582D02*
X0122950Y0141582D01*
X0122950Y0142580D02*
X0147344Y0142580D01*
X0146345Y0143579D02*
X0122950Y0143579D01*
X0122950Y0144577D02*
X0145347Y0144577D01*
X0144348Y0145576D02*
X0122950Y0145576D01*
X0122950Y0146574D02*
X0143350Y0146574D01*
X0142351Y0147573D02*
X0122950Y0147573D01*
X0122950Y0148571D02*
X0141353Y0148571D01*
X0140354Y0149570D02*
X0122950Y0149570D01*
X0122950Y0150568D02*
X0139356Y0150568D01*
X0138650Y0151567D02*
X0122950Y0151567D01*
X0122950Y0152565D02*
X0138650Y0152565D01*
X0138623Y0153564D02*
X0122950Y0153564D01*
X0122950Y0154562D02*
X0137941Y0154562D01*
X0137700Y0155561D02*
X0122950Y0155561D01*
X0122950Y0156559D02*
X0137784Y0156559D01*
X0138245Y0157558D02*
X0122950Y0157558D01*
X0122950Y0158556D02*
X0139555Y0158556D01*
X0141945Y0158556D02*
X0181550Y0158556D01*
X0181550Y0157558D02*
X0143255Y0157558D01*
X0143716Y0156559D02*
X0181550Y0156559D01*
X0181550Y0155561D02*
X0143800Y0155561D01*
X0143559Y0154562D02*
X0181550Y0154562D01*
X0181550Y0153564D02*
X0142877Y0153564D01*
X0143298Y0152565D02*
X0181550Y0152565D01*
X0180581Y0151567D02*
X0152746Y0151567D01*
X0153505Y0150568D02*
X0179255Y0150568D01*
X0178788Y0149570D02*
X0153800Y0149570D01*
X0153770Y0148571D02*
X0178700Y0148571D01*
X0178936Y0147573D02*
X0153357Y0147573D01*
X0152895Y0146574D02*
X0179612Y0146574D01*
X0182609Y0143579D02*
X0170284Y0143579D01*
X0168003Y0143579D02*
X0156891Y0143579D01*
X0158233Y0142580D02*
X0166661Y0142580D01*
X0166187Y0141582D02*
X0158707Y0141582D01*
X0158800Y0140583D02*
X0166094Y0140583D01*
X0154893Y0144577D02*
X0183607Y0144577D01*
X0184606Y0145576D02*
X0153894Y0145576D01*
X0147730Y0148571D02*
X0147292Y0148571D01*
X0147700Y0149570D02*
X0146294Y0149570D01*
X0145295Y0150568D02*
X0147995Y0150568D01*
X0148754Y0151567D02*
X0144297Y0151567D01*
X0156200Y0162551D02*
X0122950Y0162551D01*
X0122950Y0163549D02*
X0156200Y0163549D01*
X0156200Y0164548D02*
X0122950Y0164548D01*
X0122950Y0165546D02*
X0156200Y0165546D01*
X0156200Y0166545D02*
X0122950Y0166545D01*
X0122950Y0167543D02*
X0156200Y0167543D01*
X0156200Y0168542D02*
X0122950Y0168542D01*
X0122950Y0169540D02*
X0156200Y0169540D01*
X0156200Y0170539D02*
X0154791Y0170539D01*
X0155790Y0171537D02*
X0156200Y0171537D01*
X0148648Y0170539D02*
X0122950Y0170539D01*
X0122950Y0171537D02*
X0147951Y0171537D01*
X0147700Y0172536D02*
X0122950Y0172536D01*
X0122950Y0173534D02*
X0146996Y0173534D01*
X0145997Y0174533D02*
X0122950Y0174533D01*
X0122950Y0175531D02*
X0144999Y0175531D01*
X0144000Y0176530D02*
X0122950Y0176530D01*
X0122950Y0177528D02*
X0143002Y0177528D01*
X0142003Y0178527D02*
X0122950Y0178527D01*
X0122950Y0179525D02*
X0141005Y0179525D01*
X0140006Y0180524D02*
X0122950Y0180524D01*
X0122950Y0181522D02*
X0139008Y0181522D01*
X0138650Y0182521D02*
X0122950Y0182521D01*
X0122950Y0183519D02*
X0138650Y0183519D01*
X0138650Y0184518D02*
X0122950Y0184518D01*
X0122950Y0185516D02*
X0138650Y0185516D01*
X0137231Y0186515D02*
X0122950Y0186515D01*
X0122950Y0187513D02*
X0136550Y0187513D01*
X0136550Y0188512D02*
X0122950Y0188512D01*
X0122950Y0189510D02*
X0136550Y0189510D01*
X0136550Y0190509D02*
X0122950Y0190509D01*
X0122950Y0191507D02*
X0136550Y0191507D01*
X0136550Y0192506D02*
X0122950Y0192506D01*
X0122950Y0193504D02*
X0136550Y0193504D01*
X0136749Y0194503D02*
X0122950Y0194503D01*
X0122950Y0195501D02*
X0208550Y0195501D01*
X0208550Y0194503D02*
X0194751Y0194503D01*
X0194950Y0193504D02*
X0208550Y0193504D01*
X0208550Y0192506D02*
X0194950Y0192506D01*
X0194950Y0191507D02*
X0208550Y0191507D01*
X0208550Y0190509D02*
X0194950Y0190509D01*
X0194950Y0189510D02*
X0208550Y0189510D01*
X0208550Y0188512D02*
X0194950Y0188512D01*
X0194950Y0187513D02*
X0208550Y0187513D01*
X0208550Y0186515D02*
X0194269Y0186515D01*
X0192850Y0185516D02*
X0208550Y0185516D01*
X0208550Y0184518D02*
X0192488Y0184518D01*
X0191489Y0183519D02*
X0208550Y0183519D01*
X0208550Y0182521D02*
X0190491Y0182521D01*
X0189492Y0181522D02*
X0208550Y0181522D01*
X0208550Y0180524D02*
X0188800Y0180524D01*
X0188544Y0179525D02*
X0208550Y0179525D01*
X0208550Y0178527D02*
X0187840Y0178527D01*
X0184791Y0177528D02*
X0208550Y0177528D01*
X0208550Y0176530D02*
X0184800Y0176530D01*
X0184484Y0175531D02*
X0208550Y0175531D01*
X0208550Y0174533D02*
X0193220Y0174533D01*
X0194219Y0173534D02*
X0208550Y0173534D01*
X0208550Y0172536D02*
X0195217Y0172536D01*
X0196991Y0171537D02*
X0208550Y0171537D01*
X0208550Y0170539D02*
X0198275Y0170539D01*
X0198724Y0169540D02*
X0208550Y0169540D01*
X0208550Y0168542D02*
X0198800Y0168542D01*
X0198551Y0167543D02*
X0208550Y0167543D01*
X0208550Y0166545D02*
X0197858Y0166545D01*
X0193642Y0166545D02*
X0187850Y0166545D01*
X0187850Y0167543D02*
X0192949Y0167543D01*
X0192700Y0168542D02*
X0187850Y0168542D01*
X0187850Y0169540D02*
X0191707Y0169540D01*
X0187850Y0165546D02*
X0208550Y0165546D01*
X0208550Y0164548D02*
X0187850Y0164548D01*
X0187850Y0163549D02*
X0208550Y0163549D01*
X0208550Y0162551D02*
X0187850Y0162551D01*
X0187850Y0161552D02*
X0208550Y0161552D01*
X0208550Y0160553D02*
X0189101Y0160553D01*
X0189950Y0159555D02*
X0208550Y0159555D01*
X0208550Y0158556D02*
X0189950Y0158556D01*
X0189950Y0157558D02*
X0208550Y0157558D01*
X0208550Y0156559D02*
X0189950Y0156559D01*
X0189950Y0155561D02*
X0208550Y0155561D01*
X0208550Y0154562D02*
X0189950Y0154562D01*
X0189950Y0153564D02*
X0208550Y0153564D01*
X0208550Y0152565D02*
X0189950Y0152565D01*
X0189721Y0151567D02*
X0208550Y0151567D01*
X0208550Y0150568D02*
X0187850Y0150568D01*
X0187588Y0149570D02*
X0187540Y0149570D01*
X0189912Y0149570D02*
X0208550Y0149570D01*
X0208550Y0148571D02*
X0191242Y0148571D01*
X0191710Y0147573D02*
X0208550Y0147573D01*
X0208550Y0146574D02*
X0191800Y0146574D01*
X0191565Y0145576D02*
X0208550Y0145576D01*
X0208550Y0144577D02*
X0190891Y0144577D01*
X0188549Y0143579D02*
X0198286Y0143579D01*
X0197508Y0142580D02*
X0187550Y0142580D01*
X0186552Y0141582D02*
X0197200Y0141582D01*
X0196634Y0140583D02*
X0185553Y0140583D01*
X0188174Y0135591D02*
X0208550Y0135591D01*
X0208550Y0136589D02*
X0198580Y0136589D01*
X0199578Y0137588D02*
X0208550Y0137588D01*
X0208550Y0138586D02*
X0201840Y0138586D01*
X0202870Y0139585D02*
X0208550Y0139585D01*
X0208550Y0140583D02*
X0203284Y0140583D01*
X0203300Y0141582D02*
X0208550Y0141582D01*
X0208550Y0142580D02*
X0202992Y0142580D01*
X0202214Y0143579D02*
X0208550Y0143579D01*
X0214950Y0143579D02*
X0238345Y0143579D01*
X0237347Y0144577D02*
X0214950Y0144577D01*
X0214950Y0145576D02*
X0236348Y0145576D01*
X0235350Y0146574D02*
X0214950Y0146574D01*
X0214950Y0147573D02*
X0234351Y0147573D01*
X0233353Y0148571D02*
X0214950Y0148571D01*
X0214950Y0149570D02*
X0232354Y0149570D01*
X0231356Y0150568D02*
X0214950Y0150568D01*
X0214950Y0151567D02*
X0230650Y0151567D01*
X0230650Y0151274D02*
X0246038Y0135886D01*
X0244691Y0135328D01*
X0243172Y0133809D01*
X0242641Y0132526D01*
X0242569Y0132746D01*
X0242197Y0133475D01*
X0241716Y0134138D01*
X0241138Y0134716D01*
X0240475Y0135197D01*
X0239746Y0135569D01*
X0238968Y0135822D01*
X0238250Y0135936D01*
X0238250Y0131250D01*
X0237250Y0131250D01*
X0237250Y0135936D01*
X0236532Y0135822D01*
X0235754Y0135569D01*
X0235025Y0135197D01*
X0234362Y0134716D01*
X0233784Y0134138D01*
X0233303Y0133475D01*
X0232931Y0132746D01*
X0232678Y0131968D01*
X0232564Y0131250D01*
X0237250Y0131250D01*
X0237250Y0130250D01*
X0232564Y0130250D01*
X0232678Y0129532D01*
X0232931Y0128754D01*
X0233303Y0128025D01*
X0233357Y0127950D01*
X0214950Y0127950D01*
X0214950Y0205460D01*
X0215438Y0204615D01*
X0215438Y0204615D01*
X0217977Y0202484D01*
X0221093Y0201350D01*
X0224407Y0201350D01*
X0227522Y0202484D01*
X0227523Y0202484D01*
X0230062Y0204615D01*
X0231719Y0207485D01*
X0231719Y0207485D01*
X0232295Y0210750D01*
X0231719Y0214015D01*
X0230062Y0216885D01*
X0230062Y0216885D01*
X0228078Y0218550D01*
X0287422Y0218550D01*
X0285438Y0216885D01*
X0283781Y0214015D01*
X0283205Y0210750D01*
X0283205Y0210750D01*
X0283781Y0207485D01*
X0285438Y0204615D01*
X0285438Y0204615D01*
X0287977Y0202484D01*
X0287977Y0202484D01*
X0291093Y0201350D01*
X0294407Y0201350D01*
X0297522Y0202484D01*
X0297523Y0202484D01*
X0300062Y0204615D01*
X0300550Y0205460D01*
X0300550Y0127950D01*
X0282435Y0127950D01*
X0283150Y0129676D01*
X0283150Y0131824D01*
X0282328Y0133809D01*
X0280809Y0135328D01*
X0280031Y0135650D01*
X0289641Y0135650D01*
X0292170Y0138179D01*
X0292857Y0138179D01*
X0293978Y0138643D01*
X0294836Y0139501D01*
X0295300Y0140622D01*
X0295300Y0141836D01*
X0294836Y0142957D01*
X0293978Y0143815D01*
X0292857Y0144279D01*
X0291643Y0144279D01*
X0290522Y0143815D01*
X0289664Y0142957D01*
X0289200Y0141836D01*
X0289200Y0141149D01*
X0287901Y0139850D01*
X0276820Y0139850D01*
X0280670Y0143700D01*
X0281357Y0143700D01*
X0282478Y0144164D01*
X0283336Y0145022D01*
X0283800Y0146143D01*
X0283800Y0147357D01*
X0283336Y0148478D01*
X0282478Y0149336D01*
X0281357Y0149800D01*
X0280143Y0149800D01*
X0279506Y0149536D01*
X0279850Y0149880D01*
X0279850Y0150800D01*
X0280954Y0150800D01*
X0281950Y0151796D01*
X0281950Y0155704D01*
X0281904Y0155750D01*
X0281950Y0155796D01*
X0281950Y0159704D01*
X0280954Y0160700D01*
X0279850Y0160700D01*
X0279850Y0170450D01*
X0282797Y0170450D01*
X0284700Y0168547D01*
X0284700Y0168143D01*
X0285164Y0167022D01*
X0286022Y0166164D01*
X0287143Y0165700D01*
X0288357Y0165700D01*
X0289478Y0166164D01*
X0290336Y0167022D01*
X0290800Y0168143D01*
X0290800Y0169357D01*
X0290336Y0170478D01*
X0289478Y0171336D01*
X0288357Y0171800D01*
X0287953Y0171800D01*
X0284703Y0175050D01*
X0276213Y0175050D01*
X0276336Y0175172D01*
X0276800Y0176293D01*
X0276800Y0177507D01*
X0276632Y0177912D01*
X0277143Y0177700D01*
X0278357Y0177700D01*
X0279478Y0178164D01*
X0280336Y0179022D01*
X0280800Y0180143D01*
X0280800Y0180830D01*
X0284850Y0184880D01*
X0284850Y0186200D01*
X0285954Y0186200D01*
X0286950Y0187196D01*
X0286950Y0194304D01*
X0285954Y0195300D01*
X0279546Y0195300D01*
X0278696Y0194450D01*
X0261804Y0194450D01*
X0260954Y0195300D01*
X0254546Y0195300D01*
X0253696Y0194450D01*
X0252963Y0194450D01*
X0252478Y0194936D01*
X0251357Y0195400D01*
X0250143Y0195400D01*
X0249022Y0194936D01*
X0248537Y0194450D01*
X0236804Y0194450D01*
X0235954Y0195300D01*
X0229546Y0195300D01*
X0228550Y0194304D01*
X0228550Y0187196D01*
X0229546Y0186200D01*
X0230650Y0186200D01*
X0230650Y0181880D01*
X0239700Y0172830D01*
X0239700Y0172143D01*
X0240164Y0171022D01*
X0241022Y0170164D01*
X0242143Y0169700D01*
X0243357Y0169700D01*
X0244478Y0170164D01*
X0244763Y0170450D01*
X0246703Y0170450D01*
X0248050Y0171797D01*
X0248200Y0171947D01*
X0248200Y0162022D01*
X0248522Y0161700D01*
X0266978Y0161700D01*
X0267300Y0162022D01*
X0267300Y0175447D01*
X0272297Y0170450D01*
X0275650Y0170450D01*
X0275650Y0160700D01*
X0274546Y0160700D01*
X0273550Y0159704D01*
X0273550Y0155796D01*
X0273596Y0155750D01*
X0273550Y0155704D01*
X0273550Y0151800D01*
X0273143Y0151800D01*
X0272022Y0151336D01*
X0271164Y0150478D01*
X0270700Y0149357D01*
X0270700Y0148143D01*
X0271164Y0147022D01*
X0272022Y0146164D01*
X0273143Y0145700D01*
X0274357Y0145700D01*
X0275478Y0146164D01*
X0275963Y0146650D01*
X0276620Y0146650D01*
X0277964Y0147994D01*
X0277700Y0147357D01*
X0277700Y0146670D01*
X0273880Y0142850D01*
X0263357Y0142850D01*
X0262871Y0143336D01*
X0261750Y0143800D01*
X0260537Y0143800D01*
X0259416Y0143336D01*
X0258558Y0142478D01*
X0258094Y0141357D01*
X0258094Y0140143D01*
X0258215Y0139850D01*
X0250678Y0139850D01*
X0250800Y0140143D01*
X0250800Y0141357D01*
X0250336Y0142478D01*
X0249478Y0143336D01*
X0248357Y0143800D01*
X0247670Y0143800D01*
X0244850Y0146620D01*
X0244850Y0147037D01*
X0245336Y0147522D01*
X0245800Y0148643D01*
X0245800Y0149857D01*
X0245336Y0150978D01*
X0244478Y0151836D01*
X0243357Y0152300D01*
X0242143Y0152300D01*
X0241022Y0151836D01*
X0240164Y0150978D01*
X0239700Y0149857D01*
X0239700Y0148643D01*
X0240039Y0147824D01*
X0234850Y0153014D01*
X0234850Y0153537D01*
X0235336Y0154022D01*
X0235800Y0155143D01*
X0235800Y0156357D01*
X0235336Y0157478D01*
X0234478Y0158336D01*
X0233357Y0158800D01*
X0232143Y0158800D01*
X0231022Y0158336D01*
X0230164Y0157478D01*
X0229700Y0156357D01*
X0229700Y0155143D01*
X0230164Y0154022D01*
X0230650Y0153537D01*
X0230650Y0151274D01*
X0230650Y0152565D02*
X0214950Y0152565D01*
X0214950Y0153564D02*
X0230623Y0153564D01*
X0229941Y0154562D02*
X0214950Y0154562D01*
X0214950Y0155561D02*
X0229700Y0155561D01*
X0229784Y0156559D02*
X0214950Y0156559D01*
X0214950Y0157558D02*
X0230245Y0157558D01*
X0231555Y0158556D02*
X0214950Y0158556D01*
X0214950Y0159555D02*
X0273550Y0159555D01*
X0273550Y0158556D02*
X0233945Y0158556D01*
X0235255Y0157558D02*
X0273550Y0157558D01*
X0273550Y0156559D02*
X0235716Y0156559D01*
X0235800Y0155561D02*
X0273550Y0155561D01*
X0273550Y0154562D02*
X0235559Y0154562D01*
X0234877Y0153564D02*
X0273550Y0153564D01*
X0273550Y0152565D02*
X0235298Y0152565D01*
X0236297Y0151567D02*
X0240754Y0151567D01*
X0239995Y0150568D02*
X0237295Y0150568D01*
X0238294Y0149570D02*
X0239700Y0149570D01*
X0239730Y0148571D02*
X0239292Y0148571D01*
X0244895Y0146574D02*
X0271612Y0146574D01*
X0270936Y0147573D02*
X0245357Y0147573D01*
X0245770Y0148571D02*
X0270700Y0148571D01*
X0270788Y0149570D02*
X0245800Y0149570D01*
X0245505Y0150568D02*
X0271255Y0150568D01*
X0272581Y0151567D02*
X0244746Y0151567D01*
X0245894Y0145576D02*
X0276606Y0145576D01*
X0275888Y0146574D02*
X0277604Y0146574D01*
X0277543Y0147573D02*
X0277790Y0147573D01*
X0279540Y0149570D02*
X0279588Y0149570D01*
X0279850Y0150568D02*
X0300550Y0150568D01*
X0300550Y0149570D02*
X0281912Y0149570D01*
X0283242Y0148571D02*
X0300550Y0148571D01*
X0300550Y0147573D02*
X0283710Y0147573D01*
X0283800Y0146574D02*
X0300550Y0146574D01*
X0300550Y0145576D02*
X0283565Y0145576D01*
X0282891Y0144577D02*
X0300550Y0144577D01*
X0300550Y0143579D02*
X0294214Y0143579D01*
X0294992Y0142580D02*
X0300550Y0142580D01*
X0300550Y0141582D02*
X0295300Y0141582D01*
X0295284Y0140583D02*
X0300550Y0140583D01*
X0300550Y0139585D02*
X0294870Y0139585D01*
X0293840Y0138586D02*
X0300550Y0138586D01*
X0300550Y0137588D02*
X0291578Y0137588D01*
X0290580Y0136589D02*
X0300550Y0136589D01*
X0300550Y0135591D02*
X0280174Y0135591D01*
X0281545Y0134592D02*
X0300550Y0134592D01*
X0300550Y0133594D02*
X0282417Y0133594D01*
X0282831Y0132595D02*
X0300550Y0132595D01*
X0300550Y0131597D02*
X0283150Y0131597D01*
X0283150Y0130598D02*
X0300550Y0130598D01*
X0300550Y0129600D02*
X0283118Y0129600D01*
X0282705Y0128601D02*
X0300550Y0128601D01*
X0288634Y0140583D02*
X0277553Y0140583D01*
X0278552Y0141582D02*
X0289200Y0141582D01*
X0289508Y0142580D02*
X0279550Y0142580D01*
X0280549Y0143579D02*
X0290286Y0143579D01*
X0281721Y0151567D02*
X0300550Y0151567D01*
X0300550Y0152565D02*
X0281950Y0152565D01*
X0281950Y0153564D02*
X0300550Y0153564D01*
X0300550Y0154562D02*
X0281950Y0154562D01*
X0281950Y0155561D02*
X0300550Y0155561D01*
X0300550Y0156559D02*
X0281950Y0156559D01*
X0281950Y0157558D02*
X0300550Y0157558D01*
X0300550Y0158556D02*
X0281950Y0158556D01*
X0281950Y0159555D02*
X0300550Y0159555D01*
X0300550Y0160553D02*
X0281101Y0160553D01*
X0279850Y0161552D02*
X0300550Y0161552D01*
X0300550Y0162551D02*
X0279850Y0162551D01*
X0279850Y0163549D02*
X0300550Y0163549D01*
X0300550Y0164548D02*
X0279850Y0164548D01*
X0279850Y0165546D02*
X0300550Y0165546D01*
X0300550Y0166545D02*
X0289858Y0166545D01*
X0290551Y0167543D02*
X0300550Y0167543D01*
X0300550Y0168542D02*
X0290800Y0168542D01*
X0290724Y0169540D02*
X0300550Y0169540D01*
X0300550Y0170539D02*
X0290275Y0170539D01*
X0288991Y0171537D02*
X0300550Y0171537D01*
X0300550Y0172536D02*
X0287217Y0172536D01*
X0286219Y0173534D02*
X0300550Y0173534D01*
X0300550Y0174533D02*
X0285220Y0174533D01*
X0280544Y0179525D02*
X0300550Y0179525D01*
X0300550Y0178527D02*
X0279840Y0178527D01*
X0280800Y0180524D02*
X0300550Y0180524D01*
X0300550Y0181522D02*
X0281492Y0181522D01*
X0282491Y0182521D02*
X0300550Y0182521D01*
X0300550Y0183519D02*
X0283489Y0183519D01*
X0284488Y0184518D02*
X0300550Y0184518D01*
X0300550Y0185516D02*
X0284850Y0185516D01*
X0286269Y0186515D02*
X0300550Y0186515D01*
X0300550Y0187513D02*
X0286950Y0187513D01*
X0286950Y0188512D02*
X0300550Y0188512D01*
X0300550Y0189510D02*
X0286950Y0189510D01*
X0286950Y0190509D02*
X0300550Y0190509D01*
X0300550Y0191507D02*
X0286950Y0191507D01*
X0286950Y0192506D02*
X0300550Y0192506D01*
X0300550Y0193504D02*
X0286950Y0193504D01*
X0286751Y0194503D02*
X0300550Y0194503D01*
X0300550Y0195501D02*
X0214950Y0195501D01*
X0214950Y0194503D02*
X0228749Y0194503D01*
X0228550Y0193504D02*
X0214950Y0193504D01*
X0214950Y0192506D02*
X0228550Y0192506D01*
X0228550Y0191507D02*
X0214950Y0191507D01*
X0214950Y0190509D02*
X0228550Y0190509D01*
X0228550Y0189510D02*
X0214950Y0189510D01*
X0214950Y0188512D02*
X0228550Y0188512D01*
X0228550Y0187513D02*
X0214950Y0187513D01*
X0214950Y0186515D02*
X0229231Y0186515D01*
X0230650Y0185516D02*
X0214950Y0185516D01*
X0214950Y0184518D02*
X0230650Y0184518D01*
X0230650Y0183519D02*
X0214950Y0183519D01*
X0214950Y0182521D02*
X0230650Y0182521D01*
X0231008Y0181522D02*
X0214950Y0181522D01*
X0214950Y0180524D02*
X0232006Y0180524D01*
X0233005Y0179525D02*
X0214950Y0179525D01*
X0214950Y0178527D02*
X0234003Y0178527D01*
X0235002Y0177528D02*
X0214950Y0177528D01*
X0214950Y0176530D02*
X0236000Y0176530D01*
X0236999Y0175531D02*
X0214950Y0175531D01*
X0214950Y0174533D02*
X0237997Y0174533D01*
X0238996Y0173534D02*
X0214950Y0173534D01*
X0214950Y0172536D02*
X0239700Y0172536D01*
X0239951Y0171537D02*
X0214950Y0171537D01*
X0214950Y0170539D02*
X0240648Y0170539D01*
X0246791Y0170539D02*
X0248200Y0170539D01*
X0248200Y0171537D02*
X0247790Y0171537D01*
X0248200Y0169540D02*
X0214950Y0169540D01*
X0214950Y0168542D02*
X0248200Y0168542D01*
X0248200Y0167543D02*
X0214950Y0167543D01*
X0214950Y0166545D02*
X0248200Y0166545D01*
X0248200Y0165546D02*
X0214950Y0165546D01*
X0214950Y0164548D02*
X0248200Y0164548D01*
X0248200Y0163549D02*
X0214950Y0163549D01*
X0214950Y0162551D02*
X0248200Y0162551D01*
X0267300Y0162551D02*
X0275650Y0162551D01*
X0275650Y0163549D02*
X0267300Y0163549D01*
X0267300Y0164548D02*
X0275650Y0164548D01*
X0275650Y0165546D02*
X0267300Y0165546D01*
X0267300Y0166545D02*
X0275650Y0166545D01*
X0275650Y0167543D02*
X0267300Y0167543D01*
X0267300Y0168542D02*
X0275650Y0168542D01*
X0275650Y0169540D02*
X0267300Y0169540D01*
X0267300Y0170539D02*
X0272209Y0170539D01*
X0271210Y0171537D02*
X0267300Y0171537D01*
X0267300Y0172536D02*
X0270212Y0172536D01*
X0269213Y0173534D02*
X0267300Y0173534D01*
X0267300Y0174533D02*
X0268215Y0174533D01*
X0276484Y0175531D02*
X0300550Y0175531D01*
X0300550Y0176530D02*
X0276800Y0176530D01*
X0276791Y0177528D02*
X0300550Y0177528D01*
X0284700Y0168542D02*
X0279850Y0168542D01*
X0279850Y0169540D02*
X0283707Y0169540D01*
X0284949Y0167543D02*
X0279850Y0167543D01*
X0279850Y0166545D02*
X0285642Y0166545D01*
X0275650Y0161552D02*
X0214950Y0161552D01*
X0214950Y0160553D02*
X0274399Y0160553D01*
X0277750Y0157250D02*
X0277750Y0154250D01*
X0275607Y0144577D02*
X0246893Y0144577D01*
X0248891Y0143579D02*
X0260003Y0143579D01*
X0258661Y0142580D02*
X0250233Y0142580D01*
X0250707Y0141582D02*
X0258187Y0141582D01*
X0258094Y0140583D02*
X0250800Y0140583D01*
X0245335Y0136589D02*
X0214950Y0136589D01*
X0214950Y0135591D02*
X0235821Y0135591D01*
X0237250Y0135591D02*
X0238250Y0135591D01*
X0238250Y0134592D02*
X0237250Y0134592D01*
X0237250Y0133594D02*
X0238250Y0133594D01*
X0238250Y0132595D02*
X0237250Y0132595D01*
X0237250Y0131597D02*
X0238250Y0131597D01*
X0237250Y0130598D02*
X0214950Y0130598D01*
X0214950Y0129600D02*
X0232667Y0129600D01*
X0233009Y0128601D02*
X0214950Y0128601D01*
X0214950Y0131597D02*
X0232619Y0131597D01*
X0232882Y0132595D02*
X0214950Y0132595D01*
X0214950Y0133594D02*
X0233389Y0133594D01*
X0234238Y0134592D02*
X0214950Y0134592D01*
X0214950Y0137588D02*
X0244336Y0137588D01*
X0243338Y0138586D02*
X0214950Y0138586D01*
X0214950Y0139585D02*
X0242339Y0139585D01*
X0241341Y0140583D02*
X0214950Y0140583D01*
X0214950Y0141582D02*
X0240342Y0141582D01*
X0239344Y0142580D02*
X0214950Y0142580D01*
X0208550Y0134592D02*
X0189545Y0134592D01*
X0190417Y0133594D02*
X0208550Y0133594D01*
X0208550Y0132595D02*
X0190831Y0132595D01*
X0191150Y0131597D02*
X0208550Y0131597D01*
X0208550Y0130598D02*
X0191150Y0130598D01*
X0191118Y0129600D02*
X0208550Y0129600D01*
X0208550Y0128601D02*
X0190705Y0128601D01*
X0194305Y0120613D02*
X0137195Y0120613D01*
X0138218Y0119615D02*
X0193282Y0119615D01*
X0193438Y0119885D02*
X0193438Y0119885D01*
X0192705Y0118616D02*
X0138795Y0118616D01*
X0139371Y0117618D02*
X0192129Y0117618D01*
X0191781Y0117015D02*
X0191781Y0117015D01*
X0191711Y0116619D02*
X0139789Y0116619D01*
X0139719Y0117015D02*
X0139719Y0117015D01*
X0139965Y0115620D02*
X0191535Y0115620D01*
X0191359Y0114622D02*
X0140141Y0114622D01*
X0140295Y0113750D02*
X0140295Y0113750D01*
X0140273Y0113623D02*
X0191227Y0113623D01*
X0191403Y0112625D02*
X0140097Y0112625D01*
X0139921Y0111626D02*
X0191579Y0111626D01*
X0191755Y0110628D02*
X0139744Y0110628D01*
X0139225Y0109629D02*
X0192275Y0109629D01*
X0191781Y0110485D02*
X0191781Y0110485D01*
X0192851Y0108631D02*
X0138649Y0108631D01*
X0138072Y0107632D02*
X0193428Y0107632D01*
X0194607Y0106634D02*
X0136893Y0106634D01*
X0138062Y0107615D02*
X0138062Y0107615D01*
X0138062Y0107615D01*
X0135703Y0105635D02*
X0195797Y0105635D01*
X0198304Y0104637D02*
X0133196Y0104637D01*
X0128304Y0104637D02*
X0122950Y0104637D01*
X0122950Y0105635D02*
X0125797Y0105635D01*
X0124607Y0106634D02*
X0122950Y0106634D01*
X0122950Y0107632D02*
X0123428Y0107632D01*
X0122950Y0103638D02*
X0208550Y0103638D01*
X0208550Y0102640D02*
X0122950Y0102640D01*
X0122950Y0101641D02*
X0208550Y0101641D01*
X0208550Y0100643D02*
X0122950Y0100643D01*
X0122950Y0099644D02*
X0208550Y0099644D01*
X0208550Y0098646D02*
X0122950Y0098646D01*
X0116550Y0104637D02*
X0111196Y0104637D01*
X0113703Y0105635D02*
X0116550Y0105635D01*
X0116550Y0106634D02*
X0114893Y0106634D01*
X0116072Y0107632D02*
X0116550Y0107632D01*
X0106304Y0104637D02*
X0041196Y0104637D01*
X0043703Y0105635D02*
X0103797Y0105635D01*
X0084070Y0077677D02*
X0083300Y0077677D01*
X0083300Y0076679D02*
X0085069Y0076679D01*
X0086067Y0075680D02*
X0083300Y0075680D01*
X0083300Y0074682D02*
X0087066Y0074682D01*
X0088064Y0073683D02*
X0083300Y0073683D01*
X0122950Y0038735D02*
X0144265Y0038735D01*
X0142390Y0037737D02*
X0122950Y0037737D01*
X0122950Y0036738D02*
X0141493Y0036738D01*
X0140929Y0035740D02*
X0122950Y0035740D01*
X0122950Y0034741D02*
X0140642Y0034741D01*
X0149110Y0037737D02*
X0152100Y0037737D01*
X0151143Y0036738D02*
X0150007Y0036738D01*
X0150571Y0035740D02*
X0150729Y0035740D01*
X0154936Y0073683D02*
X0156200Y0073683D01*
X0156200Y0074682D02*
X0155934Y0074682D01*
X0175300Y0074682D02*
X0179066Y0074682D01*
X0178067Y0075680D02*
X0175300Y0075680D01*
X0175300Y0076679D02*
X0177069Y0076679D01*
X0176070Y0077677D02*
X0175300Y0077677D01*
X0175300Y0073683D02*
X0180064Y0073683D01*
X0203196Y0104637D02*
X0208550Y0104637D01*
X0208550Y0105635D02*
X0205703Y0105635D01*
X0206893Y0106634D02*
X0208550Y0106634D01*
X0208550Y0107632D02*
X0208072Y0107632D01*
X0208062Y0107615D02*
X0208062Y0107615D01*
X0208062Y0107615D01*
X0214950Y0107632D02*
X0215428Y0107632D01*
X0214950Y0106634D02*
X0216607Y0106634D01*
X0217797Y0105635D02*
X0214950Y0105635D01*
X0214950Y0104637D02*
X0220304Y0104637D01*
X0225196Y0104637D02*
X0290304Y0104637D01*
X0287797Y0105635D02*
X0227703Y0105635D01*
X0228893Y0106634D02*
X0286607Y0106634D01*
X0285428Y0107632D02*
X0230072Y0107632D01*
X0230062Y0107615D02*
X0230062Y0107615D01*
X0230062Y0107615D01*
X0230649Y0108631D02*
X0284851Y0108631D01*
X0284275Y0109629D02*
X0231225Y0109629D01*
X0231744Y0110628D02*
X0283755Y0110628D01*
X0283781Y0110485D02*
X0283781Y0110485D01*
X0283579Y0111626D02*
X0231921Y0111626D01*
X0232097Y0112625D02*
X0283403Y0112625D01*
X0283227Y0113623D02*
X0232273Y0113623D01*
X0232295Y0113750D02*
X0232295Y0113750D01*
X0232141Y0114622D02*
X0283359Y0114622D01*
X0283535Y0115620D02*
X0231965Y0115620D01*
X0231789Y0116619D02*
X0283711Y0116619D01*
X0283781Y0117015D02*
X0283781Y0117015D01*
X0284129Y0117618D02*
X0231371Y0117618D01*
X0231719Y0117015D02*
X0231719Y0117015D01*
X0230795Y0118616D02*
X0284705Y0118616D01*
X0285282Y0119615D02*
X0230218Y0119615D01*
X0229195Y0120613D02*
X0286305Y0120613D01*
X0285438Y0119885D02*
X0285438Y0119885D01*
X0285438Y0119885D01*
X0295196Y0104637D02*
X0300550Y0104637D01*
X0300550Y0105635D02*
X0297703Y0105635D01*
X0298893Y0106634D02*
X0300550Y0106634D01*
X0300550Y0107632D02*
X0300072Y0107632D01*
X0300062Y0107615D02*
X0300062Y0107615D01*
X0300062Y0107615D01*
X0300550Y0103638D02*
X0214950Y0103638D01*
X0214950Y0102640D02*
X0300550Y0102640D01*
X0300550Y0101641D02*
X0214950Y0101641D01*
X0214950Y0100643D02*
X0300550Y0100643D01*
X0300550Y0099644D02*
X0214950Y0099644D01*
X0214950Y0098646D02*
X0300550Y0098646D01*
X0300550Y0081671D02*
X0279984Y0081671D01*
X0276731Y0080673D02*
X0300550Y0080673D01*
X0300550Y0079674D02*
X0276800Y0079674D01*
X0276544Y0078676D02*
X0300550Y0078676D01*
X0272064Y0073683D02*
X0267300Y0073683D01*
X0267300Y0074682D02*
X0271066Y0074682D01*
X0270067Y0075680D02*
X0267300Y0075680D01*
X0267300Y0076679D02*
X0269069Y0076679D01*
X0268070Y0077677D02*
X0267300Y0077677D01*
X0248200Y0074682D02*
X0247934Y0074682D01*
X0248200Y0073683D02*
X0246936Y0073683D01*
X0236265Y0038735D02*
X0214950Y0038735D01*
X0214950Y0037737D02*
X0234390Y0037737D01*
X0233493Y0036738D02*
X0214950Y0036738D01*
X0214950Y0035740D02*
X0232929Y0035740D01*
X0232642Y0034741D02*
X0214950Y0034741D01*
X0241110Y0037737D02*
X0244100Y0037737D01*
X0243143Y0036738D02*
X0242007Y0036738D01*
X0242571Y0035740D02*
X0242729Y0035740D01*
X0242618Y0132595D02*
X0242669Y0132595D01*
X0243083Y0133594D02*
X0242111Y0133594D01*
X0241262Y0134592D02*
X0243955Y0134592D01*
X0245326Y0135591D02*
X0239679Y0135591D01*
X0262284Y0143579D02*
X0274609Y0143579D01*
X0278749Y0194503D02*
X0261751Y0194503D01*
X0253749Y0194503D02*
X0252910Y0194503D01*
X0248590Y0194503D02*
X0236751Y0194503D01*
X0228721Y0203489D02*
X0286779Y0203489D01*
X0287969Y0202491D02*
X0227531Y0202491D01*
X0224799Y0201492D02*
X0290701Y0201492D01*
X0294799Y0201492D02*
X0300550Y0201492D01*
X0300550Y0200494D02*
X0214950Y0200494D01*
X0214950Y0201492D02*
X0220701Y0201492D01*
X0217969Y0202491D02*
X0214950Y0202491D01*
X0214950Y0203489D02*
X0216779Y0203489D01*
X0215589Y0204488D02*
X0214950Y0204488D01*
X0214950Y0199495D02*
X0300550Y0199495D01*
X0300550Y0198497D02*
X0214950Y0198497D01*
X0214950Y0197498D02*
X0300550Y0197498D01*
X0300550Y0196500D02*
X0214950Y0196500D01*
X0208550Y0196500D02*
X0122950Y0196500D01*
X0122950Y0197498D02*
X0208550Y0197498D01*
X0208550Y0198497D02*
X0122950Y0198497D01*
X0122950Y0199495D02*
X0208550Y0199495D01*
X0208550Y0200494D02*
X0122950Y0200494D01*
X0122950Y0201492D02*
X0128701Y0201492D01*
X0125969Y0202491D02*
X0122950Y0202491D01*
X0122950Y0203489D02*
X0124779Y0203489D01*
X0123589Y0204488D02*
X0122950Y0204488D01*
X0116550Y0204488D02*
X0115911Y0204488D01*
X0116062Y0204615D02*
X0116062Y0204615D01*
X0116062Y0204615D01*
X0116550Y0203489D02*
X0114721Y0203489D01*
X0113531Y0202491D02*
X0116550Y0202491D01*
X0116550Y0201492D02*
X0110799Y0201492D01*
X0106701Y0201492D02*
X0040799Y0201492D01*
X0043531Y0202491D02*
X0103969Y0202491D01*
X0102779Y0203489D02*
X0044721Y0203489D01*
X0045911Y0204488D02*
X0101589Y0204488D01*
X0100935Y0205487D02*
X0046565Y0205487D01*
X0046062Y0204615D02*
X0046062Y0204615D01*
X0046062Y0204615D01*
X0047142Y0206485D02*
X0100358Y0206485D01*
X0099782Y0207484D02*
X0047718Y0207484D01*
X0047895Y0208482D02*
X0099605Y0208482D01*
X0099781Y0207485D02*
X0099781Y0207485D01*
X0099429Y0209481D02*
X0048071Y0209481D01*
X0048247Y0210479D02*
X0099253Y0210479D01*
X0099333Y0211478D02*
X0048167Y0211478D01*
X0047991Y0212476D02*
X0099509Y0212476D01*
X0099685Y0213475D02*
X0047815Y0213475D01*
X0047455Y0214473D02*
X0100045Y0214473D01*
X0099781Y0214015D02*
X0099781Y0214015D01*
X0100622Y0215472D02*
X0046878Y0215472D01*
X0046302Y0216470D02*
X0101198Y0216470D01*
X0101438Y0216885D02*
X0101438Y0216885D01*
X0101438Y0216885D01*
X0102133Y0217469D02*
X0045367Y0217469D01*
X0044177Y0218467D02*
X0103323Y0218467D01*
X0098435Y0224950D02*
X0099150Y0226676D01*
X0099150Y0228824D01*
X0098328Y0230809D01*
X0096809Y0232328D01*
X0096031Y0232650D01*
X0105641Y0232650D01*
X0108170Y0235179D01*
X0108857Y0235179D01*
X0109978Y0235643D01*
X0110836Y0236501D01*
X0111300Y0237622D01*
X0111300Y0238836D01*
X0110836Y0239957D01*
X0109978Y0240815D01*
X0108857Y0241279D01*
X0107643Y0241279D01*
X0106522Y0240815D01*
X0105664Y0239957D01*
X0105200Y0238836D01*
X0105200Y0238149D01*
X0103901Y0236850D01*
X0092820Y0236850D01*
X0096670Y0240700D01*
X0097357Y0240700D01*
X0098478Y0241164D01*
X0099336Y0242022D01*
X0099800Y0243143D01*
X0099800Y0244357D01*
X0099336Y0245478D01*
X0098478Y0246336D01*
X0097357Y0246800D01*
X0096143Y0246800D01*
X0095506Y0246536D01*
X0095850Y0246880D01*
X0095850Y0247800D01*
X0096954Y0247800D01*
X0097950Y0248796D01*
X0097950Y0252704D01*
X0097904Y0252750D01*
X0097950Y0252796D01*
X0097950Y0256704D01*
X0096954Y0257700D01*
X0095850Y0257700D01*
X0095850Y0267450D01*
X0098797Y0267450D01*
X0100700Y0265547D01*
X0100700Y0265143D01*
X0101164Y0264022D01*
X0102022Y0263164D01*
X0103143Y0262700D01*
X0104357Y0262700D01*
X0105478Y0263164D01*
X0106336Y0264022D01*
X0106800Y0265143D01*
X0106800Y0266357D01*
X0106336Y0267478D01*
X0105478Y0268336D01*
X0104357Y0268800D01*
X0103953Y0268800D01*
X0100703Y0272050D01*
X0092213Y0272050D01*
X0092336Y0272172D01*
X0092800Y0273293D01*
X0092800Y0274507D01*
X0092632Y0274912D01*
X0093143Y0274700D01*
X0094357Y0274700D01*
X0095478Y0275164D01*
X0096336Y0276022D01*
X0096800Y0277143D01*
X0096800Y0277830D01*
X0100850Y0281880D01*
X0100850Y0283200D01*
X0101954Y0283200D01*
X0102950Y0284196D01*
X0102950Y0291304D01*
X0101954Y0292300D01*
X0095546Y0292300D01*
X0094696Y0291450D01*
X0077804Y0291450D01*
X0076954Y0292300D01*
X0070546Y0292300D01*
X0069696Y0291450D01*
X0068963Y0291450D01*
X0068478Y0291936D01*
X0067357Y0292400D01*
X0066143Y0292400D01*
X0065022Y0291936D01*
X0064537Y0291450D01*
X0052804Y0291450D01*
X0051954Y0292300D01*
X0045546Y0292300D01*
X0044550Y0291304D01*
X0044550Y0284196D01*
X0045546Y0283200D01*
X0046650Y0283200D01*
X0046650Y0278880D01*
X0055700Y0269830D01*
X0055700Y0269143D01*
X0056164Y0268022D01*
X0057022Y0267164D01*
X0058143Y0266700D01*
X0059357Y0266700D01*
X0060478Y0267164D01*
X0060763Y0267450D01*
X0062703Y0267450D01*
X0064050Y0268797D01*
X0064200Y0268947D01*
X0064200Y0259022D01*
X0064522Y0258700D01*
X0082978Y0258700D01*
X0083300Y0259022D01*
X0083300Y0272447D01*
X0088297Y0267450D01*
X0091650Y0267450D01*
X0091650Y0257700D01*
X0090546Y0257700D01*
X0089550Y0256704D01*
X0089550Y0252796D01*
X0089596Y0252750D01*
X0089550Y0252704D01*
X0089550Y0248800D01*
X0089143Y0248800D01*
X0088022Y0248336D01*
X0087164Y0247478D01*
X0086700Y0246357D01*
X0086700Y0245143D01*
X0087164Y0244022D01*
X0088022Y0243164D01*
X0089143Y0242700D01*
X0090357Y0242700D01*
X0091478Y0243164D01*
X0091963Y0243650D01*
X0092620Y0243650D01*
X0093964Y0244994D01*
X0093700Y0244357D01*
X0093700Y0243670D01*
X0089880Y0239850D01*
X0079357Y0239850D01*
X0078871Y0240336D01*
X0077750Y0240800D01*
X0076537Y0240800D01*
X0075416Y0240336D01*
X0074558Y0239478D01*
X0074094Y0238357D01*
X0074094Y0237143D01*
X0074215Y0236850D01*
X0066678Y0236850D01*
X0066800Y0237143D01*
X0066800Y0238357D01*
X0066336Y0239478D01*
X0065478Y0240336D01*
X0064357Y0240800D01*
X0063670Y0240800D01*
X0060850Y0243620D01*
X0060850Y0244037D01*
X0061336Y0244522D01*
X0061800Y0245643D01*
X0061800Y0246857D01*
X0061336Y0247978D01*
X0060478Y0248836D01*
X0059357Y0249300D01*
X0058143Y0249300D01*
X0057022Y0248836D01*
X0056164Y0247978D01*
X0055700Y0246857D01*
X0055700Y0245643D01*
X0056039Y0244824D01*
X0050850Y0250014D01*
X0050850Y0250537D01*
X0051336Y0251022D01*
X0051800Y0252143D01*
X0051800Y0253357D01*
X0051336Y0254478D01*
X0050478Y0255336D01*
X0049357Y0255800D01*
X0048143Y0255800D01*
X0047022Y0255336D01*
X0046164Y0254478D01*
X0045700Y0253357D01*
X0045700Y0252143D01*
X0046164Y0251022D01*
X0046650Y0250537D01*
X0046650Y0248274D01*
X0062038Y0232886D01*
X0060691Y0232328D01*
X0059172Y0230809D01*
X0058641Y0229526D01*
X0058569Y0229746D01*
X0058197Y0230475D01*
X0057716Y0231138D01*
X0057138Y0231716D01*
X0056475Y0232197D01*
X0055746Y0232569D01*
X0054968Y0232822D01*
X0054250Y0232936D01*
X0054250Y0228250D01*
X0053250Y0228250D01*
X0053250Y0232936D01*
X0052532Y0232822D01*
X0051754Y0232569D01*
X0051025Y0232197D01*
X0050362Y0231716D01*
X0049784Y0231138D01*
X0049303Y0230475D01*
X0048931Y0229746D01*
X0048678Y0228968D01*
X0048564Y0228250D01*
X0053250Y0228250D01*
X0053250Y0227250D01*
X0048564Y0227250D01*
X0048678Y0226532D01*
X0048931Y0225754D01*
X0049303Y0225025D01*
X0049357Y0224950D01*
X0030950Y0224950D01*
X0030950Y0302460D01*
X0031438Y0301615D01*
X0031438Y0301615D01*
X0033977Y0299484D01*
X0033977Y0299484D01*
X0037093Y0298350D01*
X0040407Y0298350D01*
X0043522Y0299484D01*
X0043523Y0299484D01*
X0046062Y0301615D01*
X0047719Y0304485D01*
X0047719Y0304485D01*
X0048295Y0307750D01*
X0047719Y0311015D01*
X0046062Y0313885D01*
X0046062Y0313885D01*
X0044078Y0315550D01*
X0103422Y0315550D01*
X0101438Y0313885D01*
X0099781Y0311015D01*
X0099205Y0307750D01*
X0099781Y0304485D01*
X0101438Y0301615D01*
X0103977Y0299484D01*
X0103977Y0299484D01*
X0107093Y0298350D01*
X0110407Y0298350D01*
X0113522Y0299484D01*
X0113523Y0299484D01*
X0116062Y0301615D01*
X0116550Y0302460D01*
X0116550Y0224950D01*
X0098435Y0224950D01*
X0098645Y0225457D02*
X0116550Y0225457D01*
X0116550Y0226455D02*
X0099059Y0226455D01*
X0099150Y0227454D02*
X0116550Y0227454D01*
X0116550Y0228452D02*
X0099150Y0228452D01*
X0098890Y0229451D02*
X0116550Y0229451D01*
X0116550Y0230449D02*
X0098477Y0230449D01*
X0097689Y0231448D02*
X0116550Y0231448D01*
X0116550Y0232446D02*
X0096523Y0232446D01*
X0093409Y0237439D02*
X0104490Y0237439D01*
X0105200Y0238437D02*
X0094407Y0238437D01*
X0095406Y0239436D02*
X0105449Y0239436D01*
X0106142Y0240434D02*
X0096404Y0240434D01*
X0098746Y0241433D02*
X0116550Y0241433D01*
X0116550Y0242431D02*
X0099505Y0242431D01*
X0099800Y0243430D02*
X0116550Y0243430D01*
X0116550Y0244428D02*
X0099770Y0244428D01*
X0099357Y0245427D02*
X0116550Y0245427D01*
X0116550Y0246425D02*
X0098261Y0246425D01*
X0097577Y0248422D02*
X0116550Y0248422D01*
X0116550Y0247424D02*
X0095850Y0247424D01*
X0097950Y0249421D02*
X0116550Y0249421D01*
X0116550Y0250420D02*
X0097950Y0250420D01*
X0097950Y0251418D02*
X0116550Y0251418D01*
X0116550Y0252417D02*
X0097950Y0252417D01*
X0097950Y0253415D02*
X0116550Y0253415D01*
X0116550Y0254414D02*
X0097950Y0254414D01*
X0097950Y0255412D02*
X0116550Y0255412D01*
X0116550Y0256411D02*
X0097950Y0256411D01*
X0097245Y0257409D02*
X0116550Y0257409D01*
X0116550Y0258408D02*
X0095850Y0258408D01*
X0095850Y0259406D02*
X0116550Y0259406D01*
X0116550Y0260405D02*
X0095850Y0260405D01*
X0095850Y0261403D02*
X0116550Y0261403D01*
X0116550Y0262402D02*
X0095850Y0262402D01*
X0095850Y0263400D02*
X0101786Y0263400D01*
X0101008Y0264399D02*
X0095850Y0264399D01*
X0095850Y0265397D02*
X0100700Y0265397D01*
X0099852Y0266396D02*
X0095850Y0266396D01*
X0095850Y0267394D02*
X0098853Y0267394D01*
X0102363Y0270390D02*
X0116550Y0270390D01*
X0116550Y0271388D02*
X0101364Y0271388D01*
X0103361Y0269391D02*
X0116550Y0269391D01*
X0116550Y0268393D02*
X0105340Y0268393D01*
X0106370Y0267394D02*
X0116550Y0267394D01*
X0116550Y0266396D02*
X0106784Y0266396D01*
X0106800Y0265397D02*
X0116550Y0265397D01*
X0116550Y0264399D02*
X0106492Y0264399D01*
X0105714Y0263400D02*
X0116550Y0263400D01*
X0122950Y0263400D02*
X0156200Y0263400D01*
X0156200Y0262402D02*
X0122950Y0262402D01*
X0122950Y0261403D02*
X0156200Y0261403D01*
X0156200Y0260405D02*
X0122950Y0260405D01*
X0122950Y0259406D02*
X0156200Y0259406D01*
X0156200Y0259022D02*
X0156522Y0258700D01*
X0174978Y0258700D01*
X0175300Y0259022D01*
X0175300Y0272447D01*
X0178950Y0268797D01*
X0180297Y0267450D01*
X0183650Y0267450D01*
X0183650Y0257700D01*
X0182546Y0257700D01*
X0181550Y0256704D01*
X0181550Y0252796D01*
X0181596Y0252750D01*
X0181550Y0252704D01*
X0181550Y0248800D01*
X0181143Y0248800D01*
X0180022Y0248336D01*
X0179164Y0247478D01*
X0178700Y0246357D01*
X0178700Y0245143D01*
X0179164Y0244022D01*
X0180022Y0243164D01*
X0181143Y0242700D01*
X0182357Y0242700D01*
X0183478Y0243164D01*
X0183963Y0243650D01*
X0184620Y0243650D01*
X0185964Y0244994D01*
X0185700Y0244357D01*
X0185700Y0243670D01*
X0181880Y0239850D01*
X0171357Y0239850D01*
X0170871Y0240336D01*
X0169750Y0240800D01*
X0168537Y0240800D01*
X0167416Y0240336D01*
X0166558Y0239478D01*
X0166094Y0238357D01*
X0166094Y0237143D01*
X0166215Y0236850D01*
X0158678Y0236850D01*
X0158800Y0237143D01*
X0158800Y0238357D01*
X0158336Y0239478D01*
X0157478Y0240336D01*
X0156357Y0240800D01*
X0155670Y0240800D01*
X0152850Y0243620D01*
X0152850Y0244037D01*
X0153336Y0244522D01*
X0153800Y0245643D01*
X0153800Y0246857D01*
X0153336Y0247978D01*
X0152478Y0248836D01*
X0151357Y0249300D01*
X0150143Y0249300D01*
X0149022Y0248836D01*
X0148164Y0247978D01*
X0147700Y0246857D01*
X0147700Y0245643D01*
X0148039Y0244824D01*
X0142850Y0250014D01*
X0142850Y0250537D01*
X0143336Y0251022D01*
X0143800Y0252143D01*
X0143800Y0253357D01*
X0143336Y0254478D01*
X0142478Y0255336D01*
X0141357Y0255800D01*
X0140143Y0255800D01*
X0139022Y0255336D01*
X0138164Y0254478D01*
X0137700Y0253357D01*
X0137700Y0252143D01*
X0138164Y0251022D01*
X0138650Y0250537D01*
X0138650Y0248274D01*
X0154038Y0232886D01*
X0152691Y0232328D01*
X0151172Y0230809D01*
X0150641Y0229526D01*
X0150569Y0229746D01*
X0150197Y0230475D01*
X0149716Y0231138D01*
X0149138Y0231716D01*
X0148475Y0232197D01*
X0147746Y0232569D01*
X0146968Y0232822D01*
X0146250Y0232936D01*
X0146250Y0228250D01*
X0145250Y0228250D01*
X0145250Y0232936D01*
X0144532Y0232822D01*
X0143754Y0232569D01*
X0143025Y0232197D01*
X0142362Y0231716D01*
X0141784Y0231138D01*
X0141303Y0230475D01*
X0140931Y0229746D01*
X0140678Y0228968D01*
X0140564Y0228250D01*
X0145250Y0228250D01*
X0145250Y0227250D01*
X0140564Y0227250D01*
X0140678Y0226532D01*
X0140931Y0225754D01*
X0141303Y0225025D01*
X0141357Y0224950D01*
X0122950Y0224950D01*
X0122950Y0302460D01*
X0123438Y0301615D01*
X0123438Y0301615D01*
X0125977Y0299484D01*
X0125977Y0299484D01*
X0129093Y0298350D01*
X0132407Y0298350D01*
X0135522Y0299484D01*
X0138062Y0301615D01*
X0139719Y0304485D01*
X0139719Y0304485D01*
X0140295Y0307750D01*
X0139719Y0311015D01*
X0138062Y0313885D01*
X0138062Y0313885D01*
X0136078Y0315550D01*
X0195422Y0315550D01*
X0193438Y0313885D01*
X0191781Y0311015D01*
X0191205Y0307750D01*
X0191205Y0307750D01*
X0191781Y0304485D01*
X0193438Y0301615D01*
X0193438Y0301615D01*
X0195977Y0299484D01*
X0195977Y0299484D01*
X0199093Y0298350D01*
X0202407Y0298350D01*
X0205522Y0299484D01*
X0205523Y0299484D01*
X0208062Y0301615D01*
X0208550Y0302460D01*
X0208550Y0224950D01*
X0190435Y0224950D01*
X0191150Y0226676D01*
X0191150Y0228824D01*
X0190328Y0230809D01*
X0188809Y0232328D01*
X0188031Y0232650D01*
X0197641Y0232650D01*
X0200170Y0235179D01*
X0200857Y0235179D01*
X0201978Y0235643D01*
X0202836Y0236501D01*
X0203300Y0237622D01*
X0203300Y0238836D01*
X0202836Y0239957D01*
X0201978Y0240815D01*
X0200857Y0241279D01*
X0199643Y0241279D01*
X0198522Y0240815D01*
X0197664Y0239957D01*
X0197200Y0238836D01*
X0197200Y0238149D01*
X0195901Y0236850D01*
X0184820Y0236850D01*
X0188670Y0240700D01*
X0189357Y0240700D01*
X0190478Y0241164D01*
X0191336Y0242022D01*
X0191800Y0243143D01*
X0191800Y0244357D01*
X0191336Y0245478D01*
X0190478Y0246336D01*
X0189357Y0246800D01*
X0188143Y0246800D01*
X0187506Y0246536D01*
X0187850Y0246880D01*
X0187850Y0247800D01*
X0188954Y0247800D01*
X0189950Y0248796D01*
X0189950Y0252704D01*
X0189904Y0252750D01*
X0189950Y0252796D01*
X0189950Y0256704D01*
X0188954Y0257700D01*
X0187850Y0257700D01*
X0187850Y0267450D01*
X0190797Y0267450D01*
X0192700Y0265547D01*
X0192700Y0265143D01*
X0193164Y0264022D01*
X0194022Y0263164D01*
X0195143Y0262700D01*
X0196357Y0262700D01*
X0197478Y0263164D01*
X0198336Y0264022D01*
X0198800Y0265143D01*
X0198800Y0266357D01*
X0198336Y0267478D01*
X0197478Y0268336D01*
X0196357Y0268800D01*
X0195953Y0268800D01*
X0194050Y0270703D01*
X0192703Y0272050D01*
X0184213Y0272050D01*
X0184336Y0272172D01*
X0184800Y0273293D01*
X0184800Y0274507D01*
X0184632Y0274912D01*
X0185143Y0274700D01*
X0186357Y0274700D01*
X0187478Y0275164D01*
X0188336Y0276022D01*
X0188800Y0277143D01*
X0188800Y0277830D01*
X0191620Y0280650D01*
X0192850Y0281880D01*
X0192850Y0283200D01*
X0193954Y0283200D01*
X0194950Y0284196D01*
X0194950Y0291304D01*
X0193954Y0292300D01*
X0187546Y0292300D01*
X0186696Y0291450D01*
X0169804Y0291450D01*
X0168954Y0292300D01*
X0162546Y0292300D01*
X0161696Y0291450D01*
X0160963Y0291450D01*
X0160478Y0291936D01*
X0159357Y0292400D01*
X0158143Y0292400D01*
X0157022Y0291936D01*
X0156537Y0291450D01*
X0144804Y0291450D01*
X0143954Y0292300D01*
X0137546Y0292300D01*
X0136550Y0291304D01*
X0136550Y0284196D01*
X0137546Y0283200D01*
X0138650Y0283200D01*
X0138650Y0278880D01*
X0147700Y0269830D01*
X0147700Y0269143D01*
X0148164Y0268022D01*
X0149022Y0267164D01*
X0150143Y0266700D01*
X0151357Y0266700D01*
X0152478Y0267164D01*
X0152763Y0267450D01*
X0154703Y0267450D01*
X0156050Y0268797D01*
X0156200Y0268947D01*
X0156200Y0259022D01*
X0156200Y0264399D02*
X0122950Y0264399D01*
X0122950Y0265397D02*
X0156200Y0265397D01*
X0156200Y0266396D02*
X0122950Y0266396D01*
X0122950Y0267394D02*
X0148792Y0267394D01*
X0148011Y0268393D02*
X0122950Y0268393D01*
X0122950Y0269391D02*
X0147700Y0269391D01*
X0147140Y0270390D02*
X0122950Y0270390D01*
X0122950Y0271388D02*
X0146142Y0271388D01*
X0145143Y0272387D02*
X0122950Y0272387D01*
X0122950Y0273385D02*
X0144145Y0273385D01*
X0143146Y0274384D02*
X0122950Y0274384D01*
X0122950Y0275382D02*
X0142148Y0275382D01*
X0141149Y0276381D02*
X0122950Y0276381D01*
X0122950Y0277379D02*
X0140151Y0277379D01*
X0139152Y0278378D02*
X0122950Y0278378D01*
X0122950Y0279376D02*
X0138650Y0279376D01*
X0138650Y0280375D02*
X0122950Y0280375D01*
X0122950Y0281373D02*
X0138650Y0281373D01*
X0138650Y0282372D02*
X0122950Y0282372D01*
X0122950Y0283370D02*
X0137375Y0283370D01*
X0136550Y0284369D02*
X0122950Y0284369D01*
X0122950Y0285367D02*
X0136550Y0285367D01*
X0136550Y0286366D02*
X0122950Y0286366D01*
X0122950Y0287364D02*
X0136550Y0287364D01*
X0136550Y0288363D02*
X0122950Y0288363D01*
X0122950Y0289361D02*
X0136550Y0289361D01*
X0136550Y0290360D02*
X0122950Y0290360D01*
X0122950Y0291358D02*
X0136604Y0291358D01*
X0135146Y0299347D02*
X0196354Y0299347D01*
X0194951Y0300345D02*
X0136549Y0300345D01*
X0137739Y0301344D02*
X0193761Y0301344D01*
X0193018Y0302342D02*
X0138482Y0302342D01*
X0138062Y0301615D02*
X0138062Y0301615D01*
X0138062Y0301615D01*
X0139058Y0303341D02*
X0192442Y0303341D01*
X0191865Y0304339D02*
X0139635Y0304339D01*
X0139870Y0305338D02*
X0191630Y0305338D01*
X0191781Y0304485D02*
X0191781Y0304485D01*
X0191454Y0306336D02*
X0140046Y0306336D01*
X0140222Y0307335D02*
X0191278Y0307335D01*
X0191308Y0308333D02*
X0140192Y0308333D01*
X0140295Y0307750D02*
X0140295Y0307750D01*
X0140016Y0309332D02*
X0191484Y0309332D01*
X0191660Y0310330D02*
X0139840Y0310330D01*
X0139719Y0311015D02*
X0139719Y0311015D01*
X0139538Y0311329D02*
X0191962Y0311329D01*
X0191781Y0311015D02*
X0191781Y0311015D01*
X0192538Y0312327D02*
X0138962Y0312327D01*
X0138385Y0313326D02*
X0193115Y0313326D01*
X0193438Y0313885D02*
X0193438Y0313885D01*
X0193438Y0313885D01*
X0193961Y0314324D02*
X0137539Y0314324D01*
X0136349Y0315323D02*
X0195151Y0315323D01*
X0208482Y0302342D02*
X0208550Y0302342D01*
X0208062Y0301615D02*
X0208062Y0301615D01*
X0208062Y0301615D01*
X0207739Y0301344D02*
X0208550Y0301344D01*
X0208550Y0300345D02*
X0206549Y0300345D01*
X0205146Y0299347D02*
X0208550Y0299347D01*
X0208550Y0298348D02*
X0122950Y0298348D01*
X0122950Y0297350D02*
X0208550Y0297350D01*
X0208550Y0296351D02*
X0122950Y0296351D01*
X0122950Y0295353D02*
X0208550Y0295353D01*
X0208550Y0294354D02*
X0122950Y0294354D01*
X0122950Y0293355D02*
X0208550Y0293355D01*
X0208550Y0292357D02*
X0159460Y0292357D01*
X0158040Y0292357D02*
X0122950Y0292357D01*
X0116550Y0292357D02*
X0067460Y0292357D01*
X0066040Y0292357D02*
X0030950Y0292357D01*
X0030950Y0293355D02*
X0116550Y0293355D01*
X0116550Y0294354D02*
X0030950Y0294354D01*
X0030950Y0295353D02*
X0116550Y0295353D01*
X0116550Y0296351D02*
X0030950Y0296351D01*
X0030950Y0297350D02*
X0116550Y0297350D01*
X0116550Y0298348D02*
X0030950Y0298348D01*
X0030950Y0299347D02*
X0034354Y0299347D01*
X0032951Y0300345D02*
X0030950Y0300345D01*
X0030950Y0301344D02*
X0031761Y0301344D01*
X0031018Y0302342D02*
X0030950Y0302342D01*
X0030950Y0291358D02*
X0044604Y0291358D01*
X0044550Y0290360D02*
X0030950Y0290360D01*
X0030950Y0289361D02*
X0044550Y0289361D01*
X0044550Y0288363D02*
X0030950Y0288363D01*
X0030950Y0287364D02*
X0044550Y0287364D01*
X0044550Y0286366D02*
X0030950Y0286366D01*
X0030950Y0285367D02*
X0044550Y0285367D01*
X0044550Y0284369D02*
X0030950Y0284369D01*
X0030950Y0283370D02*
X0045375Y0283370D01*
X0046650Y0282372D02*
X0030950Y0282372D01*
X0030950Y0281373D02*
X0046650Y0281373D01*
X0046650Y0280375D02*
X0030950Y0280375D01*
X0030950Y0279376D02*
X0046650Y0279376D01*
X0047152Y0278378D02*
X0030950Y0278378D01*
X0030950Y0277379D02*
X0048151Y0277379D01*
X0049149Y0276381D02*
X0030950Y0276381D01*
X0030950Y0275382D02*
X0050148Y0275382D01*
X0051146Y0274384D02*
X0030950Y0274384D01*
X0030950Y0273385D02*
X0052145Y0273385D01*
X0053143Y0272387D02*
X0030950Y0272387D01*
X0030950Y0271388D02*
X0054142Y0271388D01*
X0055140Y0270390D02*
X0030950Y0270390D01*
X0030950Y0269391D02*
X0055700Y0269391D01*
X0056011Y0268393D02*
X0030950Y0268393D01*
X0030950Y0267394D02*
X0056792Y0267394D01*
X0060708Y0267394D02*
X0064200Y0267394D01*
X0064200Y0266396D02*
X0030950Y0266396D01*
X0030950Y0265397D02*
X0064200Y0265397D01*
X0064200Y0264399D02*
X0030950Y0264399D01*
X0030950Y0263400D02*
X0064200Y0263400D01*
X0064200Y0262402D02*
X0030950Y0262402D01*
X0030950Y0261403D02*
X0064200Y0261403D01*
X0064200Y0260405D02*
X0030950Y0260405D01*
X0030950Y0259406D02*
X0064200Y0259406D01*
X0064200Y0268393D02*
X0063645Y0268393D01*
X0050293Y0255412D02*
X0089550Y0255412D01*
X0089550Y0254414D02*
X0051362Y0254414D01*
X0051776Y0253415D02*
X0089550Y0253415D01*
X0089550Y0252417D02*
X0051800Y0252417D01*
X0051500Y0251418D02*
X0089550Y0251418D01*
X0089550Y0250420D02*
X0050850Y0250420D01*
X0051443Y0249421D02*
X0089550Y0249421D01*
X0088232Y0248422D02*
X0060891Y0248422D01*
X0061565Y0247424D02*
X0087142Y0247424D01*
X0086728Y0246425D02*
X0061800Y0246425D01*
X0061710Y0245427D02*
X0086700Y0245427D01*
X0086996Y0244428D02*
X0061242Y0244428D01*
X0061040Y0243430D02*
X0087757Y0243430D01*
X0091743Y0243430D02*
X0093460Y0243430D01*
X0093398Y0244428D02*
X0093730Y0244428D01*
X0092462Y0242431D02*
X0062038Y0242431D01*
X0063037Y0241433D02*
X0091463Y0241433D01*
X0090465Y0240434D02*
X0078633Y0240434D01*
X0075654Y0240434D02*
X0065239Y0240434D01*
X0066353Y0239436D02*
X0074541Y0239436D01*
X0074127Y0238437D02*
X0066767Y0238437D01*
X0066800Y0237439D02*
X0074094Y0237439D01*
X0061479Y0233445D02*
X0030950Y0233445D01*
X0030950Y0234443D02*
X0060481Y0234443D01*
X0059482Y0235442D02*
X0030950Y0235442D01*
X0030950Y0236440D02*
X0058484Y0236440D01*
X0057485Y0237439D02*
X0030950Y0237439D01*
X0030950Y0238437D02*
X0056487Y0238437D01*
X0055488Y0239436D02*
X0030950Y0239436D01*
X0030950Y0240434D02*
X0054489Y0240434D01*
X0053491Y0241433D02*
X0030950Y0241433D01*
X0030950Y0242431D02*
X0052492Y0242431D01*
X0051494Y0243430D02*
X0030950Y0243430D01*
X0030950Y0244428D02*
X0050495Y0244428D01*
X0049497Y0245427D02*
X0030950Y0245427D01*
X0030950Y0246425D02*
X0048498Y0246425D01*
X0047500Y0247424D02*
X0030950Y0247424D01*
X0030950Y0248422D02*
X0046650Y0248422D01*
X0046650Y0249421D02*
X0030950Y0249421D01*
X0030950Y0250420D02*
X0046650Y0250420D01*
X0046000Y0251418D02*
X0030950Y0251418D01*
X0030950Y0252417D02*
X0045700Y0252417D01*
X0045724Y0253415D02*
X0030950Y0253415D01*
X0030950Y0254414D02*
X0046138Y0254414D01*
X0047207Y0255412D02*
X0030950Y0255412D01*
X0030950Y0256411D02*
X0089550Y0256411D01*
X0090255Y0257409D02*
X0030950Y0257409D01*
X0030950Y0258408D02*
X0091650Y0258408D01*
X0091650Y0259406D02*
X0083300Y0259406D01*
X0083300Y0260405D02*
X0091650Y0260405D01*
X0091650Y0261403D02*
X0083300Y0261403D01*
X0083300Y0262402D02*
X0091650Y0262402D01*
X0091650Y0263400D02*
X0083300Y0263400D01*
X0083300Y0264399D02*
X0091650Y0264399D01*
X0091650Y0265397D02*
X0083300Y0265397D01*
X0083300Y0266396D02*
X0091650Y0266396D01*
X0091650Y0267394D02*
X0083300Y0267394D01*
X0083300Y0268393D02*
X0087355Y0268393D01*
X0086356Y0269391D02*
X0083300Y0269391D01*
X0083300Y0270390D02*
X0085358Y0270390D01*
X0084359Y0271388D02*
X0083300Y0271388D01*
X0083300Y0272387D02*
X0083361Y0272387D01*
X0092424Y0272387D02*
X0116550Y0272387D01*
X0116550Y0273385D02*
X0092800Y0273385D01*
X0092800Y0274384D02*
X0116550Y0274384D01*
X0116550Y0275382D02*
X0095696Y0275382D01*
X0096484Y0276381D02*
X0116550Y0276381D01*
X0116550Y0277379D02*
X0096800Y0277379D01*
X0097348Y0278378D02*
X0116550Y0278378D01*
X0116550Y0279376D02*
X0098346Y0279376D01*
X0099345Y0280375D02*
X0116550Y0280375D01*
X0116550Y0281373D02*
X0100343Y0281373D01*
X0100850Y0282372D02*
X0116550Y0282372D01*
X0116550Y0283370D02*
X0102125Y0283370D01*
X0102950Y0284369D02*
X0116550Y0284369D01*
X0116550Y0285367D02*
X0102950Y0285367D01*
X0102950Y0286366D02*
X0116550Y0286366D01*
X0116550Y0287364D02*
X0102950Y0287364D01*
X0102950Y0288363D02*
X0116550Y0288363D01*
X0116550Y0289361D02*
X0102950Y0289361D01*
X0102950Y0290360D02*
X0116550Y0290360D01*
X0116550Y0291358D02*
X0102896Y0291358D01*
X0104354Y0299347D02*
X0043146Y0299347D01*
X0044549Y0300345D02*
X0102951Y0300345D01*
X0101761Y0301344D02*
X0045739Y0301344D01*
X0046062Y0301615D02*
X0046062Y0301615D01*
X0046062Y0301615D01*
X0046482Y0302342D02*
X0101018Y0302342D01*
X0100442Y0303341D02*
X0047058Y0303341D01*
X0047635Y0304339D02*
X0099865Y0304339D01*
X0099630Y0305338D02*
X0047870Y0305338D01*
X0048046Y0306336D02*
X0099454Y0306336D01*
X0099278Y0307335D02*
X0048222Y0307335D01*
X0048295Y0307750D02*
X0048295Y0307750D01*
X0048192Y0308333D02*
X0099308Y0308333D01*
X0099205Y0307750D02*
X0099205Y0307750D01*
X0099484Y0309332D02*
X0048016Y0309332D01*
X0047840Y0310330D02*
X0099660Y0310330D01*
X0099781Y0311015D02*
X0099781Y0311015D01*
X0099962Y0311329D02*
X0047538Y0311329D01*
X0047719Y0311015D02*
X0047719Y0311015D01*
X0046962Y0312327D02*
X0100538Y0312327D01*
X0101115Y0313326D02*
X0046385Y0313326D01*
X0045539Y0314324D02*
X0101961Y0314324D01*
X0101438Y0313885D02*
X0101438Y0313885D01*
X0101438Y0313885D01*
X0103151Y0315323D02*
X0044349Y0315323D01*
X0093750Y0254250D02*
X0093750Y0251250D01*
X0110358Y0240434D02*
X0116550Y0240434D01*
X0116550Y0239436D02*
X0111051Y0239436D01*
X0111300Y0238437D02*
X0116550Y0238437D01*
X0116550Y0237439D02*
X0111224Y0237439D01*
X0110775Y0236440D02*
X0116550Y0236440D01*
X0116550Y0235442D02*
X0109491Y0235442D01*
X0107434Y0234443D02*
X0116550Y0234443D01*
X0116550Y0233445D02*
X0106436Y0233445D01*
X0122950Y0233445D02*
X0153479Y0233445D01*
X0152977Y0232446D02*
X0147987Y0232446D01*
X0149406Y0231448D02*
X0151811Y0231448D01*
X0151023Y0230449D02*
X0150211Y0230449D01*
X0146250Y0230449D02*
X0145250Y0230449D01*
X0145250Y0229451D02*
X0146250Y0229451D01*
X0146250Y0228452D02*
X0145250Y0228452D01*
X0145250Y0227454D02*
X0122950Y0227454D01*
X0122950Y0228452D02*
X0140596Y0228452D01*
X0140835Y0229451D02*
X0122950Y0229451D01*
X0122950Y0230449D02*
X0141289Y0230449D01*
X0142094Y0231448D02*
X0122950Y0231448D01*
X0122950Y0232446D02*
X0143513Y0232446D01*
X0145250Y0232446D02*
X0146250Y0232446D01*
X0146250Y0231448D02*
X0145250Y0231448D01*
X0140703Y0226455D02*
X0122950Y0226455D01*
X0122950Y0225457D02*
X0141082Y0225457D01*
X0136177Y0218467D02*
X0195323Y0218467D01*
X0194133Y0217469D02*
X0137367Y0217469D01*
X0138302Y0216470D02*
X0193198Y0216470D01*
X0193438Y0216885D02*
X0193438Y0216885D01*
X0193438Y0216885D01*
X0192622Y0215472D02*
X0138878Y0215472D01*
X0139455Y0214473D02*
X0192045Y0214473D01*
X0191781Y0214015D02*
X0191781Y0214015D01*
X0191685Y0213475D02*
X0139815Y0213475D01*
X0139719Y0214015D02*
X0139719Y0214015D01*
X0139991Y0212476D02*
X0191509Y0212476D01*
X0191333Y0211478D02*
X0140167Y0211478D01*
X0140295Y0210750D02*
X0140295Y0210750D01*
X0140247Y0210479D02*
X0191253Y0210479D01*
X0191429Y0209481D02*
X0140071Y0209481D01*
X0139895Y0208482D02*
X0191605Y0208482D01*
X0191781Y0207485D02*
X0191781Y0207485D01*
X0191782Y0207484D02*
X0139718Y0207484D01*
X0139142Y0206485D02*
X0192358Y0206485D01*
X0192935Y0205487D02*
X0138565Y0205487D01*
X0138062Y0204615D02*
X0138062Y0204615D01*
X0138062Y0204615D01*
X0137911Y0204488D02*
X0193589Y0204488D01*
X0194779Y0203489D02*
X0136721Y0203489D01*
X0135531Y0202491D02*
X0195969Y0202491D01*
X0198701Y0201492D02*
X0132799Y0201492D01*
X0144751Y0194503D02*
X0156590Y0194503D01*
X0160910Y0194503D02*
X0161749Y0194503D01*
X0169751Y0194503D02*
X0186749Y0194503D01*
X0202407Y0201350D02*
X0202407Y0201350D01*
X0202799Y0201492D02*
X0208550Y0201492D01*
X0208550Y0202491D02*
X0205531Y0202491D01*
X0206721Y0203489D02*
X0208550Y0203489D01*
X0208550Y0204488D02*
X0207911Y0204488D01*
X0208062Y0204615D02*
X0208062Y0204615D01*
X0229911Y0204488D02*
X0285589Y0204488D01*
X0284935Y0205487D02*
X0230565Y0205487D01*
X0230062Y0204615D02*
X0230062Y0204615D01*
X0230062Y0204615D01*
X0231142Y0206485D02*
X0284358Y0206485D01*
X0283782Y0207484D02*
X0231718Y0207484D01*
X0231895Y0208482D02*
X0283605Y0208482D01*
X0283781Y0207485D02*
X0283781Y0207485D01*
X0283429Y0209481D02*
X0232071Y0209481D01*
X0232247Y0210479D02*
X0283253Y0210479D01*
X0283333Y0211478D02*
X0232167Y0211478D01*
X0232295Y0210750D02*
X0232295Y0210750D01*
X0231991Y0212476D02*
X0283509Y0212476D01*
X0283685Y0213475D02*
X0231815Y0213475D01*
X0231719Y0214015D02*
X0231719Y0214015D01*
X0231455Y0214473D02*
X0284045Y0214473D01*
X0283781Y0214015D02*
X0283781Y0214015D01*
X0284622Y0215472D02*
X0230878Y0215472D01*
X0230302Y0216470D02*
X0285198Y0216470D01*
X0285438Y0216885D02*
X0285438Y0216885D01*
X0285438Y0216885D01*
X0286133Y0217469D02*
X0229367Y0217469D01*
X0228177Y0218467D02*
X0287323Y0218467D01*
X0282435Y0224950D02*
X0283150Y0226676D01*
X0283150Y0228824D01*
X0282328Y0230809D01*
X0280809Y0232328D01*
X0280031Y0232650D01*
X0289641Y0232650D01*
X0292170Y0235179D01*
X0292857Y0235179D01*
X0293978Y0235643D01*
X0294836Y0236501D01*
X0295300Y0237622D01*
X0295300Y0238836D01*
X0294836Y0239957D01*
X0293978Y0240815D01*
X0292857Y0241279D01*
X0291643Y0241279D01*
X0290522Y0240815D01*
X0289664Y0239957D01*
X0289200Y0238836D01*
X0289200Y0238149D01*
X0287901Y0236850D01*
X0276820Y0236850D01*
X0280670Y0240700D01*
X0281357Y0240700D01*
X0282478Y0241164D01*
X0283336Y0242022D01*
X0283800Y0243143D01*
X0283800Y0244357D01*
X0283336Y0245478D01*
X0282478Y0246336D01*
X0281357Y0246800D01*
X0280143Y0246800D01*
X0279506Y0246536D01*
X0279850Y0246880D01*
X0279850Y0247800D01*
X0280954Y0247800D01*
X0281950Y0248796D01*
X0281950Y0252704D01*
X0281904Y0252750D01*
X0281950Y0252796D01*
X0281950Y0256704D01*
X0280954Y0257700D01*
X0279850Y0257700D01*
X0279850Y0267450D01*
X0282797Y0267450D01*
X0284700Y0265547D01*
X0284700Y0265143D01*
X0285164Y0264022D01*
X0286022Y0263164D01*
X0287143Y0262700D01*
X0288357Y0262700D01*
X0289478Y0263164D01*
X0290336Y0264022D01*
X0290800Y0265143D01*
X0290800Y0266357D01*
X0290336Y0267478D01*
X0289478Y0268336D01*
X0288357Y0268800D01*
X0287953Y0268800D01*
X0284703Y0272050D01*
X0276213Y0272050D01*
X0276336Y0272172D01*
X0276800Y0273293D01*
X0276800Y0274507D01*
X0276632Y0274912D01*
X0277143Y0274700D01*
X0278357Y0274700D01*
X0279478Y0275164D01*
X0280336Y0276022D01*
X0280800Y0277143D01*
X0280800Y0277830D01*
X0284850Y0281880D01*
X0284850Y0283200D01*
X0285954Y0283200D01*
X0286950Y0284196D01*
X0286950Y0291304D01*
X0285954Y0292300D01*
X0279546Y0292300D01*
X0278696Y0291450D01*
X0261804Y0291450D01*
X0260954Y0292300D01*
X0254546Y0292300D01*
X0253696Y0291450D01*
X0252963Y0291450D01*
X0252478Y0291936D01*
X0251357Y0292400D01*
X0250143Y0292400D01*
X0249022Y0291936D01*
X0248537Y0291450D01*
X0236804Y0291450D01*
X0235954Y0292300D01*
X0229546Y0292300D01*
X0228550Y0291304D01*
X0228550Y0284196D01*
X0229546Y0283200D01*
X0230650Y0283200D01*
X0230650Y0278880D01*
X0239700Y0269830D01*
X0239700Y0269143D01*
X0240164Y0268022D01*
X0241022Y0267164D01*
X0242143Y0266700D01*
X0243357Y0266700D01*
X0244478Y0267164D01*
X0244763Y0267450D01*
X0246703Y0267450D01*
X0248050Y0268797D01*
X0248200Y0268947D01*
X0248200Y0259022D01*
X0248522Y0258700D01*
X0266978Y0258700D01*
X0267300Y0259022D01*
X0267300Y0272447D01*
X0272297Y0267450D01*
X0275650Y0267450D01*
X0275650Y0257700D01*
X0274546Y0257700D01*
X0273550Y0256704D01*
X0273550Y0252796D01*
X0273596Y0252750D01*
X0273550Y0252704D01*
X0273550Y0248800D01*
X0273143Y0248800D01*
X0272022Y0248336D01*
X0271164Y0247478D01*
X0270700Y0246357D01*
X0270700Y0245143D01*
X0271164Y0244022D01*
X0272022Y0243164D01*
X0273143Y0242700D01*
X0274357Y0242700D01*
X0275478Y0243164D01*
X0275963Y0243650D01*
X0276620Y0243650D01*
X0277964Y0244994D01*
X0277700Y0244357D01*
X0277700Y0243670D01*
X0273880Y0239850D01*
X0263357Y0239850D01*
X0262871Y0240336D01*
X0261750Y0240800D01*
X0260537Y0240800D01*
X0259416Y0240336D01*
X0258558Y0239478D01*
X0258094Y0238357D01*
X0258094Y0237143D01*
X0258215Y0236850D01*
X0250678Y0236850D01*
X0250800Y0237143D01*
X0250800Y0238357D01*
X0250336Y0239478D01*
X0249478Y0240336D01*
X0248357Y0240800D01*
X0247670Y0240800D01*
X0244850Y0243620D01*
X0244850Y0244037D01*
X0245336Y0244522D01*
X0245800Y0245643D01*
X0245800Y0246857D01*
X0245336Y0247978D01*
X0244478Y0248836D01*
X0243357Y0249300D01*
X0242143Y0249300D01*
X0241022Y0248836D01*
X0240164Y0247978D01*
X0239700Y0246857D01*
X0239700Y0245643D01*
X0240039Y0244824D01*
X0234850Y0250014D01*
X0234850Y0250537D01*
X0235336Y0251022D01*
X0235800Y0252143D01*
X0235800Y0253357D01*
X0235336Y0254478D01*
X0234478Y0255336D01*
X0233357Y0255800D01*
X0232143Y0255800D01*
X0231022Y0255336D01*
X0230164Y0254478D01*
X0229700Y0253357D01*
X0229700Y0252143D01*
X0230164Y0251022D01*
X0230650Y0250537D01*
X0230650Y0248274D01*
X0246038Y0232886D01*
X0244691Y0232328D01*
X0243172Y0230809D01*
X0242641Y0229526D01*
X0242569Y0229746D01*
X0242197Y0230475D01*
X0241716Y0231138D01*
X0241138Y0231716D01*
X0240475Y0232197D01*
X0239746Y0232569D01*
X0238968Y0232822D01*
X0238250Y0232936D01*
X0238250Y0228250D01*
X0237250Y0228250D01*
X0237250Y0232936D01*
X0236532Y0232822D01*
X0235754Y0232569D01*
X0235025Y0232197D01*
X0234362Y0231716D01*
X0233784Y0231138D01*
X0233303Y0230475D01*
X0232931Y0229746D01*
X0232678Y0228968D01*
X0232564Y0228250D01*
X0237250Y0228250D01*
X0237250Y0227250D01*
X0232564Y0227250D01*
X0232678Y0226532D01*
X0232931Y0225754D01*
X0233303Y0225025D01*
X0233357Y0224950D01*
X0214950Y0224950D01*
X0214950Y0302460D01*
X0215438Y0301615D01*
X0215438Y0301615D01*
X0217977Y0299484D01*
X0217977Y0299484D01*
X0221093Y0298350D01*
X0224407Y0298350D01*
X0227522Y0299484D01*
X0227523Y0299484D01*
X0230062Y0301615D01*
X0231719Y0304485D01*
X0231719Y0304485D01*
X0232295Y0307750D01*
X0231719Y0311015D01*
X0230062Y0313885D01*
X0230062Y0313885D01*
X0228078Y0315550D01*
X0287422Y0315550D01*
X0285438Y0313885D01*
X0283781Y0311015D01*
X0283205Y0307750D01*
X0283205Y0307750D01*
X0283781Y0304485D01*
X0285438Y0301615D01*
X0285438Y0301615D01*
X0287977Y0299484D01*
X0287977Y0299484D01*
X0291093Y0298350D01*
X0294407Y0298350D01*
X0297522Y0299484D01*
X0297523Y0299484D01*
X0300062Y0301615D01*
X0300550Y0302460D01*
X0300550Y0224950D01*
X0282435Y0224950D01*
X0282645Y0225457D02*
X0300550Y0225457D01*
X0300550Y0226455D02*
X0283059Y0226455D01*
X0283150Y0227454D02*
X0300550Y0227454D01*
X0300550Y0228452D02*
X0283150Y0228452D01*
X0282890Y0229451D02*
X0300550Y0229451D01*
X0300550Y0230449D02*
X0282477Y0230449D01*
X0281689Y0231448D02*
X0300550Y0231448D01*
X0300550Y0232446D02*
X0280523Y0232446D01*
X0277409Y0237439D02*
X0288490Y0237439D01*
X0289200Y0238437D02*
X0278407Y0238437D01*
X0279406Y0239436D02*
X0289449Y0239436D01*
X0290142Y0240434D02*
X0280404Y0240434D01*
X0282746Y0241433D02*
X0300550Y0241433D01*
X0300550Y0242431D02*
X0283505Y0242431D01*
X0283800Y0243430D02*
X0300550Y0243430D01*
X0300550Y0244428D02*
X0283770Y0244428D01*
X0283357Y0245427D02*
X0300550Y0245427D01*
X0300550Y0246425D02*
X0282261Y0246425D01*
X0281577Y0248422D02*
X0300550Y0248422D01*
X0300550Y0247424D02*
X0279850Y0247424D01*
X0281950Y0249421D02*
X0300550Y0249421D01*
X0300550Y0250420D02*
X0281950Y0250420D01*
X0281950Y0251418D02*
X0300550Y0251418D01*
X0300550Y0252417D02*
X0281950Y0252417D01*
X0281950Y0253415D02*
X0300550Y0253415D01*
X0300550Y0254414D02*
X0281950Y0254414D01*
X0281950Y0255412D02*
X0300550Y0255412D01*
X0300550Y0256411D02*
X0281950Y0256411D01*
X0281245Y0257409D02*
X0300550Y0257409D01*
X0300550Y0258408D02*
X0279850Y0258408D01*
X0279850Y0259406D02*
X0300550Y0259406D01*
X0300550Y0260405D02*
X0279850Y0260405D01*
X0279850Y0261403D02*
X0300550Y0261403D01*
X0300550Y0262402D02*
X0279850Y0262402D01*
X0279850Y0263400D02*
X0285786Y0263400D01*
X0285008Y0264399D02*
X0279850Y0264399D01*
X0279850Y0265397D02*
X0284700Y0265397D01*
X0283852Y0266396D02*
X0279850Y0266396D01*
X0279850Y0267394D02*
X0282853Y0267394D01*
X0286363Y0270390D02*
X0300550Y0270390D01*
X0300550Y0271388D02*
X0285364Y0271388D01*
X0287361Y0269391D02*
X0300550Y0269391D01*
X0300550Y0268393D02*
X0289340Y0268393D01*
X0290370Y0267394D02*
X0300550Y0267394D01*
X0300550Y0266396D02*
X0290784Y0266396D01*
X0290800Y0265397D02*
X0300550Y0265397D01*
X0300550Y0264399D02*
X0290492Y0264399D01*
X0289714Y0263400D02*
X0300550Y0263400D01*
X0300550Y0272387D02*
X0276424Y0272387D01*
X0276800Y0273385D02*
X0300550Y0273385D01*
X0300550Y0274384D02*
X0276800Y0274384D01*
X0279696Y0275382D02*
X0300550Y0275382D01*
X0300550Y0276381D02*
X0280484Y0276381D01*
X0280800Y0277379D02*
X0300550Y0277379D01*
X0300550Y0278378D02*
X0281348Y0278378D01*
X0282346Y0279376D02*
X0300550Y0279376D01*
X0300550Y0280375D02*
X0283345Y0280375D01*
X0284343Y0281373D02*
X0300550Y0281373D01*
X0300550Y0282372D02*
X0284850Y0282372D01*
X0286125Y0283370D02*
X0300550Y0283370D01*
X0300550Y0284369D02*
X0286950Y0284369D01*
X0286950Y0285367D02*
X0300550Y0285367D01*
X0300550Y0286366D02*
X0286950Y0286366D01*
X0286950Y0287364D02*
X0300550Y0287364D01*
X0300550Y0288363D02*
X0286950Y0288363D01*
X0286950Y0289361D02*
X0300550Y0289361D01*
X0300550Y0290360D02*
X0286950Y0290360D01*
X0286896Y0291358D02*
X0300550Y0291358D01*
X0300550Y0292357D02*
X0251460Y0292357D01*
X0250040Y0292357D02*
X0214950Y0292357D01*
X0214950Y0293355D02*
X0300550Y0293355D01*
X0300550Y0294354D02*
X0214950Y0294354D01*
X0214950Y0295353D02*
X0300550Y0295353D01*
X0300550Y0296351D02*
X0214950Y0296351D01*
X0214950Y0297350D02*
X0300550Y0297350D01*
X0300550Y0298348D02*
X0214950Y0298348D01*
X0214950Y0299347D02*
X0218354Y0299347D01*
X0216951Y0300345D02*
X0214950Y0300345D01*
X0214950Y0301344D02*
X0215761Y0301344D01*
X0215018Y0302342D02*
X0214950Y0302342D01*
X0214950Y0291358D02*
X0228604Y0291358D01*
X0228550Y0290360D02*
X0214950Y0290360D01*
X0214950Y0289361D02*
X0228550Y0289361D01*
X0228550Y0288363D02*
X0214950Y0288363D01*
X0214950Y0287364D02*
X0228550Y0287364D01*
X0228550Y0286366D02*
X0214950Y0286366D01*
X0214950Y0285367D02*
X0228550Y0285367D01*
X0228550Y0284369D02*
X0214950Y0284369D01*
X0214950Y0283370D02*
X0229375Y0283370D01*
X0230650Y0282372D02*
X0214950Y0282372D01*
X0214950Y0281373D02*
X0230650Y0281373D01*
X0230650Y0280375D02*
X0214950Y0280375D01*
X0214950Y0279376D02*
X0230650Y0279376D01*
X0231152Y0278378D02*
X0214950Y0278378D01*
X0214950Y0277379D02*
X0232151Y0277379D01*
X0233149Y0276381D02*
X0214950Y0276381D01*
X0214950Y0275382D02*
X0234148Y0275382D01*
X0235146Y0274384D02*
X0214950Y0274384D01*
X0214950Y0273385D02*
X0236145Y0273385D01*
X0237143Y0272387D02*
X0214950Y0272387D01*
X0214950Y0271388D02*
X0238142Y0271388D01*
X0239140Y0270390D02*
X0214950Y0270390D01*
X0214950Y0269391D02*
X0239700Y0269391D01*
X0240011Y0268393D02*
X0214950Y0268393D01*
X0214950Y0267394D02*
X0240792Y0267394D01*
X0244708Y0267394D02*
X0248200Y0267394D01*
X0248200Y0266396D02*
X0214950Y0266396D01*
X0214950Y0265397D02*
X0248200Y0265397D01*
X0248200Y0264399D02*
X0214950Y0264399D01*
X0214950Y0263400D02*
X0248200Y0263400D01*
X0248200Y0262402D02*
X0214950Y0262402D01*
X0214950Y0261403D02*
X0248200Y0261403D01*
X0248200Y0260405D02*
X0214950Y0260405D01*
X0214950Y0259406D02*
X0248200Y0259406D01*
X0248200Y0268393D02*
X0247645Y0268393D01*
X0235362Y0254414D02*
X0273550Y0254414D01*
X0273550Y0255412D02*
X0234293Y0255412D01*
X0235776Y0253415D02*
X0273550Y0253415D01*
X0273550Y0252417D02*
X0235800Y0252417D01*
X0235500Y0251418D02*
X0273550Y0251418D01*
X0273550Y0250420D02*
X0234850Y0250420D01*
X0235443Y0249421D02*
X0273550Y0249421D01*
X0272232Y0248422D02*
X0244891Y0248422D01*
X0245565Y0247424D02*
X0271142Y0247424D01*
X0270728Y0246425D02*
X0245800Y0246425D01*
X0245710Y0245427D02*
X0270700Y0245427D01*
X0270996Y0244428D02*
X0245242Y0244428D01*
X0245040Y0243430D02*
X0271757Y0243430D01*
X0275743Y0243430D02*
X0277460Y0243430D01*
X0277398Y0244428D02*
X0277730Y0244428D01*
X0276462Y0242431D02*
X0246038Y0242431D01*
X0247037Y0241433D02*
X0275463Y0241433D01*
X0274465Y0240434D02*
X0262633Y0240434D01*
X0259654Y0240434D02*
X0249239Y0240434D01*
X0250353Y0239436D02*
X0258541Y0239436D01*
X0258127Y0238437D02*
X0250767Y0238437D01*
X0250800Y0237439D02*
X0258094Y0237439D01*
X0245479Y0233445D02*
X0214950Y0233445D01*
X0214950Y0234443D02*
X0244481Y0234443D01*
X0243482Y0235442D02*
X0214950Y0235442D01*
X0214950Y0236440D02*
X0242484Y0236440D01*
X0241485Y0237439D02*
X0214950Y0237439D01*
X0214950Y0238437D02*
X0240487Y0238437D01*
X0239488Y0239436D02*
X0214950Y0239436D01*
X0214950Y0240434D02*
X0238489Y0240434D01*
X0237491Y0241433D02*
X0214950Y0241433D01*
X0214950Y0242431D02*
X0236492Y0242431D01*
X0235494Y0243430D02*
X0214950Y0243430D01*
X0214950Y0244428D02*
X0234495Y0244428D01*
X0233497Y0245427D02*
X0214950Y0245427D01*
X0214950Y0246425D02*
X0232498Y0246425D01*
X0231500Y0247424D02*
X0214950Y0247424D01*
X0214950Y0248422D02*
X0230650Y0248422D01*
X0230650Y0249421D02*
X0214950Y0249421D01*
X0214950Y0250420D02*
X0230650Y0250420D01*
X0230000Y0251418D02*
X0214950Y0251418D01*
X0214950Y0252417D02*
X0229700Y0252417D01*
X0229724Y0253415D02*
X0214950Y0253415D01*
X0214950Y0254414D02*
X0230138Y0254414D01*
X0231207Y0255412D02*
X0214950Y0255412D01*
X0214950Y0256411D02*
X0273550Y0256411D01*
X0274255Y0257409D02*
X0214950Y0257409D01*
X0214950Y0258408D02*
X0275650Y0258408D01*
X0275650Y0259406D02*
X0267300Y0259406D01*
X0267300Y0260405D02*
X0275650Y0260405D01*
X0275650Y0261403D02*
X0267300Y0261403D01*
X0267300Y0262402D02*
X0275650Y0262402D01*
X0275650Y0263400D02*
X0267300Y0263400D01*
X0267300Y0264399D02*
X0275650Y0264399D01*
X0275650Y0265397D02*
X0267300Y0265397D01*
X0267300Y0266396D02*
X0275650Y0266396D01*
X0275650Y0267394D02*
X0267300Y0267394D01*
X0267300Y0268393D02*
X0271355Y0268393D01*
X0270356Y0269391D02*
X0267300Y0269391D01*
X0267300Y0270390D02*
X0269358Y0270390D01*
X0268359Y0271388D02*
X0267300Y0271388D01*
X0267300Y0272387D02*
X0267361Y0272387D01*
X0277750Y0254250D02*
X0277750Y0251250D01*
X0294358Y0240434D02*
X0300550Y0240434D01*
X0300550Y0239436D02*
X0295051Y0239436D01*
X0295300Y0238437D02*
X0300550Y0238437D01*
X0300550Y0237439D02*
X0295224Y0237439D01*
X0294775Y0236440D02*
X0300550Y0236440D01*
X0300550Y0235442D02*
X0293491Y0235442D01*
X0291434Y0234443D02*
X0300550Y0234443D01*
X0300550Y0233445D02*
X0290436Y0233445D01*
X0300062Y0204615D02*
X0300062Y0204615D01*
X0300062Y0204615D01*
X0299911Y0204488D02*
X0300550Y0204488D01*
X0300550Y0203489D02*
X0298721Y0203489D01*
X0297531Y0202491D02*
X0300550Y0202491D01*
X0244977Y0232446D02*
X0239987Y0232446D01*
X0241406Y0231448D02*
X0243811Y0231448D01*
X0243023Y0230449D02*
X0242211Y0230449D01*
X0238250Y0230449D02*
X0237250Y0230449D01*
X0237250Y0229451D02*
X0238250Y0229451D01*
X0238250Y0228452D02*
X0237250Y0228452D01*
X0237250Y0227454D02*
X0214950Y0227454D01*
X0214950Y0228452D02*
X0232596Y0228452D01*
X0232835Y0229451D02*
X0214950Y0229451D01*
X0214950Y0230449D02*
X0233289Y0230449D01*
X0234094Y0231448D02*
X0214950Y0231448D01*
X0214950Y0232446D02*
X0235513Y0232446D01*
X0237250Y0232446D02*
X0238250Y0232446D01*
X0238250Y0231448D02*
X0237250Y0231448D01*
X0232703Y0226455D02*
X0214950Y0226455D01*
X0214950Y0225457D02*
X0233082Y0225457D01*
X0239437Y0245427D02*
X0239790Y0245427D01*
X0239700Y0246425D02*
X0238438Y0246425D01*
X0237440Y0247424D02*
X0239935Y0247424D01*
X0240609Y0248422D02*
X0236441Y0248422D01*
X0208550Y0248422D02*
X0189577Y0248422D01*
X0189950Y0249421D02*
X0208550Y0249421D01*
X0208550Y0250420D02*
X0189950Y0250420D01*
X0189950Y0251418D02*
X0208550Y0251418D01*
X0208550Y0252417D02*
X0189950Y0252417D01*
X0189950Y0253415D02*
X0208550Y0253415D01*
X0208550Y0254414D02*
X0189950Y0254414D01*
X0189950Y0255412D02*
X0208550Y0255412D01*
X0208550Y0256411D02*
X0189950Y0256411D01*
X0189245Y0257409D02*
X0208550Y0257409D01*
X0208550Y0258408D02*
X0187850Y0258408D01*
X0187850Y0259406D02*
X0208550Y0259406D01*
X0208550Y0260405D02*
X0187850Y0260405D01*
X0187850Y0261403D02*
X0208550Y0261403D01*
X0208550Y0262402D02*
X0187850Y0262402D01*
X0187850Y0263400D02*
X0193786Y0263400D01*
X0193008Y0264399D02*
X0187850Y0264399D01*
X0187850Y0265397D02*
X0192700Y0265397D01*
X0191852Y0266396D02*
X0187850Y0266396D01*
X0187850Y0267394D02*
X0190853Y0267394D01*
X0194050Y0270703D02*
X0194050Y0270703D01*
X0194363Y0270390D02*
X0208550Y0270390D01*
X0208550Y0271388D02*
X0193364Y0271388D01*
X0195361Y0269391D02*
X0208550Y0269391D01*
X0208550Y0268393D02*
X0197340Y0268393D01*
X0198370Y0267394D02*
X0208550Y0267394D01*
X0208550Y0266396D02*
X0198784Y0266396D01*
X0198800Y0265397D02*
X0208550Y0265397D01*
X0208550Y0264399D02*
X0198492Y0264399D01*
X0197714Y0263400D02*
X0208550Y0263400D01*
X0208550Y0272387D02*
X0184424Y0272387D01*
X0184800Y0273385D02*
X0208550Y0273385D01*
X0208550Y0274384D02*
X0184800Y0274384D01*
X0187696Y0275382D02*
X0208550Y0275382D01*
X0208550Y0276381D02*
X0188484Y0276381D01*
X0188800Y0277379D02*
X0208550Y0277379D01*
X0208550Y0278378D02*
X0189348Y0278378D01*
X0190346Y0279376D02*
X0208550Y0279376D01*
X0208550Y0280375D02*
X0191345Y0280375D01*
X0191620Y0280650D02*
X0191620Y0280650D01*
X0192343Y0281373D02*
X0208550Y0281373D01*
X0208550Y0282372D02*
X0192850Y0282372D01*
X0194125Y0283370D02*
X0208550Y0283370D01*
X0208550Y0284369D02*
X0194950Y0284369D01*
X0194950Y0285367D02*
X0208550Y0285367D01*
X0208550Y0286366D02*
X0194950Y0286366D01*
X0194950Y0287364D02*
X0208550Y0287364D01*
X0208550Y0288363D02*
X0194950Y0288363D01*
X0194950Y0289361D02*
X0208550Y0289361D01*
X0208550Y0290360D02*
X0194950Y0290360D01*
X0194896Y0291358D02*
X0208550Y0291358D01*
X0227146Y0299347D02*
X0288354Y0299347D01*
X0286951Y0300345D02*
X0228549Y0300345D01*
X0229739Y0301344D02*
X0285761Y0301344D01*
X0285018Y0302342D02*
X0230482Y0302342D01*
X0230062Y0301615D02*
X0230062Y0301615D01*
X0230062Y0301615D01*
X0231058Y0303341D02*
X0284442Y0303341D01*
X0283865Y0304339D02*
X0231635Y0304339D01*
X0231870Y0305338D02*
X0283630Y0305338D01*
X0283781Y0304485D02*
X0283781Y0304485D01*
X0283454Y0306336D02*
X0232046Y0306336D01*
X0232222Y0307335D02*
X0283278Y0307335D01*
X0283308Y0308333D02*
X0232192Y0308333D01*
X0232295Y0307750D02*
X0232295Y0307750D01*
X0232016Y0309332D02*
X0283484Y0309332D01*
X0283660Y0310330D02*
X0231840Y0310330D01*
X0231719Y0311015D02*
X0231719Y0311015D01*
X0231538Y0311329D02*
X0283962Y0311329D01*
X0283781Y0311015D02*
X0283781Y0311015D01*
X0284538Y0312327D02*
X0230962Y0312327D01*
X0230385Y0313326D02*
X0285115Y0313326D01*
X0285438Y0313885D02*
X0285438Y0313885D01*
X0285438Y0313885D01*
X0285961Y0314324D02*
X0229539Y0314324D01*
X0228349Y0315323D02*
X0287151Y0315323D01*
X0299739Y0301344D02*
X0300550Y0301344D01*
X0300062Y0301615D02*
X0300062Y0301615D01*
X0300062Y0301615D01*
X0300482Y0302342D02*
X0300550Y0302342D01*
X0300550Y0300345D02*
X0298549Y0300345D01*
X0297146Y0299347D02*
X0300550Y0299347D01*
X0208550Y0247424D02*
X0187850Y0247424D01*
X0190261Y0246425D02*
X0208550Y0246425D01*
X0208550Y0245427D02*
X0191357Y0245427D01*
X0191770Y0244428D02*
X0208550Y0244428D01*
X0208550Y0243430D02*
X0191800Y0243430D01*
X0191505Y0242431D02*
X0208550Y0242431D01*
X0208550Y0241433D02*
X0190746Y0241433D01*
X0188404Y0240434D02*
X0198142Y0240434D01*
X0197449Y0239436D02*
X0187406Y0239436D01*
X0186407Y0238437D02*
X0197200Y0238437D01*
X0196490Y0237439D02*
X0185409Y0237439D01*
X0182465Y0240434D02*
X0170633Y0240434D01*
X0167654Y0240434D02*
X0157239Y0240434D01*
X0158353Y0239436D02*
X0166541Y0239436D01*
X0166127Y0238437D02*
X0158767Y0238437D01*
X0158800Y0237439D02*
X0166094Y0237439D01*
X0155037Y0241433D02*
X0183463Y0241433D01*
X0184462Y0242431D02*
X0154038Y0242431D01*
X0153040Y0243430D02*
X0179757Y0243430D01*
X0178996Y0244428D02*
X0153242Y0244428D01*
X0153710Y0245427D02*
X0178700Y0245427D01*
X0178728Y0246425D02*
X0153800Y0246425D01*
X0153565Y0247424D02*
X0179142Y0247424D01*
X0180232Y0248422D02*
X0152891Y0248422D01*
X0148609Y0248422D02*
X0144441Y0248422D01*
X0145440Y0247424D02*
X0147935Y0247424D01*
X0147700Y0246425D02*
X0146438Y0246425D01*
X0147437Y0245427D02*
X0147790Y0245427D01*
X0144492Y0242431D02*
X0122950Y0242431D01*
X0122950Y0241433D02*
X0145491Y0241433D01*
X0146489Y0240434D02*
X0122950Y0240434D01*
X0122950Y0239436D02*
X0147488Y0239436D01*
X0148487Y0238437D02*
X0122950Y0238437D01*
X0122950Y0237439D02*
X0149485Y0237439D01*
X0150484Y0236440D02*
X0122950Y0236440D01*
X0122950Y0235442D02*
X0151482Y0235442D01*
X0152481Y0234443D02*
X0122950Y0234443D01*
X0122950Y0243430D02*
X0143494Y0243430D01*
X0142495Y0244428D02*
X0122950Y0244428D01*
X0122950Y0245427D02*
X0141497Y0245427D01*
X0140498Y0246425D02*
X0122950Y0246425D01*
X0122950Y0247424D02*
X0139500Y0247424D01*
X0138650Y0248422D02*
X0122950Y0248422D01*
X0122950Y0249421D02*
X0138650Y0249421D01*
X0138650Y0250420D02*
X0122950Y0250420D01*
X0122950Y0251418D02*
X0138000Y0251418D01*
X0137700Y0252417D02*
X0122950Y0252417D01*
X0122950Y0253415D02*
X0137724Y0253415D01*
X0138138Y0254414D02*
X0122950Y0254414D01*
X0122950Y0255412D02*
X0139207Y0255412D01*
X0142293Y0255412D02*
X0181550Y0255412D01*
X0181550Y0254414D02*
X0143362Y0254414D01*
X0143776Y0253415D02*
X0181550Y0253415D01*
X0181550Y0252417D02*
X0143800Y0252417D01*
X0143500Y0251418D02*
X0181550Y0251418D01*
X0181550Y0250420D02*
X0142850Y0250420D01*
X0143443Y0249421D02*
X0181550Y0249421D01*
X0185750Y0251250D02*
X0185750Y0254250D01*
X0183650Y0258408D02*
X0122950Y0258408D01*
X0122950Y0257409D02*
X0182255Y0257409D01*
X0181550Y0256411D02*
X0122950Y0256411D01*
X0152708Y0267394D02*
X0156200Y0267394D01*
X0156200Y0268393D02*
X0155645Y0268393D01*
X0175300Y0268393D02*
X0179355Y0268393D01*
X0178950Y0268797D02*
X0178950Y0268797D01*
X0178356Y0269391D02*
X0175300Y0269391D01*
X0175300Y0270390D02*
X0177358Y0270390D01*
X0176359Y0271388D02*
X0175300Y0271388D01*
X0175300Y0272387D02*
X0175361Y0272387D01*
X0175300Y0267394D02*
X0183650Y0267394D01*
X0183650Y0266396D02*
X0175300Y0266396D01*
X0175300Y0265397D02*
X0183650Y0265397D01*
X0183650Y0264399D02*
X0175300Y0264399D01*
X0175300Y0263400D02*
X0183650Y0263400D01*
X0183650Y0262402D02*
X0175300Y0262402D01*
X0175300Y0261403D02*
X0183650Y0261403D01*
X0183650Y0260405D02*
X0175300Y0260405D01*
X0175300Y0259406D02*
X0183650Y0259406D01*
X0185398Y0244428D02*
X0185730Y0244428D01*
X0185460Y0243430D02*
X0183743Y0243430D01*
X0188523Y0232446D02*
X0208550Y0232446D01*
X0208550Y0231448D02*
X0189689Y0231448D01*
X0190477Y0230449D02*
X0208550Y0230449D01*
X0208550Y0229451D02*
X0190890Y0229451D01*
X0191150Y0228452D02*
X0208550Y0228452D01*
X0208550Y0227454D02*
X0191150Y0227454D01*
X0191059Y0226455D02*
X0208550Y0226455D01*
X0208550Y0225457D02*
X0190645Y0225457D01*
X0198436Y0233445D02*
X0208550Y0233445D01*
X0208550Y0234443D02*
X0199434Y0234443D01*
X0201491Y0235442D02*
X0208550Y0235442D01*
X0208550Y0236440D02*
X0202775Y0236440D01*
X0203224Y0237439D02*
X0208550Y0237439D01*
X0208550Y0238437D02*
X0203300Y0238437D01*
X0203051Y0239436D02*
X0208550Y0239436D01*
X0208550Y0240434D02*
X0202358Y0240434D01*
X0176215Y0174533D02*
X0175300Y0174533D01*
X0175300Y0173534D02*
X0177213Y0173534D01*
X0178212Y0172536D02*
X0175300Y0172536D01*
X0175300Y0171537D02*
X0179210Y0171537D01*
X0180209Y0170539D02*
X0175300Y0170539D01*
X0175300Y0169540D02*
X0183650Y0169540D01*
X0183650Y0168542D02*
X0175300Y0168542D01*
X0175300Y0167543D02*
X0183650Y0167543D01*
X0183650Y0166545D02*
X0175300Y0166545D01*
X0175300Y0165546D02*
X0183650Y0165546D01*
X0183650Y0164548D02*
X0175300Y0164548D01*
X0175300Y0163549D02*
X0183650Y0163549D01*
X0183650Y0162551D02*
X0175300Y0162551D01*
X0181550Y0159555D02*
X0122950Y0159555D01*
X0122950Y0160553D02*
X0182399Y0160553D01*
X0183650Y0161552D02*
X0122950Y0161552D01*
X0116550Y0161552D02*
X0095850Y0161552D01*
X0095850Y0162551D02*
X0116550Y0162551D01*
X0116550Y0163549D02*
X0095850Y0163549D01*
X0095850Y0164548D02*
X0116550Y0164548D01*
X0116550Y0165546D02*
X0095850Y0165546D01*
X0095850Y0166545D02*
X0101642Y0166545D01*
X0100949Y0167543D02*
X0095850Y0167543D01*
X0095850Y0168542D02*
X0100700Y0168542D01*
X0099707Y0169540D02*
X0095850Y0169540D01*
X0091650Y0169540D02*
X0083300Y0169540D01*
X0083300Y0168542D02*
X0091650Y0168542D01*
X0091650Y0167543D02*
X0083300Y0167543D01*
X0083300Y0166545D02*
X0091650Y0166545D01*
X0091650Y0165546D02*
X0083300Y0165546D01*
X0083300Y0164548D02*
X0091650Y0164548D01*
X0091650Y0163549D02*
X0083300Y0163549D01*
X0083300Y0162551D02*
X0091650Y0162551D01*
X0091650Y0161552D02*
X0030950Y0161552D01*
X0030950Y0160553D02*
X0090399Y0160553D01*
X0089550Y0159555D02*
X0030950Y0159555D01*
X0030950Y0158556D02*
X0047555Y0158556D01*
X0046245Y0157558D02*
X0030950Y0157558D01*
X0030950Y0156559D02*
X0045784Y0156559D01*
X0045700Y0155561D02*
X0030950Y0155561D01*
X0030950Y0154562D02*
X0045941Y0154562D01*
X0046623Y0153564D02*
X0030950Y0153564D01*
X0030950Y0152565D02*
X0046650Y0152565D01*
X0046650Y0151567D02*
X0030950Y0151567D01*
X0030950Y0150568D02*
X0047356Y0150568D01*
X0048354Y0149570D02*
X0030950Y0149570D01*
X0030950Y0148571D02*
X0049353Y0148571D01*
X0050351Y0147573D02*
X0030950Y0147573D01*
X0030950Y0146574D02*
X0051350Y0146574D01*
X0052348Y0145576D02*
X0030950Y0145576D01*
X0030950Y0144577D02*
X0053347Y0144577D01*
X0054345Y0143579D02*
X0030950Y0143579D01*
X0030950Y0142580D02*
X0055344Y0142580D01*
X0056342Y0141582D02*
X0030950Y0141582D01*
X0030950Y0140583D02*
X0057341Y0140583D01*
X0058339Y0139585D02*
X0030950Y0139585D01*
X0030950Y0138586D02*
X0059338Y0138586D01*
X0060336Y0137588D02*
X0030950Y0137588D01*
X0030950Y0136589D02*
X0061335Y0136589D01*
X0061326Y0135591D02*
X0055679Y0135591D01*
X0054250Y0135591D02*
X0053250Y0135591D01*
X0053250Y0134592D02*
X0054250Y0134592D01*
X0054250Y0133594D02*
X0053250Y0133594D01*
X0053250Y0132595D02*
X0054250Y0132595D01*
X0054250Y0131597D02*
X0053250Y0131597D01*
X0053250Y0130598D02*
X0030950Y0130598D01*
X0030950Y0129600D02*
X0048667Y0129600D01*
X0049009Y0128601D02*
X0030950Y0128601D01*
X0030950Y0131597D02*
X0048619Y0131597D01*
X0048882Y0132595D02*
X0030950Y0132595D01*
X0030950Y0133594D02*
X0049389Y0133594D01*
X0050238Y0134592D02*
X0030950Y0134592D01*
X0030950Y0135591D02*
X0051821Y0135591D01*
X0057262Y0134592D02*
X0059955Y0134592D01*
X0059083Y0133594D02*
X0058111Y0133594D01*
X0058618Y0132595D02*
X0058669Y0132595D01*
X0066800Y0140583D02*
X0074094Y0140583D01*
X0074187Y0141582D02*
X0066707Y0141582D01*
X0066233Y0142580D02*
X0074661Y0142580D01*
X0076003Y0143579D02*
X0064891Y0143579D01*
X0062893Y0144577D02*
X0091607Y0144577D01*
X0090609Y0143579D02*
X0078284Y0143579D01*
X0086936Y0147573D02*
X0061357Y0147573D01*
X0061770Y0148571D02*
X0086700Y0148571D01*
X0086788Y0149570D02*
X0061800Y0149570D01*
X0061505Y0150568D02*
X0087255Y0150568D01*
X0088581Y0151567D02*
X0060746Y0151567D01*
X0056754Y0151567D02*
X0052297Y0151567D01*
X0053295Y0150568D02*
X0055995Y0150568D01*
X0055700Y0149570D02*
X0054294Y0149570D01*
X0055292Y0148571D02*
X0055730Y0148571D01*
X0051298Y0152565D02*
X0089550Y0152565D01*
X0089550Y0153564D02*
X0050877Y0153564D01*
X0051559Y0154562D02*
X0089550Y0154562D01*
X0089550Y0155561D02*
X0051800Y0155561D01*
X0051716Y0156559D02*
X0089550Y0156559D01*
X0089550Y0157558D02*
X0051255Y0157558D01*
X0049945Y0158556D02*
X0089550Y0158556D01*
X0093750Y0157250D02*
X0093750Y0154250D01*
X0097950Y0154562D02*
X0116550Y0154562D01*
X0116550Y0153564D02*
X0097950Y0153564D01*
X0097950Y0152565D02*
X0116550Y0152565D01*
X0116550Y0151567D02*
X0097721Y0151567D01*
X0097912Y0149570D02*
X0116550Y0149570D01*
X0116550Y0150568D02*
X0095850Y0150568D01*
X0095588Y0149570D02*
X0095540Y0149570D01*
X0093790Y0147573D02*
X0093543Y0147573D01*
X0093604Y0146574D02*
X0091888Y0146574D01*
X0092606Y0145576D02*
X0061894Y0145576D01*
X0060895Y0146574D02*
X0087612Y0146574D01*
X0099242Y0148571D02*
X0116550Y0148571D01*
X0116550Y0147573D02*
X0099710Y0147573D01*
X0099800Y0146574D02*
X0116550Y0146574D01*
X0116550Y0145576D02*
X0099565Y0145576D01*
X0097950Y0155561D02*
X0116550Y0155561D01*
X0116550Y0156559D02*
X0097950Y0156559D01*
X0097950Y0157558D02*
X0116550Y0157558D01*
X0116550Y0158556D02*
X0097950Y0158556D01*
X0097950Y0159555D02*
X0116550Y0159555D01*
X0116550Y0160553D02*
X0097101Y0160553D01*
X0105858Y0166545D02*
X0116550Y0166545D01*
X0116550Y0167543D02*
X0106551Y0167543D01*
X0106800Y0168542D02*
X0116550Y0168542D01*
X0116550Y0169540D02*
X0106724Y0169540D01*
X0106275Y0170539D02*
X0116550Y0170539D01*
X0116550Y0171537D02*
X0104991Y0171537D01*
X0103217Y0172536D02*
X0116550Y0172536D01*
X0116550Y0173534D02*
X0102219Y0173534D01*
X0101220Y0174533D02*
X0116550Y0174533D01*
X0116550Y0175531D02*
X0092484Y0175531D01*
X0092800Y0176530D02*
X0116550Y0176530D01*
X0116550Y0177528D02*
X0092791Y0177528D01*
X0095840Y0178527D02*
X0116550Y0178527D01*
X0116550Y0179525D02*
X0096544Y0179525D01*
X0096800Y0180524D02*
X0116550Y0180524D01*
X0116550Y0181522D02*
X0097492Y0181522D01*
X0098491Y0182521D02*
X0116550Y0182521D01*
X0116550Y0183519D02*
X0099489Y0183519D01*
X0100488Y0184518D02*
X0116550Y0184518D01*
X0116550Y0185516D02*
X0100850Y0185516D01*
X0102269Y0186515D02*
X0116550Y0186515D01*
X0116550Y0187513D02*
X0102950Y0187513D01*
X0102950Y0188512D02*
X0116550Y0188512D01*
X0116550Y0189510D02*
X0102950Y0189510D01*
X0102950Y0190509D02*
X0116550Y0190509D01*
X0116550Y0191507D02*
X0102950Y0191507D01*
X0102950Y0192506D02*
X0116550Y0192506D01*
X0116550Y0193504D02*
X0102950Y0193504D01*
X0102751Y0194503D02*
X0116550Y0194503D01*
X0116550Y0195501D02*
X0030950Y0195501D01*
X0030950Y0194503D02*
X0044749Y0194503D01*
X0044550Y0193504D02*
X0030950Y0193504D01*
X0030950Y0192506D02*
X0044550Y0192506D01*
X0044550Y0191507D02*
X0030950Y0191507D01*
X0030950Y0190509D02*
X0044550Y0190509D01*
X0044550Y0189510D02*
X0030950Y0189510D01*
X0030950Y0188512D02*
X0044550Y0188512D01*
X0044550Y0187513D02*
X0030950Y0187513D01*
X0030950Y0186515D02*
X0045231Y0186515D01*
X0046650Y0185516D02*
X0030950Y0185516D01*
X0030950Y0184518D02*
X0046650Y0184518D01*
X0046650Y0183519D02*
X0030950Y0183519D01*
X0030950Y0182521D02*
X0046650Y0182521D01*
X0047008Y0181522D02*
X0030950Y0181522D01*
X0030950Y0180524D02*
X0048006Y0180524D01*
X0049005Y0179525D02*
X0030950Y0179525D01*
X0030950Y0178527D02*
X0050003Y0178527D01*
X0051002Y0177528D02*
X0030950Y0177528D01*
X0030950Y0176530D02*
X0052000Y0176530D01*
X0052999Y0175531D02*
X0030950Y0175531D01*
X0030950Y0174533D02*
X0053997Y0174533D01*
X0054996Y0173534D02*
X0030950Y0173534D01*
X0030950Y0172536D02*
X0055700Y0172536D01*
X0055951Y0171537D02*
X0030950Y0171537D01*
X0030950Y0170539D02*
X0056648Y0170539D01*
X0062791Y0170539D02*
X0064200Y0170539D01*
X0064200Y0171537D02*
X0063790Y0171537D01*
X0064200Y0169540D02*
X0030950Y0169540D01*
X0030950Y0168542D02*
X0064200Y0168542D01*
X0064200Y0167543D02*
X0030950Y0167543D01*
X0030950Y0166545D02*
X0064200Y0166545D01*
X0064200Y0165546D02*
X0030950Y0165546D01*
X0030950Y0164548D02*
X0064200Y0164548D01*
X0064200Y0163549D02*
X0030950Y0163549D01*
X0030950Y0162551D02*
X0064200Y0162551D01*
X0083300Y0170539D02*
X0088209Y0170539D01*
X0087210Y0171537D02*
X0083300Y0171537D01*
X0083300Y0172536D02*
X0086212Y0172536D01*
X0085213Y0173534D02*
X0083300Y0173534D01*
X0083300Y0174533D02*
X0084215Y0174533D01*
X0077751Y0194503D02*
X0094749Y0194503D01*
X0116550Y0196500D02*
X0030950Y0196500D01*
X0030950Y0197498D02*
X0116550Y0197498D01*
X0116550Y0198497D02*
X0030950Y0198497D01*
X0030950Y0199495D02*
X0116550Y0199495D01*
X0116550Y0200494D02*
X0030950Y0200494D01*
X0030950Y0201492D02*
X0036701Y0201492D01*
X0033969Y0202491D02*
X0030950Y0202491D01*
X0030950Y0203489D02*
X0032779Y0203489D01*
X0031589Y0204488D02*
X0030950Y0204488D01*
X0052751Y0194503D02*
X0064590Y0194503D01*
X0068910Y0194503D02*
X0069749Y0194503D01*
X0053250Y0227454D02*
X0030950Y0227454D01*
X0030950Y0228452D02*
X0048596Y0228452D01*
X0048835Y0229451D02*
X0030950Y0229451D01*
X0030950Y0230449D02*
X0049289Y0230449D01*
X0050094Y0231448D02*
X0030950Y0231448D01*
X0030950Y0232446D02*
X0051513Y0232446D01*
X0053250Y0232446D02*
X0054250Y0232446D01*
X0054250Y0231448D02*
X0053250Y0231448D01*
X0053250Y0230449D02*
X0054250Y0230449D01*
X0054250Y0229451D02*
X0053250Y0229451D01*
X0053250Y0228452D02*
X0054250Y0228452D01*
X0057406Y0231448D02*
X0059811Y0231448D01*
X0059023Y0230449D02*
X0058211Y0230449D01*
X0055987Y0232446D02*
X0060977Y0232446D01*
X0048703Y0226455D02*
X0030950Y0226455D01*
X0030950Y0225457D02*
X0049082Y0225457D01*
X0055437Y0245427D02*
X0055790Y0245427D01*
X0055700Y0246425D02*
X0054438Y0246425D01*
X0053440Y0247424D02*
X0055935Y0247424D01*
X0056609Y0248422D02*
X0052441Y0248422D01*
X0113146Y0299347D02*
X0116550Y0299347D01*
X0116550Y0300345D02*
X0114549Y0300345D01*
X0115739Y0301344D02*
X0116550Y0301344D01*
X0116062Y0301615D02*
X0116062Y0301615D01*
X0116062Y0301615D01*
X0116482Y0302342D02*
X0116550Y0302342D01*
X0122950Y0302342D02*
X0123018Y0302342D01*
X0122950Y0301344D02*
X0123761Y0301344D01*
X0122950Y0300345D02*
X0124951Y0300345D01*
X0126354Y0299347D02*
X0122950Y0299347D01*
X0185750Y0157250D02*
X0185750Y0154250D01*
X0185790Y0147573D02*
X0185543Y0147573D01*
X0185605Y0146574D02*
X0183888Y0146574D01*
D13*
X0181750Y0148750D03*
X0188750Y0146750D03*
X0180750Y0137750D03*
X0171242Y0137758D03*
X0169144Y0140750D03*
X0155750Y0140750D03*
X0150750Y0149250D03*
X0160750Y0152250D03*
X0140750Y0155750D03*
X0150750Y0172750D03*
X0158750Y0192350D03*
X0181750Y0176900D03*
X0185750Y0180750D03*
X0195750Y0168750D03*
X0190750Y0160750D03*
X0200250Y0141229D03*
X0232750Y0155750D03*
X0242750Y0149250D03*
X0247750Y0140750D03*
X0252750Y0152250D03*
X0261144Y0140750D03*
X0263242Y0137758D03*
X0272750Y0137750D03*
X0280750Y0146750D03*
X0273750Y0148750D03*
X0282750Y0160750D03*
X0287750Y0168750D03*
X0277750Y0180750D03*
X0273750Y0176900D03*
X0250750Y0192350D03*
X0242750Y0172750D03*
X0292250Y0141229D03*
X0250750Y0095350D03*
X0242750Y0075750D03*
X0232750Y0058750D03*
X0242750Y0052250D03*
X0247750Y0043750D03*
X0252750Y0055250D03*
X0261144Y0043750D03*
X0263242Y0040758D03*
X0272750Y0040750D03*
X0280750Y0049750D03*
X0273750Y0051750D03*
X0282750Y0063750D03*
X0287750Y0071750D03*
X0277750Y0083750D03*
X0273750Y0079900D03*
X0292250Y0044229D03*
X0200250Y0044229D03*
X0188750Y0049750D03*
X0181750Y0051750D03*
X0180750Y0040750D03*
X0171242Y0040758D03*
X0169144Y0043750D03*
X0155750Y0043750D03*
X0150750Y0052250D03*
X0160750Y0055250D03*
X0140750Y0058750D03*
X0150750Y0075750D03*
X0158750Y0095350D03*
X0181750Y0079900D03*
X0185750Y0083750D03*
X0195750Y0071750D03*
X0190750Y0063750D03*
X0108250Y0044229D03*
X0096750Y0049750D03*
X0089750Y0051750D03*
X0088750Y0040750D03*
X0079242Y0040758D03*
X0077144Y0043750D03*
X0068750Y0055250D03*
X0058750Y0052250D03*
X0063750Y0043750D03*
X0048750Y0058750D03*
X0058750Y0075750D03*
X0066750Y0095350D03*
X0089750Y0079900D03*
X0093750Y0083750D03*
X0103750Y0071750D03*
X0098750Y0063750D03*
X0088750Y0137750D03*
X0079242Y0137758D03*
X0077144Y0140750D03*
X0068750Y0152250D03*
X0058750Y0149250D03*
X0063750Y0140750D03*
X0048750Y0155750D03*
X0058750Y0172750D03*
X0066750Y0192350D03*
X0089750Y0176900D03*
X0093750Y0180750D03*
X0103750Y0168750D03*
X0098750Y0160750D03*
X0089750Y0148750D03*
X0096750Y0146750D03*
X0108250Y0141229D03*
X0088750Y0234750D03*
X0079242Y0234758D03*
X0077144Y0237750D03*
X0068750Y0249250D03*
X0058750Y0246250D03*
X0063750Y0237750D03*
X0048750Y0252750D03*
X0058750Y0269750D03*
X0066750Y0289350D03*
X0089750Y0273900D03*
X0093750Y0277750D03*
X0103750Y0265750D03*
X0098750Y0257750D03*
X0096750Y0243750D03*
X0089750Y0245750D03*
X0108250Y0238229D03*
X0140750Y0252750D03*
X0150750Y0246250D03*
X0155750Y0237750D03*
X0160750Y0249250D03*
X0169144Y0237750D03*
X0171242Y0234758D03*
X0180750Y0234750D03*
X0181750Y0245750D03*
X0188750Y0243750D03*
X0200250Y0238229D03*
X0190750Y0257750D03*
X0195750Y0265750D03*
X0185750Y0277750D03*
X0181750Y0273900D03*
X0158750Y0289350D03*
X0150750Y0269750D03*
X0232750Y0252750D03*
X0242750Y0246250D03*
X0247750Y0237750D03*
X0252750Y0249250D03*
X0261144Y0237750D03*
X0263242Y0234758D03*
X0272750Y0234750D03*
X0273750Y0245750D03*
X0280750Y0243750D03*
X0292250Y0238229D03*
X0282750Y0257750D03*
X0287750Y0265750D03*
X0277750Y0277750D03*
X0273750Y0273900D03*
X0250750Y0289350D03*
X0242750Y0269750D03*
D14*
X0232750Y0279750D01*
X0232750Y0286150D01*
X0232750Y0289350D02*
X0250750Y0289350D01*
X0257750Y0289350D01*
X0282750Y0289350D01*
X0282750Y0286150D02*
X0282750Y0282750D01*
X0277750Y0277750D01*
X0273750Y0273998D02*
X0273750Y0273900D01*
X0273750Y0273998D02*
X0261598Y0286150D01*
X0257750Y0286150D01*
X0277750Y0269750D02*
X0277750Y0254750D01*
X0277750Y0250750D02*
X0277750Y0247750D01*
X0275750Y0245750D01*
X0273750Y0245750D01*
X0280750Y0243750D02*
X0274750Y0237750D01*
X0261144Y0237750D01*
X0263242Y0234758D02*
X0263235Y0234750D01*
X0247144Y0234750D01*
X0232750Y0249144D01*
X0232750Y0252750D01*
X0242750Y0246250D02*
X0242750Y0242750D01*
X0247750Y0237750D01*
X0272750Y0234750D02*
X0288771Y0234750D01*
X0292250Y0238229D01*
X0282750Y0192350D02*
X0257750Y0192350D01*
X0250750Y0192350D01*
X0232750Y0192350D01*
X0232750Y0189150D02*
X0232750Y0182750D01*
X0242750Y0172750D01*
X0232750Y0155750D02*
X0232750Y0152144D01*
X0247144Y0137750D01*
X0263235Y0137750D01*
X0263242Y0137758D01*
X0261144Y0140750D02*
X0274750Y0140750D01*
X0280750Y0146750D01*
X0277750Y0150750D02*
X0277750Y0153750D01*
X0277750Y0150750D02*
X0275750Y0148750D01*
X0273750Y0148750D01*
X0277750Y0157750D02*
X0277750Y0172750D01*
X0273750Y0176900D02*
X0273750Y0176998D01*
X0261598Y0189150D01*
X0257750Y0189150D01*
X0277750Y0180750D02*
X0282750Y0185750D01*
X0282750Y0189150D01*
X0242750Y0149250D02*
X0242750Y0145750D01*
X0247750Y0140750D01*
X0272750Y0137750D02*
X0288771Y0137750D01*
X0292250Y0141229D01*
X0282750Y0095350D02*
X0257750Y0095350D01*
X0250750Y0095350D01*
X0232750Y0095350D01*
X0232750Y0092150D02*
X0232750Y0085750D01*
X0242750Y0075750D01*
X0232750Y0058750D02*
X0232750Y0055144D01*
X0247144Y0040750D01*
X0263235Y0040750D01*
X0263242Y0040758D01*
X0261144Y0043750D02*
X0274750Y0043750D01*
X0280750Y0049750D01*
X0277750Y0053750D02*
X0277750Y0056750D01*
X0277750Y0053750D02*
X0275750Y0051750D01*
X0273750Y0051750D01*
X0277750Y0060750D02*
X0277750Y0075750D01*
X0273750Y0079900D02*
X0273750Y0079998D01*
X0261598Y0092150D01*
X0257750Y0092150D01*
X0277750Y0083750D02*
X0282750Y0088750D01*
X0282750Y0092150D01*
X0242750Y0052250D02*
X0242750Y0048750D01*
X0247750Y0043750D01*
X0272750Y0040750D02*
X0288771Y0040750D01*
X0292250Y0044229D01*
X0200250Y0044229D02*
X0196771Y0040750D01*
X0180750Y0040750D01*
X0182750Y0043750D02*
X0188750Y0049750D01*
X0185750Y0053750D02*
X0185750Y0056750D01*
X0185750Y0053750D02*
X0183750Y0051750D01*
X0181750Y0051750D01*
X0182750Y0043750D02*
X0169144Y0043750D01*
X0171242Y0040758D02*
X0171235Y0040750D01*
X0155144Y0040750D01*
X0140750Y0055144D01*
X0140750Y0058750D01*
X0150750Y0052250D02*
X0150750Y0048750D01*
X0155750Y0043750D01*
X0185750Y0060750D02*
X0185750Y0075750D01*
X0181750Y0079900D02*
X0181750Y0079998D01*
X0169598Y0092150D01*
X0165750Y0092150D01*
X0165750Y0095350D02*
X0158750Y0095350D01*
X0140750Y0095350D01*
X0140750Y0092150D02*
X0140750Y0085750D01*
X0150750Y0075750D01*
X0165750Y0095350D02*
X0190750Y0095350D01*
X0190750Y0092150D02*
X0190750Y0088750D01*
X0185750Y0083750D01*
X0180750Y0137750D02*
X0196771Y0137750D01*
X0200250Y0141229D01*
X0188750Y0146750D02*
X0182750Y0140750D01*
X0169144Y0140750D01*
X0171242Y0137758D02*
X0171235Y0137750D01*
X0155144Y0137750D01*
X0140750Y0152144D01*
X0140750Y0155750D01*
X0150750Y0149250D02*
X0150750Y0145750D01*
X0155750Y0140750D01*
X0181750Y0148750D02*
X0183750Y0148750D01*
X0185750Y0150750D01*
X0185750Y0153750D01*
X0185750Y0157750D02*
X0185750Y0172750D01*
X0181750Y0176900D02*
X0181750Y0176998D01*
X0169598Y0189150D01*
X0165750Y0189150D01*
X0165750Y0192350D02*
X0158750Y0192350D01*
X0140750Y0192350D01*
X0140750Y0189150D02*
X0140750Y0182750D01*
X0150750Y0172750D01*
X0165750Y0192350D02*
X0190750Y0192350D01*
X0190750Y0189150D02*
X0190750Y0185750D01*
X0185750Y0180750D01*
X0180750Y0234750D02*
X0196771Y0234750D01*
X0200250Y0238229D01*
X0188750Y0243750D02*
X0182750Y0237750D01*
X0169144Y0237750D01*
X0171242Y0234758D02*
X0171235Y0234750D01*
X0155144Y0234750D01*
X0140750Y0249144D01*
X0140750Y0252750D01*
X0150750Y0246250D02*
X0150750Y0242750D01*
X0155750Y0237750D01*
X0181750Y0245750D02*
X0183750Y0245750D01*
X0185750Y0247750D01*
X0185750Y0250750D01*
X0185750Y0254750D02*
X0185750Y0269750D01*
X0181750Y0273900D02*
X0181750Y0273998D01*
X0169598Y0286150D01*
X0165750Y0286150D01*
X0165750Y0289350D02*
X0190750Y0289350D01*
X0190750Y0286150D02*
X0190750Y0282750D01*
X0185750Y0277750D01*
X0165750Y0289350D02*
X0158750Y0289350D01*
X0140750Y0289350D01*
X0140750Y0286150D02*
X0140750Y0279750D01*
X0150750Y0269750D01*
X0108250Y0238229D02*
X0104771Y0234750D01*
X0088750Y0234750D01*
X0090750Y0237750D02*
X0096750Y0243750D01*
X0093750Y0247750D02*
X0093750Y0250750D01*
X0093750Y0247750D02*
X0091750Y0245750D01*
X0089750Y0245750D01*
X0090750Y0237750D02*
X0077144Y0237750D01*
X0079242Y0234758D02*
X0079235Y0234750D01*
X0063144Y0234750D01*
X0048750Y0249144D01*
X0048750Y0252750D01*
X0058750Y0246250D02*
X0058750Y0242750D01*
X0063750Y0237750D01*
X0058750Y0269750D02*
X0048750Y0279750D01*
X0048750Y0286150D01*
X0048750Y0289350D02*
X0066750Y0289350D01*
X0073750Y0289350D01*
X0098750Y0289350D01*
X0098750Y0286150D02*
X0098750Y0282750D01*
X0093750Y0277750D01*
X0089750Y0273998D02*
X0089750Y0273900D01*
X0089750Y0273998D02*
X0077598Y0286150D01*
X0073750Y0286150D01*
X0093750Y0269750D02*
X0093750Y0254750D01*
X0098750Y0192350D02*
X0073750Y0192350D01*
X0066750Y0192350D01*
X0048750Y0192350D01*
X0048750Y0189150D02*
X0048750Y0182750D01*
X0058750Y0172750D01*
X0048750Y0155750D02*
X0048750Y0152144D01*
X0063144Y0137750D01*
X0079235Y0137750D01*
X0079242Y0137758D01*
X0077144Y0140750D02*
X0090750Y0140750D01*
X0096750Y0146750D01*
X0093750Y0150750D02*
X0091750Y0148750D01*
X0089750Y0148750D01*
X0093750Y0150750D02*
X0093750Y0153750D01*
X0093750Y0157750D02*
X0093750Y0172750D01*
X0089750Y0176900D02*
X0089750Y0176998D01*
X0077598Y0189150D01*
X0073750Y0189150D01*
X0093750Y0180750D02*
X0098750Y0185750D01*
X0098750Y0189150D01*
X0058750Y0149250D02*
X0058750Y0145750D01*
X0063750Y0140750D01*
X0088750Y0137750D02*
X0104771Y0137750D01*
X0108250Y0141229D01*
X0098750Y0095350D02*
X0073750Y0095350D01*
X0066750Y0095350D01*
X0048750Y0095350D01*
X0048750Y0092150D02*
X0048750Y0085750D01*
X0058750Y0075750D01*
X0048750Y0058750D02*
X0048750Y0055144D01*
X0063144Y0040750D01*
X0079235Y0040750D01*
X0079242Y0040758D01*
X0077144Y0043750D02*
X0090750Y0043750D01*
X0096750Y0049750D01*
X0093750Y0053750D02*
X0091750Y0051750D01*
X0089750Y0051750D01*
X0093750Y0053750D02*
X0093750Y0056750D01*
X0093750Y0060750D02*
X0093750Y0075750D01*
X0089750Y0079900D02*
X0089750Y0079998D01*
X0077598Y0092150D01*
X0073750Y0092150D01*
X0093750Y0083750D02*
X0098750Y0088750D01*
X0098750Y0092150D01*
X0058750Y0052250D02*
X0058750Y0048750D01*
X0063750Y0043750D01*
X0088750Y0040750D02*
X0104771Y0040750D01*
X0108250Y0044229D01*
D15*
X0103750Y0071750D02*
X0099750Y0075750D01*
X0093750Y0075750D01*
X0089250Y0075750D01*
X0082250Y0082750D01*
X0064750Y0082750D01*
X0063250Y0081250D01*
X0063250Y0077250D01*
X0061750Y0075750D01*
X0058750Y0075750D01*
X0150750Y0075750D02*
X0153750Y0075750D01*
X0155250Y0077250D01*
X0155250Y0081250D01*
X0156750Y0082750D01*
X0174250Y0082750D01*
X0181250Y0075750D01*
X0185750Y0075750D01*
X0191750Y0075750D01*
X0195750Y0071750D01*
X0242750Y0075750D02*
X0245750Y0075750D01*
X0247250Y0077250D01*
X0247250Y0081250D01*
X0248750Y0082750D01*
X0266250Y0082750D01*
X0273250Y0075750D01*
X0277750Y0075750D01*
X0283750Y0075750D01*
X0287750Y0071750D01*
X0287750Y0168750D02*
X0283750Y0172750D01*
X0277750Y0172750D01*
X0273250Y0172750D01*
X0266250Y0179750D01*
X0248750Y0179750D01*
X0247250Y0178250D01*
X0247250Y0174250D01*
X0245750Y0172750D01*
X0242750Y0172750D01*
X0195750Y0168750D02*
X0191750Y0172750D01*
X0185750Y0172750D01*
X0181250Y0172750D01*
X0174250Y0179750D01*
X0156750Y0179750D01*
X0155250Y0178250D01*
X0155250Y0174250D01*
X0153750Y0172750D01*
X0150750Y0172750D01*
X0103750Y0168750D02*
X0099750Y0172750D01*
X0093750Y0172750D01*
X0089250Y0172750D01*
X0082250Y0179750D01*
X0064750Y0179750D01*
X0063250Y0178250D01*
X0063250Y0174250D01*
X0061750Y0172750D01*
X0058750Y0172750D01*
X0103750Y0265750D02*
X0099750Y0269750D01*
X0093750Y0269750D01*
X0089250Y0269750D01*
X0082250Y0276750D01*
X0064750Y0276750D01*
X0063250Y0275250D01*
X0063250Y0271250D01*
X0061750Y0269750D01*
X0058750Y0269750D01*
X0150750Y0269750D02*
X0153750Y0269750D01*
X0155250Y0271250D01*
X0155250Y0275250D01*
X0156750Y0276750D01*
X0174250Y0276750D01*
X0181250Y0269750D01*
X0185750Y0269750D01*
X0191750Y0269750D01*
X0195750Y0265750D01*
X0242750Y0269750D02*
X0245750Y0269750D01*
X0247250Y0271250D01*
X0247250Y0275250D01*
X0248750Y0276750D01*
X0266250Y0276750D01*
X0273250Y0269750D01*
X0277750Y0269750D01*
X0283750Y0269750D01*
X0287750Y0265750D01*
M02*
