%
M48
M72
T01C0.0150
T02C0.0400
T03C0.1300
%
T01
X5875Y5225
X6375Y4375
X6875Y5525
X7714Y4375
X7924Y4076
X8875Y4075
X9675Y4975
X8975Y5175
X9875Y6375
X10375Y7175
X9375Y8375
X8975Y7990
X6675Y9535
X5875Y7575
X4875Y5875
X10825Y4423
X14075Y5875
X15075Y5225
X15575Y4375
X16075Y5525
X16914Y4375
X17124Y4076
X18075Y4075
X18875Y4975
X18175Y5175
X19075Y6375
X19575Y7175
X18575Y8375
X18175Y7990
X15875Y9535
X15075Y7575
X20025Y4423
X23275Y5875
X24275Y5225
X24775Y4375
X25275Y5525
X26114Y4375
X26324Y4076
X27275Y4075
X28075Y4975
X27375Y5175
X28275Y6375
X28775Y7175
X27775Y8375
X27375Y7990
X25075Y9535
X24275Y7575
X29225Y4423
X27275Y13775
X28075Y14675
X27375Y14875
X26114Y14075
X26324Y13776
X24775Y14075
X24275Y14925
X23275Y15575
X24275Y17275
X25075Y19235
X27375Y17690
X27775Y18075
X28775Y16875
X28275Y16075
X29225Y14123
X25275Y15225
X20025Y14123
X18875Y14675
X18175Y14875
X18075Y13775
X17124Y13776
X16914Y14075
X15575Y14075
X15075Y14925
X16075Y15225
X14075Y15575
X15075Y17275
X15875Y19235
X18175Y17690
X18575Y18075
X19575Y16875
X19075Y16075
X18075Y23475
X17124Y23476
X16914Y23775
X15575Y23775
X15075Y24625
X16075Y24925
X14075Y25275
X15075Y26975
X15875Y28935
X18175Y27390
X18575Y27775
X19575Y26575
X19075Y25775
X18875Y24375
X18175Y24575
X20025Y23823
X23275Y25275
X24275Y24625
X24775Y23775
X25275Y24925
X26114Y23775
X26324Y23476
X27275Y23475
X27375Y24575
X28075Y24375
X29225Y23823
X28275Y25775
X28775Y26575
X27775Y27775
X27375Y27390
X25075Y28935
X24275Y26975
X10825Y23823
X9675Y24375
X8975Y24575
X8875Y23475
X7924Y23476
X7714Y23775
X6875Y24925
X5875Y24625
X6375Y23775
X4875Y25275
X5875Y26975
X6675Y28935
X8975Y27390
X9375Y27775
X10375Y26575
X9875Y25775
X6675Y19235
X5875Y17275
X4875Y15575
X5875Y14925
X6375Y14075
X6875Y15225
X7714Y14075
X7924Y13776
X8875Y13775
X9675Y14675
X8975Y14875
X9875Y16075
X10375Y16875
X9375Y18075
X8975Y17690
X10825Y14123
T02
X5375Y3375
X6375Y3375
X7375Y3375
X8375Y3375
X9375Y3375
X14575Y3375
X15575Y3375
X16575Y3375
X17575Y3375
X18575Y3375
X23775Y3375
X24775Y3375
X25775Y3375
X26775Y3375
X27775Y3375
X27775Y13075
X26775Y13075
X25775Y13075
X24775Y13075
X23775Y13075
X18575Y13075
X17575Y13075
X16575Y13075
X15575Y13075
X14575Y13075
X9375Y13075
X8375Y13075
X7375Y13075
X6375Y13075
X5375Y13075
X5375Y22775
X6375Y22775
X7375Y22775
X8375Y22775
X9375Y22775
X14575Y22775
X15575Y22775
X16575Y22775
X17575Y22775
X18575Y22775
X23775Y22775
X24775Y22775
X25775Y22775
X26775Y22775
X27775Y22775
T03
X29275Y21075
X22275Y21075
X20075Y21075
X13075Y21075
X10875Y21075
X3875Y21075
X3875Y11375
X10875Y11375
X13075Y11375
X20075Y11375
X22275Y11375
X29275Y11375
X29275Y30775
X22275Y30775
X20075Y30775
X13075Y30775
X10875Y30775
X3875Y30775
M30
