%
M48
M72
T01C0.0150
T02C0.0400
T03C0.1300
%
T01
X5875Y4425
X5675Y5575
X4875Y5875
X5525Y7575
X6675Y9535
X8625Y9240
X9883Y8784
X10375Y7175
X9875Y6325
X9025Y5175
X9675Y4975
X8875Y4075
X7924Y4076
X7892Y4473
X6875Y5525
X10825Y5225
X14075Y5875
X14875Y5575
X15075Y4425
X16075Y5525
X17092Y4473
X17124Y4076
X18075Y4075
X18875Y4975
X18225Y5175
X19075Y6325
X19575Y7175
X19083Y8784
X17825Y9240
X15875Y9535
X14725Y7575
X20025Y5225
X23275Y5875
X24075Y5575
X24275Y4425
X25275Y5525
X26292Y4473
X26324Y4076
X27275Y4075
X28075Y4975
X27425Y5175
X28275Y6325
X28775Y7175
X28283Y8784
X27025Y9240
X25075Y9535
X23925Y7575
X29225Y5225
X27275Y13775
X28075Y14675
X27425Y14875
X26292Y14173
X26324Y13776
X25275Y15225
X24075Y15275
X23275Y15575
X24275Y14125
X23925Y17275
X25075Y19235
X27025Y18940
X28283Y18484
X28775Y16875
X28275Y16025
X29225Y14925
X27275Y23475
X26324Y23476
X26292Y23873
X27425Y24575
X28075Y24375
X29225Y24625
X28275Y25725
X28775Y26575
X28283Y28184
X27025Y28640
X25075Y28935
X23925Y26975
X23275Y25275
X24075Y24975
X24275Y23825
X25275Y24925
X20025Y24625
X18875Y24375
X18225Y24575
X17092Y23873
X17124Y23476
X18075Y23475
X16075Y24925
X14875Y24975
X14075Y25275
X15075Y23825
X14725Y26975
X15875Y28935
X17825Y28640
X19083Y28184
X19575Y26575
X19075Y25725
X17825Y18940
X19083Y18484
X19575Y16875
X19075Y16025
X18225Y14875
X18875Y14675
X18075Y13775
X17124Y13776
X17092Y14173
X16075Y15225
X14875Y15275
X14075Y15575
X15075Y14125
X14725Y17275
X15875Y19235
X20025Y14925
X10825Y14925
X9675Y14675
X9025Y14875
X8875Y13775
X7924Y13776
X7892Y14173
X6875Y15225
X5675Y15275
X4875Y15575
X5875Y14125
X5525Y17275
X6675Y19235
X8625Y18940
X9883Y18484
X10375Y16875
X9875Y16025
X8875Y23475
X7924Y23476
X7892Y23873
X9025Y24575
X9675Y24375
X10825Y24625
X9875Y25725
X10375Y26575
X9883Y28184
X8625Y28640
X6675Y28935
X5525Y26975
X4875Y25275
X5675Y24975
X5875Y23825
X6875Y24925
T02
X5375Y3375
X6375Y3375
X7375Y3375
X8375Y3375
X9375Y3375
X14575Y3375
X15575Y3375
X16575Y3375
X17575Y3375
X18575Y3375
X23775Y3375
X24775Y3375
X25775Y3375
X26775Y3375
X27775Y3375
X27775Y13075
X26775Y13075
X25775Y13075
X24775Y13075
X23775Y13075
X18575Y13075
X17575Y13075
X16575Y13075
X15575Y13075
X14575Y13075
X9375Y13075
X8375Y13075
X7375Y13075
X6375Y13075
X5375Y13075
X5375Y22775
X6375Y22775
X7375Y22775
X8375Y22775
X9375Y22775
X14575Y22775
X15575Y22775
X16575Y22775
X17575Y22775
X18575Y22775
X23775Y22775
X24775Y22775
X25775Y22775
X26775Y22775
X27775Y22775
T03
X29275Y21075
X22275Y21075
X20075Y21075
X13075Y21075
X10875Y21075
X3875Y21075
X3875Y11375
X10875Y11375
X13075Y11375
X20075Y11375
X22275Y11375
X29275Y11375
X29275Y30775
X22275Y30775
X20075Y30775
X13075Y30775
X10875Y30775
X3875Y30775
M30
