G75*
%MOIN*%
%OFA0B0*%
%FSLAX25Y25*%
%IPPOS*%
%LPD*%
%AMOC8*
5,1,8,0,0,1.08239X$1,22.5*
%
%ADD10C,0.07400*%
%ADD11R,0.05000X0.02500*%
%ADD12C,0.01000*%
%ADD13C,0.02700*%
%ADD14C,0.01200*%
%ADD15C,0.00800*%
%ADD16C,0.00700*%
%ADD17C,0.00906*%
D10*
X0053750Y0033750D03*
X0063750Y0033750D03*
X0073750Y0033750D03*
X0083750Y0033750D03*
X0093750Y0033750D03*
X0145750Y0033750D03*
X0155750Y0033750D03*
X0165750Y0033750D03*
X0175750Y0033750D03*
X0185750Y0033750D03*
X0237750Y0033750D03*
X0247750Y0033750D03*
X0257750Y0033750D03*
X0267750Y0033750D03*
X0277750Y0033750D03*
X0277750Y0130750D03*
X0267750Y0130750D03*
X0257750Y0130750D03*
X0247750Y0130750D03*
X0237750Y0130750D03*
X0185750Y0130750D03*
X0175750Y0130750D03*
X0165750Y0130750D03*
X0155750Y0130750D03*
X0145750Y0130750D03*
X0093750Y0130750D03*
X0083750Y0130750D03*
X0073750Y0130750D03*
X0063750Y0130750D03*
X0053750Y0130750D03*
X0053750Y0227750D03*
X0063750Y0227750D03*
X0073750Y0227750D03*
X0083750Y0227750D03*
X0093750Y0227750D03*
X0145750Y0227750D03*
X0155750Y0227750D03*
X0165750Y0227750D03*
X0175750Y0227750D03*
X0185750Y0227750D03*
X0237750Y0227750D03*
X0247750Y0227750D03*
X0257750Y0227750D03*
X0267750Y0227750D03*
X0277750Y0227750D03*
D11*
X0277750Y0250750D03*
X0277750Y0254750D03*
X0282750Y0286150D03*
X0282750Y0289350D03*
X0257750Y0289350D03*
X0257750Y0286150D03*
X0232750Y0286150D03*
X0232750Y0289350D03*
X0190750Y0289350D03*
X0190750Y0286150D03*
X0165750Y0286150D03*
X0165750Y0289350D03*
X0140750Y0289350D03*
X0140750Y0286150D03*
X0098750Y0286150D03*
X0098750Y0289350D03*
X0073750Y0289350D03*
X0073750Y0286150D03*
X0048750Y0286150D03*
X0048750Y0289350D03*
X0093750Y0254750D03*
X0093750Y0250750D03*
X0098750Y0192350D03*
X0098750Y0189150D03*
X0073750Y0189150D03*
X0073750Y0192350D03*
X0048750Y0192350D03*
X0048750Y0189150D03*
X0093750Y0157750D03*
X0093750Y0153750D03*
X0140750Y0189150D03*
X0140750Y0192350D03*
X0165750Y0192350D03*
X0165750Y0189150D03*
X0190750Y0189150D03*
X0190750Y0192350D03*
X0185750Y0157750D03*
X0185750Y0153750D03*
X0232750Y0189150D03*
X0232750Y0192350D03*
X0257750Y0192350D03*
X0257750Y0189150D03*
X0282750Y0189150D03*
X0282750Y0192350D03*
X0277750Y0157750D03*
X0277750Y0153750D03*
X0282750Y0095350D03*
X0282750Y0092150D03*
X0257750Y0092150D03*
X0257750Y0095350D03*
X0232750Y0095350D03*
X0232750Y0092150D03*
X0190750Y0092150D03*
X0190750Y0095350D03*
X0165750Y0095350D03*
X0165750Y0092150D03*
X0140750Y0092150D03*
X0140750Y0095350D03*
X0098750Y0095350D03*
X0098750Y0092150D03*
X0073750Y0092150D03*
X0073750Y0095350D03*
X0048750Y0095350D03*
X0048750Y0092150D03*
X0093750Y0060750D03*
X0093750Y0056750D03*
X0185750Y0056750D03*
X0185750Y0060750D03*
X0277750Y0060750D03*
X0277750Y0056750D03*
X0185750Y0250750D03*
X0185750Y0254750D03*
D12*
X0030950Y0108460D02*
X0030950Y0030950D01*
X0049357Y0030950D01*
X0049303Y0031025D01*
X0048931Y0031754D01*
X0048678Y0032532D01*
X0048564Y0033250D01*
X0053250Y0033250D01*
X0053250Y0034250D01*
X0053250Y0038936D01*
X0052532Y0038822D01*
X0051754Y0038569D01*
X0051025Y0038197D01*
X0050362Y0037716D01*
X0049784Y0037138D01*
X0049303Y0036475D01*
X0048931Y0035746D01*
X0048678Y0034968D01*
X0048564Y0034250D01*
X0053250Y0034250D01*
X0054250Y0034250D01*
X0054250Y0038936D01*
X0054968Y0038822D01*
X0055746Y0038569D01*
X0056475Y0038197D01*
X0057138Y0037716D01*
X0057716Y0037138D01*
X0058197Y0036475D01*
X0058569Y0035746D01*
X0058641Y0035526D01*
X0059172Y0036809D01*
X0060691Y0038328D01*
X0061469Y0038650D01*
X0055774Y0038650D01*
X0046650Y0047774D01*
X0046650Y0056537D01*
X0046164Y0057022D01*
X0045700Y0058143D01*
X0045700Y0059357D01*
X0046164Y0060478D01*
X0047022Y0061336D01*
X0048143Y0061800D01*
X0049357Y0061800D01*
X0050478Y0061336D01*
X0051336Y0060478D01*
X0051800Y0059357D01*
X0051800Y0058143D01*
X0051336Y0057022D01*
X0050850Y0056537D01*
X0050850Y0049514D01*
X0054650Y0045714D01*
X0054650Y0053537D01*
X0054164Y0054022D01*
X0053700Y0055143D01*
X0053700Y0056357D01*
X0054164Y0057478D01*
X0055022Y0058336D01*
X0056143Y0058800D01*
X0057357Y0058800D01*
X0058478Y0058336D01*
X0059336Y0057478D01*
X0059800Y0056357D01*
X0059800Y0055143D01*
X0059336Y0054022D01*
X0058850Y0053537D01*
X0058850Y0047300D01*
X0059357Y0047300D01*
X0060478Y0046836D01*
X0061336Y0045978D01*
X0061800Y0044857D01*
X0061800Y0043643D01*
X0061471Y0042850D01*
X0076486Y0042850D01*
X0076330Y0043007D01*
X0075865Y0044128D01*
X0075865Y0045341D01*
X0076330Y0046462D01*
X0077188Y0047320D01*
X0078309Y0047784D01*
X0079522Y0047784D01*
X0080643Y0047320D01*
X0081129Y0046834D01*
X0090864Y0046834D01*
X0093700Y0049670D01*
X0093700Y0050357D01*
X0093964Y0050994D01*
X0093850Y0050880D01*
X0092620Y0049650D01*
X0092463Y0049650D01*
X0091978Y0049164D01*
X0090857Y0048700D01*
X0089643Y0048700D01*
X0088522Y0049164D01*
X0087664Y0050022D01*
X0087200Y0051143D01*
X0087200Y0052357D01*
X0087664Y0053478D01*
X0088522Y0054336D01*
X0089574Y0054771D01*
X0089550Y0054796D01*
X0089550Y0058704D01*
X0089596Y0058750D01*
X0089550Y0058796D01*
X0089550Y0062704D01*
X0090546Y0063700D01*
X0091700Y0063700D01*
X0091700Y0074401D01*
X0088200Y0077901D01*
X0088200Y0080450D01*
X0084300Y0080450D01*
X0084300Y0063522D01*
X0083978Y0063200D01*
X0063522Y0063200D01*
X0063200Y0063522D01*
X0063200Y0080447D01*
X0058300Y0075547D01*
X0058300Y0075143D01*
X0057836Y0074022D01*
X0056978Y0073164D01*
X0055857Y0072700D01*
X0054643Y0072700D01*
X0053522Y0073164D01*
X0052664Y0074022D01*
X0052200Y0075143D01*
X0052200Y0076357D01*
X0052664Y0077478D01*
X0053522Y0078336D01*
X0054643Y0078800D01*
X0055047Y0078800D01*
X0061297Y0085050D01*
X0061650Y0085050D01*
X0061650Y0088880D01*
X0060480Y0090050D01*
X0052804Y0090050D01*
X0051954Y0089200D01*
X0045546Y0089200D01*
X0044550Y0090196D01*
X0044550Y0097304D01*
X0045546Y0098300D01*
X0051954Y0098300D01*
X0052804Y0097450D01*
X0064537Y0097450D01*
X0065022Y0097936D01*
X0066143Y0098400D01*
X0067357Y0098400D01*
X0068478Y0097936D01*
X0068963Y0097450D01*
X0069696Y0097450D01*
X0070546Y0098300D01*
X0076954Y0098300D01*
X0077804Y0097450D01*
X0094696Y0097450D01*
X0095546Y0098300D01*
X0101954Y0098300D01*
X0102950Y0097304D01*
X0102950Y0090196D01*
X0101954Y0089200D01*
X0101565Y0089200D01*
X0101879Y0088443D01*
X0101879Y0087230D01*
X0101414Y0086109D01*
X0100556Y0085251D01*
X0099435Y0084787D01*
X0098222Y0084787D01*
X0097101Y0085251D01*
X0096243Y0086109D01*
X0095779Y0087230D01*
X0095779Y0088443D01*
X0096092Y0089200D01*
X0095546Y0089200D01*
X0094550Y0090196D01*
X0094550Y0093250D01*
X0089199Y0093250D01*
X0089300Y0093007D01*
X0089300Y0091793D01*
X0088836Y0090672D01*
X0087978Y0089814D01*
X0086857Y0089350D01*
X0085643Y0089350D01*
X0084522Y0089814D01*
X0084287Y0090050D01*
X0077804Y0090050D01*
X0076954Y0089200D01*
X0070546Y0089200D01*
X0069550Y0090196D01*
X0069550Y0093250D01*
X0068963Y0093250D01*
X0068478Y0092764D01*
X0067357Y0092300D01*
X0066143Y0092300D01*
X0065022Y0092764D01*
X0064537Y0093250D01*
X0063220Y0093250D01*
X0064620Y0091850D01*
X0065850Y0090620D01*
X0065850Y0085050D01*
X0093703Y0085050D01*
X0103953Y0074800D01*
X0104357Y0074800D01*
X0105478Y0074336D01*
X0106336Y0073478D01*
X0106800Y0072357D01*
X0106800Y0071143D01*
X0106336Y0070022D01*
X0105478Y0069164D01*
X0104357Y0068700D01*
X0103143Y0068700D01*
X0102022Y0069164D01*
X0101164Y0070022D01*
X0100700Y0071143D01*
X0100700Y0071547D01*
X0092300Y0079947D01*
X0092300Y0079599D01*
X0095800Y0076099D01*
X0095800Y0063700D01*
X0096954Y0063700D01*
X0097950Y0062704D01*
X0097950Y0058796D01*
X0097904Y0058750D01*
X0097950Y0058704D01*
X0097950Y0054796D01*
X0096954Y0053800D01*
X0095850Y0053800D01*
X0095850Y0052880D01*
X0095506Y0052536D01*
X0096143Y0052800D01*
X0097357Y0052800D01*
X0098478Y0052336D01*
X0099336Y0051478D01*
X0099800Y0050357D01*
X0099800Y0049143D01*
X0099336Y0048022D01*
X0098478Y0047164D01*
X0097357Y0046700D01*
X0096670Y0046700D01*
X0092820Y0042850D01*
X0103901Y0042850D01*
X0106097Y0045046D01*
X0106097Y0050090D01*
X0105664Y0050522D01*
X0105200Y0051643D01*
X0105200Y0052857D01*
X0105664Y0053978D01*
X0106522Y0054836D01*
X0107643Y0055300D01*
X0108857Y0055300D01*
X0109978Y0054836D01*
X0110836Y0053978D01*
X0111300Y0052857D01*
X0111300Y0051643D01*
X0110836Y0050522D01*
X0110403Y0050090D01*
X0110403Y0043337D01*
X0109142Y0042076D01*
X0109067Y0042076D01*
X0105641Y0038650D01*
X0096031Y0038650D01*
X0096809Y0038328D01*
X0098328Y0036809D01*
X0099150Y0034824D01*
X0099150Y0032676D01*
X0098435Y0030950D01*
X0116550Y0030950D01*
X0116550Y0108460D01*
X0116062Y0107615D01*
X0116062Y0107615D01*
X0116062Y0107615D01*
X0113523Y0105484D01*
X0113522Y0105484D01*
X0110407Y0104350D01*
X0107093Y0104350D01*
X0103977Y0105484D01*
X0103977Y0105484D01*
X0101438Y0107615D01*
X0101438Y0107615D01*
X0099781Y0110485D01*
X0099781Y0110485D01*
X0099205Y0113750D01*
X0099205Y0113750D01*
X0099781Y0117015D01*
X0099781Y0117015D01*
X0101438Y0119885D01*
X0101438Y0119885D01*
X0101438Y0119885D01*
X0103422Y0121550D01*
X0044078Y0121550D01*
X0046062Y0119885D01*
X0046062Y0119885D01*
X0047719Y0117015D01*
X0047719Y0117015D01*
X0048295Y0113750D01*
X0048295Y0113750D01*
X0047719Y0110485D01*
X0047719Y0110485D01*
X0046062Y0107615D01*
X0046062Y0107615D01*
X0046062Y0107615D01*
X0043523Y0105484D01*
X0043522Y0105484D01*
X0040407Y0104350D01*
X0037093Y0104350D01*
X0033977Y0105484D01*
X0033977Y0105484D01*
X0031438Y0107615D01*
X0031438Y0107615D01*
X0030950Y0108460D01*
X0030950Y0107632D02*
X0031428Y0107632D01*
X0030950Y0106634D02*
X0032607Y0106634D01*
X0033797Y0105635D02*
X0030950Y0105635D01*
X0030950Y0104637D02*
X0036304Y0104637D01*
X0030950Y0103638D02*
X0116550Y0103638D01*
X0116550Y0102640D02*
X0030950Y0102640D01*
X0030950Y0101641D02*
X0116550Y0101641D01*
X0116550Y0100643D02*
X0030950Y0100643D01*
X0030950Y0099644D02*
X0116550Y0099644D01*
X0116550Y0098646D02*
X0030950Y0098646D01*
X0030950Y0097647D02*
X0044893Y0097647D01*
X0044550Y0096649D02*
X0030950Y0096649D01*
X0030950Y0095650D02*
X0044550Y0095650D01*
X0044550Y0094652D02*
X0030950Y0094652D01*
X0030950Y0093653D02*
X0044550Y0093653D01*
X0044550Y0092655D02*
X0030950Y0092655D01*
X0030950Y0091656D02*
X0044550Y0091656D01*
X0044550Y0090658D02*
X0030950Y0090658D01*
X0030950Y0089659D02*
X0045087Y0089659D01*
X0052413Y0089659D02*
X0060871Y0089659D01*
X0061650Y0088661D02*
X0030950Y0088661D01*
X0030950Y0087662D02*
X0061650Y0087662D01*
X0061650Y0086664D02*
X0030950Y0086664D01*
X0030950Y0085665D02*
X0061650Y0085665D01*
X0060914Y0084667D02*
X0030950Y0084667D01*
X0030950Y0083668D02*
X0059915Y0083668D01*
X0058917Y0082670D02*
X0030950Y0082670D01*
X0030950Y0081671D02*
X0057918Y0081671D01*
X0056920Y0080673D02*
X0030950Y0080673D01*
X0030950Y0079674D02*
X0055921Y0079674D01*
X0054343Y0078676D02*
X0030950Y0078676D01*
X0030950Y0077677D02*
X0052864Y0077677D01*
X0052333Y0076679D02*
X0030950Y0076679D01*
X0030950Y0075680D02*
X0052200Y0075680D01*
X0052391Y0074682D02*
X0030950Y0074682D01*
X0030950Y0073683D02*
X0053004Y0073683D01*
X0057496Y0073683D02*
X0063200Y0073683D01*
X0063200Y0072684D02*
X0030950Y0072684D01*
X0030950Y0071686D02*
X0063200Y0071686D01*
X0063200Y0070687D02*
X0030950Y0070687D01*
X0030950Y0069689D02*
X0063200Y0069689D01*
X0063200Y0068690D02*
X0030950Y0068690D01*
X0030950Y0067692D02*
X0063200Y0067692D01*
X0063200Y0066693D02*
X0030950Y0066693D01*
X0030950Y0065695D02*
X0063200Y0065695D01*
X0063200Y0064696D02*
X0030950Y0064696D01*
X0030950Y0063698D02*
X0063200Y0063698D01*
X0057585Y0058705D02*
X0089551Y0058705D01*
X0089550Y0057707D02*
X0059107Y0057707D01*
X0059654Y0056708D02*
X0089550Y0056708D01*
X0089550Y0055710D02*
X0059800Y0055710D01*
X0059621Y0054711D02*
X0089429Y0054711D01*
X0087899Y0053713D02*
X0059026Y0053713D01*
X0058850Y0052714D02*
X0087348Y0052714D01*
X0087200Y0051716D02*
X0058850Y0051716D01*
X0058850Y0050717D02*
X0087376Y0050717D01*
X0087968Y0049719D02*
X0058850Y0049719D01*
X0058850Y0048720D02*
X0089594Y0048720D01*
X0090905Y0048720D02*
X0092750Y0048720D01*
X0092689Y0049719D02*
X0093700Y0049719D01*
X0093687Y0050717D02*
X0093849Y0050717D01*
X0095684Y0052714D02*
X0095936Y0052714D01*
X0095850Y0053713D02*
X0105555Y0053713D01*
X0105200Y0052714D02*
X0097564Y0052714D01*
X0099098Y0051716D02*
X0105200Y0051716D01*
X0105584Y0050717D02*
X0099651Y0050717D01*
X0099800Y0049719D02*
X0106097Y0049719D01*
X0106097Y0048720D02*
X0099625Y0048720D01*
X0099035Y0047722D02*
X0106097Y0047722D01*
X0106097Y0046723D02*
X0097413Y0046723D01*
X0095695Y0045725D02*
X0106097Y0045725D01*
X0105777Y0044726D02*
X0094696Y0044726D01*
X0093698Y0043728D02*
X0104779Y0043728D01*
X0107723Y0040732D02*
X0116550Y0040732D01*
X0116550Y0039734D02*
X0106724Y0039734D01*
X0105726Y0038735D02*
X0116550Y0038735D01*
X0116550Y0037737D02*
X0097400Y0037737D01*
X0098357Y0036738D02*
X0116550Y0036738D01*
X0116550Y0035740D02*
X0098771Y0035740D01*
X0099150Y0034741D02*
X0116550Y0034741D01*
X0116550Y0033743D02*
X0099150Y0033743D01*
X0099150Y0032744D02*
X0116550Y0032744D01*
X0116550Y0031746D02*
X0098765Y0031746D01*
X0108721Y0041731D02*
X0116550Y0041731D01*
X0116550Y0042729D02*
X0109795Y0042729D01*
X0110403Y0043728D02*
X0116550Y0043728D01*
X0116550Y0044726D02*
X0110403Y0044726D01*
X0110403Y0045725D02*
X0116550Y0045725D01*
X0116550Y0046723D02*
X0110403Y0046723D01*
X0110403Y0047722D02*
X0116550Y0047722D01*
X0116550Y0048720D02*
X0110403Y0048720D01*
X0110403Y0049719D02*
X0116550Y0049719D01*
X0116550Y0050717D02*
X0110916Y0050717D01*
X0111300Y0051716D02*
X0116550Y0051716D01*
X0116550Y0052714D02*
X0111300Y0052714D01*
X0110945Y0053713D02*
X0116550Y0053713D01*
X0116550Y0054711D02*
X0110102Y0054711D01*
X0106398Y0054711D02*
X0097865Y0054711D01*
X0097950Y0055710D02*
X0116550Y0055710D01*
X0116550Y0056708D02*
X0097950Y0056708D01*
X0097950Y0057707D02*
X0116550Y0057707D01*
X0116550Y0058705D02*
X0097949Y0058705D01*
X0097950Y0059704D02*
X0116550Y0059704D01*
X0116550Y0060702D02*
X0097950Y0060702D01*
X0097950Y0061701D02*
X0116550Y0061701D01*
X0116550Y0062699D02*
X0097950Y0062699D01*
X0096956Y0063698D02*
X0116550Y0063698D01*
X0116550Y0064696D02*
X0095800Y0064696D01*
X0095800Y0065695D02*
X0116550Y0065695D01*
X0116550Y0066693D02*
X0095800Y0066693D01*
X0095800Y0067692D02*
X0116550Y0067692D01*
X0116550Y0068690D02*
X0095800Y0068690D01*
X0095800Y0069689D02*
X0101498Y0069689D01*
X0100889Y0070687D02*
X0095800Y0070687D01*
X0095800Y0071686D02*
X0100561Y0071686D01*
X0099563Y0072684D02*
X0095800Y0072684D01*
X0095800Y0073683D02*
X0098564Y0073683D01*
X0097566Y0074682D02*
X0095800Y0074682D01*
X0095800Y0075680D02*
X0096567Y0075680D01*
X0095569Y0076679D02*
X0095221Y0076679D01*
X0094570Y0077677D02*
X0094222Y0077677D01*
X0093572Y0078676D02*
X0093224Y0078676D01*
X0092573Y0079674D02*
X0092300Y0079674D01*
X0088200Y0079674D02*
X0084300Y0079674D01*
X0084300Y0078676D02*
X0088200Y0078676D01*
X0088424Y0077677D02*
X0084300Y0077677D01*
X0084300Y0076679D02*
X0089422Y0076679D01*
X0090421Y0075680D02*
X0084300Y0075680D01*
X0084300Y0074682D02*
X0091419Y0074682D01*
X0091700Y0073683D02*
X0084300Y0073683D01*
X0084300Y0072684D02*
X0091700Y0072684D01*
X0091700Y0071686D02*
X0084300Y0071686D01*
X0084300Y0070687D02*
X0091700Y0070687D01*
X0091700Y0069689D02*
X0084300Y0069689D01*
X0084300Y0068690D02*
X0091700Y0068690D01*
X0091700Y0067692D02*
X0084300Y0067692D01*
X0084300Y0066693D02*
X0091700Y0066693D01*
X0091700Y0065695D02*
X0084300Y0065695D01*
X0084300Y0064696D02*
X0091700Y0064696D01*
X0090544Y0063698D02*
X0084300Y0063698D01*
X0089550Y0062699D02*
X0030950Y0062699D01*
X0030950Y0061701D02*
X0047904Y0061701D01*
X0049596Y0061701D02*
X0089550Y0061701D01*
X0089550Y0060702D02*
X0051111Y0060702D01*
X0051656Y0059704D02*
X0089550Y0059704D01*
X0093750Y0060250D02*
X0093750Y0057250D01*
X0091752Y0047722D02*
X0079673Y0047722D01*
X0078158Y0047722D02*
X0058850Y0047722D01*
X0060590Y0046723D02*
X0076591Y0046723D01*
X0076024Y0045725D02*
X0061440Y0045725D01*
X0061800Y0044726D02*
X0075865Y0044726D01*
X0076031Y0043728D02*
X0061800Y0043728D01*
X0060100Y0037737D02*
X0057110Y0037737D01*
X0058007Y0036738D02*
X0059143Y0036738D01*
X0058729Y0035740D02*
X0058571Y0035740D01*
X0055689Y0038735D02*
X0055235Y0038735D01*
X0054250Y0038735D02*
X0053250Y0038735D01*
X0052265Y0038735D02*
X0030950Y0038735D01*
X0030950Y0037737D02*
X0050390Y0037737D01*
X0049493Y0036738D02*
X0030950Y0036738D01*
X0030950Y0035740D02*
X0048929Y0035740D01*
X0048642Y0034741D02*
X0030950Y0034741D01*
X0030950Y0033743D02*
X0053250Y0033743D01*
X0053250Y0034741D02*
X0054250Y0034741D01*
X0054250Y0035740D02*
X0053250Y0035740D01*
X0053250Y0036738D02*
X0054250Y0036738D01*
X0054250Y0037737D02*
X0053250Y0037737D01*
X0054690Y0039734D02*
X0030950Y0039734D01*
X0030950Y0040732D02*
X0053692Y0040732D01*
X0052693Y0041731D02*
X0030950Y0041731D01*
X0030950Y0042729D02*
X0051695Y0042729D01*
X0050696Y0043728D02*
X0030950Y0043728D01*
X0030950Y0044726D02*
X0049698Y0044726D01*
X0048699Y0045725D02*
X0030950Y0045725D01*
X0030950Y0046723D02*
X0047701Y0046723D01*
X0046702Y0047722D02*
X0030950Y0047722D01*
X0030950Y0048720D02*
X0046650Y0048720D01*
X0046650Y0049719D02*
X0030950Y0049719D01*
X0030950Y0050717D02*
X0046650Y0050717D01*
X0046650Y0051716D02*
X0030950Y0051716D01*
X0030950Y0052714D02*
X0046650Y0052714D01*
X0046650Y0053713D02*
X0030950Y0053713D01*
X0030950Y0054711D02*
X0046650Y0054711D01*
X0046650Y0055710D02*
X0030950Y0055710D01*
X0030950Y0056708D02*
X0046478Y0056708D01*
X0045881Y0057707D02*
X0030950Y0057707D01*
X0030950Y0058705D02*
X0045700Y0058705D01*
X0045844Y0059704D02*
X0030950Y0059704D01*
X0030950Y0060702D02*
X0046389Y0060702D01*
X0051800Y0058705D02*
X0055915Y0058705D01*
X0054393Y0057707D02*
X0051619Y0057707D01*
X0051022Y0056708D02*
X0053846Y0056708D01*
X0053700Y0055710D02*
X0050850Y0055710D01*
X0050850Y0054711D02*
X0053879Y0054711D01*
X0054474Y0053713D02*
X0050850Y0053713D01*
X0050850Y0052714D02*
X0054650Y0052714D01*
X0054650Y0051716D02*
X0050850Y0051716D01*
X0050850Y0050717D02*
X0054650Y0050717D01*
X0054650Y0049719D02*
X0050850Y0049719D01*
X0051643Y0048720D02*
X0054650Y0048720D01*
X0054650Y0047722D02*
X0052642Y0047722D01*
X0053640Y0046723D02*
X0054650Y0046723D01*
X0054639Y0045725D02*
X0054650Y0045725D01*
X0048645Y0032744D02*
X0030950Y0032744D01*
X0030950Y0031746D02*
X0048935Y0031746D01*
X0058109Y0074682D02*
X0063200Y0074682D01*
X0063200Y0075680D02*
X0058433Y0075680D01*
X0059431Y0076679D02*
X0063200Y0076679D01*
X0063200Y0077677D02*
X0060430Y0077677D01*
X0061428Y0078676D02*
X0063200Y0078676D01*
X0063200Y0079674D02*
X0062427Y0079674D01*
X0065850Y0085665D02*
X0096687Y0085665D01*
X0096013Y0086664D02*
X0065850Y0086664D01*
X0065850Y0087662D02*
X0095779Y0087662D01*
X0095869Y0088661D02*
X0065850Y0088661D01*
X0065850Y0089659D02*
X0070087Y0089659D01*
X0069550Y0090658D02*
X0065812Y0090658D01*
X0064814Y0091656D02*
X0069550Y0091656D01*
X0069550Y0092655D02*
X0068213Y0092655D01*
X0065287Y0092655D02*
X0063815Y0092655D01*
X0064734Y0097647D02*
X0052607Y0097647D01*
X0044893Y0106634D02*
X0102607Y0106634D01*
X0101428Y0107632D02*
X0046072Y0107632D01*
X0046649Y0108631D02*
X0100851Y0108631D01*
X0100275Y0109629D02*
X0047225Y0109629D01*
X0047744Y0110628D02*
X0099755Y0110628D01*
X0099579Y0111626D02*
X0047921Y0111626D01*
X0048097Y0112625D02*
X0099403Y0112625D01*
X0099227Y0113623D02*
X0048273Y0113623D01*
X0048141Y0114622D02*
X0099359Y0114622D01*
X0099535Y0115620D02*
X0047965Y0115620D01*
X0047789Y0116619D02*
X0099711Y0116619D01*
X0100129Y0117618D02*
X0047371Y0117618D01*
X0046795Y0118616D02*
X0100705Y0118616D01*
X0101282Y0119615D02*
X0046218Y0119615D01*
X0045195Y0120613D02*
X0102305Y0120613D01*
X0098435Y0127950D02*
X0099150Y0129676D01*
X0099150Y0131824D01*
X0098328Y0133809D01*
X0096809Y0135328D01*
X0096031Y0135650D01*
X0105641Y0135650D01*
X0109067Y0139076D01*
X0109142Y0139076D01*
X0110403Y0140337D01*
X0110403Y0147090D01*
X0110836Y0147522D01*
X0111300Y0148643D01*
X0111300Y0149857D01*
X0110836Y0150978D01*
X0109978Y0151836D01*
X0108857Y0152300D01*
X0107643Y0152300D01*
X0106522Y0151836D01*
X0105664Y0150978D01*
X0105200Y0149857D01*
X0105200Y0148643D01*
X0105664Y0147522D01*
X0106097Y0147090D01*
X0106097Y0142046D01*
X0103901Y0139850D01*
X0092820Y0139850D01*
X0096670Y0143700D01*
X0097357Y0143700D01*
X0098478Y0144164D01*
X0099336Y0145022D01*
X0099800Y0146143D01*
X0099800Y0147357D01*
X0099336Y0148478D01*
X0098478Y0149336D01*
X0097357Y0149800D01*
X0096143Y0149800D01*
X0095506Y0149536D01*
X0095850Y0149880D01*
X0095850Y0150800D01*
X0096954Y0150800D01*
X0097950Y0151796D01*
X0097950Y0155704D01*
X0097904Y0155750D01*
X0097950Y0155796D01*
X0097950Y0159704D01*
X0096954Y0160700D01*
X0095800Y0160700D01*
X0095800Y0173099D01*
X0092300Y0176599D01*
X0092300Y0176947D01*
X0100700Y0168547D01*
X0100700Y0168143D01*
X0101164Y0167022D01*
X0102022Y0166164D01*
X0103143Y0165700D01*
X0104357Y0165700D01*
X0105478Y0166164D01*
X0106336Y0167022D01*
X0106800Y0168143D01*
X0106800Y0169357D01*
X0106336Y0170478D01*
X0105478Y0171336D01*
X0104357Y0171800D01*
X0103953Y0171800D01*
X0095050Y0180703D01*
X0093703Y0182050D01*
X0065850Y0182050D01*
X0065850Y0187620D01*
X0064620Y0188850D01*
X0063220Y0190250D01*
X0064537Y0190250D01*
X0065022Y0189764D01*
X0066143Y0189300D01*
X0067357Y0189300D01*
X0068478Y0189764D01*
X0068963Y0190250D01*
X0069550Y0190250D01*
X0069550Y0187196D01*
X0070546Y0186200D01*
X0076954Y0186200D01*
X0077804Y0187050D01*
X0084287Y0187050D01*
X0084522Y0186814D01*
X0085643Y0186350D01*
X0086857Y0186350D01*
X0087978Y0186814D01*
X0088836Y0187672D01*
X0089300Y0188793D01*
X0089300Y0190007D01*
X0089199Y0190250D01*
X0094550Y0190250D01*
X0094550Y0187196D01*
X0095546Y0186200D01*
X0096092Y0186200D01*
X0095779Y0185443D01*
X0095779Y0184230D01*
X0096243Y0183109D01*
X0097101Y0182251D01*
X0098222Y0181787D01*
X0099435Y0181787D01*
X0100556Y0182251D01*
X0101414Y0183109D01*
X0101879Y0184230D01*
X0101879Y0185443D01*
X0101565Y0186200D01*
X0101954Y0186200D01*
X0102950Y0187196D01*
X0102950Y0194304D01*
X0101954Y0195300D01*
X0095546Y0195300D01*
X0094696Y0194450D01*
X0077804Y0194450D01*
X0076954Y0195300D01*
X0070546Y0195300D01*
X0069696Y0194450D01*
X0068963Y0194450D01*
X0068478Y0194936D01*
X0067357Y0195400D01*
X0066143Y0195400D01*
X0065022Y0194936D01*
X0064537Y0194450D01*
X0052804Y0194450D01*
X0051954Y0195300D01*
X0045546Y0195300D01*
X0044550Y0194304D01*
X0044550Y0187196D01*
X0045546Y0186200D01*
X0051954Y0186200D01*
X0052804Y0187050D01*
X0060480Y0187050D01*
X0061650Y0185880D01*
X0061650Y0182050D01*
X0061297Y0182050D01*
X0055047Y0175800D01*
X0054643Y0175800D01*
X0053522Y0175336D01*
X0052664Y0174478D01*
X0052200Y0173357D01*
X0052200Y0172143D01*
X0052664Y0171022D01*
X0053522Y0170164D01*
X0054643Y0169700D01*
X0055857Y0169700D01*
X0056978Y0170164D01*
X0057836Y0171022D01*
X0058300Y0172143D01*
X0058300Y0172547D01*
X0063200Y0177447D01*
X0063200Y0160522D01*
X0063522Y0160200D01*
X0083978Y0160200D01*
X0084300Y0160522D01*
X0084300Y0177450D01*
X0088200Y0177450D01*
X0088200Y0174901D01*
X0091700Y0171401D01*
X0091700Y0160700D01*
X0090546Y0160700D01*
X0089550Y0159704D01*
X0089550Y0155796D01*
X0089596Y0155750D01*
X0089550Y0155704D01*
X0089550Y0151796D01*
X0089574Y0151771D01*
X0088522Y0151336D01*
X0087664Y0150478D01*
X0087200Y0149357D01*
X0087200Y0148143D01*
X0087664Y0147022D01*
X0088522Y0146164D01*
X0089643Y0145700D01*
X0090857Y0145700D01*
X0091978Y0146164D01*
X0092463Y0146650D01*
X0092620Y0146650D01*
X0093850Y0147880D01*
X0093850Y0147880D01*
X0093964Y0147994D01*
X0093700Y0147357D01*
X0093700Y0146670D01*
X0090864Y0143834D01*
X0081129Y0143834D01*
X0080643Y0144320D01*
X0079522Y0144784D01*
X0078309Y0144784D01*
X0077188Y0144320D01*
X0076330Y0143462D01*
X0075865Y0142341D01*
X0075865Y0141128D01*
X0076330Y0140007D01*
X0076486Y0139850D01*
X0061471Y0139850D01*
X0061800Y0140643D01*
X0061800Y0141857D01*
X0061336Y0142978D01*
X0060478Y0143836D01*
X0059357Y0144300D01*
X0058850Y0144300D01*
X0058850Y0150537D01*
X0059336Y0151022D01*
X0059800Y0152143D01*
X0059800Y0153357D01*
X0059336Y0154478D01*
X0058478Y0155336D01*
X0057357Y0155800D01*
X0056143Y0155800D01*
X0055022Y0155336D01*
X0054164Y0154478D01*
X0053700Y0153357D01*
X0053700Y0152143D01*
X0054164Y0151022D01*
X0054650Y0150537D01*
X0054650Y0142714D01*
X0050850Y0146514D01*
X0050850Y0153537D01*
X0051336Y0154022D01*
X0051800Y0155143D01*
X0051800Y0156357D01*
X0051336Y0157478D01*
X0050478Y0158336D01*
X0049357Y0158800D01*
X0048143Y0158800D01*
X0047022Y0158336D01*
X0046164Y0157478D01*
X0045700Y0156357D01*
X0045700Y0155143D01*
X0046164Y0154022D01*
X0046650Y0153537D01*
X0046650Y0144774D01*
X0055774Y0135650D01*
X0061469Y0135650D01*
X0060691Y0135328D01*
X0059172Y0133809D01*
X0058641Y0132526D01*
X0058569Y0132746D01*
X0058197Y0133475D01*
X0057716Y0134138D01*
X0057138Y0134716D01*
X0056475Y0135197D01*
X0055746Y0135569D01*
X0054968Y0135822D01*
X0054250Y0135936D01*
X0054250Y0131250D01*
X0053250Y0131250D01*
X0053250Y0135936D01*
X0052532Y0135822D01*
X0051754Y0135569D01*
X0051025Y0135197D01*
X0050362Y0134716D01*
X0049784Y0134138D01*
X0049303Y0133475D01*
X0048931Y0132746D01*
X0048678Y0131968D01*
X0048564Y0131250D01*
X0053250Y0131250D01*
X0053250Y0130250D01*
X0048564Y0130250D01*
X0048678Y0129532D01*
X0048931Y0128754D01*
X0049303Y0128025D01*
X0049357Y0127950D01*
X0030950Y0127950D01*
X0030950Y0205460D01*
X0031438Y0204615D01*
X0031438Y0204615D01*
X0033977Y0202484D01*
X0033977Y0202484D01*
X0037093Y0201350D01*
X0040407Y0201350D01*
X0043522Y0202484D01*
X0043523Y0202484D01*
X0046062Y0204615D01*
X0047719Y0207485D01*
X0048295Y0210750D01*
X0047719Y0214015D01*
X0046062Y0216885D01*
X0046062Y0216885D01*
X0044078Y0218550D01*
X0103422Y0218550D01*
X0101438Y0216885D01*
X0099781Y0214015D01*
X0099205Y0210750D01*
X0099205Y0210750D01*
X0099781Y0207485D01*
X0101438Y0204615D01*
X0101438Y0204615D01*
X0103977Y0202484D01*
X0103977Y0202484D01*
X0107093Y0201350D01*
X0110407Y0201350D01*
X0113522Y0202484D01*
X0113523Y0202484D01*
X0116062Y0204615D01*
X0116550Y0205460D01*
X0116550Y0127950D01*
X0098435Y0127950D01*
X0098705Y0128601D02*
X0116550Y0128601D01*
X0116550Y0129600D02*
X0099118Y0129600D01*
X0099150Y0130598D02*
X0116550Y0130598D01*
X0116550Y0131597D02*
X0099150Y0131597D01*
X0098831Y0132595D02*
X0116550Y0132595D01*
X0116550Y0133594D02*
X0098417Y0133594D01*
X0097545Y0134592D02*
X0116550Y0134592D01*
X0116550Y0135591D02*
X0096174Y0135591D01*
X0093553Y0140583D02*
X0104634Y0140583D01*
X0105633Y0141582D02*
X0094552Y0141582D01*
X0095550Y0142580D02*
X0106097Y0142580D01*
X0106097Y0143579D02*
X0096549Y0143579D01*
X0098891Y0144577D02*
X0106097Y0144577D01*
X0106097Y0145576D02*
X0099565Y0145576D01*
X0099800Y0146574D02*
X0106097Y0146574D01*
X0105643Y0147573D02*
X0099710Y0147573D01*
X0099242Y0148571D02*
X0105230Y0148571D01*
X0105200Y0149570D02*
X0097912Y0149570D01*
X0097721Y0151567D02*
X0106254Y0151567D01*
X0105495Y0150568D02*
X0095850Y0150568D01*
X0095588Y0149570D02*
X0095540Y0149570D01*
X0093790Y0147573D02*
X0093543Y0147573D01*
X0093604Y0146574D02*
X0092388Y0146574D01*
X0092606Y0145576D02*
X0058850Y0145576D01*
X0058850Y0146574D02*
X0088112Y0146574D01*
X0087436Y0147573D02*
X0058850Y0147573D01*
X0058850Y0148571D02*
X0087200Y0148571D01*
X0087288Y0149570D02*
X0058850Y0149570D01*
X0058882Y0150568D02*
X0087755Y0150568D01*
X0089081Y0151567D02*
X0059561Y0151567D01*
X0059800Y0152565D02*
X0089550Y0152565D01*
X0089550Y0153564D02*
X0059714Y0153564D01*
X0059251Y0154562D02*
X0089550Y0154562D01*
X0089550Y0155561D02*
X0057934Y0155561D01*
X0055566Y0155561D02*
X0051800Y0155561D01*
X0051716Y0156559D02*
X0089550Y0156559D01*
X0089550Y0157558D02*
X0051255Y0157558D01*
X0049945Y0158556D02*
X0089550Y0158556D01*
X0089550Y0159555D02*
X0030950Y0159555D01*
X0030950Y0160553D02*
X0063200Y0160553D01*
X0063200Y0161552D02*
X0030950Y0161552D01*
X0030950Y0162551D02*
X0063200Y0162551D01*
X0063200Y0163549D02*
X0030950Y0163549D01*
X0030950Y0164548D02*
X0063200Y0164548D01*
X0063200Y0165546D02*
X0030950Y0165546D01*
X0030950Y0166545D02*
X0063200Y0166545D01*
X0063200Y0167543D02*
X0030950Y0167543D01*
X0030950Y0168542D02*
X0063200Y0168542D01*
X0063200Y0169540D02*
X0030950Y0169540D01*
X0030950Y0170539D02*
X0053148Y0170539D01*
X0052451Y0171537D02*
X0030950Y0171537D01*
X0030950Y0172536D02*
X0052200Y0172536D01*
X0052274Y0173534D02*
X0030950Y0173534D01*
X0030950Y0174533D02*
X0052719Y0174533D01*
X0053994Y0175531D02*
X0030950Y0175531D01*
X0030950Y0176530D02*
X0055777Y0176530D01*
X0056776Y0177528D02*
X0030950Y0177528D01*
X0030950Y0178527D02*
X0057774Y0178527D01*
X0058773Y0179525D02*
X0030950Y0179525D01*
X0030950Y0180524D02*
X0059771Y0180524D01*
X0060770Y0181522D02*
X0030950Y0181522D01*
X0030950Y0182521D02*
X0061650Y0182521D01*
X0061650Y0183519D02*
X0030950Y0183519D01*
X0030950Y0184518D02*
X0061650Y0184518D01*
X0061650Y0185516D02*
X0030950Y0185516D01*
X0030950Y0186515D02*
X0045231Y0186515D01*
X0044550Y0187513D02*
X0030950Y0187513D01*
X0030950Y0188512D02*
X0044550Y0188512D01*
X0044550Y0189510D02*
X0030950Y0189510D01*
X0030950Y0190509D02*
X0044550Y0190509D01*
X0044550Y0191507D02*
X0030950Y0191507D01*
X0030950Y0192506D02*
X0044550Y0192506D01*
X0044550Y0193504D02*
X0030950Y0193504D01*
X0030950Y0194503D02*
X0044749Y0194503D01*
X0052751Y0194503D02*
X0064590Y0194503D01*
X0068910Y0194503D02*
X0069749Y0194503D01*
X0069550Y0189510D02*
X0067864Y0189510D01*
X0069550Y0188512D02*
X0064958Y0188512D01*
X0065636Y0189510D02*
X0063960Y0189510D01*
X0065850Y0187513D02*
X0069550Y0187513D01*
X0070231Y0186515D02*
X0065850Y0186515D01*
X0065850Y0185516D02*
X0095809Y0185516D01*
X0095779Y0184518D02*
X0065850Y0184518D01*
X0065850Y0183519D02*
X0096073Y0183519D01*
X0096831Y0182521D02*
X0065850Y0182521D01*
X0061015Y0186515D02*
X0052269Y0186515D01*
X0062282Y0176530D02*
X0063200Y0176530D01*
X0063200Y0175531D02*
X0061284Y0175531D01*
X0060285Y0174533D02*
X0063200Y0174533D01*
X0063200Y0173534D02*
X0059287Y0173534D01*
X0058300Y0172536D02*
X0063200Y0172536D01*
X0063200Y0171537D02*
X0058049Y0171537D01*
X0057352Y0170539D02*
X0063200Y0170539D01*
X0054249Y0154562D02*
X0051559Y0154562D01*
X0050877Y0153564D02*
X0053786Y0153564D01*
X0053700Y0152565D02*
X0050850Y0152565D01*
X0050850Y0151567D02*
X0053939Y0151567D01*
X0054618Y0150568D02*
X0050850Y0150568D01*
X0050850Y0149570D02*
X0054650Y0149570D01*
X0054650Y0148571D02*
X0050850Y0148571D01*
X0050850Y0147573D02*
X0054650Y0147573D01*
X0054650Y0146574D02*
X0050850Y0146574D01*
X0051788Y0145576D02*
X0054650Y0145576D01*
X0054650Y0144577D02*
X0052786Y0144577D01*
X0053785Y0143579D02*
X0054650Y0143579D01*
X0058850Y0144577D02*
X0077809Y0144577D01*
X0076447Y0143579D02*
X0060735Y0143579D01*
X0061500Y0142580D02*
X0075965Y0142580D01*
X0075865Y0141582D02*
X0061800Y0141582D01*
X0061775Y0140583D02*
X0076091Y0140583D01*
X0080022Y0144577D02*
X0091607Y0144577D01*
X0093750Y0154250D02*
X0093750Y0157250D01*
X0097950Y0157558D02*
X0116550Y0157558D01*
X0116550Y0158556D02*
X0097950Y0158556D01*
X0097950Y0159555D02*
X0116550Y0159555D01*
X0116550Y0160553D02*
X0097101Y0160553D01*
X0095800Y0161552D02*
X0116550Y0161552D01*
X0116550Y0162551D02*
X0095800Y0162551D01*
X0095800Y0163549D02*
X0116550Y0163549D01*
X0116550Y0164548D02*
X0095800Y0164548D01*
X0095800Y0165546D02*
X0116550Y0165546D01*
X0116550Y0166545D02*
X0105858Y0166545D01*
X0106551Y0167543D02*
X0116550Y0167543D01*
X0116550Y0168542D02*
X0106800Y0168542D01*
X0106724Y0169540D02*
X0116550Y0169540D01*
X0116550Y0170539D02*
X0106275Y0170539D01*
X0104991Y0171537D02*
X0116550Y0171537D01*
X0116550Y0172536D02*
X0103217Y0172536D01*
X0102219Y0173534D02*
X0116550Y0173534D01*
X0116550Y0174533D02*
X0101220Y0174533D01*
X0100222Y0175531D02*
X0116550Y0175531D01*
X0116550Y0176530D02*
X0099223Y0176530D01*
X0098224Y0177528D02*
X0116550Y0177528D01*
X0116550Y0178527D02*
X0097226Y0178527D01*
X0096227Y0179525D02*
X0116550Y0179525D01*
X0116550Y0180524D02*
X0095229Y0180524D01*
X0095050Y0180703D02*
X0095050Y0180703D01*
X0094230Y0181522D02*
X0116550Y0181522D01*
X0116550Y0182521D02*
X0100826Y0182521D01*
X0101584Y0183519D02*
X0116550Y0183519D01*
X0116550Y0184518D02*
X0101879Y0184518D01*
X0101848Y0185516D02*
X0116550Y0185516D01*
X0116550Y0186515D02*
X0102269Y0186515D01*
X0102950Y0187513D02*
X0116550Y0187513D01*
X0116550Y0188512D02*
X0102950Y0188512D01*
X0102950Y0189510D02*
X0116550Y0189510D01*
X0116550Y0190509D02*
X0102950Y0190509D01*
X0102950Y0191507D02*
X0116550Y0191507D01*
X0116550Y0192506D02*
X0102950Y0192506D01*
X0102950Y0193504D02*
X0116550Y0193504D01*
X0116550Y0194503D02*
X0102751Y0194503D01*
X0094749Y0194503D02*
X0077751Y0194503D01*
X0077269Y0186515D02*
X0085245Y0186515D01*
X0087255Y0186515D02*
X0095231Y0186515D01*
X0094550Y0187513D02*
X0088677Y0187513D01*
X0089183Y0188512D02*
X0094550Y0188512D01*
X0094550Y0189510D02*
X0089300Y0189510D01*
X0101589Y0204488D02*
X0045911Y0204488D01*
X0046062Y0204615D02*
X0046062Y0204615D01*
X0046062Y0204615D01*
X0046565Y0205487D02*
X0100935Y0205487D01*
X0100358Y0206485D02*
X0047142Y0206485D01*
X0047718Y0207484D02*
X0099782Y0207484D01*
X0099781Y0207485D02*
X0099781Y0207485D01*
X0099605Y0208482D02*
X0047895Y0208482D01*
X0048071Y0209481D02*
X0099429Y0209481D01*
X0099253Y0210479D02*
X0048247Y0210479D01*
X0048167Y0211478D02*
X0099333Y0211478D01*
X0099509Y0212476D02*
X0047991Y0212476D01*
X0047815Y0213475D02*
X0099685Y0213475D01*
X0099781Y0214015D02*
X0099781Y0214015D01*
X0100045Y0214473D02*
X0047455Y0214473D01*
X0046878Y0215472D02*
X0100622Y0215472D01*
X0101198Y0216470D02*
X0046302Y0216470D01*
X0045367Y0217469D02*
X0102133Y0217469D01*
X0101438Y0216885D02*
X0101438Y0216885D01*
X0101438Y0216885D01*
X0103323Y0218467D02*
X0044177Y0218467D01*
X0049357Y0224950D02*
X0030950Y0224950D01*
X0030950Y0302460D01*
X0031438Y0301615D01*
X0031438Y0301615D01*
X0033977Y0299484D01*
X0033977Y0299484D01*
X0037093Y0298350D01*
X0040407Y0298350D01*
X0043522Y0299484D01*
X0043523Y0299484D01*
X0046062Y0301615D01*
X0047719Y0304485D01*
X0047719Y0304485D01*
X0048295Y0307750D01*
X0047719Y0311015D01*
X0046062Y0313885D01*
X0046062Y0313885D01*
X0044078Y0315550D01*
X0103422Y0315550D01*
X0101438Y0313885D01*
X0099781Y0311015D01*
X0099205Y0307750D01*
X0099781Y0304485D01*
X0101438Y0301615D01*
X0103977Y0299484D01*
X0103977Y0299484D01*
X0107093Y0298350D01*
X0110407Y0298350D01*
X0113522Y0299484D01*
X0113523Y0299484D01*
X0116062Y0301615D01*
X0116550Y0302460D01*
X0116550Y0224950D01*
X0098435Y0224950D01*
X0099150Y0226676D01*
X0099150Y0228824D01*
X0098328Y0230809D01*
X0096809Y0232328D01*
X0096031Y0232650D01*
X0105641Y0232650D01*
X0109067Y0236076D01*
X0109142Y0236076D01*
X0110403Y0237337D01*
X0110403Y0244090D01*
X0110836Y0244522D01*
X0111300Y0245643D01*
X0111300Y0246857D01*
X0110836Y0247978D01*
X0109978Y0248836D01*
X0108857Y0249300D01*
X0107643Y0249300D01*
X0106522Y0248836D01*
X0105664Y0247978D01*
X0105200Y0246857D01*
X0105200Y0245643D01*
X0105664Y0244522D01*
X0106097Y0244090D01*
X0106097Y0239046D01*
X0103901Y0236850D01*
X0092820Y0236850D01*
X0096670Y0240700D01*
X0097357Y0240700D01*
X0098478Y0241164D01*
X0099336Y0242022D01*
X0099800Y0243143D01*
X0099800Y0244357D01*
X0099336Y0245478D01*
X0098478Y0246336D01*
X0097357Y0246800D01*
X0096143Y0246800D01*
X0095506Y0246536D01*
X0095850Y0246880D01*
X0095850Y0247800D01*
X0096954Y0247800D01*
X0097950Y0248796D01*
X0097950Y0252704D01*
X0097904Y0252750D01*
X0097950Y0252796D01*
X0097950Y0256704D01*
X0096954Y0257700D01*
X0095800Y0257700D01*
X0095800Y0270099D01*
X0092300Y0273599D01*
X0092300Y0273947D01*
X0100700Y0265547D01*
X0100700Y0265143D01*
X0101164Y0264022D01*
X0102022Y0263164D01*
X0103143Y0262700D01*
X0104357Y0262700D01*
X0105478Y0263164D01*
X0106336Y0264022D01*
X0106800Y0265143D01*
X0106800Y0266357D01*
X0106336Y0267478D01*
X0105478Y0268336D01*
X0104357Y0268800D01*
X0103953Y0268800D01*
X0093703Y0279050D01*
X0065850Y0279050D01*
X0065850Y0284620D01*
X0064620Y0285850D01*
X0063220Y0287250D01*
X0064537Y0287250D01*
X0065022Y0286764D01*
X0066143Y0286300D01*
X0067357Y0286300D01*
X0068478Y0286764D01*
X0068963Y0287250D01*
X0069550Y0287250D01*
X0069550Y0284196D01*
X0070546Y0283200D01*
X0076954Y0283200D01*
X0077804Y0284050D01*
X0084287Y0284050D01*
X0084522Y0283814D01*
X0085643Y0283350D01*
X0086857Y0283350D01*
X0087978Y0283814D01*
X0088836Y0284672D01*
X0089300Y0285793D01*
X0089300Y0287007D01*
X0089199Y0287250D01*
X0094550Y0287250D01*
X0094550Y0284196D01*
X0095546Y0283200D01*
X0096092Y0283200D01*
X0095779Y0282443D01*
X0095779Y0281230D01*
X0096243Y0280109D01*
X0097101Y0279251D01*
X0098222Y0278787D01*
X0099435Y0278787D01*
X0100556Y0279251D01*
X0101414Y0280109D01*
X0101879Y0281230D01*
X0101879Y0282443D01*
X0101565Y0283200D01*
X0101954Y0283200D01*
X0102950Y0284196D01*
X0102950Y0291304D01*
X0101954Y0292300D01*
X0095546Y0292300D01*
X0094696Y0291450D01*
X0077804Y0291450D01*
X0076954Y0292300D01*
X0070546Y0292300D01*
X0069696Y0291450D01*
X0068963Y0291450D01*
X0068478Y0291936D01*
X0067357Y0292400D01*
X0066143Y0292400D01*
X0065022Y0291936D01*
X0064537Y0291450D01*
X0052804Y0291450D01*
X0051954Y0292300D01*
X0045546Y0292300D01*
X0044550Y0291304D01*
X0044550Y0284196D01*
X0045546Y0283200D01*
X0051954Y0283200D01*
X0052804Y0284050D01*
X0060480Y0284050D01*
X0061650Y0282880D01*
X0061650Y0279050D01*
X0061297Y0279050D01*
X0055047Y0272800D01*
X0054643Y0272800D01*
X0053522Y0272336D01*
X0052664Y0271478D01*
X0052200Y0270357D01*
X0052200Y0269143D01*
X0052664Y0268022D01*
X0053522Y0267164D01*
X0054643Y0266700D01*
X0055857Y0266700D01*
X0056978Y0267164D01*
X0057836Y0268022D01*
X0058300Y0269143D01*
X0058300Y0269547D01*
X0063200Y0274447D01*
X0063200Y0257522D01*
X0063522Y0257200D01*
X0083978Y0257200D01*
X0084300Y0257522D01*
X0084300Y0274450D01*
X0088200Y0274450D01*
X0088200Y0271901D01*
X0091700Y0268401D01*
X0091700Y0257700D01*
X0090546Y0257700D01*
X0089550Y0256704D01*
X0089550Y0252796D01*
X0089596Y0252750D01*
X0089550Y0252704D01*
X0089550Y0248796D01*
X0089574Y0248771D01*
X0088522Y0248336D01*
X0087664Y0247478D01*
X0087200Y0246357D01*
X0087200Y0245143D01*
X0087664Y0244022D01*
X0088522Y0243164D01*
X0089643Y0242700D01*
X0090857Y0242700D01*
X0091978Y0243164D01*
X0092463Y0243650D01*
X0092620Y0243650D01*
X0093850Y0244880D01*
X0093964Y0244994D01*
X0093700Y0244357D01*
X0093700Y0243670D01*
X0090864Y0240834D01*
X0081129Y0240834D01*
X0080643Y0241320D01*
X0079522Y0241784D01*
X0078309Y0241784D01*
X0077188Y0241320D01*
X0076330Y0240462D01*
X0075865Y0239341D01*
X0075865Y0238128D01*
X0076330Y0237007D01*
X0076486Y0236850D01*
X0061471Y0236850D01*
X0061800Y0237643D01*
X0061800Y0238857D01*
X0061336Y0239978D01*
X0060478Y0240836D01*
X0059357Y0241300D01*
X0058850Y0241300D01*
X0058850Y0247537D01*
X0059336Y0248022D01*
X0059800Y0249143D01*
X0059800Y0250357D01*
X0059336Y0251478D01*
X0058478Y0252336D01*
X0057357Y0252800D01*
X0056143Y0252800D01*
X0055022Y0252336D01*
X0054164Y0251478D01*
X0053700Y0250357D01*
X0053700Y0249143D01*
X0054164Y0248022D01*
X0054650Y0247537D01*
X0054650Y0239714D01*
X0050850Y0243514D01*
X0050850Y0250537D01*
X0051336Y0251022D01*
X0051800Y0252143D01*
X0051800Y0253357D01*
X0051336Y0254478D01*
X0050478Y0255336D01*
X0049357Y0255800D01*
X0048143Y0255800D01*
X0047022Y0255336D01*
X0046164Y0254478D01*
X0045700Y0253357D01*
X0045700Y0252143D01*
X0046164Y0251022D01*
X0046650Y0250537D01*
X0046650Y0241774D01*
X0055774Y0232650D01*
X0061469Y0232650D01*
X0060691Y0232328D01*
X0059172Y0230809D01*
X0058641Y0229526D01*
X0058569Y0229746D01*
X0058197Y0230475D01*
X0057716Y0231138D01*
X0057138Y0231716D01*
X0056475Y0232197D01*
X0055746Y0232569D01*
X0054968Y0232822D01*
X0054250Y0232936D01*
X0054250Y0228250D01*
X0053250Y0228250D01*
X0053250Y0232936D01*
X0052532Y0232822D01*
X0051754Y0232569D01*
X0051025Y0232197D01*
X0050362Y0231716D01*
X0049784Y0231138D01*
X0049303Y0230475D01*
X0048931Y0229746D01*
X0048678Y0228968D01*
X0048564Y0228250D01*
X0053250Y0228250D01*
X0053250Y0227250D01*
X0048564Y0227250D01*
X0048678Y0226532D01*
X0048931Y0225754D01*
X0049303Y0225025D01*
X0049357Y0224950D01*
X0049082Y0225457D02*
X0030950Y0225457D01*
X0030950Y0226455D02*
X0048703Y0226455D01*
X0048596Y0228452D02*
X0030950Y0228452D01*
X0030950Y0227454D02*
X0053250Y0227454D01*
X0053250Y0228452D02*
X0054250Y0228452D01*
X0054250Y0229451D02*
X0053250Y0229451D01*
X0053250Y0230449D02*
X0054250Y0230449D01*
X0054250Y0231448D02*
X0053250Y0231448D01*
X0053250Y0232446D02*
X0054250Y0232446D01*
X0054979Y0233445D02*
X0030950Y0233445D01*
X0030950Y0234443D02*
X0053981Y0234443D01*
X0052982Y0235442D02*
X0030950Y0235442D01*
X0030950Y0236440D02*
X0051984Y0236440D01*
X0050985Y0237439D02*
X0030950Y0237439D01*
X0030950Y0238437D02*
X0049987Y0238437D01*
X0048988Y0239436D02*
X0030950Y0239436D01*
X0030950Y0240434D02*
X0047989Y0240434D01*
X0046991Y0241433D02*
X0030950Y0241433D01*
X0030950Y0242431D02*
X0046650Y0242431D01*
X0046650Y0243430D02*
X0030950Y0243430D01*
X0030950Y0244428D02*
X0046650Y0244428D01*
X0046650Y0245427D02*
X0030950Y0245427D01*
X0030950Y0246425D02*
X0046650Y0246425D01*
X0046650Y0247424D02*
X0030950Y0247424D01*
X0030950Y0248422D02*
X0046650Y0248422D01*
X0046650Y0249421D02*
X0030950Y0249421D01*
X0030950Y0250420D02*
X0046650Y0250420D01*
X0046000Y0251418D02*
X0030950Y0251418D01*
X0030950Y0252417D02*
X0045700Y0252417D01*
X0045724Y0253415D02*
X0030950Y0253415D01*
X0030950Y0254414D02*
X0046138Y0254414D01*
X0047207Y0255412D02*
X0030950Y0255412D01*
X0030950Y0256411D02*
X0089550Y0256411D01*
X0089550Y0255412D02*
X0050293Y0255412D01*
X0051362Y0254414D02*
X0089550Y0254414D01*
X0089550Y0253415D02*
X0051776Y0253415D01*
X0051800Y0252417D02*
X0055218Y0252417D01*
X0054140Y0251418D02*
X0051500Y0251418D01*
X0050850Y0250420D02*
X0053726Y0250420D01*
X0053700Y0249421D02*
X0050850Y0249421D01*
X0050850Y0248422D02*
X0053999Y0248422D01*
X0054650Y0247424D02*
X0050850Y0247424D01*
X0050850Y0246425D02*
X0054650Y0246425D01*
X0054650Y0245427D02*
X0050850Y0245427D01*
X0050850Y0244428D02*
X0054650Y0244428D01*
X0054650Y0243430D02*
X0050934Y0243430D01*
X0051932Y0242431D02*
X0054650Y0242431D01*
X0054650Y0241433D02*
X0052931Y0241433D01*
X0053929Y0240434D02*
X0054650Y0240434D01*
X0058850Y0241433D02*
X0077461Y0241433D01*
X0076318Y0240434D02*
X0060879Y0240434D01*
X0061560Y0239436D02*
X0075905Y0239436D01*
X0075865Y0238437D02*
X0061800Y0238437D01*
X0061715Y0237439D02*
X0076151Y0237439D01*
X0080370Y0241433D02*
X0091463Y0241433D01*
X0092462Y0242431D02*
X0058850Y0242431D01*
X0058850Y0243430D02*
X0088257Y0243430D01*
X0087496Y0244428D02*
X0058850Y0244428D01*
X0058850Y0245427D02*
X0087200Y0245427D01*
X0087228Y0246425D02*
X0058850Y0246425D01*
X0058850Y0247424D02*
X0087642Y0247424D01*
X0088732Y0248422D02*
X0059501Y0248422D01*
X0059800Y0249421D02*
X0089550Y0249421D01*
X0089550Y0250420D02*
X0059774Y0250420D01*
X0059360Y0251418D02*
X0089550Y0251418D01*
X0089550Y0252417D02*
X0058282Y0252417D01*
X0063313Y0257409D02*
X0030950Y0257409D01*
X0030950Y0258408D02*
X0063200Y0258408D01*
X0063200Y0259406D02*
X0030950Y0259406D01*
X0030950Y0260405D02*
X0063200Y0260405D01*
X0063200Y0261403D02*
X0030950Y0261403D01*
X0030950Y0262402D02*
X0063200Y0262402D01*
X0063200Y0263400D02*
X0030950Y0263400D01*
X0030950Y0264399D02*
X0063200Y0264399D01*
X0063200Y0265397D02*
X0030950Y0265397D01*
X0030950Y0266396D02*
X0063200Y0266396D01*
X0063200Y0267394D02*
X0057208Y0267394D01*
X0057989Y0268393D02*
X0063200Y0268393D01*
X0063200Y0269391D02*
X0058300Y0269391D01*
X0059142Y0270390D02*
X0063200Y0270390D01*
X0063200Y0271388D02*
X0060141Y0271388D01*
X0061139Y0272387D02*
X0063200Y0272387D01*
X0063200Y0273385D02*
X0062138Y0273385D01*
X0063136Y0274384D02*
X0063200Y0274384D01*
X0059627Y0277379D02*
X0030950Y0277379D01*
X0030950Y0276381D02*
X0058628Y0276381D01*
X0057630Y0275382D02*
X0030950Y0275382D01*
X0030950Y0274384D02*
X0056631Y0274384D01*
X0055633Y0273385D02*
X0030950Y0273385D01*
X0030950Y0272387D02*
X0053646Y0272387D01*
X0052627Y0271388D02*
X0030950Y0271388D01*
X0030950Y0270390D02*
X0052214Y0270390D01*
X0052200Y0269391D02*
X0030950Y0269391D01*
X0030950Y0268393D02*
X0052511Y0268393D01*
X0053292Y0267394D02*
X0030950Y0267394D01*
X0030950Y0278378D02*
X0060625Y0278378D01*
X0061650Y0279376D02*
X0030950Y0279376D01*
X0030950Y0280375D02*
X0061650Y0280375D01*
X0061650Y0281373D02*
X0030950Y0281373D01*
X0030950Y0282372D02*
X0061650Y0282372D01*
X0061160Y0283370D02*
X0052125Y0283370D01*
X0045375Y0283370D02*
X0030950Y0283370D01*
X0030950Y0284369D02*
X0044550Y0284369D01*
X0044550Y0285367D02*
X0030950Y0285367D01*
X0030950Y0286366D02*
X0044550Y0286366D01*
X0044550Y0287364D02*
X0030950Y0287364D01*
X0030950Y0288363D02*
X0044550Y0288363D01*
X0044550Y0289361D02*
X0030950Y0289361D01*
X0030950Y0290360D02*
X0044550Y0290360D01*
X0044604Y0291358D02*
X0030950Y0291358D01*
X0030950Y0292357D02*
X0066040Y0292357D01*
X0067460Y0292357D02*
X0116550Y0292357D01*
X0116550Y0293355D02*
X0030950Y0293355D01*
X0030950Y0294354D02*
X0116550Y0294354D01*
X0116550Y0295353D02*
X0030950Y0295353D01*
X0030950Y0296351D02*
X0116550Y0296351D01*
X0116550Y0297350D02*
X0030950Y0297350D01*
X0030950Y0298348D02*
X0116550Y0298348D01*
X0116550Y0299347D02*
X0113146Y0299347D01*
X0114549Y0300345D02*
X0116550Y0300345D01*
X0116550Y0301344D02*
X0115739Y0301344D01*
X0116062Y0301615D02*
X0116062Y0301615D01*
X0116062Y0301615D01*
X0116482Y0302342D02*
X0116550Y0302342D01*
X0122950Y0302342D02*
X0123018Y0302342D01*
X0122950Y0302460D02*
X0123438Y0301615D01*
X0123438Y0301615D01*
X0125977Y0299484D01*
X0125977Y0299484D01*
X0129093Y0298350D01*
X0132407Y0298350D01*
X0135522Y0299484D01*
X0138062Y0301615D01*
X0139719Y0304485D01*
X0139719Y0304485D01*
X0140295Y0307750D01*
X0139719Y0311015D01*
X0138062Y0313885D01*
X0138062Y0313885D01*
X0136078Y0315550D01*
X0195422Y0315550D01*
X0193438Y0313885D01*
X0191781Y0311015D01*
X0191205Y0307750D01*
X0191205Y0307750D01*
X0191781Y0304485D01*
X0193438Y0301615D01*
X0193438Y0301615D01*
X0195977Y0299484D01*
X0195977Y0299484D01*
X0199093Y0298350D01*
X0202407Y0298350D01*
X0205522Y0299484D01*
X0205523Y0299484D01*
X0208062Y0301615D01*
X0208550Y0302460D01*
X0208550Y0224950D01*
X0190435Y0224950D01*
X0191150Y0226676D01*
X0191150Y0228824D01*
X0190328Y0230809D01*
X0188809Y0232328D01*
X0188031Y0232650D01*
X0197641Y0232650D01*
X0201067Y0236076D01*
X0201142Y0236076D01*
X0202403Y0237337D01*
X0202403Y0244090D01*
X0202836Y0244522D01*
X0203300Y0245643D01*
X0203300Y0246857D01*
X0202836Y0247978D01*
X0201978Y0248836D01*
X0200857Y0249300D01*
X0199643Y0249300D01*
X0198522Y0248836D01*
X0197664Y0247978D01*
X0197200Y0246857D01*
X0197200Y0245643D01*
X0197664Y0244522D01*
X0198097Y0244090D01*
X0198097Y0239046D01*
X0195901Y0236850D01*
X0184820Y0236850D01*
X0188670Y0240700D01*
X0189357Y0240700D01*
X0190478Y0241164D01*
X0191336Y0242022D01*
X0191800Y0243143D01*
X0191800Y0244357D01*
X0191336Y0245478D01*
X0190478Y0246336D01*
X0189357Y0246800D01*
X0188143Y0246800D01*
X0187506Y0246536D01*
X0187850Y0246880D01*
X0187850Y0247800D01*
X0188954Y0247800D01*
X0189950Y0248796D01*
X0189950Y0252704D01*
X0189904Y0252750D01*
X0189950Y0252796D01*
X0189950Y0256704D01*
X0188954Y0257700D01*
X0187800Y0257700D01*
X0187800Y0270099D01*
X0184300Y0273599D01*
X0184300Y0273947D01*
X0192700Y0265547D01*
X0192700Y0265143D01*
X0193164Y0264022D01*
X0194022Y0263164D01*
X0195143Y0262700D01*
X0196357Y0262700D01*
X0197478Y0263164D01*
X0198336Y0264022D01*
X0198800Y0265143D01*
X0198800Y0266357D01*
X0198336Y0267478D01*
X0197478Y0268336D01*
X0196357Y0268800D01*
X0195953Y0268800D01*
X0185703Y0279050D01*
X0157850Y0279050D01*
X0157850Y0284620D01*
X0156620Y0285850D01*
X0155220Y0287250D01*
X0156537Y0287250D01*
X0157022Y0286764D01*
X0158143Y0286300D01*
X0159357Y0286300D01*
X0160478Y0286764D01*
X0160963Y0287250D01*
X0161550Y0287250D01*
X0161550Y0284196D01*
X0162546Y0283200D01*
X0168954Y0283200D01*
X0169804Y0284050D01*
X0176287Y0284050D01*
X0176522Y0283814D01*
X0177643Y0283350D01*
X0178857Y0283350D01*
X0179978Y0283814D01*
X0180836Y0284672D01*
X0181300Y0285793D01*
X0181300Y0287007D01*
X0181199Y0287250D01*
X0186550Y0287250D01*
X0186550Y0284196D01*
X0187546Y0283200D01*
X0188092Y0283200D01*
X0187779Y0282443D01*
X0187779Y0281230D01*
X0188243Y0280109D01*
X0189101Y0279251D01*
X0190222Y0278787D01*
X0191435Y0278787D01*
X0192556Y0279251D01*
X0193414Y0280109D01*
X0193879Y0281230D01*
X0193879Y0282443D01*
X0193565Y0283200D01*
X0193954Y0283200D01*
X0194950Y0284196D01*
X0194950Y0291304D01*
X0193954Y0292300D01*
X0187546Y0292300D01*
X0186696Y0291450D01*
X0169804Y0291450D01*
X0168954Y0292300D01*
X0162546Y0292300D01*
X0161696Y0291450D01*
X0160963Y0291450D01*
X0160478Y0291936D01*
X0159357Y0292400D01*
X0158143Y0292400D01*
X0157022Y0291936D01*
X0156537Y0291450D01*
X0144804Y0291450D01*
X0143954Y0292300D01*
X0137546Y0292300D01*
X0136550Y0291304D01*
X0136550Y0284196D01*
X0137546Y0283200D01*
X0143954Y0283200D01*
X0144804Y0284050D01*
X0152480Y0284050D01*
X0153650Y0282880D01*
X0153650Y0279050D01*
X0153297Y0279050D01*
X0151950Y0277703D01*
X0151950Y0277703D01*
X0147047Y0272800D01*
X0146643Y0272800D01*
X0145522Y0272336D01*
X0144664Y0271478D01*
X0144200Y0270357D01*
X0144200Y0269143D01*
X0144664Y0268022D01*
X0145522Y0267164D01*
X0146643Y0266700D01*
X0147857Y0266700D01*
X0148978Y0267164D01*
X0149836Y0268022D01*
X0150300Y0269143D01*
X0150300Y0269547D01*
X0155200Y0274447D01*
X0155200Y0257522D01*
X0155522Y0257200D01*
X0175978Y0257200D01*
X0176300Y0257522D01*
X0176300Y0274450D01*
X0180200Y0274450D01*
X0180200Y0271901D01*
X0183700Y0268401D01*
X0183700Y0257700D01*
X0182546Y0257700D01*
X0181550Y0256704D01*
X0181550Y0252796D01*
X0181596Y0252750D01*
X0181550Y0252704D01*
X0181550Y0248796D01*
X0181574Y0248771D01*
X0180522Y0248336D01*
X0179664Y0247478D01*
X0179200Y0246357D01*
X0179200Y0245143D01*
X0179664Y0244022D01*
X0180522Y0243164D01*
X0181643Y0242700D01*
X0182857Y0242700D01*
X0183978Y0243164D01*
X0184463Y0243650D01*
X0184620Y0243650D01*
X0185850Y0244880D01*
X0185850Y0244880D01*
X0185964Y0244994D01*
X0185700Y0244357D01*
X0185700Y0243670D01*
X0182864Y0240834D01*
X0173129Y0240834D01*
X0172643Y0241320D01*
X0171522Y0241784D01*
X0170309Y0241784D01*
X0169188Y0241320D01*
X0168330Y0240462D01*
X0167865Y0239341D01*
X0167865Y0238128D01*
X0168330Y0237007D01*
X0168486Y0236850D01*
X0153471Y0236850D01*
X0153800Y0237643D01*
X0153800Y0238857D01*
X0153336Y0239978D01*
X0152478Y0240836D01*
X0151357Y0241300D01*
X0150850Y0241300D01*
X0150850Y0247537D01*
X0151336Y0248022D01*
X0151800Y0249143D01*
X0151800Y0250357D01*
X0151336Y0251478D01*
X0150478Y0252336D01*
X0149357Y0252800D01*
X0148143Y0252800D01*
X0147022Y0252336D01*
X0146164Y0251478D01*
X0145700Y0250357D01*
X0145700Y0249143D01*
X0146164Y0248022D01*
X0146650Y0247537D01*
X0146650Y0239714D01*
X0142850Y0243514D01*
X0142850Y0250537D01*
X0143336Y0251022D01*
X0143800Y0252143D01*
X0143800Y0253357D01*
X0143336Y0254478D01*
X0142478Y0255336D01*
X0141357Y0255800D01*
X0140143Y0255800D01*
X0139022Y0255336D01*
X0138164Y0254478D01*
X0137700Y0253357D01*
X0137700Y0252143D01*
X0138164Y0251022D01*
X0138650Y0250537D01*
X0138650Y0241774D01*
X0147774Y0232650D01*
X0153469Y0232650D01*
X0152691Y0232328D01*
X0151172Y0230809D01*
X0150641Y0229526D01*
X0150569Y0229746D01*
X0150197Y0230475D01*
X0149716Y0231138D01*
X0149138Y0231716D01*
X0148475Y0232197D01*
X0147746Y0232569D01*
X0146968Y0232822D01*
X0146250Y0232936D01*
X0146250Y0228250D01*
X0145250Y0228250D01*
X0145250Y0232936D01*
X0144532Y0232822D01*
X0143754Y0232569D01*
X0143025Y0232197D01*
X0142362Y0231716D01*
X0141784Y0231138D01*
X0141303Y0230475D01*
X0140931Y0229746D01*
X0140678Y0228968D01*
X0140564Y0228250D01*
X0145250Y0228250D01*
X0145250Y0227250D01*
X0140564Y0227250D01*
X0140678Y0226532D01*
X0140931Y0225754D01*
X0141303Y0225025D01*
X0141357Y0224950D01*
X0122950Y0224950D01*
X0122950Y0302460D01*
X0122950Y0301344D02*
X0123761Y0301344D01*
X0122950Y0300345D02*
X0124951Y0300345D01*
X0126354Y0299347D02*
X0122950Y0299347D01*
X0122950Y0298348D02*
X0208550Y0298348D01*
X0208550Y0297350D02*
X0122950Y0297350D01*
X0122950Y0296351D02*
X0208550Y0296351D01*
X0208550Y0295353D02*
X0122950Y0295353D01*
X0122950Y0294354D02*
X0208550Y0294354D01*
X0208550Y0293355D02*
X0122950Y0293355D01*
X0122950Y0292357D02*
X0158040Y0292357D01*
X0159460Y0292357D02*
X0208550Y0292357D01*
X0208550Y0291358D02*
X0194896Y0291358D01*
X0194950Y0290360D02*
X0208550Y0290360D01*
X0208550Y0289361D02*
X0194950Y0289361D01*
X0194950Y0288363D02*
X0208550Y0288363D01*
X0208550Y0287364D02*
X0194950Y0287364D01*
X0194950Y0286366D02*
X0208550Y0286366D01*
X0208550Y0285367D02*
X0194950Y0285367D01*
X0194950Y0284369D02*
X0208550Y0284369D01*
X0208550Y0283370D02*
X0194125Y0283370D01*
X0193879Y0282372D02*
X0208550Y0282372D01*
X0208550Y0281373D02*
X0193879Y0281373D01*
X0193525Y0280375D02*
X0208550Y0280375D01*
X0208550Y0279376D02*
X0192682Y0279376D01*
X0188976Y0279376D02*
X0157850Y0279376D01*
X0157850Y0280375D02*
X0188133Y0280375D01*
X0187779Y0281373D02*
X0157850Y0281373D01*
X0157850Y0282372D02*
X0187779Y0282372D01*
X0187375Y0283370D02*
X0178906Y0283370D01*
X0177594Y0283370D02*
X0169125Y0283370D01*
X0162375Y0283370D02*
X0157850Y0283370D01*
X0157850Y0284369D02*
X0161550Y0284369D01*
X0161550Y0285367D02*
X0157102Y0285367D01*
X0157984Y0286366D02*
X0156104Y0286366D01*
X0159516Y0286366D02*
X0161550Y0286366D01*
X0153650Y0282372D02*
X0122950Y0282372D01*
X0122950Y0283370D02*
X0137375Y0283370D01*
X0136550Y0284369D02*
X0122950Y0284369D01*
X0122950Y0285367D02*
X0136550Y0285367D01*
X0136550Y0286366D02*
X0122950Y0286366D01*
X0122950Y0287364D02*
X0136550Y0287364D01*
X0136550Y0288363D02*
X0122950Y0288363D01*
X0122950Y0289361D02*
X0136550Y0289361D01*
X0136550Y0290360D02*
X0122950Y0290360D01*
X0122950Y0291358D02*
X0136604Y0291358D01*
X0135146Y0299347D02*
X0196354Y0299347D01*
X0194951Y0300345D02*
X0136549Y0300345D01*
X0137739Y0301344D02*
X0193761Y0301344D01*
X0193018Y0302342D02*
X0138482Y0302342D01*
X0138062Y0301615D02*
X0138062Y0301615D01*
X0138062Y0301615D01*
X0139058Y0303341D02*
X0192442Y0303341D01*
X0191865Y0304339D02*
X0139635Y0304339D01*
X0139870Y0305338D02*
X0191630Y0305338D01*
X0191781Y0304485D02*
X0191781Y0304485D01*
X0191454Y0306336D02*
X0140046Y0306336D01*
X0140222Y0307335D02*
X0191278Y0307335D01*
X0191308Y0308333D02*
X0140192Y0308333D01*
X0140295Y0307750D02*
X0140295Y0307750D01*
X0140016Y0309332D02*
X0191484Y0309332D01*
X0191660Y0310330D02*
X0139840Y0310330D01*
X0139719Y0311015D02*
X0139719Y0311015D01*
X0139538Y0311329D02*
X0191962Y0311329D01*
X0191781Y0311015D02*
X0191781Y0311015D01*
X0192538Y0312327D02*
X0138962Y0312327D01*
X0138385Y0313326D02*
X0193115Y0313326D01*
X0193438Y0313885D02*
X0193438Y0313885D01*
X0193438Y0313885D01*
X0193961Y0314324D02*
X0137539Y0314324D01*
X0136349Y0315323D02*
X0195151Y0315323D01*
X0208482Y0302342D02*
X0208550Y0302342D01*
X0208062Y0301615D02*
X0208062Y0301615D01*
X0208062Y0301615D01*
X0207739Y0301344D02*
X0208550Y0301344D01*
X0208550Y0300345D02*
X0206549Y0300345D01*
X0205146Y0299347D02*
X0208550Y0299347D01*
X0214950Y0299347D02*
X0218354Y0299347D01*
X0217977Y0299484D02*
X0221093Y0298350D01*
X0224407Y0298350D01*
X0227522Y0299484D01*
X0227523Y0299484D01*
X0230062Y0301615D01*
X0231719Y0304485D01*
X0231719Y0304485D01*
X0232295Y0307750D01*
X0231719Y0311015D01*
X0230062Y0313885D01*
X0230062Y0313885D01*
X0228078Y0315550D01*
X0287422Y0315550D01*
X0285438Y0313885D01*
X0283781Y0311015D01*
X0283205Y0307750D01*
X0283205Y0307750D01*
X0283781Y0304485D01*
X0285438Y0301615D01*
X0285438Y0301615D01*
X0287977Y0299484D01*
X0287977Y0299484D01*
X0291093Y0298350D01*
X0294407Y0298350D01*
X0297522Y0299484D01*
X0297523Y0299484D01*
X0300062Y0301615D01*
X0300550Y0302460D01*
X0300550Y0224950D01*
X0282435Y0224950D01*
X0283150Y0226676D01*
X0283150Y0228824D01*
X0282328Y0230809D01*
X0280809Y0232328D01*
X0280031Y0232650D01*
X0289641Y0232650D01*
X0293067Y0236076D01*
X0293142Y0236076D01*
X0294403Y0237337D01*
X0294403Y0244090D01*
X0294836Y0244522D01*
X0295300Y0245643D01*
X0295300Y0246857D01*
X0294836Y0247978D01*
X0293978Y0248836D01*
X0292857Y0249300D01*
X0291643Y0249300D01*
X0290522Y0248836D01*
X0289664Y0247978D01*
X0289200Y0246857D01*
X0289200Y0245643D01*
X0289664Y0244522D01*
X0290097Y0244090D01*
X0290097Y0239046D01*
X0287901Y0236850D01*
X0276820Y0236850D01*
X0280670Y0240700D01*
X0281357Y0240700D01*
X0282478Y0241164D01*
X0283336Y0242022D01*
X0283800Y0243143D01*
X0283800Y0244357D01*
X0283336Y0245478D01*
X0282478Y0246336D01*
X0281357Y0246800D01*
X0280143Y0246800D01*
X0279506Y0246536D01*
X0279850Y0246880D01*
X0279850Y0247800D01*
X0280954Y0247800D01*
X0281950Y0248796D01*
X0281950Y0252704D01*
X0281904Y0252750D01*
X0281950Y0252796D01*
X0281950Y0256704D01*
X0280954Y0257700D01*
X0279800Y0257700D01*
X0279800Y0270099D01*
X0276300Y0273599D01*
X0276300Y0273947D01*
X0284700Y0265547D01*
X0284700Y0265143D01*
X0285164Y0264022D01*
X0286022Y0263164D01*
X0287143Y0262700D01*
X0288357Y0262700D01*
X0289478Y0263164D01*
X0290336Y0264022D01*
X0290800Y0265143D01*
X0290800Y0266357D01*
X0290336Y0267478D01*
X0289478Y0268336D01*
X0288357Y0268800D01*
X0287953Y0268800D01*
X0277703Y0279050D01*
X0249850Y0279050D01*
X0249850Y0284620D01*
X0248620Y0285850D01*
X0247220Y0287250D01*
X0248537Y0287250D01*
X0249022Y0286764D01*
X0250143Y0286300D01*
X0251357Y0286300D01*
X0252478Y0286764D01*
X0252963Y0287250D01*
X0253550Y0287250D01*
X0253550Y0284196D01*
X0254546Y0283200D01*
X0260954Y0283200D01*
X0261804Y0284050D01*
X0268287Y0284050D01*
X0268522Y0283814D01*
X0269643Y0283350D01*
X0270857Y0283350D01*
X0271978Y0283814D01*
X0272836Y0284672D01*
X0273300Y0285793D01*
X0273300Y0287007D01*
X0273199Y0287250D01*
X0278550Y0287250D01*
X0278550Y0284196D01*
X0279546Y0283200D01*
X0280092Y0283200D01*
X0279779Y0282443D01*
X0279779Y0281230D01*
X0280243Y0280109D01*
X0281101Y0279251D01*
X0282222Y0278787D01*
X0283435Y0278787D01*
X0284556Y0279251D01*
X0285414Y0280109D01*
X0285879Y0281230D01*
X0285879Y0282443D01*
X0285565Y0283200D01*
X0285954Y0283200D01*
X0286950Y0284196D01*
X0286950Y0291304D01*
X0285954Y0292300D01*
X0279546Y0292300D01*
X0278696Y0291450D01*
X0261804Y0291450D01*
X0260954Y0292300D01*
X0254546Y0292300D01*
X0253696Y0291450D01*
X0252963Y0291450D01*
X0252478Y0291936D01*
X0251357Y0292400D01*
X0250143Y0292400D01*
X0249022Y0291936D01*
X0248537Y0291450D01*
X0236804Y0291450D01*
X0235954Y0292300D01*
X0229546Y0292300D01*
X0228550Y0291304D01*
X0228550Y0284196D01*
X0229546Y0283200D01*
X0235954Y0283200D01*
X0236804Y0284050D01*
X0244480Y0284050D01*
X0245650Y0282880D01*
X0245650Y0279050D01*
X0245297Y0279050D01*
X0239047Y0272800D01*
X0238643Y0272800D01*
X0237522Y0272336D01*
X0236664Y0271478D01*
X0236200Y0270357D01*
X0236200Y0269143D01*
X0236664Y0268022D01*
X0237522Y0267164D01*
X0238643Y0266700D01*
X0239857Y0266700D01*
X0240978Y0267164D01*
X0241836Y0268022D01*
X0242300Y0269143D01*
X0242300Y0269547D01*
X0247200Y0274447D01*
X0247200Y0257522D01*
X0247522Y0257200D01*
X0267978Y0257200D01*
X0268300Y0257522D01*
X0268300Y0274450D01*
X0272200Y0274450D01*
X0272200Y0271901D01*
X0275700Y0268401D01*
X0275700Y0257700D01*
X0274546Y0257700D01*
X0273550Y0256704D01*
X0273550Y0252796D01*
X0273596Y0252750D01*
X0273550Y0252704D01*
X0273550Y0248796D01*
X0273574Y0248771D01*
X0272522Y0248336D01*
X0271664Y0247478D01*
X0271200Y0246357D01*
X0271200Y0245143D01*
X0271664Y0244022D01*
X0272522Y0243164D01*
X0273643Y0242700D01*
X0274857Y0242700D01*
X0275978Y0243164D01*
X0276463Y0243650D01*
X0276620Y0243650D01*
X0277850Y0244880D01*
X0277964Y0244994D01*
X0277700Y0244357D01*
X0277700Y0243670D01*
X0274864Y0240834D01*
X0265129Y0240834D01*
X0264643Y0241320D01*
X0263522Y0241784D01*
X0262309Y0241784D01*
X0261188Y0241320D01*
X0260330Y0240462D01*
X0259865Y0239341D01*
X0259865Y0238128D01*
X0260330Y0237007D01*
X0260486Y0236850D01*
X0245471Y0236850D01*
X0245800Y0237643D01*
X0245800Y0238857D01*
X0245336Y0239978D01*
X0244478Y0240836D01*
X0243357Y0241300D01*
X0242850Y0241300D01*
X0242850Y0247537D01*
X0243336Y0248022D01*
X0243800Y0249143D01*
X0243800Y0250357D01*
X0243336Y0251478D01*
X0242478Y0252336D01*
X0241357Y0252800D01*
X0240143Y0252800D01*
X0239022Y0252336D01*
X0238164Y0251478D01*
X0237700Y0250357D01*
X0237700Y0249143D01*
X0238164Y0248022D01*
X0238650Y0247537D01*
X0238650Y0239714D01*
X0234850Y0243514D01*
X0234850Y0250537D01*
X0235336Y0251022D01*
X0235800Y0252143D01*
X0235800Y0253357D01*
X0235336Y0254478D01*
X0234478Y0255336D01*
X0233357Y0255800D01*
X0232143Y0255800D01*
X0231022Y0255336D01*
X0230164Y0254478D01*
X0229700Y0253357D01*
X0229700Y0252143D01*
X0230164Y0251022D01*
X0230650Y0250537D01*
X0230650Y0241774D01*
X0239774Y0232650D01*
X0245469Y0232650D01*
X0244691Y0232328D01*
X0243172Y0230809D01*
X0242641Y0229526D01*
X0242569Y0229746D01*
X0242197Y0230475D01*
X0241716Y0231138D01*
X0241138Y0231716D01*
X0240475Y0232197D01*
X0239746Y0232569D01*
X0238968Y0232822D01*
X0238250Y0232936D01*
X0238250Y0228250D01*
X0237250Y0228250D01*
X0237250Y0232936D01*
X0236532Y0232822D01*
X0235754Y0232569D01*
X0235025Y0232197D01*
X0234362Y0231716D01*
X0233784Y0231138D01*
X0233303Y0230475D01*
X0232931Y0229746D01*
X0232678Y0228968D01*
X0232564Y0228250D01*
X0237250Y0228250D01*
X0237250Y0227250D01*
X0232564Y0227250D01*
X0232678Y0226532D01*
X0232931Y0225754D01*
X0233303Y0225025D01*
X0233357Y0224950D01*
X0214950Y0224950D01*
X0214950Y0302460D01*
X0215438Y0301615D01*
X0215438Y0301615D01*
X0217977Y0299484D01*
X0217977Y0299484D01*
X0216951Y0300345D02*
X0214950Y0300345D01*
X0214950Y0301344D02*
X0215761Y0301344D01*
X0215018Y0302342D02*
X0214950Y0302342D01*
X0214950Y0298348D02*
X0300550Y0298348D01*
X0300550Y0297350D02*
X0214950Y0297350D01*
X0214950Y0296351D02*
X0300550Y0296351D01*
X0300550Y0295353D02*
X0214950Y0295353D01*
X0214950Y0294354D02*
X0300550Y0294354D01*
X0300550Y0293355D02*
X0214950Y0293355D01*
X0214950Y0292357D02*
X0250040Y0292357D01*
X0251460Y0292357D02*
X0300550Y0292357D01*
X0300550Y0291358D02*
X0286896Y0291358D01*
X0286950Y0290360D02*
X0300550Y0290360D01*
X0300550Y0289361D02*
X0286950Y0289361D01*
X0286950Y0288363D02*
X0300550Y0288363D01*
X0300550Y0287364D02*
X0286950Y0287364D01*
X0286950Y0286366D02*
X0300550Y0286366D01*
X0300550Y0285367D02*
X0286950Y0285367D01*
X0286950Y0284369D02*
X0300550Y0284369D01*
X0300550Y0283370D02*
X0286125Y0283370D01*
X0285879Y0282372D02*
X0300550Y0282372D01*
X0300550Y0281373D02*
X0285879Y0281373D01*
X0285525Y0280375D02*
X0300550Y0280375D01*
X0300550Y0279376D02*
X0284682Y0279376D01*
X0280976Y0279376D02*
X0249850Y0279376D01*
X0249850Y0280375D02*
X0280133Y0280375D01*
X0279779Y0281373D02*
X0249850Y0281373D01*
X0249850Y0282372D02*
X0279779Y0282372D01*
X0279375Y0283370D02*
X0270906Y0283370D01*
X0269594Y0283370D02*
X0261125Y0283370D01*
X0254375Y0283370D02*
X0249850Y0283370D01*
X0249850Y0284369D02*
X0253550Y0284369D01*
X0253550Y0285367D02*
X0249102Y0285367D01*
X0249984Y0286366D02*
X0248104Y0286366D01*
X0251516Y0286366D02*
X0253550Y0286366D01*
X0245650Y0282372D02*
X0214950Y0282372D01*
X0214950Y0283370D02*
X0229375Y0283370D01*
X0228550Y0284369D02*
X0214950Y0284369D01*
X0214950Y0285367D02*
X0228550Y0285367D01*
X0228550Y0286366D02*
X0214950Y0286366D01*
X0214950Y0287364D02*
X0228550Y0287364D01*
X0228550Y0288363D02*
X0214950Y0288363D01*
X0214950Y0289361D02*
X0228550Y0289361D01*
X0228550Y0290360D02*
X0214950Y0290360D01*
X0214950Y0291358D02*
X0228604Y0291358D01*
X0227146Y0299347D02*
X0288354Y0299347D01*
X0286951Y0300345D02*
X0228549Y0300345D01*
X0229739Y0301344D02*
X0285761Y0301344D01*
X0285018Y0302342D02*
X0230482Y0302342D01*
X0230062Y0301615D02*
X0230062Y0301615D01*
X0230062Y0301615D01*
X0231058Y0303341D02*
X0284442Y0303341D01*
X0283865Y0304339D02*
X0231635Y0304339D01*
X0231870Y0305338D02*
X0283630Y0305338D01*
X0283781Y0304485D02*
X0283781Y0304485D01*
X0283454Y0306336D02*
X0232046Y0306336D01*
X0232222Y0307335D02*
X0283278Y0307335D01*
X0283308Y0308333D02*
X0232192Y0308333D01*
X0232295Y0307750D02*
X0232295Y0307750D01*
X0232016Y0309332D02*
X0283484Y0309332D01*
X0283660Y0310330D02*
X0231840Y0310330D01*
X0231719Y0311015D02*
X0231719Y0311015D01*
X0231538Y0311329D02*
X0283962Y0311329D01*
X0283781Y0311015D02*
X0283781Y0311015D01*
X0284538Y0312327D02*
X0230962Y0312327D01*
X0230385Y0313326D02*
X0285115Y0313326D01*
X0285438Y0313885D02*
X0285438Y0313885D01*
X0285438Y0313885D01*
X0285961Y0314324D02*
X0229539Y0314324D01*
X0228349Y0315323D02*
X0287151Y0315323D01*
X0299739Y0301344D02*
X0300550Y0301344D01*
X0300062Y0301615D02*
X0300062Y0301615D01*
X0300062Y0301615D01*
X0300482Y0302342D02*
X0300550Y0302342D01*
X0300550Y0300345D02*
X0298549Y0300345D01*
X0297146Y0299347D02*
X0300550Y0299347D01*
X0300550Y0278378D02*
X0278375Y0278378D01*
X0279373Y0277379D02*
X0300550Y0277379D01*
X0300550Y0276381D02*
X0280372Y0276381D01*
X0281370Y0275382D02*
X0300550Y0275382D01*
X0300550Y0274384D02*
X0282369Y0274384D01*
X0283367Y0273385D02*
X0300550Y0273385D01*
X0300550Y0272387D02*
X0284366Y0272387D01*
X0285364Y0271388D02*
X0300550Y0271388D01*
X0300550Y0270390D02*
X0286363Y0270390D01*
X0287361Y0269391D02*
X0300550Y0269391D01*
X0300550Y0268393D02*
X0289340Y0268393D01*
X0290370Y0267394D02*
X0300550Y0267394D01*
X0300550Y0266396D02*
X0290784Y0266396D01*
X0290800Y0265397D02*
X0300550Y0265397D01*
X0300550Y0264399D02*
X0290492Y0264399D01*
X0289714Y0263400D02*
X0300550Y0263400D01*
X0300550Y0262402D02*
X0279800Y0262402D01*
X0279800Y0263400D02*
X0285786Y0263400D01*
X0285008Y0264399D02*
X0279800Y0264399D01*
X0279800Y0265397D02*
X0284700Y0265397D01*
X0283852Y0266396D02*
X0279800Y0266396D01*
X0279800Y0267394D02*
X0282853Y0267394D01*
X0281855Y0268393D02*
X0279800Y0268393D01*
X0279800Y0269391D02*
X0280856Y0269391D01*
X0279858Y0270390D02*
X0279509Y0270390D01*
X0278859Y0271388D02*
X0278511Y0271388D01*
X0277861Y0272387D02*
X0277512Y0272387D01*
X0276862Y0273385D02*
X0276514Y0273385D01*
X0273711Y0270390D02*
X0268300Y0270390D01*
X0268300Y0271388D02*
X0272713Y0271388D01*
X0272200Y0272387D02*
X0268300Y0272387D01*
X0268300Y0273385D02*
X0272200Y0273385D01*
X0272200Y0274384D02*
X0268300Y0274384D01*
X0268300Y0269391D02*
X0274710Y0269391D01*
X0275700Y0268393D02*
X0268300Y0268393D01*
X0268300Y0267394D02*
X0275700Y0267394D01*
X0275700Y0266396D02*
X0268300Y0266396D01*
X0268300Y0265397D02*
X0275700Y0265397D01*
X0275700Y0264399D02*
X0268300Y0264399D01*
X0268300Y0263400D02*
X0275700Y0263400D01*
X0275700Y0262402D02*
X0268300Y0262402D01*
X0268300Y0261403D02*
X0275700Y0261403D01*
X0275700Y0260405D02*
X0268300Y0260405D01*
X0268300Y0259406D02*
X0275700Y0259406D01*
X0275700Y0258408D02*
X0268300Y0258408D01*
X0268187Y0257409D02*
X0274255Y0257409D01*
X0273550Y0256411D02*
X0214950Y0256411D01*
X0214950Y0257409D02*
X0247313Y0257409D01*
X0247200Y0258408D02*
X0214950Y0258408D01*
X0214950Y0259406D02*
X0247200Y0259406D01*
X0247200Y0260405D02*
X0214950Y0260405D01*
X0214950Y0261403D02*
X0247200Y0261403D01*
X0247200Y0262402D02*
X0214950Y0262402D01*
X0214950Y0263400D02*
X0247200Y0263400D01*
X0247200Y0264399D02*
X0214950Y0264399D01*
X0214950Y0265397D02*
X0247200Y0265397D01*
X0247200Y0266396D02*
X0214950Y0266396D01*
X0214950Y0267394D02*
X0237292Y0267394D01*
X0236511Y0268393D02*
X0214950Y0268393D01*
X0214950Y0269391D02*
X0236200Y0269391D01*
X0236214Y0270390D02*
X0214950Y0270390D01*
X0214950Y0271388D02*
X0236627Y0271388D01*
X0237646Y0272387D02*
X0214950Y0272387D01*
X0214950Y0273385D02*
X0239633Y0273385D01*
X0240631Y0274384D02*
X0214950Y0274384D01*
X0214950Y0275382D02*
X0241630Y0275382D01*
X0242628Y0276381D02*
X0214950Y0276381D01*
X0214950Y0277379D02*
X0243627Y0277379D01*
X0244625Y0278378D02*
X0214950Y0278378D01*
X0214950Y0279376D02*
X0245650Y0279376D01*
X0245650Y0280375D02*
X0214950Y0280375D01*
X0214950Y0281373D02*
X0245650Y0281373D01*
X0245160Y0283370D02*
X0236125Y0283370D01*
X0247136Y0274384D02*
X0247200Y0274384D01*
X0247200Y0273385D02*
X0246138Y0273385D01*
X0245139Y0272387D02*
X0247200Y0272387D01*
X0247200Y0271388D02*
X0244141Y0271388D01*
X0243142Y0270390D02*
X0247200Y0270390D01*
X0247200Y0269391D02*
X0242300Y0269391D01*
X0241989Y0268393D02*
X0247200Y0268393D01*
X0247200Y0267394D02*
X0241208Y0267394D01*
X0234293Y0255412D02*
X0273550Y0255412D01*
X0273550Y0254414D02*
X0235362Y0254414D01*
X0235776Y0253415D02*
X0273550Y0253415D01*
X0273550Y0252417D02*
X0242282Y0252417D01*
X0243360Y0251418D02*
X0273550Y0251418D01*
X0273550Y0250420D02*
X0243774Y0250420D01*
X0243800Y0249421D02*
X0273550Y0249421D01*
X0272732Y0248422D02*
X0243501Y0248422D01*
X0242850Y0247424D02*
X0271642Y0247424D01*
X0271228Y0246425D02*
X0242850Y0246425D01*
X0242850Y0245427D02*
X0271200Y0245427D01*
X0271496Y0244428D02*
X0242850Y0244428D01*
X0242850Y0243430D02*
X0272257Y0243430D01*
X0275463Y0241433D02*
X0264370Y0241433D01*
X0261461Y0241433D02*
X0242850Y0241433D01*
X0242850Y0242431D02*
X0276462Y0242431D01*
X0276243Y0243430D02*
X0277460Y0243430D01*
X0277398Y0244428D02*
X0277730Y0244428D01*
X0279850Y0247424D02*
X0289435Y0247424D01*
X0289200Y0246425D02*
X0282261Y0246425D01*
X0283357Y0245427D02*
X0289290Y0245427D01*
X0289758Y0244428D02*
X0283770Y0244428D01*
X0283800Y0243430D02*
X0290097Y0243430D01*
X0290097Y0242431D02*
X0283505Y0242431D01*
X0282746Y0241433D02*
X0290097Y0241433D01*
X0290097Y0240434D02*
X0280404Y0240434D01*
X0279406Y0239436D02*
X0290097Y0239436D01*
X0289488Y0238437D02*
X0278407Y0238437D01*
X0277409Y0237439D02*
X0288490Y0237439D01*
X0291434Y0234443D02*
X0300550Y0234443D01*
X0300550Y0233445D02*
X0290436Y0233445D01*
X0292433Y0235442D02*
X0300550Y0235442D01*
X0300550Y0236440D02*
X0293506Y0236440D01*
X0294403Y0237439D02*
X0300550Y0237439D01*
X0300550Y0238437D02*
X0294403Y0238437D01*
X0294403Y0239436D02*
X0300550Y0239436D01*
X0300550Y0240434D02*
X0294403Y0240434D01*
X0294403Y0241433D02*
X0300550Y0241433D01*
X0300550Y0242431D02*
X0294403Y0242431D01*
X0294403Y0243430D02*
X0300550Y0243430D01*
X0300550Y0244428D02*
X0294742Y0244428D01*
X0295210Y0245427D02*
X0300550Y0245427D01*
X0300550Y0246425D02*
X0295300Y0246425D01*
X0295065Y0247424D02*
X0300550Y0247424D01*
X0300550Y0248422D02*
X0294391Y0248422D01*
X0290109Y0248422D02*
X0281577Y0248422D01*
X0281950Y0249421D02*
X0300550Y0249421D01*
X0300550Y0250420D02*
X0281950Y0250420D01*
X0281950Y0251418D02*
X0300550Y0251418D01*
X0300550Y0252417D02*
X0281950Y0252417D01*
X0281950Y0253415D02*
X0300550Y0253415D01*
X0300550Y0254414D02*
X0281950Y0254414D01*
X0281950Y0255412D02*
X0300550Y0255412D01*
X0300550Y0256411D02*
X0281950Y0256411D01*
X0281245Y0257409D02*
X0300550Y0257409D01*
X0300550Y0258408D02*
X0279800Y0258408D01*
X0279800Y0259406D02*
X0300550Y0259406D01*
X0300550Y0260405D02*
X0279800Y0260405D01*
X0279800Y0261403D02*
X0300550Y0261403D01*
X0277750Y0254250D02*
X0277750Y0251250D01*
X0260318Y0240434D02*
X0244879Y0240434D01*
X0245560Y0239436D02*
X0259905Y0239436D01*
X0259865Y0238437D02*
X0245800Y0238437D01*
X0245715Y0237439D02*
X0260151Y0237439D01*
X0244977Y0232446D02*
X0239987Y0232446D01*
X0238979Y0233445D02*
X0214950Y0233445D01*
X0214950Y0234443D02*
X0237981Y0234443D01*
X0236982Y0235442D02*
X0214950Y0235442D01*
X0214950Y0236440D02*
X0235984Y0236440D01*
X0234985Y0237439D02*
X0214950Y0237439D01*
X0214950Y0238437D02*
X0233987Y0238437D01*
X0232988Y0239436D02*
X0214950Y0239436D01*
X0214950Y0240434D02*
X0231989Y0240434D01*
X0230991Y0241433D02*
X0214950Y0241433D01*
X0214950Y0242431D02*
X0230650Y0242431D01*
X0230650Y0243430D02*
X0214950Y0243430D01*
X0214950Y0244428D02*
X0230650Y0244428D01*
X0230650Y0245427D02*
X0214950Y0245427D01*
X0214950Y0246425D02*
X0230650Y0246425D01*
X0230650Y0247424D02*
X0214950Y0247424D01*
X0214950Y0248422D02*
X0230650Y0248422D01*
X0230650Y0249421D02*
X0214950Y0249421D01*
X0214950Y0250420D02*
X0230650Y0250420D01*
X0230000Y0251418D02*
X0214950Y0251418D01*
X0214950Y0252417D02*
X0229700Y0252417D01*
X0229724Y0253415D02*
X0214950Y0253415D01*
X0214950Y0254414D02*
X0230138Y0254414D01*
X0231207Y0255412D02*
X0214950Y0255412D01*
X0208550Y0255412D02*
X0189950Y0255412D01*
X0189950Y0254414D02*
X0208550Y0254414D01*
X0208550Y0253415D02*
X0189950Y0253415D01*
X0189950Y0252417D02*
X0208550Y0252417D01*
X0208550Y0251418D02*
X0189950Y0251418D01*
X0189950Y0250420D02*
X0208550Y0250420D01*
X0208550Y0249421D02*
X0189950Y0249421D01*
X0189577Y0248422D02*
X0198109Y0248422D01*
X0197435Y0247424D02*
X0187850Y0247424D01*
X0190261Y0246425D02*
X0197200Y0246425D01*
X0197290Y0245427D02*
X0191357Y0245427D01*
X0191770Y0244428D02*
X0197758Y0244428D01*
X0198097Y0243430D02*
X0191800Y0243430D01*
X0191505Y0242431D02*
X0198097Y0242431D01*
X0198097Y0241433D02*
X0190746Y0241433D01*
X0188404Y0240434D02*
X0198097Y0240434D01*
X0198097Y0239436D02*
X0187406Y0239436D01*
X0186407Y0238437D02*
X0197488Y0238437D01*
X0196490Y0237439D02*
X0185409Y0237439D01*
X0183463Y0241433D02*
X0172370Y0241433D01*
X0169461Y0241433D02*
X0150850Y0241433D01*
X0150850Y0242431D02*
X0184462Y0242431D01*
X0184243Y0243430D02*
X0185460Y0243430D01*
X0185398Y0244428D02*
X0185730Y0244428D01*
X0180257Y0243430D02*
X0150850Y0243430D01*
X0150850Y0244428D02*
X0179496Y0244428D01*
X0179200Y0245427D02*
X0150850Y0245427D01*
X0150850Y0246425D02*
X0179228Y0246425D01*
X0179642Y0247424D02*
X0150850Y0247424D01*
X0151501Y0248422D02*
X0180732Y0248422D01*
X0181550Y0249421D02*
X0151800Y0249421D01*
X0151774Y0250420D02*
X0181550Y0250420D01*
X0181550Y0251418D02*
X0151360Y0251418D01*
X0150282Y0252417D02*
X0181550Y0252417D01*
X0181550Y0253415D02*
X0143776Y0253415D01*
X0143800Y0252417D02*
X0147218Y0252417D01*
X0146140Y0251418D02*
X0143500Y0251418D01*
X0142850Y0250420D02*
X0145726Y0250420D01*
X0145700Y0249421D02*
X0142850Y0249421D01*
X0142850Y0248422D02*
X0145999Y0248422D01*
X0146650Y0247424D02*
X0142850Y0247424D01*
X0142850Y0246425D02*
X0146650Y0246425D01*
X0146650Y0245427D02*
X0142850Y0245427D01*
X0142850Y0244428D02*
X0146650Y0244428D01*
X0146650Y0243430D02*
X0142934Y0243430D01*
X0143932Y0242431D02*
X0146650Y0242431D01*
X0146650Y0241433D02*
X0144931Y0241433D01*
X0145929Y0240434D02*
X0146650Y0240434D01*
X0142985Y0237439D02*
X0122950Y0237439D01*
X0122950Y0238437D02*
X0141987Y0238437D01*
X0140988Y0239436D02*
X0122950Y0239436D01*
X0122950Y0240434D02*
X0139989Y0240434D01*
X0138991Y0241433D02*
X0122950Y0241433D01*
X0122950Y0242431D02*
X0138650Y0242431D01*
X0138650Y0243430D02*
X0122950Y0243430D01*
X0122950Y0244428D02*
X0138650Y0244428D01*
X0138650Y0245427D02*
X0122950Y0245427D01*
X0122950Y0246425D02*
X0138650Y0246425D01*
X0138650Y0247424D02*
X0122950Y0247424D01*
X0122950Y0248422D02*
X0138650Y0248422D01*
X0138650Y0249421D02*
X0122950Y0249421D01*
X0122950Y0250420D02*
X0138650Y0250420D01*
X0138000Y0251418D02*
X0122950Y0251418D01*
X0122950Y0252417D02*
X0137700Y0252417D01*
X0137724Y0253415D02*
X0122950Y0253415D01*
X0122950Y0254414D02*
X0138138Y0254414D01*
X0139207Y0255412D02*
X0122950Y0255412D01*
X0122950Y0256411D02*
X0181550Y0256411D01*
X0181550Y0255412D02*
X0142293Y0255412D01*
X0143362Y0254414D02*
X0181550Y0254414D01*
X0182255Y0257409D02*
X0176187Y0257409D01*
X0176300Y0258408D02*
X0183700Y0258408D01*
X0183700Y0259406D02*
X0176300Y0259406D01*
X0176300Y0260405D02*
X0183700Y0260405D01*
X0183700Y0261403D02*
X0176300Y0261403D01*
X0176300Y0262402D02*
X0183700Y0262402D01*
X0183700Y0263400D02*
X0176300Y0263400D01*
X0176300Y0264399D02*
X0183700Y0264399D01*
X0183700Y0265397D02*
X0176300Y0265397D01*
X0176300Y0266396D02*
X0183700Y0266396D01*
X0183700Y0267394D02*
X0176300Y0267394D01*
X0176300Y0268393D02*
X0183700Y0268393D01*
X0182710Y0269391D02*
X0176300Y0269391D01*
X0176300Y0270390D02*
X0181711Y0270390D01*
X0180713Y0271388D02*
X0176300Y0271388D01*
X0176300Y0272387D02*
X0180200Y0272387D01*
X0180200Y0273385D02*
X0176300Y0273385D01*
X0176300Y0274384D02*
X0180200Y0274384D01*
X0184514Y0273385D02*
X0184862Y0273385D01*
X0185512Y0272387D02*
X0185861Y0272387D01*
X0186511Y0271388D02*
X0186859Y0271388D01*
X0187509Y0270390D02*
X0187858Y0270390D01*
X0187800Y0269391D02*
X0188856Y0269391D01*
X0189855Y0268393D02*
X0187800Y0268393D01*
X0187800Y0267394D02*
X0190853Y0267394D01*
X0191852Y0266396D02*
X0187800Y0266396D01*
X0187800Y0265397D02*
X0192700Y0265397D01*
X0193008Y0264399D02*
X0187800Y0264399D01*
X0187800Y0263400D02*
X0193786Y0263400D01*
X0197714Y0263400D02*
X0208550Y0263400D01*
X0208550Y0262402D02*
X0187800Y0262402D01*
X0187800Y0261403D02*
X0208550Y0261403D01*
X0208550Y0260405D02*
X0187800Y0260405D01*
X0187800Y0259406D02*
X0208550Y0259406D01*
X0208550Y0258408D02*
X0187800Y0258408D01*
X0189245Y0257409D02*
X0208550Y0257409D01*
X0208550Y0256411D02*
X0189950Y0256411D01*
X0185750Y0254250D02*
X0185750Y0251250D01*
X0198492Y0264399D02*
X0208550Y0264399D01*
X0208550Y0265397D02*
X0198800Y0265397D01*
X0198784Y0266396D02*
X0208550Y0266396D01*
X0208550Y0267394D02*
X0198370Y0267394D01*
X0197340Y0268393D02*
X0208550Y0268393D01*
X0208550Y0269391D02*
X0195361Y0269391D01*
X0194363Y0270390D02*
X0208550Y0270390D01*
X0208550Y0271388D02*
X0193364Y0271388D01*
X0192366Y0272387D02*
X0208550Y0272387D01*
X0208550Y0273385D02*
X0191367Y0273385D01*
X0190369Y0274384D02*
X0208550Y0274384D01*
X0208550Y0275382D02*
X0189370Y0275382D01*
X0188372Y0276381D02*
X0208550Y0276381D01*
X0208550Y0277379D02*
X0187373Y0277379D01*
X0186375Y0278378D02*
X0208550Y0278378D01*
X0186550Y0284369D02*
X0180532Y0284369D01*
X0181124Y0285367D02*
X0186550Y0285367D01*
X0186550Y0286366D02*
X0181300Y0286366D01*
X0155200Y0274384D02*
X0155136Y0274384D01*
X0155200Y0273385D02*
X0154138Y0273385D01*
X0153139Y0272387D02*
X0155200Y0272387D01*
X0155200Y0271388D02*
X0152141Y0271388D01*
X0151142Y0270390D02*
X0155200Y0270390D01*
X0155200Y0269391D02*
X0150300Y0269391D01*
X0149989Y0268393D02*
X0155200Y0268393D01*
X0155200Y0267394D02*
X0149208Y0267394D01*
X0145292Y0267394D02*
X0122950Y0267394D01*
X0122950Y0266396D02*
X0155200Y0266396D01*
X0155200Y0265397D02*
X0122950Y0265397D01*
X0122950Y0264399D02*
X0155200Y0264399D01*
X0155200Y0263400D02*
X0122950Y0263400D01*
X0122950Y0262402D02*
X0155200Y0262402D01*
X0155200Y0261403D02*
X0122950Y0261403D01*
X0122950Y0260405D02*
X0155200Y0260405D01*
X0155200Y0259406D02*
X0122950Y0259406D01*
X0122950Y0258408D02*
X0155200Y0258408D01*
X0155313Y0257409D02*
X0122950Y0257409D01*
X0116550Y0257409D02*
X0097245Y0257409D01*
X0097950Y0256411D02*
X0116550Y0256411D01*
X0116550Y0255412D02*
X0097950Y0255412D01*
X0097950Y0254414D02*
X0116550Y0254414D01*
X0116550Y0253415D02*
X0097950Y0253415D01*
X0097950Y0252417D02*
X0116550Y0252417D01*
X0116550Y0251418D02*
X0097950Y0251418D01*
X0097950Y0250420D02*
X0116550Y0250420D01*
X0116550Y0249421D02*
X0097950Y0249421D01*
X0097577Y0248422D02*
X0106109Y0248422D01*
X0105435Y0247424D02*
X0095850Y0247424D01*
X0098261Y0246425D02*
X0105200Y0246425D01*
X0105290Y0245427D02*
X0099357Y0245427D01*
X0099770Y0244428D02*
X0105758Y0244428D01*
X0106097Y0243430D02*
X0099800Y0243430D01*
X0099505Y0242431D02*
X0106097Y0242431D01*
X0106097Y0241433D02*
X0098746Y0241433D01*
X0096404Y0240434D02*
X0106097Y0240434D01*
X0106097Y0239436D02*
X0095406Y0239436D01*
X0094407Y0238437D02*
X0105488Y0238437D01*
X0104490Y0237439D02*
X0093409Y0237439D01*
X0096523Y0232446D02*
X0116550Y0232446D01*
X0116550Y0231448D02*
X0097689Y0231448D01*
X0098477Y0230449D02*
X0116550Y0230449D01*
X0116550Y0229451D02*
X0098890Y0229451D01*
X0099150Y0228452D02*
X0116550Y0228452D01*
X0116550Y0227454D02*
X0099150Y0227454D01*
X0099059Y0226455D02*
X0116550Y0226455D01*
X0116550Y0225457D02*
X0098645Y0225457D01*
X0106436Y0233445D02*
X0116550Y0233445D01*
X0116550Y0234443D02*
X0107434Y0234443D01*
X0108433Y0235442D02*
X0116550Y0235442D01*
X0116550Y0236440D02*
X0109506Y0236440D01*
X0110403Y0237439D02*
X0116550Y0237439D01*
X0116550Y0238437D02*
X0110403Y0238437D01*
X0110403Y0239436D02*
X0116550Y0239436D01*
X0116550Y0240434D02*
X0110403Y0240434D01*
X0110403Y0241433D02*
X0116550Y0241433D01*
X0116550Y0242431D02*
X0110403Y0242431D01*
X0110403Y0243430D02*
X0116550Y0243430D01*
X0116550Y0244428D02*
X0110742Y0244428D01*
X0111210Y0245427D02*
X0116550Y0245427D01*
X0116550Y0246425D02*
X0111300Y0246425D01*
X0111065Y0247424D02*
X0116550Y0247424D01*
X0116550Y0248422D02*
X0110391Y0248422D01*
X0116550Y0258408D02*
X0095800Y0258408D01*
X0095800Y0259406D02*
X0116550Y0259406D01*
X0116550Y0260405D02*
X0095800Y0260405D01*
X0095800Y0261403D02*
X0116550Y0261403D01*
X0116550Y0262402D02*
X0095800Y0262402D01*
X0095800Y0263400D02*
X0101786Y0263400D01*
X0101008Y0264399D02*
X0095800Y0264399D01*
X0095800Y0265397D02*
X0100700Y0265397D01*
X0099852Y0266396D02*
X0095800Y0266396D01*
X0095800Y0267394D02*
X0098853Y0267394D01*
X0097855Y0268393D02*
X0095800Y0268393D01*
X0095800Y0269391D02*
X0096856Y0269391D01*
X0095858Y0270390D02*
X0095509Y0270390D01*
X0094859Y0271388D02*
X0094511Y0271388D01*
X0093861Y0272387D02*
X0093512Y0272387D01*
X0092862Y0273385D02*
X0092514Y0273385D01*
X0089711Y0270390D02*
X0084300Y0270390D01*
X0084300Y0271388D02*
X0088713Y0271388D01*
X0088200Y0272387D02*
X0084300Y0272387D01*
X0084300Y0273385D02*
X0088200Y0273385D01*
X0088200Y0274384D02*
X0084300Y0274384D01*
X0084300Y0269391D02*
X0090710Y0269391D01*
X0091700Y0268393D02*
X0084300Y0268393D01*
X0084300Y0267394D02*
X0091700Y0267394D01*
X0091700Y0266396D02*
X0084300Y0266396D01*
X0084300Y0265397D02*
X0091700Y0265397D01*
X0091700Y0264399D02*
X0084300Y0264399D01*
X0084300Y0263400D02*
X0091700Y0263400D01*
X0091700Y0262402D02*
X0084300Y0262402D01*
X0084300Y0261403D02*
X0091700Y0261403D01*
X0091700Y0260405D02*
X0084300Y0260405D01*
X0084300Y0259406D02*
X0091700Y0259406D01*
X0091700Y0258408D02*
X0084300Y0258408D01*
X0084187Y0257409D02*
X0090255Y0257409D01*
X0093750Y0254250D02*
X0093750Y0251250D01*
X0093730Y0244428D02*
X0093398Y0244428D01*
X0093460Y0243430D02*
X0092243Y0243430D01*
X0105714Y0263400D02*
X0116550Y0263400D01*
X0116550Y0264399D02*
X0106492Y0264399D01*
X0106800Y0265397D02*
X0116550Y0265397D01*
X0116550Y0266396D02*
X0106784Y0266396D01*
X0106370Y0267394D02*
X0116550Y0267394D01*
X0116550Y0268393D02*
X0105340Y0268393D01*
X0103361Y0269391D02*
X0116550Y0269391D01*
X0116550Y0270390D02*
X0102363Y0270390D01*
X0101364Y0271388D02*
X0116550Y0271388D01*
X0116550Y0272387D02*
X0100366Y0272387D01*
X0099367Y0273385D02*
X0116550Y0273385D01*
X0116550Y0274384D02*
X0098369Y0274384D01*
X0097370Y0275382D02*
X0116550Y0275382D01*
X0116550Y0276381D02*
X0096372Y0276381D01*
X0095373Y0277379D02*
X0116550Y0277379D01*
X0116550Y0278378D02*
X0094375Y0278378D01*
X0096133Y0280375D02*
X0065850Y0280375D01*
X0065850Y0281373D02*
X0095779Y0281373D01*
X0095779Y0282372D02*
X0065850Y0282372D01*
X0065850Y0283370D02*
X0070375Y0283370D01*
X0069550Y0284369D02*
X0065850Y0284369D01*
X0065102Y0285367D02*
X0069550Y0285367D01*
X0069550Y0286366D02*
X0067516Y0286366D01*
X0065984Y0286366D02*
X0064104Y0286366D01*
X0065850Y0279376D02*
X0096976Y0279376D01*
X0100682Y0279376D02*
X0116550Y0279376D01*
X0116550Y0280375D02*
X0101525Y0280375D01*
X0101879Y0281373D02*
X0116550Y0281373D01*
X0116550Y0282372D02*
X0101879Y0282372D01*
X0102125Y0283370D02*
X0116550Y0283370D01*
X0116550Y0284369D02*
X0102950Y0284369D01*
X0102950Y0285367D02*
X0116550Y0285367D01*
X0116550Y0286366D02*
X0102950Y0286366D01*
X0102950Y0287364D02*
X0116550Y0287364D01*
X0116550Y0288363D02*
X0102950Y0288363D01*
X0102950Y0289361D02*
X0116550Y0289361D01*
X0116550Y0290360D02*
X0102950Y0290360D01*
X0102896Y0291358D02*
X0116550Y0291358D01*
X0122950Y0281373D02*
X0153650Y0281373D01*
X0153650Y0280375D02*
X0122950Y0280375D01*
X0122950Y0279376D02*
X0153650Y0279376D01*
X0152625Y0278378D02*
X0122950Y0278378D01*
X0122950Y0277379D02*
X0151627Y0277379D01*
X0150628Y0276381D02*
X0122950Y0276381D01*
X0122950Y0275382D02*
X0149630Y0275382D01*
X0148631Y0274384D02*
X0122950Y0274384D01*
X0122950Y0273385D02*
X0147633Y0273385D01*
X0145646Y0272387D02*
X0122950Y0272387D01*
X0122950Y0271388D02*
X0144627Y0271388D01*
X0144214Y0270390D02*
X0122950Y0270390D01*
X0122950Y0269391D02*
X0144200Y0269391D01*
X0144511Y0268393D02*
X0122950Y0268393D01*
X0144125Y0283370D02*
X0153160Y0283370D01*
X0152879Y0240434D02*
X0168318Y0240434D01*
X0167905Y0239436D02*
X0153560Y0239436D01*
X0153800Y0238437D02*
X0167865Y0238437D01*
X0168151Y0237439D02*
X0153715Y0237439D01*
X0152977Y0232446D02*
X0147987Y0232446D01*
X0146979Y0233445D02*
X0122950Y0233445D01*
X0122950Y0234443D02*
X0145981Y0234443D01*
X0144982Y0235442D02*
X0122950Y0235442D01*
X0122950Y0236440D02*
X0143984Y0236440D01*
X0143513Y0232446D02*
X0122950Y0232446D01*
X0122950Y0231448D02*
X0142094Y0231448D01*
X0141289Y0230449D02*
X0122950Y0230449D01*
X0122950Y0229451D02*
X0140835Y0229451D01*
X0140596Y0228452D02*
X0122950Y0228452D01*
X0122950Y0227454D02*
X0145250Y0227454D01*
X0145250Y0228452D02*
X0146250Y0228452D01*
X0146250Y0229451D02*
X0145250Y0229451D01*
X0145250Y0230449D02*
X0146250Y0230449D01*
X0146250Y0231448D02*
X0145250Y0231448D01*
X0145250Y0232446D02*
X0146250Y0232446D01*
X0149406Y0231448D02*
X0151811Y0231448D01*
X0151023Y0230449D02*
X0150211Y0230449D01*
X0140703Y0226455D02*
X0122950Y0226455D01*
X0122950Y0225457D02*
X0141082Y0225457D01*
X0136078Y0218550D02*
X0195422Y0218550D01*
X0193438Y0216885D01*
X0191781Y0214015D01*
X0191205Y0210750D01*
X0191205Y0210750D01*
X0191781Y0207485D01*
X0193438Y0204615D01*
X0193438Y0204615D01*
X0195977Y0202484D01*
X0195977Y0202484D01*
X0199093Y0201350D01*
X0202407Y0201350D01*
X0205522Y0202484D01*
X0208062Y0204615D01*
X0208550Y0205460D01*
X0208550Y0127950D01*
X0190435Y0127950D01*
X0191150Y0129676D01*
X0191150Y0131824D01*
X0190328Y0133809D01*
X0188809Y0135328D01*
X0188031Y0135650D01*
X0197641Y0135650D01*
X0201067Y0139076D01*
X0201142Y0139076D01*
X0202403Y0140337D01*
X0202403Y0147090D01*
X0202836Y0147522D01*
X0203300Y0148643D01*
X0203300Y0149857D01*
X0202836Y0150978D01*
X0201978Y0151836D01*
X0200857Y0152300D01*
X0199643Y0152300D01*
X0198522Y0151836D01*
X0197664Y0150978D01*
X0197200Y0149857D01*
X0197200Y0148643D01*
X0197664Y0147522D01*
X0198097Y0147090D01*
X0198097Y0142046D01*
X0195901Y0139850D01*
X0184820Y0139850D01*
X0188670Y0143700D01*
X0189357Y0143700D01*
X0190478Y0144164D01*
X0191336Y0145022D01*
X0191800Y0146143D01*
X0191800Y0147357D01*
X0191336Y0148478D01*
X0190478Y0149336D01*
X0189357Y0149800D01*
X0188143Y0149800D01*
X0187506Y0149536D01*
X0187850Y0149880D01*
X0187850Y0150800D01*
X0188954Y0150800D01*
X0189950Y0151796D01*
X0189950Y0155704D01*
X0189904Y0155750D01*
X0189950Y0155796D01*
X0189950Y0159704D01*
X0188954Y0160700D01*
X0187800Y0160700D01*
X0187800Y0173099D01*
X0184300Y0176599D01*
X0184300Y0176947D01*
X0192700Y0168547D01*
X0192700Y0168143D01*
X0193164Y0167022D01*
X0194022Y0166164D01*
X0195143Y0165700D01*
X0196357Y0165700D01*
X0197478Y0166164D01*
X0198336Y0167022D01*
X0198800Y0168143D01*
X0198800Y0169357D01*
X0198336Y0170478D01*
X0197478Y0171336D01*
X0196357Y0171800D01*
X0195953Y0171800D01*
X0185703Y0182050D01*
X0157850Y0182050D01*
X0157850Y0187620D01*
X0156620Y0188850D01*
X0155220Y0190250D01*
X0156537Y0190250D01*
X0157022Y0189764D01*
X0158143Y0189300D01*
X0159357Y0189300D01*
X0160478Y0189764D01*
X0160963Y0190250D01*
X0161550Y0190250D01*
X0161550Y0187196D01*
X0162546Y0186200D01*
X0168954Y0186200D01*
X0169804Y0187050D01*
X0176287Y0187050D01*
X0176522Y0186814D01*
X0177643Y0186350D01*
X0178857Y0186350D01*
X0179978Y0186814D01*
X0180836Y0187672D01*
X0181300Y0188793D01*
X0181300Y0190007D01*
X0181199Y0190250D01*
X0186550Y0190250D01*
X0186550Y0187196D01*
X0187546Y0186200D01*
X0188092Y0186200D01*
X0187779Y0185443D01*
X0187779Y0184230D01*
X0188243Y0183109D01*
X0189101Y0182251D01*
X0190222Y0181787D01*
X0191435Y0181787D01*
X0192556Y0182251D01*
X0193414Y0183109D01*
X0193879Y0184230D01*
X0193879Y0185443D01*
X0193565Y0186200D01*
X0193954Y0186200D01*
X0194950Y0187196D01*
X0194950Y0194304D01*
X0193954Y0195300D01*
X0187546Y0195300D01*
X0186696Y0194450D01*
X0169804Y0194450D01*
X0168954Y0195300D01*
X0162546Y0195300D01*
X0161696Y0194450D01*
X0160963Y0194450D01*
X0160478Y0194936D01*
X0159357Y0195400D01*
X0158143Y0195400D01*
X0157022Y0194936D01*
X0156537Y0194450D01*
X0144804Y0194450D01*
X0143954Y0195300D01*
X0137546Y0195300D01*
X0136550Y0194304D01*
X0136550Y0187196D01*
X0137546Y0186200D01*
X0143954Y0186200D01*
X0144804Y0187050D01*
X0152480Y0187050D01*
X0153650Y0185880D01*
X0153650Y0182050D01*
X0153297Y0182050D01*
X0147047Y0175800D01*
X0146643Y0175800D01*
X0145522Y0175336D01*
X0144664Y0174478D01*
X0144200Y0173357D01*
X0144200Y0172143D01*
X0144664Y0171022D01*
X0145522Y0170164D01*
X0146643Y0169700D01*
X0147857Y0169700D01*
X0148978Y0170164D01*
X0149836Y0171022D01*
X0150300Y0172143D01*
X0150300Y0172547D01*
X0155200Y0177447D01*
X0155200Y0160522D01*
X0155522Y0160200D01*
X0175978Y0160200D01*
X0176300Y0160522D01*
X0176300Y0177450D01*
X0180200Y0177450D01*
X0180200Y0174901D01*
X0183700Y0171401D01*
X0183700Y0160700D01*
X0182546Y0160700D01*
X0181550Y0159704D01*
X0181550Y0155796D01*
X0181596Y0155750D01*
X0181550Y0155704D01*
X0181550Y0151796D01*
X0181574Y0151771D01*
X0180522Y0151336D01*
X0179664Y0150478D01*
X0179200Y0149357D01*
X0179200Y0148143D01*
X0179664Y0147022D01*
X0180522Y0146164D01*
X0181643Y0145700D01*
X0182857Y0145700D01*
X0183978Y0146164D01*
X0184463Y0146650D01*
X0184620Y0146650D01*
X0185850Y0147880D01*
X0185964Y0147994D01*
X0185700Y0147357D01*
X0185700Y0146670D01*
X0182864Y0143834D01*
X0173129Y0143834D01*
X0172643Y0144320D01*
X0171522Y0144784D01*
X0170309Y0144784D01*
X0169188Y0144320D01*
X0168330Y0143462D01*
X0167865Y0142341D01*
X0167865Y0141128D01*
X0168330Y0140007D01*
X0168486Y0139850D01*
X0153471Y0139850D01*
X0153800Y0140643D01*
X0153800Y0141857D01*
X0153336Y0142978D01*
X0152478Y0143836D01*
X0151357Y0144300D01*
X0150850Y0144300D01*
X0150850Y0150537D01*
X0151336Y0151022D01*
X0151800Y0152143D01*
X0151800Y0153357D01*
X0151336Y0154478D01*
X0150478Y0155336D01*
X0149357Y0155800D01*
X0148143Y0155800D01*
X0147022Y0155336D01*
X0146164Y0154478D01*
X0145700Y0153357D01*
X0145700Y0152143D01*
X0146164Y0151022D01*
X0146650Y0150537D01*
X0146650Y0142714D01*
X0142850Y0146514D01*
X0142850Y0153537D01*
X0143336Y0154022D01*
X0143800Y0155143D01*
X0143800Y0156357D01*
X0143336Y0157478D01*
X0142478Y0158336D01*
X0141357Y0158800D01*
X0140143Y0158800D01*
X0139022Y0158336D01*
X0138164Y0157478D01*
X0137700Y0156357D01*
X0137700Y0155143D01*
X0138164Y0154022D01*
X0138650Y0153537D01*
X0138650Y0144774D01*
X0147774Y0135650D01*
X0153469Y0135650D01*
X0152691Y0135328D01*
X0151172Y0133809D01*
X0150641Y0132526D01*
X0150569Y0132746D01*
X0150197Y0133475D01*
X0149716Y0134138D01*
X0149138Y0134716D01*
X0148475Y0135197D01*
X0147746Y0135569D01*
X0146968Y0135822D01*
X0146250Y0135936D01*
X0146250Y0131250D01*
X0145250Y0131250D01*
X0145250Y0135936D01*
X0144532Y0135822D01*
X0143754Y0135569D01*
X0143025Y0135197D01*
X0142362Y0134716D01*
X0141784Y0134138D01*
X0141303Y0133475D01*
X0140931Y0132746D01*
X0140678Y0131968D01*
X0140564Y0131250D01*
X0145250Y0131250D01*
X0145250Y0130250D01*
X0140564Y0130250D01*
X0140678Y0129532D01*
X0140931Y0128754D01*
X0141303Y0128025D01*
X0141357Y0127950D01*
X0122950Y0127950D01*
X0122950Y0205460D01*
X0123438Y0204615D01*
X0123438Y0204615D01*
X0125977Y0202484D01*
X0125977Y0202484D01*
X0129093Y0201350D01*
X0132407Y0201350D01*
X0135522Y0202484D01*
X0135523Y0202484D01*
X0138062Y0204615D01*
X0139719Y0207485D01*
X0139719Y0207485D01*
X0140295Y0210750D01*
X0139719Y0214015D01*
X0138062Y0216885D01*
X0138062Y0216885D01*
X0136078Y0218550D01*
X0136177Y0218467D02*
X0195323Y0218467D01*
X0194133Y0217469D02*
X0137367Y0217469D01*
X0138302Y0216470D02*
X0193198Y0216470D01*
X0193438Y0216885D02*
X0193438Y0216885D01*
X0193438Y0216885D01*
X0192622Y0215472D02*
X0138878Y0215472D01*
X0139455Y0214473D02*
X0192045Y0214473D01*
X0191781Y0214015D02*
X0191781Y0214015D01*
X0191685Y0213475D02*
X0139815Y0213475D01*
X0139719Y0214015D02*
X0139719Y0214015D01*
X0139991Y0212476D02*
X0191509Y0212476D01*
X0191333Y0211478D02*
X0140167Y0211478D01*
X0140295Y0210750D02*
X0140295Y0210750D01*
X0140247Y0210479D02*
X0191253Y0210479D01*
X0191429Y0209481D02*
X0140071Y0209481D01*
X0139895Y0208482D02*
X0191605Y0208482D01*
X0191781Y0207485D02*
X0191781Y0207485D01*
X0191782Y0207484D02*
X0139718Y0207484D01*
X0139142Y0206485D02*
X0192358Y0206485D01*
X0192935Y0205487D02*
X0138565Y0205487D01*
X0138062Y0204615D02*
X0138062Y0204615D01*
X0138062Y0204615D01*
X0137911Y0204488D02*
X0193589Y0204488D01*
X0194779Y0203489D02*
X0136721Y0203489D01*
X0135531Y0202491D02*
X0195969Y0202491D01*
X0198701Y0201492D02*
X0132799Y0201492D01*
X0128701Y0201492D02*
X0122950Y0201492D01*
X0122950Y0200494D02*
X0208550Y0200494D01*
X0208550Y0201492D02*
X0202799Y0201492D01*
X0202407Y0201350D02*
X0202407Y0201350D01*
X0205531Y0202491D02*
X0208550Y0202491D01*
X0208550Y0203489D02*
X0206721Y0203489D01*
X0207911Y0204488D02*
X0208550Y0204488D01*
X0208062Y0204615D02*
X0208062Y0204615D01*
X0208550Y0199495D02*
X0122950Y0199495D01*
X0122950Y0198497D02*
X0208550Y0198497D01*
X0208550Y0197498D02*
X0122950Y0197498D01*
X0122950Y0196500D02*
X0208550Y0196500D01*
X0208550Y0195501D02*
X0122950Y0195501D01*
X0122950Y0194503D02*
X0136749Y0194503D01*
X0136550Y0193504D02*
X0122950Y0193504D01*
X0122950Y0192506D02*
X0136550Y0192506D01*
X0136550Y0191507D02*
X0122950Y0191507D01*
X0122950Y0190509D02*
X0136550Y0190509D01*
X0136550Y0189510D02*
X0122950Y0189510D01*
X0122950Y0188512D02*
X0136550Y0188512D01*
X0136550Y0187513D02*
X0122950Y0187513D01*
X0122950Y0186515D02*
X0137231Y0186515D01*
X0144269Y0186515D02*
X0153015Y0186515D01*
X0153650Y0185516D02*
X0122950Y0185516D01*
X0122950Y0184518D02*
X0153650Y0184518D01*
X0153650Y0183519D02*
X0122950Y0183519D01*
X0122950Y0182521D02*
X0153650Y0182521D01*
X0152770Y0181522D02*
X0122950Y0181522D01*
X0122950Y0180524D02*
X0151771Y0180524D01*
X0150773Y0179525D02*
X0122950Y0179525D01*
X0122950Y0178527D02*
X0149774Y0178527D01*
X0148776Y0177528D02*
X0122950Y0177528D01*
X0122950Y0176530D02*
X0147777Y0176530D01*
X0145994Y0175531D02*
X0122950Y0175531D01*
X0122950Y0174533D02*
X0144719Y0174533D01*
X0144274Y0173534D02*
X0122950Y0173534D01*
X0122950Y0172536D02*
X0144200Y0172536D01*
X0144451Y0171537D02*
X0122950Y0171537D01*
X0122950Y0170539D02*
X0145148Y0170539D01*
X0149352Y0170539D02*
X0155200Y0170539D01*
X0155200Y0171537D02*
X0150049Y0171537D01*
X0150300Y0172536D02*
X0155200Y0172536D01*
X0155200Y0173534D02*
X0151287Y0173534D01*
X0152285Y0174533D02*
X0155200Y0174533D01*
X0155200Y0175531D02*
X0153284Y0175531D01*
X0154282Y0176530D02*
X0155200Y0176530D01*
X0157850Y0182521D02*
X0188831Y0182521D01*
X0188073Y0183519D02*
X0157850Y0183519D01*
X0157850Y0184518D02*
X0187779Y0184518D01*
X0187809Y0185516D02*
X0157850Y0185516D01*
X0157850Y0186515D02*
X0162231Y0186515D01*
X0161550Y0187513D02*
X0157850Y0187513D01*
X0156958Y0188512D02*
X0161550Y0188512D01*
X0161550Y0189510D02*
X0159864Y0189510D01*
X0157636Y0189510D02*
X0155960Y0189510D01*
X0156590Y0194503D02*
X0144751Y0194503D01*
X0160910Y0194503D02*
X0161749Y0194503D01*
X0169751Y0194503D02*
X0186749Y0194503D01*
X0186550Y0189510D02*
X0181300Y0189510D01*
X0181183Y0188512D02*
X0186550Y0188512D01*
X0186550Y0187513D02*
X0180677Y0187513D01*
X0179255Y0186515D02*
X0187231Y0186515D01*
X0193848Y0185516D02*
X0208550Y0185516D01*
X0208550Y0184518D02*
X0193879Y0184518D01*
X0193584Y0183519D02*
X0208550Y0183519D01*
X0208550Y0182521D02*
X0192826Y0182521D01*
X0194269Y0186515D02*
X0208550Y0186515D01*
X0208550Y0187513D02*
X0194950Y0187513D01*
X0194950Y0188512D02*
X0208550Y0188512D01*
X0208550Y0189510D02*
X0194950Y0189510D01*
X0194950Y0190509D02*
X0208550Y0190509D01*
X0208550Y0191507D02*
X0194950Y0191507D01*
X0194950Y0192506D02*
X0208550Y0192506D01*
X0208550Y0193504D02*
X0194950Y0193504D01*
X0194751Y0194503D02*
X0208550Y0194503D01*
X0214950Y0194503D02*
X0228749Y0194503D01*
X0228550Y0194304D02*
X0228550Y0187196D01*
X0229546Y0186200D01*
X0235954Y0186200D01*
X0236804Y0187050D01*
X0244480Y0187050D01*
X0245650Y0185880D01*
X0245650Y0182050D01*
X0245297Y0182050D01*
X0243950Y0180703D01*
X0243950Y0180703D01*
X0239047Y0175800D01*
X0238643Y0175800D01*
X0237522Y0175336D01*
X0236664Y0174478D01*
X0236200Y0173357D01*
X0236200Y0172143D01*
X0236664Y0171022D01*
X0237522Y0170164D01*
X0238643Y0169700D01*
X0239857Y0169700D01*
X0240978Y0170164D01*
X0241836Y0171022D01*
X0242300Y0172143D01*
X0242300Y0172547D01*
X0247200Y0177447D01*
X0247200Y0160522D01*
X0247522Y0160200D01*
X0267978Y0160200D01*
X0268300Y0160522D01*
X0268300Y0177450D01*
X0272200Y0177450D01*
X0272200Y0174901D01*
X0275700Y0171401D01*
X0275700Y0160700D01*
X0274546Y0160700D01*
X0273550Y0159704D01*
X0273550Y0155796D01*
X0273596Y0155750D01*
X0273550Y0155704D01*
X0273550Y0151796D01*
X0273574Y0151771D01*
X0272522Y0151336D01*
X0271664Y0150478D01*
X0271200Y0149357D01*
X0271200Y0148143D01*
X0271664Y0147022D01*
X0272522Y0146164D01*
X0273643Y0145700D01*
X0274857Y0145700D01*
X0275978Y0146164D01*
X0276463Y0146650D01*
X0276620Y0146650D01*
X0277850Y0147880D01*
X0277850Y0147880D01*
X0277964Y0147994D01*
X0277700Y0147357D01*
X0277700Y0146670D01*
X0274864Y0143834D01*
X0265129Y0143834D01*
X0264643Y0144320D01*
X0263522Y0144784D01*
X0262309Y0144784D01*
X0261188Y0144320D01*
X0260330Y0143462D01*
X0259865Y0142341D01*
X0259865Y0141128D01*
X0260330Y0140007D01*
X0260486Y0139850D01*
X0245471Y0139850D01*
X0245800Y0140643D01*
X0245800Y0141857D01*
X0245336Y0142978D01*
X0244478Y0143836D01*
X0243357Y0144300D01*
X0242850Y0144300D01*
X0242850Y0150537D01*
X0243336Y0151022D01*
X0243800Y0152143D01*
X0243800Y0153357D01*
X0243336Y0154478D01*
X0242478Y0155336D01*
X0241357Y0155800D01*
X0240143Y0155800D01*
X0239022Y0155336D01*
X0238164Y0154478D01*
X0237700Y0153357D01*
X0237700Y0152143D01*
X0238164Y0151022D01*
X0238650Y0150537D01*
X0238650Y0142714D01*
X0234850Y0146514D01*
X0234850Y0153537D01*
X0235336Y0154022D01*
X0235800Y0155143D01*
X0235800Y0156357D01*
X0235336Y0157478D01*
X0234478Y0158336D01*
X0233357Y0158800D01*
X0232143Y0158800D01*
X0231022Y0158336D01*
X0230164Y0157478D01*
X0229700Y0156357D01*
X0229700Y0155143D01*
X0230164Y0154022D01*
X0230650Y0153537D01*
X0230650Y0144774D01*
X0239774Y0135650D01*
X0245469Y0135650D01*
X0244691Y0135328D01*
X0243172Y0133809D01*
X0242641Y0132526D01*
X0242569Y0132746D01*
X0242197Y0133475D01*
X0241716Y0134138D01*
X0241138Y0134716D01*
X0240475Y0135197D01*
X0239746Y0135569D01*
X0238968Y0135822D01*
X0238250Y0135936D01*
X0238250Y0131250D01*
X0237250Y0131250D01*
X0237250Y0135936D01*
X0236532Y0135822D01*
X0235754Y0135569D01*
X0235025Y0135197D01*
X0234362Y0134716D01*
X0233784Y0134138D01*
X0233303Y0133475D01*
X0232931Y0132746D01*
X0232678Y0131968D01*
X0232564Y0131250D01*
X0237250Y0131250D01*
X0237250Y0130250D01*
X0232564Y0130250D01*
X0232678Y0129532D01*
X0232931Y0128754D01*
X0233303Y0128025D01*
X0233357Y0127950D01*
X0214950Y0127950D01*
X0214950Y0205460D01*
X0215438Y0204615D01*
X0215438Y0204615D01*
X0217977Y0202484D01*
X0221093Y0201350D01*
X0224407Y0201350D01*
X0227522Y0202484D01*
X0227523Y0202484D01*
X0230062Y0204615D01*
X0231719Y0207485D01*
X0231719Y0207485D01*
X0232295Y0210750D01*
X0231719Y0214015D01*
X0230062Y0216885D01*
X0230062Y0216885D01*
X0228078Y0218550D01*
X0287422Y0218550D01*
X0285438Y0216885D01*
X0283781Y0214015D01*
X0283205Y0210750D01*
X0283205Y0210750D01*
X0283781Y0207485D01*
X0285438Y0204615D01*
X0285438Y0204615D01*
X0287977Y0202484D01*
X0287977Y0202484D01*
X0291093Y0201350D01*
X0294407Y0201350D01*
X0297522Y0202484D01*
X0297523Y0202484D01*
X0300062Y0204615D01*
X0300550Y0205460D01*
X0300550Y0127950D01*
X0282435Y0127950D01*
X0283150Y0129676D01*
X0283150Y0131824D01*
X0282328Y0133809D01*
X0280809Y0135328D01*
X0280031Y0135650D01*
X0289641Y0135650D01*
X0293067Y0139076D01*
X0293142Y0139076D01*
X0294403Y0140337D01*
X0294403Y0147090D01*
X0294836Y0147522D01*
X0295300Y0148643D01*
X0295300Y0149857D01*
X0294836Y0150978D01*
X0293978Y0151836D01*
X0292857Y0152300D01*
X0291643Y0152300D01*
X0290522Y0151836D01*
X0289664Y0150978D01*
X0289200Y0149857D01*
X0289200Y0148643D01*
X0289664Y0147522D01*
X0290097Y0147090D01*
X0290097Y0142046D01*
X0287901Y0139850D01*
X0276820Y0139850D01*
X0280670Y0143700D01*
X0281357Y0143700D01*
X0282478Y0144164D01*
X0283336Y0145022D01*
X0283800Y0146143D01*
X0283800Y0147357D01*
X0283336Y0148478D01*
X0282478Y0149336D01*
X0281357Y0149800D01*
X0280143Y0149800D01*
X0279506Y0149536D01*
X0279850Y0149880D01*
X0279850Y0150800D01*
X0280954Y0150800D01*
X0281950Y0151796D01*
X0281950Y0155704D01*
X0281904Y0155750D01*
X0281950Y0155796D01*
X0281950Y0159704D01*
X0280954Y0160700D01*
X0279800Y0160700D01*
X0279800Y0173099D01*
X0276300Y0176599D01*
X0276300Y0176947D01*
X0284700Y0168547D01*
X0284700Y0168143D01*
X0285164Y0167022D01*
X0286022Y0166164D01*
X0287143Y0165700D01*
X0288357Y0165700D01*
X0289478Y0166164D01*
X0290336Y0167022D01*
X0290800Y0168143D01*
X0290800Y0169357D01*
X0290336Y0170478D01*
X0289478Y0171336D01*
X0288357Y0171800D01*
X0287953Y0171800D01*
X0279050Y0180703D01*
X0277703Y0182050D01*
X0249850Y0182050D01*
X0249850Y0187620D01*
X0248620Y0188850D01*
X0247220Y0190250D01*
X0248537Y0190250D01*
X0249022Y0189764D01*
X0250143Y0189300D01*
X0251357Y0189300D01*
X0252478Y0189764D01*
X0252963Y0190250D01*
X0253550Y0190250D01*
X0253550Y0187196D01*
X0254546Y0186200D01*
X0260954Y0186200D01*
X0261804Y0187050D01*
X0268287Y0187050D01*
X0268522Y0186814D01*
X0269643Y0186350D01*
X0270857Y0186350D01*
X0271978Y0186814D01*
X0272836Y0187672D01*
X0273300Y0188793D01*
X0273300Y0190007D01*
X0273199Y0190250D01*
X0278550Y0190250D01*
X0278550Y0187196D01*
X0279546Y0186200D01*
X0280092Y0186200D01*
X0279779Y0185443D01*
X0279779Y0184230D01*
X0280243Y0183109D01*
X0281101Y0182251D01*
X0282222Y0181787D01*
X0283435Y0181787D01*
X0284556Y0182251D01*
X0285414Y0183109D01*
X0285879Y0184230D01*
X0285879Y0185443D01*
X0285565Y0186200D01*
X0285954Y0186200D01*
X0286950Y0187196D01*
X0286950Y0194304D01*
X0285954Y0195300D01*
X0279546Y0195300D01*
X0278696Y0194450D01*
X0261804Y0194450D01*
X0260954Y0195300D01*
X0254546Y0195300D01*
X0253696Y0194450D01*
X0252963Y0194450D01*
X0252478Y0194936D01*
X0251357Y0195400D01*
X0250143Y0195400D01*
X0249022Y0194936D01*
X0248537Y0194450D01*
X0236804Y0194450D01*
X0235954Y0195300D01*
X0229546Y0195300D01*
X0228550Y0194304D01*
X0228550Y0193504D02*
X0214950Y0193504D01*
X0214950Y0192506D02*
X0228550Y0192506D01*
X0228550Y0191507D02*
X0214950Y0191507D01*
X0214950Y0190509D02*
X0228550Y0190509D01*
X0228550Y0189510D02*
X0214950Y0189510D01*
X0214950Y0188512D02*
X0228550Y0188512D01*
X0228550Y0187513D02*
X0214950Y0187513D01*
X0214950Y0186515D02*
X0229231Y0186515D01*
X0236269Y0186515D02*
X0245015Y0186515D01*
X0245650Y0185516D02*
X0214950Y0185516D01*
X0214950Y0184518D02*
X0245650Y0184518D01*
X0245650Y0183519D02*
X0214950Y0183519D01*
X0214950Y0182521D02*
X0245650Y0182521D01*
X0244770Y0181522D02*
X0214950Y0181522D01*
X0214950Y0180524D02*
X0243771Y0180524D01*
X0242773Y0179525D02*
X0214950Y0179525D01*
X0214950Y0178527D02*
X0241774Y0178527D01*
X0240776Y0177528D02*
X0214950Y0177528D01*
X0214950Y0176530D02*
X0239777Y0176530D01*
X0237994Y0175531D02*
X0214950Y0175531D01*
X0214950Y0174533D02*
X0236719Y0174533D01*
X0236274Y0173534D02*
X0214950Y0173534D01*
X0214950Y0172536D02*
X0236200Y0172536D01*
X0236451Y0171537D02*
X0214950Y0171537D01*
X0214950Y0170539D02*
X0237148Y0170539D01*
X0241352Y0170539D02*
X0247200Y0170539D01*
X0247200Y0171537D02*
X0242049Y0171537D01*
X0242300Y0172536D02*
X0247200Y0172536D01*
X0247200Y0173534D02*
X0243287Y0173534D01*
X0244285Y0174533D02*
X0247200Y0174533D01*
X0247200Y0175531D02*
X0245284Y0175531D01*
X0246282Y0176530D02*
X0247200Y0176530D01*
X0249850Y0182521D02*
X0280831Y0182521D01*
X0280073Y0183519D02*
X0249850Y0183519D01*
X0249850Y0184518D02*
X0279779Y0184518D01*
X0279809Y0185516D02*
X0249850Y0185516D01*
X0249850Y0186515D02*
X0254231Y0186515D01*
X0253550Y0187513D02*
X0249850Y0187513D01*
X0248958Y0188512D02*
X0253550Y0188512D01*
X0253550Y0189510D02*
X0251864Y0189510D01*
X0249636Y0189510D02*
X0247960Y0189510D01*
X0248590Y0194503D02*
X0236751Y0194503D01*
X0228721Y0203489D02*
X0286779Y0203489D01*
X0287969Y0202491D02*
X0227531Y0202491D01*
X0224799Y0201492D02*
X0290701Y0201492D01*
X0294799Y0201492D02*
X0300550Y0201492D01*
X0300550Y0200494D02*
X0214950Y0200494D01*
X0214950Y0201492D02*
X0220701Y0201492D01*
X0217969Y0202491D02*
X0214950Y0202491D01*
X0214950Y0203489D02*
X0216779Y0203489D01*
X0215589Y0204488D02*
X0214950Y0204488D01*
X0214950Y0199495D02*
X0300550Y0199495D01*
X0300550Y0198497D02*
X0214950Y0198497D01*
X0214950Y0197498D02*
X0300550Y0197498D01*
X0300550Y0196500D02*
X0214950Y0196500D01*
X0214950Y0195501D02*
X0300550Y0195501D01*
X0300550Y0194503D02*
X0286751Y0194503D01*
X0286950Y0193504D02*
X0300550Y0193504D01*
X0300550Y0192506D02*
X0286950Y0192506D01*
X0286950Y0191507D02*
X0300550Y0191507D01*
X0300550Y0190509D02*
X0286950Y0190509D01*
X0286950Y0189510D02*
X0300550Y0189510D01*
X0300550Y0188512D02*
X0286950Y0188512D01*
X0286950Y0187513D02*
X0300550Y0187513D01*
X0300550Y0186515D02*
X0286269Y0186515D01*
X0285848Y0185516D02*
X0300550Y0185516D01*
X0300550Y0184518D02*
X0285879Y0184518D01*
X0285584Y0183519D02*
X0300550Y0183519D01*
X0300550Y0182521D02*
X0284826Y0182521D01*
X0281226Y0178527D02*
X0300550Y0178527D01*
X0300550Y0179525D02*
X0280227Y0179525D01*
X0279229Y0180524D02*
X0300550Y0180524D01*
X0300550Y0181522D02*
X0278230Y0181522D01*
X0279050Y0180703D02*
X0279050Y0180703D01*
X0282224Y0177528D02*
X0300550Y0177528D01*
X0300550Y0176530D02*
X0283223Y0176530D01*
X0284221Y0175531D02*
X0300550Y0175531D01*
X0300550Y0174533D02*
X0285220Y0174533D01*
X0286219Y0173534D02*
X0300550Y0173534D01*
X0300550Y0172536D02*
X0287217Y0172536D01*
X0288991Y0171537D02*
X0300550Y0171537D01*
X0300550Y0170539D02*
X0290275Y0170539D01*
X0290724Y0169540D02*
X0300550Y0169540D01*
X0300550Y0168542D02*
X0290800Y0168542D01*
X0290551Y0167543D02*
X0300550Y0167543D01*
X0300550Y0166545D02*
X0289858Y0166545D01*
X0285642Y0166545D02*
X0279800Y0166545D01*
X0279800Y0167543D02*
X0284949Y0167543D01*
X0284700Y0168542D02*
X0279800Y0168542D01*
X0279800Y0169540D02*
X0283707Y0169540D01*
X0282709Y0170539D02*
X0279800Y0170539D01*
X0279800Y0171537D02*
X0281710Y0171537D01*
X0280712Y0172536D02*
X0279800Y0172536D01*
X0279713Y0173534D02*
X0279365Y0173534D01*
X0278715Y0174533D02*
X0278366Y0174533D01*
X0277716Y0175531D02*
X0277368Y0175531D01*
X0276718Y0176530D02*
X0276369Y0176530D01*
X0273567Y0173534D02*
X0268300Y0173534D01*
X0268300Y0172536D02*
X0274565Y0172536D01*
X0275564Y0171537D02*
X0268300Y0171537D01*
X0268300Y0170539D02*
X0275700Y0170539D01*
X0275700Y0169540D02*
X0268300Y0169540D01*
X0268300Y0168542D02*
X0275700Y0168542D01*
X0275700Y0167543D02*
X0268300Y0167543D01*
X0268300Y0166545D02*
X0275700Y0166545D01*
X0275700Y0165546D02*
X0268300Y0165546D01*
X0268300Y0164548D02*
X0275700Y0164548D01*
X0275700Y0163549D02*
X0268300Y0163549D01*
X0268300Y0162551D02*
X0275700Y0162551D01*
X0275700Y0161552D02*
X0268300Y0161552D01*
X0268300Y0160553D02*
X0274399Y0160553D01*
X0273550Y0159555D02*
X0214950Y0159555D01*
X0214950Y0160553D02*
X0247200Y0160553D01*
X0247200Y0161552D02*
X0214950Y0161552D01*
X0214950Y0162551D02*
X0247200Y0162551D01*
X0247200Y0163549D02*
X0214950Y0163549D01*
X0214950Y0164548D02*
X0247200Y0164548D01*
X0247200Y0165546D02*
X0214950Y0165546D01*
X0214950Y0166545D02*
X0247200Y0166545D01*
X0247200Y0167543D02*
X0214950Y0167543D01*
X0214950Y0168542D02*
X0247200Y0168542D01*
X0247200Y0169540D02*
X0214950Y0169540D01*
X0208550Y0169540D02*
X0198724Y0169540D01*
X0198800Y0168542D02*
X0208550Y0168542D01*
X0208550Y0167543D02*
X0198551Y0167543D01*
X0197858Y0166545D02*
X0208550Y0166545D01*
X0208550Y0165546D02*
X0187800Y0165546D01*
X0187800Y0164548D02*
X0208550Y0164548D01*
X0208550Y0163549D02*
X0187800Y0163549D01*
X0187800Y0162551D02*
X0208550Y0162551D01*
X0208550Y0161552D02*
X0187800Y0161552D01*
X0189101Y0160553D02*
X0208550Y0160553D01*
X0208550Y0159555D02*
X0189950Y0159555D01*
X0189950Y0158556D02*
X0208550Y0158556D01*
X0208550Y0157558D02*
X0189950Y0157558D01*
X0189950Y0156559D02*
X0208550Y0156559D01*
X0208550Y0155561D02*
X0189950Y0155561D01*
X0189950Y0154562D02*
X0208550Y0154562D01*
X0208550Y0153564D02*
X0189950Y0153564D01*
X0189950Y0152565D02*
X0208550Y0152565D01*
X0208550Y0151567D02*
X0202246Y0151567D01*
X0203005Y0150568D02*
X0208550Y0150568D01*
X0208550Y0149570D02*
X0203300Y0149570D01*
X0203270Y0148571D02*
X0208550Y0148571D01*
X0208550Y0147573D02*
X0202857Y0147573D01*
X0202403Y0146574D02*
X0208550Y0146574D01*
X0208550Y0145576D02*
X0202403Y0145576D01*
X0202403Y0144577D02*
X0208550Y0144577D01*
X0208550Y0143579D02*
X0202403Y0143579D01*
X0202403Y0142580D02*
X0208550Y0142580D01*
X0208550Y0141582D02*
X0202403Y0141582D01*
X0202403Y0140583D02*
X0208550Y0140583D01*
X0208550Y0139585D02*
X0201651Y0139585D01*
X0200577Y0138586D02*
X0208550Y0138586D01*
X0208550Y0137588D02*
X0199578Y0137588D01*
X0198580Y0136589D02*
X0208550Y0136589D01*
X0208550Y0135591D02*
X0188174Y0135591D01*
X0189545Y0134592D02*
X0208550Y0134592D01*
X0208550Y0133594D02*
X0190417Y0133594D01*
X0190831Y0132595D02*
X0208550Y0132595D01*
X0208550Y0131597D02*
X0191150Y0131597D01*
X0191150Y0130598D02*
X0208550Y0130598D01*
X0208550Y0129600D02*
X0191118Y0129600D01*
X0190705Y0128601D02*
X0208550Y0128601D01*
X0214950Y0128601D02*
X0233009Y0128601D01*
X0232667Y0129600D02*
X0214950Y0129600D01*
X0214950Y0130598D02*
X0237250Y0130598D01*
X0237250Y0131597D02*
X0238250Y0131597D01*
X0238250Y0132595D02*
X0237250Y0132595D01*
X0237250Y0133594D02*
X0238250Y0133594D01*
X0238250Y0134592D02*
X0237250Y0134592D01*
X0237250Y0135591D02*
X0238250Y0135591D01*
X0238835Y0136589D02*
X0214950Y0136589D01*
X0214950Y0135591D02*
X0235821Y0135591D01*
X0234238Y0134592D02*
X0214950Y0134592D01*
X0214950Y0133594D02*
X0233389Y0133594D01*
X0232882Y0132595D02*
X0214950Y0132595D01*
X0214950Y0131597D02*
X0232619Y0131597D01*
X0237836Y0137588D02*
X0214950Y0137588D01*
X0214950Y0138586D02*
X0236838Y0138586D01*
X0235839Y0139585D02*
X0214950Y0139585D01*
X0214950Y0140583D02*
X0234841Y0140583D01*
X0233842Y0141582D02*
X0214950Y0141582D01*
X0214950Y0142580D02*
X0232844Y0142580D01*
X0231845Y0143579D02*
X0214950Y0143579D01*
X0214950Y0144577D02*
X0230847Y0144577D01*
X0230650Y0145576D02*
X0214950Y0145576D01*
X0214950Y0146574D02*
X0230650Y0146574D01*
X0230650Y0147573D02*
X0214950Y0147573D01*
X0214950Y0148571D02*
X0230650Y0148571D01*
X0230650Y0149570D02*
X0214950Y0149570D01*
X0214950Y0150568D02*
X0230650Y0150568D01*
X0230650Y0151567D02*
X0214950Y0151567D01*
X0214950Y0152565D02*
X0230650Y0152565D01*
X0230623Y0153564D02*
X0214950Y0153564D01*
X0214950Y0154562D02*
X0229941Y0154562D01*
X0229700Y0155561D02*
X0214950Y0155561D01*
X0214950Y0156559D02*
X0229784Y0156559D01*
X0230245Y0157558D02*
X0214950Y0157558D01*
X0214950Y0158556D02*
X0231555Y0158556D01*
X0233945Y0158556D02*
X0273550Y0158556D01*
X0273550Y0157558D02*
X0235255Y0157558D01*
X0235716Y0156559D02*
X0273550Y0156559D01*
X0273550Y0155561D02*
X0241934Y0155561D01*
X0243251Y0154562D02*
X0273550Y0154562D01*
X0273550Y0153564D02*
X0243714Y0153564D01*
X0243800Y0152565D02*
X0273550Y0152565D01*
X0273081Y0151567D02*
X0243561Y0151567D01*
X0242882Y0150568D02*
X0271755Y0150568D01*
X0271288Y0149570D02*
X0242850Y0149570D01*
X0242850Y0148571D02*
X0271200Y0148571D01*
X0271436Y0147573D02*
X0242850Y0147573D01*
X0242850Y0146574D02*
X0272112Y0146574D01*
X0275607Y0144577D02*
X0264022Y0144577D01*
X0261809Y0144577D02*
X0242850Y0144577D01*
X0242850Y0145576D02*
X0276606Y0145576D01*
X0276388Y0146574D02*
X0277604Y0146574D01*
X0277543Y0147573D02*
X0277790Y0147573D01*
X0279540Y0149570D02*
X0279588Y0149570D01*
X0279850Y0150568D02*
X0289495Y0150568D01*
X0289200Y0149570D02*
X0281912Y0149570D01*
X0283242Y0148571D02*
X0289230Y0148571D01*
X0289643Y0147573D02*
X0283710Y0147573D01*
X0283800Y0146574D02*
X0290097Y0146574D01*
X0290097Y0145576D02*
X0283565Y0145576D01*
X0282891Y0144577D02*
X0290097Y0144577D01*
X0290097Y0143579D02*
X0280549Y0143579D01*
X0279550Y0142580D02*
X0290097Y0142580D01*
X0289633Y0141582D02*
X0278552Y0141582D01*
X0277553Y0140583D02*
X0288634Y0140583D01*
X0291578Y0137588D02*
X0300550Y0137588D01*
X0300550Y0138586D02*
X0292577Y0138586D01*
X0293651Y0139585D02*
X0300550Y0139585D01*
X0300550Y0140583D02*
X0294403Y0140583D01*
X0294403Y0141582D02*
X0300550Y0141582D01*
X0300550Y0142580D02*
X0294403Y0142580D01*
X0294403Y0143579D02*
X0300550Y0143579D01*
X0300550Y0144577D02*
X0294403Y0144577D01*
X0294403Y0145576D02*
X0300550Y0145576D01*
X0300550Y0146574D02*
X0294403Y0146574D01*
X0294857Y0147573D02*
X0300550Y0147573D01*
X0300550Y0148571D02*
X0295270Y0148571D01*
X0295300Y0149570D02*
X0300550Y0149570D01*
X0300550Y0150568D02*
X0295005Y0150568D01*
X0294246Y0151567D02*
X0300550Y0151567D01*
X0300550Y0152565D02*
X0281950Y0152565D01*
X0281950Y0153564D02*
X0300550Y0153564D01*
X0300550Y0154562D02*
X0281950Y0154562D01*
X0281950Y0155561D02*
X0300550Y0155561D01*
X0300550Y0156559D02*
X0281950Y0156559D01*
X0281950Y0157558D02*
X0300550Y0157558D01*
X0300550Y0158556D02*
X0281950Y0158556D01*
X0281950Y0159555D02*
X0300550Y0159555D01*
X0300550Y0160553D02*
X0281101Y0160553D01*
X0279800Y0161552D02*
X0300550Y0161552D01*
X0300550Y0162551D02*
X0279800Y0162551D01*
X0279800Y0163549D02*
X0300550Y0163549D01*
X0300550Y0164548D02*
X0279800Y0164548D01*
X0279800Y0165546D02*
X0300550Y0165546D01*
X0290254Y0151567D02*
X0281721Y0151567D01*
X0277750Y0154250D02*
X0277750Y0157250D01*
X0260447Y0143579D02*
X0244735Y0143579D01*
X0245500Y0142580D02*
X0259965Y0142580D01*
X0259865Y0141582D02*
X0245800Y0141582D01*
X0245775Y0140583D02*
X0260091Y0140583D01*
X0245326Y0135591D02*
X0239679Y0135591D01*
X0241262Y0134592D02*
X0243955Y0134592D01*
X0243083Y0133594D02*
X0242111Y0133594D01*
X0242618Y0132595D02*
X0242669Y0132595D01*
X0238650Y0143579D02*
X0237785Y0143579D01*
X0238650Y0144577D02*
X0236786Y0144577D01*
X0235788Y0145576D02*
X0238650Y0145576D01*
X0238650Y0146574D02*
X0234850Y0146574D01*
X0234850Y0147573D02*
X0238650Y0147573D01*
X0238650Y0148571D02*
X0234850Y0148571D01*
X0234850Y0149570D02*
X0238650Y0149570D01*
X0238618Y0150568D02*
X0234850Y0150568D01*
X0234850Y0151567D02*
X0237939Y0151567D01*
X0237700Y0152565D02*
X0234850Y0152565D01*
X0234877Y0153564D02*
X0237786Y0153564D01*
X0238249Y0154562D02*
X0235559Y0154562D01*
X0235800Y0155561D02*
X0239566Y0155561D01*
X0268300Y0174533D02*
X0272568Y0174533D01*
X0272200Y0175531D02*
X0268300Y0175531D01*
X0268300Y0176530D02*
X0272200Y0176530D01*
X0271255Y0186515D02*
X0279231Y0186515D01*
X0278550Y0187513D02*
X0272677Y0187513D01*
X0273183Y0188512D02*
X0278550Y0188512D01*
X0278550Y0189510D02*
X0273300Y0189510D01*
X0269245Y0186515D02*
X0261269Y0186515D01*
X0261751Y0194503D02*
X0278749Y0194503D01*
X0285589Y0204488D02*
X0229911Y0204488D01*
X0230062Y0204615D02*
X0230062Y0204615D01*
X0230062Y0204615D01*
X0230565Y0205487D02*
X0284935Y0205487D01*
X0284358Y0206485D02*
X0231142Y0206485D01*
X0231718Y0207484D02*
X0283782Y0207484D01*
X0283781Y0207485D02*
X0283781Y0207485D01*
X0283605Y0208482D02*
X0231895Y0208482D01*
X0232071Y0209481D02*
X0283429Y0209481D01*
X0283253Y0210479D02*
X0232247Y0210479D01*
X0232295Y0210750D02*
X0232295Y0210750D01*
X0232167Y0211478D02*
X0283333Y0211478D01*
X0283509Y0212476D02*
X0231991Y0212476D01*
X0231815Y0213475D02*
X0283685Y0213475D01*
X0283781Y0214015D02*
X0283781Y0214015D01*
X0284045Y0214473D02*
X0231455Y0214473D01*
X0231719Y0214015D02*
X0231719Y0214015D01*
X0230878Y0215472D02*
X0284622Y0215472D01*
X0285198Y0216470D02*
X0230302Y0216470D01*
X0229367Y0217469D02*
X0286133Y0217469D01*
X0285438Y0216885D02*
X0285438Y0216885D01*
X0285438Y0216885D01*
X0287323Y0218467D02*
X0228177Y0218467D01*
X0233082Y0225457D02*
X0214950Y0225457D01*
X0214950Y0226455D02*
X0232703Y0226455D01*
X0232596Y0228452D02*
X0214950Y0228452D01*
X0214950Y0227454D02*
X0237250Y0227454D01*
X0237250Y0228452D02*
X0238250Y0228452D01*
X0238250Y0229451D02*
X0237250Y0229451D01*
X0237250Y0230449D02*
X0238250Y0230449D01*
X0238250Y0231448D02*
X0237250Y0231448D01*
X0237250Y0232446D02*
X0238250Y0232446D01*
X0235513Y0232446D02*
X0214950Y0232446D01*
X0214950Y0231448D02*
X0234094Y0231448D01*
X0233289Y0230449D02*
X0214950Y0230449D01*
X0214950Y0229451D02*
X0232835Y0229451D01*
X0241406Y0231448D02*
X0243811Y0231448D01*
X0243023Y0230449D02*
X0242211Y0230449D01*
X0238650Y0240434D02*
X0237929Y0240434D01*
X0238650Y0241433D02*
X0236931Y0241433D01*
X0235932Y0242431D02*
X0238650Y0242431D01*
X0238650Y0243430D02*
X0234934Y0243430D01*
X0234850Y0244428D02*
X0238650Y0244428D01*
X0238650Y0245427D02*
X0234850Y0245427D01*
X0234850Y0246425D02*
X0238650Y0246425D01*
X0238650Y0247424D02*
X0234850Y0247424D01*
X0234850Y0248422D02*
X0237999Y0248422D01*
X0237700Y0249421D02*
X0234850Y0249421D01*
X0234850Y0250420D02*
X0237726Y0250420D01*
X0238140Y0251418D02*
X0235500Y0251418D01*
X0235800Y0252417D02*
X0239218Y0252417D01*
X0208550Y0248422D02*
X0202391Y0248422D01*
X0203065Y0247424D02*
X0208550Y0247424D01*
X0208550Y0246425D02*
X0203300Y0246425D01*
X0203210Y0245427D02*
X0208550Y0245427D01*
X0208550Y0244428D02*
X0202742Y0244428D01*
X0202403Y0243430D02*
X0208550Y0243430D01*
X0208550Y0242431D02*
X0202403Y0242431D01*
X0202403Y0241433D02*
X0208550Y0241433D01*
X0208550Y0240434D02*
X0202403Y0240434D01*
X0202403Y0239436D02*
X0208550Y0239436D01*
X0208550Y0238437D02*
X0202403Y0238437D01*
X0202403Y0237439D02*
X0208550Y0237439D01*
X0208550Y0236440D02*
X0201506Y0236440D01*
X0200433Y0235442D02*
X0208550Y0235442D01*
X0208550Y0234443D02*
X0199434Y0234443D01*
X0198436Y0233445D02*
X0208550Y0233445D01*
X0208550Y0232446D02*
X0188523Y0232446D01*
X0189689Y0231448D02*
X0208550Y0231448D01*
X0208550Y0230449D02*
X0190477Y0230449D01*
X0190890Y0229451D02*
X0208550Y0229451D01*
X0208550Y0228452D02*
X0191150Y0228452D01*
X0191150Y0227454D02*
X0208550Y0227454D01*
X0208550Y0226455D02*
X0191059Y0226455D01*
X0190645Y0225457D02*
X0208550Y0225457D01*
X0177245Y0186515D02*
X0169269Y0186515D01*
X0176300Y0176530D02*
X0180200Y0176530D01*
X0180200Y0175531D02*
X0176300Y0175531D01*
X0176300Y0174533D02*
X0180568Y0174533D01*
X0181567Y0173534D02*
X0176300Y0173534D01*
X0176300Y0172536D02*
X0182565Y0172536D01*
X0183564Y0171537D02*
X0176300Y0171537D01*
X0176300Y0170539D02*
X0183700Y0170539D01*
X0183700Y0169540D02*
X0176300Y0169540D01*
X0176300Y0168542D02*
X0183700Y0168542D01*
X0183700Y0167543D02*
X0176300Y0167543D01*
X0176300Y0166545D02*
X0183700Y0166545D01*
X0183700Y0165546D02*
X0176300Y0165546D01*
X0176300Y0164548D02*
X0183700Y0164548D01*
X0183700Y0163549D02*
X0176300Y0163549D01*
X0176300Y0162551D02*
X0183700Y0162551D01*
X0183700Y0161552D02*
X0176300Y0161552D01*
X0176300Y0160553D02*
X0182399Y0160553D01*
X0181550Y0159555D02*
X0122950Y0159555D01*
X0122950Y0160553D02*
X0155200Y0160553D01*
X0155200Y0161552D02*
X0122950Y0161552D01*
X0122950Y0162551D02*
X0155200Y0162551D01*
X0155200Y0163549D02*
X0122950Y0163549D01*
X0122950Y0164548D02*
X0155200Y0164548D01*
X0155200Y0165546D02*
X0122950Y0165546D01*
X0122950Y0166545D02*
X0155200Y0166545D01*
X0155200Y0167543D02*
X0122950Y0167543D01*
X0122950Y0168542D02*
X0155200Y0168542D01*
X0155200Y0169540D02*
X0122950Y0169540D01*
X0122950Y0158556D02*
X0139555Y0158556D01*
X0138245Y0157558D02*
X0122950Y0157558D01*
X0122950Y0156559D02*
X0137784Y0156559D01*
X0137700Y0155561D02*
X0122950Y0155561D01*
X0122950Y0154562D02*
X0137941Y0154562D01*
X0138623Y0153564D02*
X0122950Y0153564D01*
X0122950Y0152565D02*
X0138650Y0152565D01*
X0138650Y0151567D02*
X0122950Y0151567D01*
X0122950Y0150568D02*
X0138650Y0150568D01*
X0138650Y0149570D02*
X0122950Y0149570D01*
X0122950Y0148571D02*
X0138650Y0148571D01*
X0138650Y0147573D02*
X0122950Y0147573D01*
X0122950Y0146574D02*
X0138650Y0146574D01*
X0138650Y0145576D02*
X0122950Y0145576D01*
X0122950Y0144577D02*
X0138847Y0144577D01*
X0139845Y0143579D02*
X0122950Y0143579D01*
X0122950Y0142580D02*
X0140844Y0142580D01*
X0141842Y0141582D02*
X0122950Y0141582D01*
X0122950Y0140583D02*
X0142841Y0140583D01*
X0143839Y0139585D02*
X0122950Y0139585D01*
X0122950Y0138586D02*
X0144838Y0138586D01*
X0145836Y0137588D02*
X0122950Y0137588D01*
X0122950Y0136589D02*
X0146835Y0136589D01*
X0146250Y0135591D02*
X0145250Y0135591D01*
X0145250Y0134592D02*
X0146250Y0134592D01*
X0146250Y0133594D02*
X0145250Y0133594D01*
X0145250Y0132595D02*
X0146250Y0132595D01*
X0146250Y0131597D02*
X0145250Y0131597D01*
X0145250Y0130598D02*
X0122950Y0130598D01*
X0122950Y0129600D02*
X0140667Y0129600D01*
X0141009Y0128601D02*
X0122950Y0128601D01*
X0122950Y0131597D02*
X0140619Y0131597D01*
X0140882Y0132595D02*
X0122950Y0132595D01*
X0122950Y0133594D02*
X0141389Y0133594D01*
X0142238Y0134592D02*
X0122950Y0134592D01*
X0122950Y0135591D02*
X0143821Y0135591D01*
X0147679Y0135591D02*
X0153326Y0135591D01*
X0151955Y0134592D02*
X0149262Y0134592D01*
X0150111Y0133594D02*
X0151083Y0133594D01*
X0150669Y0132595D02*
X0150618Y0132595D01*
X0153775Y0140583D02*
X0168091Y0140583D01*
X0167865Y0141582D02*
X0153800Y0141582D01*
X0153500Y0142580D02*
X0167965Y0142580D01*
X0168447Y0143579D02*
X0152735Y0143579D01*
X0150850Y0144577D02*
X0169809Y0144577D01*
X0172022Y0144577D02*
X0183607Y0144577D01*
X0184606Y0145576D02*
X0150850Y0145576D01*
X0150850Y0146574D02*
X0180112Y0146574D01*
X0179436Y0147573D02*
X0150850Y0147573D01*
X0150850Y0148571D02*
X0179200Y0148571D01*
X0179288Y0149570D02*
X0150850Y0149570D01*
X0150882Y0150568D02*
X0179755Y0150568D01*
X0181081Y0151567D02*
X0151561Y0151567D01*
X0151800Y0152565D02*
X0181550Y0152565D01*
X0181550Y0153564D02*
X0151714Y0153564D01*
X0151251Y0154562D02*
X0181550Y0154562D01*
X0181550Y0155561D02*
X0149934Y0155561D01*
X0147566Y0155561D02*
X0143800Y0155561D01*
X0143716Y0156559D02*
X0181550Y0156559D01*
X0181550Y0157558D02*
X0143255Y0157558D01*
X0141945Y0158556D02*
X0181550Y0158556D01*
X0185750Y0157250D02*
X0185750Y0154250D01*
X0187850Y0150568D02*
X0197495Y0150568D01*
X0197200Y0149570D02*
X0189912Y0149570D01*
X0191242Y0148571D02*
X0197230Y0148571D01*
X0197643Y0147573D02*
X0191710Y0147573D01*
X0191800Y0146574D02*
X0198097Y0146574D01*
X0198097Y0145576D02*
X0191565Y0145576D01*
X0190891Y0144577D02*
X0198097Y0144577D01*
X0198097Y0143579D02*
X0188549Y0143579D01*
X0187550Y0142580D02*
X0198097Y0142580D01*
X0197633Y0141582D02*
X0186552Y0141582D01*
X0185553Y0140583D02*
X0196634Y0140583D01*
X0187588Y0149570D02*
X0187540Y0149570D01*
X0185790Y0147573D02*
X0185543Y0147573D01*
X0185604Y0146574D02*
X0184388Y0146574D01*
X0189721Y0151567D02*
X0198254Y0151567D01*
X0193642Y0166545D02*
X0187800Y0166545D01*
X0187800Y0167543D02*
X0192949Y0167543D01*
X0192700Y0168542D02*
X0187800Y0168542D01*
X0187800Y0169540D02*
X0191707Y0169540D01*
X0190709Y0170539D02*
X0187800Y0170539D01*
X0187800Y0171537D02*
X0189710Y0171537D01*
X0188712Y0172536D02*
X0187800Y0172536D01*
X0187713Y0173534D02*
X0187365Y0173534D01*
X0186715Y0174533D02*
X0186366Y0174533D01*
X0185716Y0175531D02*
X0185368Y0175531D01*
X0184718Y0176530D02*
X0184369Y0176530D01*
X0188227Y0179525D02*
X0208550Y0179525D01*
X0208550Y0178527D02*
X0189226Y0178527D01*
X0190224Y0177528D02*
X0208550Y0177528D01*
X0208550Y0176530D02*
X0191223Y0176530D01*
X0192222Y0175531D02*
X0208550Y0175531D01*
X0208550Y0174533D02*
X0193220Y0174533D01*
X0194219Y0173534D02*
X0208550Y0173534D01*
X0208550Y0172536D02*
X0195217Y0172536D01*
X0196991Y0171537D02*
X0208550Y0171537D01*
X0208550Y0170539D02*
X0198275Y0170539D01*
X0208550Y0180524D02*
X0187229Y0180524D01*
X0186230Y0181522D02*
X0208550Y0181522D01*
X0252910Y0194503D02*
X0253749Y0194503D01*
X0282645Y0225457D02*
X0300550Y0225457D01*
X0300550Y0226455D02*
X0283059Y0226455D01*
X0283150Y0227454D02*
X0300550Y0227454D01*
X0300550Y0228452D02*
X0283150Y0228452D01*
X0282890Y0229451D02*
X0300550Y0229451D01*
X0300550Y0230449D02*
X0282477Y0230449D01*
X0281689Y0231448D02*
X0300550Y0231448D01*
X0300550Y0232446D02*
X0280523Y0232446D01*
X0300062Y0204615D02*
X0300062Y0204615D01*
X0300062Y0204615D01*
X0299911Y0204488D02*
X0300550Y0204488D01*
X0300550Y0203489D02*
X0298721Y0203489D01*
X0297531Y0202491D02*
X0300550Y0202491D01*
X0300550Y0136589D02*
X0290580Y0136589D01*
X0282417Y0133594D02*
X0300550Y0133594D01*
X0300550Y0134592D02*
X0281545Y0134592D01*
X0280174Y0135591D02*
X0300550Y0135591D01*
X0300550Y0132595D02*
X0282831Y0132595D01*
X0283150Y0131597D02*
X0300550Y0131597D01*
X0300550Y0130598D02*
X0283150Y0130598D01*
X0283118Y0129600D02*
X0300550Y0129600D01*
X0300550Y0128601D02*
X0282705Y0128601D01*
X0287422Y0121550D02*
X0285438Y0119885D01*
X0283781Y0117015D01*
X0283205Y0113750D01*
X0283205Y0113750D01*
X0283781Y0110485D01*
X0285438Y0107615D01*
X0285438Y0107615D01*
X0287977Y0105484D01*
X0287977Y0105484D01*
X0291093Y0104350D01*
X0294407Y0104350D01*
X0297522Y0105484D01*
X0297523Y0105484D01*
X0300062Y0107615D01*
X0300550Y0108460D01*
X0300550Y0030950D01*
X0282435Y0030950D01*
X0283150Y0032676D01*
X0283150Y0034824D01*
X0282328Y0036809D01*
X0280809Y0038328D01*
X0280031Y0038650D01*
X0289641Y0038650D01*
X0293067Y0042076D01*
X0293142Y0042076D01*
X0294403Y0043337D01*
X0294403Y0050090D01*
X0294836Y0050522D01*
X0295300Y0051643D01*
X0295300Y0052857D01*
X0294836Y0053978D01*
X0293978Y0054836D01*
X0292857Y0055300D01*
X0291643Y0055300D01*
X0290522Y0054836D01*
X0289664Y0053978D01*
X0289200Y0052857D01*
X0289200Y0051643D01*
X0289664Y0050522D01*
X0290097Y0050090D01*
X0290097Y0045046D01*
X0287901Y0042850D01*
X0276820Y0042850D01*
X0280670Y0046700D01*
X0281357Y0046700D01*
X0282478Y0047164D01*
X0283336Y0048022D01*
X0283800Y0049143D01*
X0283800Y0050357D01*
X0283336Y0051478D01*
X0282478Y0052336D01*
X0281357Y0052800D01*
X0280143Y0052800D01*
X0279506Y0052536D01*
X0279850Y0052880D01*
X0279850Y0053800D01*
X0280954Y0053800D01*
X0281950Y0054796D01*
X0281950Y0058704D01*
X0281904Y0058750D01*
X0281950Y0058796D01*
X0281950Y0062704D01*
X0280954Y0063700D01*
X0279800Y0063700D01*
X0279800Y0076099D01*
X0276300Y0079599D01*
X0276300Y0079947D01*
X0284700Y0071547D01*
X0284700Y0071143D01*
X0285164Y0070022D01*
X0286022Y0069164D01*
X0287143Y0068700D01*
X0288357Y0068700D01*
X0289478Y0069164D01*
X0290336Y0070022D01*
X0290800Y0071143D01*
X0290800Y0072357D01*
X0290336Y0073478D01*
X0289478Y0074336D01*
X0288357Y0074800D01*
X0287953Y0074800D01*
X0277703Y0085050D01*
X0249850Y0085050D01*
X0249850Y0090620D01*
X0248620Y0091850D01*
X0247220Y0093250D01*
X0248537Y0093250D01*
X0249022Y0092764D01*
X0250143Y0092300D01*
X0251357Y0092300D01*
X0252478Y0092764D01*
X0252963Y0093250D01*
X0253550Y0093250D01*
X0253550Y0090196D01*
X0254546Y0089200D01*
X0260954Y0089200D01*
X0261804Y0090050D01*
X0268287Y0090050D01*
X0268522Y0089814D01*
X0269643Y0089350D01*
X0270857Y0089350D01*
X0271978Y0089814D01*
X0272836Y0090672D01*
X0273300Y0091793D01*
X0273300Y0093007D01*
X0273199Y0093250D01*
X0278550Y0093250D01*
X0278550Y0090196D01*
X0279546Y0089200D01*
X0280092Y0089200D01*
X0279779Y0088443D01*
X0279779Y0087230D01*
X0280243Y0086109D01*
X0281101Y0085251D01*
X0282222Y0084787D01*
X0283435Y0084787D01*
X0284556Y0085251D01*
X0285414Y0086109D01*
X0285879Y0087230D01*
X0285879Y0088443D01*
X0285565Y0089200D01*
X0285954Y0089200D01*
X0286950Y0090196D01*
X0286950Y0097304D01*
X0285954Y0098300D01*
X0279546Y0098300D01*
X0278696Y0097450D01*
X0261804Y0097450D01*
X0260954Y0098300D01*
X0254546Y0098300D01*
X0253696Y0097450D01*
X0252963Y0097450D01*
X0252478Y0097936D01*
X0251357Y0098400D01*
X0250143Y0098400D01*
X0249022Y0097936D01*
X0248537Y0097450D01*
X0236804Y0097450D01*
X0235954Y0098300D01*
X0229546Y0098300D01*
X0228550Y0097304D01*
X0228550Y0090196D01*
X0229546Y0089200D01*
X0235954Y0089200D01*
X0236804Y0090050D01*
X0244480Y0090050D01*
X0245650Y0088880D01*
X0245650Y0085050D01*
X0245297Y0085050D01*
X0239047Y0078800D01*
X0238643Y0078800D01*
X0237522Y0078336D01*
X0236664Y0077478D01*
X0236200Y0076357D01*
X0236200Y0075143D01*
X0236664Y0074022D01*
X0237522Y0073164D01*
X0238643Y0072700D01*
X0239857Y0072700D01*
X0240978Y0073164D01*
X0241836Y0074022D01*
X0242300Y0075143D01*
X0242300Y0075547D01*
X0247200Y0080447D01*
X0247200Y0063522D01*
X0247522Y0063200D01*
X0267978Y0063200D01*
X0268300Y0063522D01*
X0268300Y0080450D01*
X0272200Y0080450D01*
X0272200Y0077901D01*
X0275700Y0074401D01*
X0275700Y0063700D01*
X0274546Y0063700D01*
X0273550Y0062704D01*
X0273550Y0058796D01*
X0273596Y0058750D01*
X0273550Y0058704D01*
X0273550Y0054796D01*
X0273574Y0054771D01*
X0272522Y0054336D01*
X0271664Y0053478D01*
X0271200Y0052357D01*
X0271200Y0051143D01*
X0271664Y0050022D01*
X0272522Y0049164D01*
X0273643Y0048700D01*
X0274857Y0048700D01*
X0275978Y0049164D01*
X0276463Y0049650D01*
X0276620Y0049650D01*
X0277850Y0050880D01*
X0277964Y0050994D01*
X0277700Y0050357D01*
X0277700Y0049670D01*
X0274864Y0046834D01*
X0265129Y0046834D01*
X0264643Y0047320D01*
X0263522Y0047784D01*
X0262309Y0047784D01*
X0261188Y0047320D01*
X0260330Y0046462D01*
X0259865Y0045341D01*
X0259865Y0044128D01*
X0260330Y0043007D01*
X0260486Y0042850D01*
X0245471Y0042850D01*
X0245800Y0043643D01*
X0245800Y0044857D01*
X0245336Y0045978D01*
X0244478Y0046836D01*
X0243357Y0047300D01*
X0242850Y0047300D01*
X0242850Y0053537D01*
X0243336Y0054022D01*
X0243800Y0055143D01*
X0243800Y0056357D01*
X0243336Y0057478D01*
X0242478Y0058336D01*
X0241357Y0058800D01*
X0240143Y0058800D01*
X0239022Y0058336D01*
X0238164Y0057478D01*
X0237700Y0056357D01*
X0237700Y0055143D01*
X0238164Y0054022D01*
X0238650Y0053537D01*
X0238650Y0045714D01*
X0234850Y0049514D01*
X0234850Y0056537D01*
X0235336Y0057022D01*
X0235800Y0058143D01*
X0235800Y0059357D01*
X0235336Y0060478D01*
X0234478Y0061336D01*
X0233357Y0061800D01*
X0232143Y0061800D01*
X0231022Y0061336D01*
X0230164Y0060478D01*
X0229700Y0059357D01*
X0229700Y0058143D01*
X0230164Y0057022D01*
X0230650Y0056537D01*
X0230650Y0047774D01*
X0239774Y0038650D01*
X0245469Y0038650D01*
X0244691Y0038328D01*
X0243172Y0036809D01*
X0242641Y0035526D01*
X0242569Y0035746D01*
X0242197Y0036475D01*
X0241716Y0037138D01*
X0241138Y0037716D01*
X0240475Y0038197D01*
X0239746Y0038569D01*
X0238968Y0038822D01*
X0238250Y0038936D01*
X0238250Y0034250D01*
X0237250Y0034250D01*
X0237250Y0038936D01*
X0236532Y0038822D01*
X0235754Y0038569D01*
X0235025Y0038197D01*
X0234362Y0037716D01*
X0233784Y0037138D01*
X0233303Y0036475D01*
X0232931Y0035746D01*
X0232678Y0034968D01*
X0232564Y0034250D01*
X0237250Y0034250D01*
X0237250Y0033250D01*
X0232564Y0033250D01*
X0232678Y0032532D01*
X0232931Y0031754D01*
X0233303Y0031025D01*
X0233357Y0030950D01*
X0214950Y0030950D01*
X0214950Y0108460D01*
X0215438Y0107615D01*
X0215438Y0107615D01*
X0217977Y0105484D01*
X0217977Y0105484D01*
X0221093Y0104350D01*
X0224407Y0104350D01*
X0227522Y0105484D01*
X0227523Y0105484D01*
X0230062Y0107615D01*
X0231719Y0110485D01*
X0231719Y0110485D01*
X0232295Y0113750D01*
X0231719Y0117015D01*
X0230062Y0119885D01*
X0230062Y0119885D01*
X0228078Y0121550D01*
X0287422Y0121550D01*
X0286305Y0120613D02*
X0229195Y0120613D01*
X0230218Y0119615D02*
X0285282Y0119615D01*
X0285438Y0119885D02*
X0285438Y0119885D01*
X0285438Y0119885D01*
X0284705Y0118616D02*
X0230795Y0118616D01*
X0231371Y0117618D02*
X0284129Y0117618D01*
X0283781Y0117015D02*
X0283781Y0117015D01*
X0283711Y0116619D02*
X0231789Y0116619D01*
X0231719Y0117015D02*
X0231719Y0117015D01*
X0231965Y0115620D02*
X0283535Y0115620D01*
X0283359Y0114622D02*
X0232141Y0114622D01*
X0232295Y0113750D02*
X0232295Y0113750D01*
X0232273Y0113623D02*
X0283227Y0113623D01*
X0283403Y0112625D02*
X0232097Y0112625D01*
X0231921Y0111626D02*
X0283579Y0111626D01*
X0283755Y0110628D02*
X0231744Y0110628D01*
X0231225Y0109629D02*
X0284275Y0109629D01*
X0283781Y0110485D02*
X0283781Y0110485D01*
X0284851Y0108631D02*
X0230649Y0108631D01*
X0230072Y0107632D02*
X0285428Y0107632D01*
X0286607Y0106634D02*
X0228893Y0106634D01*
X0230062Y0107615D02*
X0230062Y0107615D01*
X0230062Y0107615D01*
X0227703Y0105635D02*
X0287797Y0105635D01*
X0290304Y0104637D02*
X0225196Y0104637D01*
X0220304Y0104637D02*
X0214950Y0104637D01*
X0214950Y0105635D02*
X0217797Y0105635D01*
X0216607Y0106634D02*
X0214950Y0106634D01*
X0214950Y0107632D02*
X0215428Y0107632D01*
X0214950Y0103638D02*
X0300550Y0103638D01*
X0300550Y0102640D02*
X0214950Y0102640D01*
X0214950Y0101641D02*
X0300550Y0101641D01*
X0300550Y0100643D02*
X0214950Y0100643D01*
X0214950Y0099644D02*
X0300550Y0099644D01*
X0300550Y0098646D02*
X0214950Y0098646D01*
X0214950Y0097647D02*
X0228893Y0097647D01*
X0228550Y0096649D02*
X0214950Y0096649D01*
X0214950Y0095650D02*
X0228550Y0095650D01*
X0228550Y0094652D02*
X0214950Y0094652D01*
X0214950Y0093653D02*
X0228550Y0093653D01*
X0228550Y0092655D02*
X0214950Y0092655D01*
X0214950Y0091656D02*
X0228550Y0091656D01*
X0228550Y0090658D02*
X0214950Y0090658D01*
X0214950Y0089659D02*
X0229087Y0089659D01*
X0236413Y0089659D02*
X0244871Y0089659D01*
X0245650Y0088661D02*
X0214950Y0088661D01*
X0214950Y0087662D02*
X0245650Y0087662D01*
X0245650Y0086664D02*
X0214950Y0086664D01*
X0214950Y0085665D02*
X0245650Y0085665D01*
X0244914Y0084667D02*
X0214950Y0084667D01*
X0214950Y0083668D02*
X0243915Y0083668D01*
X0242917Y0082670D02*
X0214950Y0082670D01*
X0214950Y0081671D02*
X0241918Y0081671D01*
X0240920Y0080673D02*
X0214950Y0080673D01*
X0214950Y0079674D02*
X0239921Y0079674D01*
X0238343Y0078676D02*
X0214950Y0078676D01*
X0214950Y0077677D02*
X0236864Y0077677D01*
X0236333Y0076679D02*
X0214950Y0076679D01*
X0214950Y0075680D02*
X0236200Y0075680D01*
X0236391Y0074682D02*
X0214950Y0074682D01*
X0214950Y0073683D02*
X0237004Y0073683D01*
X0241496Y0073683D02*
X0247200Y0073683D01*
X0247200Y0072684D02*
X0214950Y0072684D01*
X0214950Y0071686D02*
X0247200Y0071686D01*
X0247200Y0070687D02*
X0214950Y0070687D01*
X0214950Y0069689D02*
X0247200Y0069689D01*
X0247200Y0068690D02*
X0214950Y0068690D01*
X0214950Y0067692D02*
X0247200Y0067692D01*
X0247200Y0066693D02*
X0214950Y0066693D01*
X0214950Y0065695D02*
X0247200Y0065695D01*
X0247200Y0064696D02*
X0214950Y0064696D01*
X0214950Y0063698D02*
X0247200Y0063698D01*
X0241585Y0058705D02*
X0273551Y0058705D01*
X0273550Y0057707D02*
X0243107Y0057707D01*
X0243654Y0056708D02*
X0273550Y0056708D01*
X0273550Y0055710D02*
X0243800Y0055710D01*
X0243621Y0054711D02*
X0273429Y0054711D01*
X0271899Y0053713D02*
X0243026Y0053713D01*
X0242850Y0052714D02*
X0271348Y0052714D01*
X0271200Y0051716D02*
X0242850Y0051716D01*
X0242850Y0050717D02*
X0271376Y0050717D01*
X0271968Y0049719D02*
X0242850Y0049719D01*
X0242850Y0048720D02*
X0273594Y0048720D01*
X0274905Y0048720D02*
X0276750Y0048720D01*
X0276689Y0049719D02*
X0277700Y0049719D01*
X0277687Y0050717D02*
X0277849Y0050717D01*
X0279684Y0052714D02*
X0279936Y0052714D01*
X0279850Y0053713D02*
X0289555Y0053713D01*
X0289200Y0052714D02*
X0281564Y0052714D01*
X0283098Y0051716D02*
X0289200Y0051716D01*
X0289584Y0050717D02*
X0283651Y0050717D01*
X0283800Y0049719D02*
X0290097Y0049719D01*
X0290097Y0048720D02*
X0283625Y0048720D01*
X0283035Y0047722D02*
X0290097Y0047722D01*
X0290097Y0046723D02*
X0281413Y0046723D01*
X0279695Y0045725D02*
X0290097Y0045725D01*
X0289777Y0044726D02*
X0278696Y0044726D01*
X0277698Y0043728D02*
X0288779Y0043728D01*
X0291723Y0040732D02*
X0300550Y0040732D01*
X0300550Y0039734D02*
X0290724Y0039734D01*
X0289726Y0038735D02*
X0300550Y0038735D01*
X0300550Y0037737D02*
X0281400Y0037737D01*
X0282357Y0036738D02*
X0300550Y0036738D01*
X0300550Y0035740D02*
X0282771Y0035740D01*
X0283150Y0034741D02*
X0300550Y0034741D01*
X0300550Y0033743D02*
X0283150Y0033743D01*
X0283150Y0032744D02*
X0300550Y0032744D01*
X0300550Y0031746D02*
X0282765Y0031746D01*
X0292721Y0041731D02*
X0300550Y0041731D01*
X0300550Y0042729D02*
X0293795Y0042729D01*
X0294403Y0043728D02*
X0300550Y0043728D01*
X0300550Y0044726D02*
X0294403Y0044726D01*
X0294403Y0045725D02*
X0300550Y0045725D01*
X0300550Y0046723D02*
X0294403Y0046723D01*
X0294403Y0047722D02*
X0300550Y0047722D01*
X0300550Y0048720D02*
X0294403Y0048720D01*
X0294403Y0049719D02*
X0300550Y0049719D01*
X0300550Y0050717D02*
X0294916Y0050717D01*
X0295300Y0051716D02*
X0300550Y0051716D01*
X0300550Y0052714D02*
X0295300Y0052714D01*
X0294945Y0053713D02*
X0300550Y0053713D01*
X0300550Y0054711D02*
X0294102Y0054711D01*
X0290398Y0054711D02*
X0281865Y0054711D01*
X0281950Y0055710D02*
X0300550Y0055710D01*
X0300550Y0056708D02*
X0281950Y0056708D01*
X0281950Y0057707D02*
X0300550Y0057707D01*
X0300550Y0058705D02*
X0281949Y0058705D01*
X0281950Y0059704D02*
X0300550Y0059704D01*
X0300550Y0060702D02*
X0281950Y0060702D01*
X0281950Y0061701D02*
X0300550Y0061701D01*
X0300550Y0062699D02*
X0281950Y0062699D01*
X0280956Y0063698D02*
X0300550Y0063698D01*
X0300550Y0064696D02*
X0279800Y0064696D01*
X0279800Y0065695D02*
X0300550Y0065695D01*
X0300550Y0066693D02*
X0279800Y0066693D01*
X0279800Y0067692D02*
X0300550Y0067692D01*
X0300550Y0068690D02*
X0279800Y0068690D01*
X0279800Y0069689D02*
X0285498Y0069689D01*
X0284889Y0070687D02*
X0279800Y0070687D01*
X0279800Y0071686D02*
X0284561Y0071686D01*
X0283563Y0072684D02*
X0279800Y0072684D01*
X0279800Y0073683D02*
X0282564Y0073683D01*
X0281566Y0074682D02*
X0279800Y0074682D01*
X0279800Y0075680D02*
X0280567Y0075680D01*
X0279569Y0076679D02*
X0279221Y0076679D01*
X0278570Y0077677D02*
X0278222Y0077677D01*
X0277572Y0078676D02*
X0277224Y0078676D01*
X0276573Y0079674D02*
X0276300Y0079674D01*
X0272200Y0079674D02*
X0268300Y0079674D01*
X0268300Y0078676D02*
X0272200Y0078676D01*
X0272424Y0077677D02*
X0268300Y0077677D01*
X0268300Y0076679D02*
X0273422Y0076679D01*
X0274421Y0075680D02*
X0268300Y0075680D01*
X0268300Y0074682D02*
X0275419Y0074682D01*
X0275700Y0073683D02*
X0268300Y0073683D01*
X0268300Y0072684D02*
X0275700Y0072684D01*
X0275700Y0071686D02*
X0268300Y0071686D01*
X0268300Y0070687D02*
X0275700Y0070687D01*
X0275700Y0069689D02*
X0268300Y0069689D01*
X0268300Y0068690D02*
X0275700Y0068690D01*
X0275700Y0067692D02*
X0268300Y0067692D01*
X0268300Y0066693D02*
X0275700Y0066693D01*
X0275700Y0065695D02*
X0268300Y0065695D01*
X0268300Y0064696D02*
X0275700Y0064696D01*
X0274544Y0063698D02*
X0268300Y0063698D01*
X0273550Y0062699D02*
X0214950Y0062699D01*
X0214950Y0061701D02*
X0231904Y0061701D01*
X0233596Y0061701D02*
X0273550Y0061701D01*
X0273550Y0060702D02*
X0235111Y0060702D01*
X0235656Y0059704D02*
X0273550Y0059704D01*
X0277750Y0060250D02*
X0277750Y0057250D01*
X0275752Y0047722D02*
X0263673Y0047722D01*
X0262158Y0047722D02*
X0242850Y0047722D01*
X0244590Y0046723D02*
X0260591Y0046723D01*
X0260024Y0045725D02*
X0245440Y0045725D01*
X0245800Y0044726D02*
X0259865Y0044726D01*
X0260031Y0043728D02*
X0245800Y0043728D01*
X0239689Y0038735D02*
X0239235Y0038735D01*
X0238250Y0038735D02*
X0237250Y0038735D01*
X0236265Y0038735D02*
X0214950Y0038735D01*
X0214950Y0037737D02*
X0234390Y0037737D01*
X0233493Y0036738D02*
X0214950Y0036738D01*
X0214950Y0035740D02*
X0232929Y0035740D01*
X0232642Y0034741D02*
X0214950Y0034741D01*
X0214950Y0033743D02*
X0237250Y0033743D01*
X0237250Y0034741D02*
X0238250Y0034741D01*
X0238250Y0035740D02*
X0237250Y0035740D01*
X0237250Y0036738D02*
X0238250Y0036738D01*
X0238250Y0037737D02*
X0237250Y0037737D01*
X0238690Y0039734D02*
X0214950Y0039734D01*
X0214950Y0040732D02*
X0237692Y0040732D01*
X0236693Y0041731D02*
X0214950Y0041731D01*
X0214950Y0042729D02*
X0235695Y0042729D01*
X0234696Y0043728D02*
X0214950Y0043728D01*
X0214950Y0044726D02*
X0233698Y0044726D01*
X0232699Y0045725D02*
X0214950Y0045725D01*
X0214950Y0046723D02*
X0231701Y0046723D01*
X0230702Y0047722D02*
X0214950Y0047722D01*
X0214950Y0048720D02*
X0230650Y0048720D01*
X0230650Y0049719D02*
X0214950Y0049719D01*
X0214950Y0050717D02*
X0230650Y0050717D01*
X0230650Y0051716D02*
X0214950Y0051716D01*
X0214950Y0052714D02*
X0230650Y0052714D01*
X0230650Y0053713D02*
X0214950Y0053713D01*
X0214950Y0054711D02*
X0230650Y0054711D01*
X0230650Y0055710D02*
X0214950Y0055710D01*
X0214950Y0056708D02*
X0230478Y0056708D01*
X0229881Y0057707D02*
X0214950Y0057707D01*
X0214950Y0058705D02*
X0229700Y0058705D01*
X0229844Y0059704D02*
X0214950Y0059704D01*
X0214950Y0060702D02*
X0230389Y0060702D01*
X0235022Y0056708D02*
X0237846Y0056708D01*
X0237700Y0055710D02*
X0234850Y0055710D01*
X0234850Y0054711D02*
X0237879Y0054711D01*
X0238474Y0053713D02*
X0234850Y0053713D01*
X0234850Y0052714D02*
X0238650Y0052714D01*
X0238650Y0051716D02*
X0234850Y0051716D01*
X0234850Y0050717D02*
X0238650Y0050717D01*
X0238650Y0049719D02*
X0234850Y0049719D01*
X0235643Y0048720D02*
X0238650Y0048720D01*
X0238650Y0047722D02*
X0236642Y0047722D01*
X0237640Y0046723D02*
X0238650Y0046723D01*
X0238639Y0045725D02*
X0238650Y0045725D01*
X0241110Y0037737D02*
X0244100Y0037737D01*
X0243143Y0036738D02*
X0242007Y0036738D01*
X0242571Y0035740D02*
X0242729Y0035740D01*
X0232645Y0032744D02*
X0214950Y0032744D01*
X0214950Y0031746D02*
X0232935Y0031746D01*
X0208550Y0031746D02*
X0190765Y0031746D01*
X0190435Y0030950D02*
X0191150Y0032676D01*
X0191150Y0034824D01*
X0190328Y0036809D01*
X0188809Y0038328D01*
X0188031Y0038650D01*
X0197641Y0038650D01*
X0198871Y0039880D01*
X0198871Y0039880D01*
X0201067Y0042076D01*
X0201142Y0042076D01*
X0202403Y0043337D01*
X0202403Y0050090D01*
X0202836Y0050522D01*
X0203300Y0051643D01*
X0203300Y0052857D01*
X0202836Y0053978D01*
X0201978Y0054836D01*
X0200857Y0055300D01*
X0199643Y0055300D01*
X0198522Y0054836D01*
X0197664Y0053978D01*
X0197200Y0052857D01*
X0197200Y0051643D01*
X0197664Y0050522D01*
X0198097Y0050090D01*
X0198097Y0045046D01*
X0195901Y0042850D01*
X0184820Y0042850D01*
X0188670Y0046700D01*
X0189357Y0046700D01*
X0190478Y0047164D01*
X0191336Y0048022D01*
X0191800Y0049143D01*
X0191800Y0050357D01*
X0191336Y0051478D01*
X0190478Y0052336D01*
X0189357Y0052800D01*
X0188143Y0052800D01*
X0187506Y0052536D01*
X0187850Y0052880D01*
X0187850Y0053800D01*
X0188954Y0053800D01*
X0189950Y0054796D01*
X0189950Y0058704D01*
X0189904Y0058750D01*
X0189950Y0058796D01*
X0189950Y0062704D01*
X0188954Y0063700D01*
X0187800Y0063700D01*
X0187800Y0076099D01*
X0184300Y0079599D01*
X0184300Y0079947D01*
X0192700Y0071547D01*
X0192700Y0071143D01*
X0193164Y0070022D01*
X0194022Y0069164D01*
X0195143Y0068700D01*
X0196357Y0068700D01*
X0197478Y0069164D01*
X0198336Y0070022D01*
X0198800Y0071143D01*
X0198800Y0072357D01*
X0198336Y0073478D01*
X0197478Y0074336D01*
X0196357Y0074800D01*
X0195953Y0074800D01*
X0185703Y0085050D01*
X0157850Y0085050D01*
X0157850Y0090620D01*
X0156620Y0091850D01*
X0155220Y0093250D01*
X0156537Y0093250D01*
X0157022Y0092764D01*
X0158143Y0092300D01*
X0159357Y0092300D01*
X0160478Y0092764D01*
X0160963Y0093250D01*
X0161550Y0093250D01*
X0161550Y0090196D01*
X0162546Y0089200D01*
X0168954Y0089200D01*
X0169804Y0090050D01*
X0176287Y0090050D01*
X0176522Y0089814D01*
X0177643Y0089350D01*
X0178857Y0089350D01*
X0179978Y0089814D01*
X0180836Y0090672D01*
X0181300Y0091793D01*
X0181300Y0093007D01*
X0181199Y0093250D01*
X0186550Y0093250D01*
X0186550Y0090196D01*
X0187546Y0089200D01*
X0188092Y0089200D01*
X0187779Y0088443D01*
X0187779Y0087230D01*
X0188243Y0086109D01*
X0189101Y0085251D01*
X0190222Y0084787D01*
X0191435Y0084787D01*
X0192556Y0085251D01*
X0193414Y0086109D01*
X0193879Y0087230D01*
X0193879Y0088443D01*
X0193565Y0089200D01*
X0193954Y0089200D01*
X0194950Y0090196D01*
X0194950Y0097304D01*
X0193954Y0098300D01*
X0187546Y0098300D01*
X0186696Y0097450D01*
X0169804Y0097450D01*
X0168954Y0098300D01*
X0162546Y0098300D01*
X0161696Y0097450D01*
X0160963Y0097450D01*
X0160478Y0097936D01*
X0159357Y0098400D01*
X0158143Y0098400D01*
X0157022Y0097936D01*
X0156537Y0097450D01*
X0144804Y0097450D01*
X0143954Y0098300D01*
X0137546Y0098300D01*
X0136550Y0097304D01*
X0136550Y0090196D01*
X0137546Y0089200D01*
X0143954Y0089200D01*
X0144804Y0090050D01*
X0152480Y0090050D01*
X0153650Y0088880D01*
X0153650Y0085050D01*
X0153297Y0085050D01*
X0147047Y0078800D01*
X0146643Y0078800D01*
X0145522Y0078336D01*
X0144664Y0077478D01*
X0144200Y0076357D01*
X0144200Y0075143D01*
X0144664Y0074022D01*
X0145522Y0073164D01*
X0146643Y0072700D01*
X0147857Y0072700D01*
X0148978Y0073164D01*
X0149836Y0074022D01*
X0150300Y0075143D01*
X0150300Y0075547D01*
X0155200Y0080447D01*
X0155200Y0063522D01*
X0155522Y0063200D01*
X0175978Y0063200D01*
X0176300Y0063522D01*
X0176300Y0080450D01*
X0180200Y0080450D01*
X0180200Y0077901D01*
X0183700Y0074401D01*
X0183700Y0063700D01*
X0182546Y0063700D01*
X0181550Y0062704D01*
X0181550Y0058796D01*
X0181596Y0058750D01*
X0181550Y0058704D01*
X0181550Y0054796D01*
X0181574Y0054771D01*
X0180522Y0054336D01*
X0179664Y0053478D01*
X0179200Y0052357D01*
X0179200Y0051143D01*
X0179664Y0050022D01*
X0180522Y0049164D01*
X0181643Y0048700D01*
X0182857Y0048700D01*
X0183978Y0049164D01*
X0184463Y0049650D01*
X0184620Y0049650D01*
X0185850Y0050880D01*
X0185964Y0050994D01*
X0185700Y0050357D01*
X0185700Y0049670D01*
X0182864Y0046834D01*
X0173129Y0046834D01*
X0172643Y0047320D01*
X0171522Y0047784D01*
X0170309Y0047784D01*
X0169188Y0047320D01*
X0168330Y0046462D01*
X0167865Y0045341D01*
X0167865Y0044128D01*
X0168330Y0043007D01*
X0168486Y0042850D01*
X0153471Y0042850D01*
X0153800Y0043643D01*
X0153800Y0044857D01*
X0153336Y0045978D01*
X0152478Y0046836D01*
X0151357Y0047300D01*
X0150850Y0047300D01*
X0150850Y0053537D01*
X0151336Y0054022D01*
X0151800Y0055143D01*
X0151800Y0056357D01*
X0151336Y0057478D01*
X0150478Y0058336D01*
X0149357Y0058800D01*
X0148143Y0058800D01*
X0147022Y0058336D01*
X0146164Y0057478D01*
X0145700Y0056357D01*
X0145700Y0055143D01*
X0146164Y0054022D01*
X0146650Y0053537D01*
X0146650Y0045714D01*
X0142850Y0049514D01*
X0142850Y0056537D01*
X0143336Y0057022D01*
X0143800Y0058143D01*
X0143800Y0059357D01*
X0143336Y0060478D01*
X0142478Y0061336D01*
X0141357Y0061800D01*
X0140143Y0061800D01*
X0139022Y0061336D01*
X0138164Y0060478D01*
X0137700Y0059357D01*
X0137700Y0058143D01*
X0138164Y0057022D01*
X0138650Y0056537D01*
X0138650Y0047774D01*
X0147774Y0038650D01*
X0153469Y0038650D01*
X0152691Y0038328D01*
X0151172Y0036809D01*
X0150641Y0035526D01*
X0150569Y0035746D01*
X0150197Y0036475D01*
X0149716Y0037138D01*
X0149138Y0037716D01*
X0148475Y0038197D01*
X0147746Y0038569D01*
X0146968Y0038822D01*
X0146250Y0038936D01*
X0146250Y0034250D01*
X0145250Y0034250D01*
X0145250Y0038936D01*
X0144532Y0038822D01*
X0143754Y0038569D01*
X0143025Y0038197D01*
X0142362Y0037716D01*
X0141784Y0037138D01*
X0141303Y0036475D01*
X0140931Y0035746D01*
X0140678Y0034968D01*
X0140564Y0034250D01*
X0145250Y0034250D01*
X0145250Y0033250D01*
X0140564Y0033250D01*
X0140678Y0032532D01*
X0140931Y0031754D01*
X0141303Y0031025D01*
X0141357Y0030950D01*
X0122950Y0030950D01*
X0122950Y0108460D01*
X0123438Y0107615D01*
X0123438Y0107615D01*
X0125977Y0105484D01*
X0125977Y0105484D01*
X0129093Y0104350D01*
X0132407Y0104350D01*
X0135522Y0105484D01*
X0135523Y0105484D01*
X0138062Y0107615D01*
X0139719Y0110485D01*
X0139719Y0110485D01*
X0140295Y0113750D01*
X0139719Y0117015D01*
X0138062Y0119885D01*
X0138062Y0119885D01*
X0136078Y0121550D01*
X0195422Y0121550D01*
X0193438Y0119885D01*
X0191781Y0117015D01*
X0191205Y0113750D01*
X0191205Y0113750D01*
X0191781Y0110485D01*
X0193438Y0107615D01*
X0193438Y0107615D01*
X0195977Y0105484D01*
X0195977Y0105484D01*
X0199093Y0104350D01*
X0202407Y0104350D01*
X0205522Y0105484D01*
X0205523Y0105484D01*
X0208062Y0107615D01*
X0208550Y0108460D01*
X0208550Y0030950D01*
X0190435Y0030950D01*
X0191150Y0032744D02*
X0208550Y0032744D01*
X0208550Y0033743D02*
X0191150Y0033743D01*
X0191150Y0034741D02*
X0208550Y0034741D01*
X0208550Y0035740D02*
X0190771Y0035740D01*
X0190357Y0036738D02*
X0208550Y0036738D01*
X0208550Y0037737D02*
X0189400Y0037737D01*
X0185698Y0043728D02*
X0196779Y0043728D01*
X0197777Y0044726D02*
X0186696Y0044726D01*
X0187695Y0045725D02*
X0198097Y0045725D01*
X0198097Y0046723D02*
X0189413Y0046723D01*
X0191035Y0047722D02*
X0198097Y0047722D01*
X0198097Y0048720D02*
X0191625Y0048720D01*
X0191800Y0049719D02*
X0198097Y0049719D01*
X0197584Y0050717D02*
X0191651Y0050717D01*
X0191098Y0051716D02*
X0197200Y0051716D01*
X0197200Y0052714D02*
X0189564Y0052714D01*
X0187936Y0052714D02*
X0187684Y0052714D01*
X0187850Y0053713D02*
X0197555Y0053713D01*
X0198398Y0054711D02*
X0189865Y0054711D01*
X0189950Y0055710D02*
X0208550Y0055710D01*
X0208550Y0056708D02*
X0189950Y0056708D01*
X0189950Y0057707D02*
X0208550Y0057707D01*
X0208550Y0058705D02*
X0189949Y0058705D01*
X0189950Y0059704D02*
X0208550Y0059704D01*
X0208550Y0060702D02*
X0189950Y0060702D01*
X0189950Y0061701D02*
X0208550Y0061701D01*
X0208550Y0062699D02*
X0189950Y0062699D01*
X0188956Y0063698D02*
X0208550Y0063698D01*
X0208550Y0064696D02*
X0187800Y0064696D01*
X0187800Y0065695D02*
X0208550Y0065695D01*
X0208550Y0066693D02*
X0187800Y0066693D01*
X0187800Y0067692D02*
X0208550Y0067692D01*
X0208550Y0068690D02*
X0187800Y0068690D01*
X0187800Y0069689D02*
X0193498Y0069689D01*
X0192889Y0070687D02*
X0187800Y0070687D01*
X0187800Y0071686D02*
X0192561Y0071686D01*
X0191563Y0072684D02*
X0187800Y0072684D01*
X0187800Y0073683D02*
X0190564Y0073683D01*
X0189566Y0074682D02*
X0187800Y0074682D01*
X0187800Y0075680D02*
X0188567Y0075680D01*
X0187569Y0076679D02*
X0187221Y0076679D01*
X0186570Y0077677D02*
X0186222Y0077677D01*
X0185572Y0078676D02*
X0185224Y0078676D01*
X0184573Y0079674D02*
X0184300Y0079674D01*
X0180200Y0079674D02*
X0176300Y0079674D01*
X0176300Y0078676D02*
X0180200Y0078676D01*
X0180424Y0077677D02*
X0176300Y0077677D01*
X0176300Y0076679D02*
X0181422Y0076679D01*
X0182421Y0075680D02*
X0176300Y0075680D01*
X0176300Y0074682D02*
X0183419Y0074682D01*
X0183700Y0073683D02*
X0176300Y0073683D01*
X0176300Y0072684D02*
X0183700Y0072684D01*
X0183700Y0071686D02*
X0176300Y0071686D01*
X0176300Y0070687D02*
X0183700Y0070687D01*
X0183700Y0069689D02*
X0176300Y0069689D01*
X0176300Y0068690D02*
X0183700Y0068690D01*
X0183700Y0067692D02*
X0176300Y0067692D01*
X0176300Y0066693D02*
X0183700Y0066693D01*
X0183700Y0065695D02*
X0176300Y0065695D01*
X0176300Y0064696D02*
X0183700Y0064696D01*
X0182544Y0063698D02*
X0176300Y0063698D01*
X0181550Y0062699D02*
X0122950Y0062699D01*
X0122950Y0061701D02*
X0139904Y0061701D01*
X0141596Y0061701D02*
X0181550Y0061701D01*
X0181550Y0060702D02*
X0143111Y0060702D01*
X0143656Y0059704D02*
X0181550Y0059704D01*
X0181551Y0058705D02*
X0149585Y0058705D01*
X0147915Y0058705D02*
X0143800Y0058705D01*
X0143619Y0057707D02*
X0146393Y0057707D01*
X0145846Y0056708D02*
X0143022Y0056708D01*
X0142850Y0055710D02*
X0145700Y0055710D01*
X0145879Y0054711D02*
X0142850Y0054711D01*
X0142850Y0053713D02*
X0146474Y0053713D01*
X0146650Y0052714D02*
X0142850Y0052714D01*
X0142850Y0051716D02*
X0146650Y0051716D01*
X0146650Y0050717D02*
X0142850Y0050717D01*
X0142850Y0049719D02*
X0146650Y0049719D01*
X0146650Y0048720D02*
X0143643Y0048720D01*
X0144642Y0047722D02*
X0146650Y0047722D01*
X0146650Y0046723D02*
X0145640Y0046723D01*
X0146639Y0045725D02*
X0146650Y0045725D01*
X0143695Y0042729D02*
X0122950Y0042729D01*
X0122950Y0041731D02*
X0144693Y0041731D01*
X0145692Y0040732D02*
X0122950Y0040732D01*
X0122950Y0039734D02*
X0146690Y0039734D01*
X0146250Y0038735D02*
X0145250Y0038735D01*
X0144265Y0038735D02*
X0122950Y0038735D01*
X0122950Y0037737D02*
X0142390Y0037737D01*
X0141493Y0036738D02*
X0122950Y0036738D01*
X0122950Y0035740D02*
X0140929Y0035740D01*
X0140642Y0034741D02*
X0122950Y0034741D01*
X0122950Y0033743D02*
X0145250Y0033743D01*
X0145250Y0034741D02*
X0146250Y0034741D01*
X0146250Y0035740D02*
X0145250Y0035740D01*
X0145250Y0036738D02*
X0146250Y0036738D01*
X0146250Y0037737D02*
X0145250Y0037737D01*
X0147235Y0038735D02*
X0147689Y0038735D01*
X0149110Y0037737D02*
X0152100Y0037737D01*
X0151143Y0036738D02*
X0150007Y0036738D01*
X0150571Y0035740D02*
X0150729Y0035740D01*
X0153800Y0043728D02*
X0168031Y0043728D01*
X0167865Y0044726D02*
X0153800Y0044726D01*
X0153440Y0045725D02*
X0168024Y0045725D01*
X0168591Y0046723D02*
X0152590Y0046723D01*
X0150850Y0047722D02*
X0170158Y0047722D01*
X0171673Y0047722D02*
X0183752Y0047722D01*
X0182905Y0048720D02*
X0184750Y0048720D01*
X0184689Y0049719D02*
X0185700Y0049719D01*
X0185687Y0050717D02*
X0185849Y0050717D01*
X0181594Y0048720D02*
X0150850Y0048720D01*
X0150850Y0049719D02*
X0179968Y0049719D01*
X0179376Y0050717D02*
X0150850Y0050717D01*
X0150850Y0051716D02*
X0179200Y0051716D01*
X0179348Y0052714D02*
X0150850Y0052714D01*
X0151026Y0053713D02*
X0179899Y0053713D01*
X0181429Y0054711D02*
X0151621Y0054711D01*
X0151800Y0055710D02*
X0181550Y0055710D01*
X0181550Y0056708D02*
X0151654Y0056708D01*
X0151107Y0057707D02*
X0181550Y0057707D01*
X0185750Y0057250D02*
X0185750Y0060250D01*
X0198002Y0069689D02*
X0208550Y0069689D01*
X0208550Y0070687D02*
X0198611Y0070687D01*
X0198800Y0071686D02*
X0208550Y0071686D01*
X0208550Y0072684D02*
X0198664Y0072684D01*
X0198130Y0073683D02*
X0208550Y0073683D01*
X0208550Y0074682D02*
X0196643Y0074682D01*
X0195073Y0075680D02*
X0208550Y0075680D01*
X0208550Y0076679D02*
X0194074Y0076679D01*
X0193076Y0077677D02*
X0208550Y0077677D01*
X0208550Y0078676D02*
X0192077Y0078676D01*
X0191079Y0079674D02*
X0208550Y0079674D01*
X0208550Y0080673D02*
X0190080Y0080673D01*
X0189082Y0081671D02*
X0208550Y0081671D01*
X0208550Y0082670D02*
X0188083Y0082670D01*
X0187085Y0083668D02*
X0208550Y0083668D01*
X0208550Y0084667D02*
X0186086Y0084667D01*
X0188013Y0086664D02*
X0157850Y0086664D01*
X0157850Y0087662D02*
X0187779Y0087662D01*
X0187869Y0088661D02*
X0157850Y0088661D01*
X0157850Y0089659D02*
X0162087Y0089659D01*
X0161550Y0090658D02*
X0157812Y0090658D01*
X0156814Y0091656D02*
X0161550Y0091656D01*
X0161550Y0092655D02*
X0160213Y0092655D01*
X0157287Y0092655D02*
X0155815Y0092655D01*
X0152871Y0089659D02*
X0144413Y0089659D01*
X0137087Y0089659D02*
X0122950Y0089659D01*
X0122950Y0088661D02*
X0153650Y0088661D01*
X0153650Y0087662D02*
X0122950Y0087662D01*
X0122950Y0086664D02*
X0153650Y0086664D01*
X0153650Y0085665D02*
X0122950Y0085665D01*
X0122950Y0084667D02*
X0152914Y0084667D01*
X0151915Y0083668D02*
X0122950Y0083668D01*
X0122950Y0082670D02*
X0150917Y0082670D01*
X0149918Y0081671D02*
X0122950Y0081671D01*
X0122950Y0080673D02*
X0148920Y0080673D01*
X0147921Y0079674D02*
X0122950Y0079674D01*
X0122950Y0078676D02*
X0146343Y0078676D01*
X0144864Y0077677D02*
X0122950Y0077677D01*
X0122950Y0076679D02*
X0144333Y0076679D01*
X0144200Y0075680D02*
X0122950Y0075680D01*
X0122950Y0074682D02*
X0144391Y0074682D01*
X0145004Y0073683D02*
X0122950Y0073683D01*
X0122950Y0072684D02*
X0155200Y0072684D01*
X0155200Y0071686D02*
X0122950Y0071686D01*
X0122950Y0070687D02*
X0155200Y0070687D01*
X0155200Y0069689D02*
X0122950Y0069689D01*
X0122950Y0068690D02*
X0155200Y0068690D01*
X0155200Y0067692D02*
X0122950Y0067692D01*
X0122950Y0066693D02*
X0155200Y0066693D01*
X0155200Y0065695D02*
X0122950Y0065695D01*
X0122950Y0064696D02*
X0155200Y0064696D01*
X0155200Y0063698D02*
X0122950Y0063698D01*
X0122950Y0060702D02*
X0138389Y0060702D01*
X0137844Y0059704D02*
X0122950Y0059704D01*
X0122950Y0058705D02*
X0137700Y0058705D01*
X0137881Y0057707D02*
X0122950Y0057707D01*
X0122950Y0056708D02*
X0138478Y0056708D01*
X0138650Y0055710D02*
X0122950Y0055710D01*
X0122950Y0054711D02*
X0138650Y0054711D01*
X0138650Y0053713D02*
X0122950Y0053713D01*
X0122950Y0052714D02*
X0138650Y0052714D01*
X0138650Y0051716D02*
X0122950Y0051716D01*
X0122950Y0050717D02*
X0138650Y0050717D01*
X0138650Y0049719D02*
X0122950Y0049719D01*
X0122950Y0048720D02*
X0138650Y0048720D01*
X0138702Y0047722D02*
X0122950Y0047722D01*
X0122950Y0046723D02*
X0139701Y0046723D01*
X0140699Y0045725D02*
X0122950Y0045725D01*
X0122950Y0044726D02*
X0141698Y0044726D01*
X0142696Y0043728D02*
X0122950Y0043728D01*
X0122950Y0032744D02*
X0140645Y0032744D01*
X0140935Y0031746D02*
X0122950Y0031746D01*
X0116550Y0069689D02*
X0106002Y0069689D01*
X0106611Y0070687D02*
X0116550Y0070687D01*
X0116550Y0071686D02*
X0106800Y0071686D01*
X0106664Y0072684D02*
X0116550Y0072684D01*
X0116550Y0073683D02*
X0106130Y0073683D01*
X0104643Y0074682D02*
X0116550Y0074682D01*
X0116550Y0075680D02*
X0103073Y0075680D01*
X0102074Y0076679D02*
X0116550Y0076679D01*
X0116550Y0077677D02*
X0101076Y0077677D01*
X0100077Y0078676D02*
X0116550Y0078676D01*
X0116550Y0079674D02*
X0099079Y0079674D01*
X0098080Y0080673D02*
X0116550Y0080673D01*
X0116550Y0081671D02*
X0097082Y0081671D01*
X0096083Y0082670D02*
X0116550Y0082670D01*
X0116550Y0083668D02*
X0095085Y0083668D01*
X0094086Y0084667D02*
X0116550Y0084667D01*
X0116550Y0085665D02*
X0100971Y0085665D01*
X0101644Y0086664D02*
X0116550Y0086664D01*
X0116550Y0087662D02*
X0101879Y0087662D01*
X0101789Y0088661D02*
X0116550Y0088661D01*
X0116550Y0089659D02*
X0102413Y0089659D01*
X0102950Y0090658D02*
X0116550Y0090658D01*
X0116550Y0091656D02*
X0102950Y0091656D01*
X0102950Y0092655D02*
X0116550Y0092655D01*
X0116550Y0093653D02*
X0102950Y0093653D01*
X0102950Y0094652D02*
X0116550Y0094652D01*
X0116550Y0095650D02*
X0102950Y0095650D01*
X0102950Y0096649D02*
X0116550Y0096649D01*
X0116550Y0097647D02*
X0102607Y0097647D01*
X0094893Y0097647D02*
X0077607Y0097647D01*
X0069893Y0097647D02*
X0068766Y0097647D01*
X0077413Y0089659D02*
X0084897Y0089659D01*
X0087603Y0089659D02*
X0095087Y0089659D01*
X0094550Y0090658D02*
X0088821Y0090658D01*
X0089243Y0091656D02*
X0094550Y0091656D01*
X0094550Y0092655D02*
X0089300Y0092655D01*
X0103797Y0105635D02*
X0043703Y0105635D01*
X0041196Y0104637D02*
X0106304Y0104637D01*
X0111196Y0104637D02*
X0116550Y0104637D01*
X0116550Y0105635D02*
X0113703Y0105635D01*
X0114893Y0106634D02*
X0116550Y0106634D01*
X0116550Y0107632D02*
X0116072Y0107632D01*
X0122950Y0107632D02*
X0123428Y0107632D01*
X0122950Y0106634D02*
X0124607Y0106634D01*
X0125797Y0105635D02*
X0122950Y0105635D01*
X0122950Y0104637D02*
X0128304Y0104637D01*
X0133196Y0104637D02*
X0198304Y0104637D01*
X0195797Y0105635D02*
X0135703Y0105635D01*
X0136893Y0106634D02*
X0194607Y0106634D01*
X0193428Y0107632D02*
X0138072Y0107632D01*
X0138062Y0107615D02*
X0138062Y0107615D01*
X0138062Y0107615D01*
X0138649Y0108631D02*
X0192851Y0108631D01*
X0192275Y0109629D02*
X0139225Y0109629D01*
X0139744Y0110628D02*
X0191755Y0110628D01*
X0191781Y0110485D02*
X0191781Y0110485D01*
X0191579Y0111626D02*
X0139921Y0111626D01*
X0140097Y0112625D02*
X0191403Y0112625D01*
X0191227Y0113623D02*
X0140273Y0113623D01*
X0140295Y0113750D02*
X0140295Y0113750D01*
X0140141Y0114622D02*
X0191359Y0114622D01*
X0191535Y0115620D02*
X0139965Y0115620D01*
X0139789Y0116619D02*
X0191711Y0116619D01*
X0191781Y0117015D02*
X0191781Y0117015D01*
X0192129Y0117618D02*
X0139371Y0117618D01*
X0139719Y0117015D02*
X0139719Y0117015D01*
X0138795Y0118616D02*
X0192705Y0118616D01*
X0193282Y0119615D02*
X0138218Y0119615D01*
X0137195Y0120613D02*
X0194305Y0120613D01*
X0193438Y0119885D02*
X0193438Y0119885D01*
X0203196Y0104637D02*
X0208550Y0104637D01*
X0208550Y0105635D02*
X0205703Y0105635D01*
X0206893Y0106634D02*
X0208550Y0106634D01*
X0208550Y0107632D02*
X0208072Y0107632D01*
X0208062Y0107615D02*
X0208062Y0107615D01*
X0208062Y0107615D01*
X0208550Y0103638D02*
X0122950Y0103638D01*
X0122950Y0102640D02*
X0208550Y0102640D01*
X0208550Y0101641D02*
X0122950Y0101641D01*
X0122950Y0100643D02*
X0208550Y0100643D01*
X0208550Y0099644D02*
X0122950Y0099644D01*
X0122950Y0098646D02*
X0208550Y0098646D01*
X0208550Y0097647D02*
X0194607Y0097647D01*
X0194950Y0096649D02*
X0208550Y0096649D01*
X0208550Y0095650D02*
X0194950Y0095650D01*
X0194950Y0094652D02*
X0208550Y0094652D01*
X0208550Y0093653D02*
X0194950Y0093653D01*
X0194950Y0092655D02*
X0208550Y0092655D01*
X0208550Y0091656D02*
X0194950Y0091656D01*
X0194950Y0090658D02*
X0208550Y0090658D01*
X0208550Y0089659D02*
X0194413Y0089659D01*
X0193789Y0088661D02*
X0208550Y0088661D01*
X0208550Y0087662D02*
X0193879Y0087662D01*
X0193644Y0086664D02*
X0208550Y0086664D01*
X0208550Y0085665D02*
X0192971Y0085665D01*
X0188687Y0085665D02*
X0157850Y0085665D01*
X0155200Y0079674D02*
X0154427Y0079674D01*
X0155200Y0078676D02*
X0153428Y0078676D01*
X0152430Y0077677D02*
X0155200Y0077677D01*
X0155200Y0076679D02*
X0151431Y0076679D01*
X0150433Y0075680D02*
X0155200Y0075680D01*
X0155200Y0074682D02*
X0150109Y0074682D01*
X0149496Y0073683D02*
X0155200Y0073683D01*
X0169413Y0089659D02*
X0176897Y0089659D01*
X0179603Y0089659D02*
X0187087Y0089659D01*
X0186550Y0090658D02*
X0180821Y0090658D01*
X0181243Y0091656D02*
X0186550Y0091656D01*
X0186550Y0092655D02*
X0181300Y0092655D01*
X0186893Y0097647D02*
X0169607Y0097647D01*
X0161893Y0097647D02*
X0160766Y0097647D01*
X0156734Y0097647D02*
X0144607Y0097647D01*
X0136893Y0097647D02*
X0122950Y0097647D01*
X0122950Y0096649D02*
X0136550Y0096649D01*
X0136550Y0095650D02*
X0122950Y0095650D01*
X0122950Y0094652D02*
X0136550Y0094652D01*
X0136550Y0093653D02*
X0122950Y0093653D01*
X0122950Y0092655D02*
X0136550Y0092655D01*
X0136550Y0091656D02*
X0122950Y0091656D01*
X0122950Y0090658D02*
X0136550Y0090658D01*
X0116550Y0136589D02*
X0106580Y0136589D01*
X0107578Y0137588D02*
X0116550Y0137588D01*
X0116550Y0138586D02*
X0108577Y0138586D01*
X0109651Y0139585D02*
X0116550Y0139585D01*
X0116550Y0140583D02*
X0110403Y0140583D01*
X0110403Y0141582D02*
X0116550Y0141582D01*
X0116550Y0142580D02*
X0110403Y0142580D01*
X0110403Y0143579D02*
X0116550Y0143579D01*
X0116550Y0144577D02*
X0110403Y0144577D01*
X0110403Y0145576D02*
X0116550Y0145576D01*
X0116550Y0146574D02*
X0110403Y0146574D01*
X0110857Y0147573D02*
X0116550Y0147573D01*
X0116550Y0148571D02*
X0111270Y0148571D01*
X0111300Y0149570D02*
X0116550Y0149570D01*
X0116550Y0150568D02*
X0111005Y0150568D01*
X0110246Y0151567D02*
X0116550Y0151567D01*
X0116550Y0152565D02*
X0097950Y0152565D01*
X0097950Y0153564D02*
X0116550Y0153564D01*
X0116550Y0154562D02*
X0097950Y0154562D01*
X0097950Y0155561D02*
X0116550Y0155561D01*
X0116550Y0156559D02*
X0097950Y0156559D01*
X0091700Y0161552D02*
X0084300Y0161552D01*
X0084300Y0160553D02*
X0090399Y0160553D01*
X0091700Y0162551D02*
X0084300Y0162551D01*
X0084300Y0163549D02*
X0091700Y0163549D01*
X0091700Y0164548D02*
X0084300Y0164548D01*
X0084300Y0165546D02*
X0091700Y0165546D01*
X0091700Y0166545D02*
X0084300Y0166545D01*
X0084300Y0167543D02*
X0091700Y0167543D01*
X0091700Y0168542D02*
X0084300Y0168542D01*
X0084300Y0169540D02*
X0091700Y0169540D01*
X0091700Y0170539D02*
X0084300Y0170539D01*
X0084300Y0171537D02*
X0091564Y0171537D01*
X0090565Y0172536D02*
X0084300Y0172536D01*
X0084300Y0173534D02*
X0089567Y0173534D01*
X0088568Y0174533D02*
X0084300Y0174533D01*
X0084300Y0175531D02*
X0088200Y0175531D01*
X0088200Y0176530D02*
X0084300Y0176530D01*
X0092369Y0176530D02*
X0092718Y0176530D01*
X0093368Y0175531D02*
X0093716Y0175531D01*
X0094366Y0174533D02*
X0094715Y0174533D01*
X0095365Y0173534D02*
X0095713Y0173534D01*
X0095800Y0172536D02*
X0096712Y0172536D01*
X0095800Y0171537D02*
X0097710Y0171537D01*
X0098709Y0170539D02*
X0095800Y0170539D01*
X0095800Y0169540D02*
X0099707Y0169540D01*
X0100700Y0168542D02*
X0095800Y0168542D01*
X0095800Y0167543D02*
X0100949Y0167543D01*
X0101642Y0166545D02*
X0095800Y0166545D01*
X0116550Y0195501D02*
X0030950Y0195501D01*
X0030950Y0196500D02*
X0116550Y0196500D01*
X0116550Y0197498D02*
X0030950Y0197498D01*
X0030950Y0198497D02*
X0116550Y0198497D01*
X0116550Y0199495D02*
X0030950Y0199495D01*
X0030950Y0200494D02*
X0116550Y0200494D01*
X0116550Y0201492D02*
X0110799Y0201492D01*
X0113531Y0202491D02*
X0116550Y0202491D01*
X0116550Y0203489D02*
X0114721Y0203489D01*
X0115911Y0204488D02*
X0116550Y0204488D01*
X0116062Y0204615D02*
X0116062Y0204615D01*
X0116062Y0204615D01*
X0122950Y0204488D02*
X0123589Y0204488D01*
X0122950Y0203489D02*
X0124779Y0203489D01*
X0125969Y0202491D02*
X0122950Y0202491D01*
X0106701Y0201492D02*
X0040799Y0201492D01*
X0043531Y0202491D02*
X0103969Y0202491D01*
X0102779Y0203489D02*
X0044721Y0203489D01*
X0036701Y0201492D02*
X0030950Y0201492D01*
X0030950Y0202491D02*
X0033969Y0202491D01*
X0032779Y0203489D02*
X0030950Y0203489D01*
X0030950Y0204488D02*
X0031589Y0204488D01*
X0030950Y0229451D02*
X0048835Y0229451D01*
X0049289Y0230449D02*
X0030950Y0230449D01*
X0030950Y0231448D02*
X0050094Y0231448D01*
X0051513Y0232446D02*
X0030950Y0232446D01*
X0055987Y0232446D02*
X0060977Y0232446D01*
X0059811Y0231448D02*
X0057406Y0231448D01*
X0058211Y0230449D02*
X0059023Y0230449D01*
X0077125Y0283370D02*
X0085594Y0283370D01*
X0086906Y0283370D02*
X0095375Y0283370D01*
X0094550Y0284369D02*
X0088532Y0284369D01*
X0089124Y0285367D02*
X0094550Y0285367D01*
X0094550Y0286366D02*
X0089300Y0286366D01*
X0102951Y0300345D02*
X0044549Y0300345D01*
X0045739Y0301344D02*
X0101761Y0301344D01*
X0101018Y0302342D02*
X0046482Y0302342D01*
X0046062Y0301615D02*
X0046062Y0301615D01*
X0046062Y0301615D01*
X0047058Y0303341D02*
X0100442Y0303341D01*
X0099865Y0304339D02*
X0047635Y0304339D01*
X0047870Y0305338D02*
X0099630Y0305338D01*
X0099454Y0306336D02*
X0048046Y0306336D01*
X0048222Y0307335D02*
X0099278Y0307335D01*
X0099205Y0307750D02*
X0099205Y0307750D01*
X0099308Y0308333D02*
X0048192Y0308333D01*
X0048295Y0307750D02*
X0048295Y0307750D01*
X0048016Y0309332D02*
X0099484Y0309332D01*
X0099660Y0310330D02*
X0047840Y0310330D01*
X0047719Y0311015D02*
X0047719Y0311015D01*
X0047538Y0311329D02*
X0099962Y0311329D01*
X0099781Y0311015D02*
X0099781Y0311015D01*
X0100538Y0312327D02*
X0046962Y0312327D01*
X0046385Y0313326D02*
X0101115Y0313326D01*
X0101438Y0313885D02*
X0101438Y0313885D01*
X0101438Y0313885D01*
X0101961Y0314324D02*
X0045539Y0314324D01*
X0044349Y0315323D02*
X0103151Y0315323D01*
X0104354Y0299347D02*
X0043146Y0299347D01*
X0034354Y0299347D02*
X0030950Y0299347D01*
X0030950Y0300345D02*
X0032951Y0300345D01*
X0031761Y0301344D02*
X0030950Y0301344D01*
X0030950Y0302342D02*
X0031018Y0302342D01*
X0030950Y0158556D02*
X0047555Y0158556D01*
X0046245Y0157558D02*
X0030950Y0157558D01*
X0030950Y0156559D02*
X0045784Y0156559D01*
X0045700Y0155561D02*
X0030950Y0155561D01*
X0030950Y0154562D02*
X0045941Y0154562D01*
X0046623Y0153564D02*
X0030950Y0153564D01*
X0030950Y0152565D02*
X0046650Y0152565D01*
X0046650Y0151567D02*
X0030950Y0151567D01*
X0030950Y0150568D02*
X0046650Y0150568D01*
X0046650Y0149570D02*
X0030950Y0149570D01*
X0030950Y0148571D02*
X0046650Y0148571D01*
X0046650Y0147573D02*
X0030950Y0147573D01*
X0030950Y0146574D02*
X0046650Y0146574D01*
X0046650Y0145576D02*
X0030950Y0145576D01*
X0030950Y0144577D02*
X0046847Y0144577D01*
X0047845Y0143579D02*
X0030950Y0143579D01*
X0030950Y0142580D02*
X0048844Y0142580D01*
X0049842Y0141582D02*
X0030950Y0141582D01*
X0030950Y0140583D02*
X0050841Y0140583D01*
X0051839Y0139585D02*
X0030950Y0139585D01*
X0030950Y0138586D02*
X0052838Y0138586D01*
X0053836Y0137588D02*
X0030950Y0137588D01*
X0030950Y0136589D02*
X0054835Y0136589D01*
X0054250Y0135591D02*
X0053250Y0135591D01*
X0053250Y0134592D02*
X0054250Y0134592D01*
X0054250Y0133594D02*
X0053250Y0133594D01*
X0053250Y0132595D02*
X0054250Y0132595D01*
X0054250Y0131597D02*
X0053250Y0131597D01*
X0053250Y0130598D02*
X0030950Y0130598D01*
X0030950Y0129600D02*
X0048667Y0129600D01*
X0049009Y0128601D02*
X0030950Y0128601D01*
X0030950Y0131597D02*
X0048619Y0131597D01*
X0048882Y0132595D02*
X0030950Y0132595D01*
X0030950Y0133594D02*
X0049389Y0133594D01*
X0050238Y0134592D02*
X0030950Y0134592D01*
X0030950Y0135591D02*
X0051821Y0135591D01*
X0055679Y0135591D02*
X0061326Y0135591D01*
X0059955Y0134592D02*
X0057262Y0134592D01*
X0058111Y0133594D02*
X0059083Y0133594D01*
X0058669Y0132595D02*
X0058618Y0132595D01*
X0142850Y0146574D02*
X0146650Y0146574D01*
X0146650Y0145576D02*
X0143788Y0145576D01*
X0144786Y0144577D02*
X0146650Y0144577D01*
X0146650Y0143579D02*
X0145785Y0143579D01*
X0146650Y0147573D02*
X0142850Y0147573D01*
X0142850Y0148571D02*
X0146650Y0148571D01*
X0146650Y0149570D02*
X0142850Y0149570D01*
X0142850Y0150568D02*
X0146618Y0150568D01*
X0145939Y0151567D02*
X0142850Y0151567D01*
X0142850Y0152565D02*
X0145700Y0152565D01*
X0145786Y0153564D02*
X0142877Y0153564D01*
X0143559Y0154562D02*
X0146249Y0154562D01*
X0236607Y0097647D02*
X0248734Y0097647D01*
X0252766Y0097647D02*
X0253893Y0097647D01*
X0253550Y0092655D02*
X0252213Y0092655D01*
X0253550Y0091656D02*
X0248814Y0091656D01*
X0249287Y0092655D02*
X0247815Y0092655D01*
X0249812Y0090658D02*
X0253550Y0090658D01*
X0254087Y0089659D02*
X0249850Y0089659D01*
X0249850Y0088661D02*
X0279869Y0088661D01*
X0279779Y0087662D02*
X0249850Y0087662D01*
X0249850Y0086664D02*
X0280013Y0086664D01*
X0280687Y0085665D02*
X0249850Y0085665D01*
X0247200Y0079674D02*
X0246427Y0079674D01*
X0247200Y0078676D02*
X0245428Y0078676D01*
X0244430Y0077677D02*
X0247200Y0077677D01*
X0247200Y0076679D02*
X0243431Y0076679D01*
X0242433Y0075680D02*
X0247200Y0075680D01*
X0247200Y0074682D02*
X0242109Y0074682D01*
X0239915Y0058705D02*
X0235800Y0058705D01*
X0235619Y0057707D02*
X0238393Y0057707D01*
X0208550Y0054711D02*
X0202102Y0054711D01*
X0202945Y0053713D02*
X0208550Y0053713D01*
X0208550Y0052714D02*
X0203300Y0052714D01*
X0203300Y0051716D02*
X0208550Y0051716D01*
X0208550Y0050717D02*
X0202916Y0050717D01*
X0202403Y0049719D02*
X0208550Y0049719D01*
X0208550Y0048720D02*
X0202403Y0048720D01*
X0202403Y0047722D02*
X0208550Y0047722D01*
X0208550Y0046723D02*
X0202403Y0046723D01*
X0202403Y0045725D02*
X0208550Y0045725D01*
X0208550Y0044726D02*
X0202403Y0044726D01*
X0202403Y0043728D02*
X0208550Y0043728D01*
X0208550Y0042729D02*
X0201795Y0042729D01*
X0200721Y0041731D02*
X0208550Y0041731D01*
X0208550Y0040732D02*
X0199723Y0040732D01*
X0198724Y0039734D02*
X0208550Y0039734D01*
X0208550Y0038735D02*
X0197726Y0038735D01*
X0261413Y0089659D02*
X0268897Y0089659D01*
X0271603Y0089659D02*
X0279087Y0089659D01*
X0278550Y0090658D02*
X0272821Y0090658D01*
X0273243Y0091656D02*
X0278550Y0091656D01*
X0278550Y0092655D02*
X0273300Y0092655D01*
X0278893Y0097647D02*
X0261607Y0097647D01*
X0278086Y0084667D02*
X0300550Y0084667D01*
X0300550Y0085665D02*
X0284971Y0085665D01*
X0285644Y0086664D02*
X0300550Y0086664D01*
X0300550Y0087662D02*
X0285879Y0087662D01*
X0285789Y0088661D02*
X0300550Y0088661D01*
X0300550Y0089659D02*
X0286413Y0089659D01*
X0286950Y0090658D02*
X0300550Y0090658D01*
X0300550Y0091656D02*
X0286950Y0091656D01*
X0286950Y0092655D02*
X0300550Y0092655D01*
X0300550Y0093653D02*
X0286950Y0093653D01*
X0286950Y0094652D02*
X0300550Y0094652D01*
X0300550Y0095650D02*
X0286950Y0095650D01*
X0286950Y0096649D02*
X0300550Y0096649D01*
X0300550Y0097647D02*
X0286607Y0097647D01*
X0295196Y0104637D02*
X0300550Y0104637D01*
X0300550Y0105635D02*
X0297703Y0105635D01*
X0298893Y0106634D02*
X0300550Y0106634D01*
X0300550Y0107632D02*
X0300072Y0107632D01*
X0300062Y0107615D02*
X0300062Y0107615D01*
X0300062Y0107615D01*
X0300550Y0083668D02*
X0279085Y0083668D01*
X0280083Y0082670D02*
X0300550Y0082670D01*
X0300550Y0081671D02*
X0281082Y0081671D01*
X0282080Y0080673D02*
X0300550Y0080673D01*
X0300550Y0079674D02*
X0283079Y0079674D01*
X0284077Y0078676D02*
X0300550Y0078676D01*
X0300550Y0077677D02*
X0285076Y0077677D01*
X0286074Y0076679D02*
X0300550Y0076679D01*
X0300550Y0075680D02*
X0287073Y0075680D01*
X0288643Y0074682D02*
X0300550Y0074682D01*
X0300550Y0073683D02*
X0290130Y0073683D01*
X0290664Y0072684D02*
X0300550Y0072684D01*
X0300550Y0071686D02*
X0290800Y0071686D01*
X0290611Y0070687D02*
X0300550Y0070687D01*
X0300550Y0069689D02*
X0290002Y0069689D01*
X0278550Y0284369D02*
X0272532Y0284369D01*
X0273124Y0285367D02*
X0278550Y0285367D01*
X0278550Y0286366D02*
X0273300Y0286366D01*
D13*
X0270250Y0286400D03*
X0282829Y0281837D03*
X0287750Y0265750D03*
X0282750Y0257250D03*
X0280750Y0243750D03*
X0274250Y0245750D03*
X0272750Y0234750D03*
X0263242Y0234758D03*
X0262915Y0238734D03*
X0252750Y0249250D03*
X0240750Y0249750D03*
X0232750Y0252750D03*
X0242750Y0238250D03*
X0239250Y0269750D03*
X0250750Y0289350D03*
X0292250Y0246250D03*
X0270250Y0189400D03*
X0282829Y0184837D03*
X0287750Y0168750D03*
X0282750Y0160250D03*
X0274250Y0148750D03*
X0280750Y0146750D03*
X0272750Y0137750D03*
X0263242Y0137758D03*
X0262915Y0141734D03*
X0252750Y0152250D03*
X0240750Y0152750D03*
X0232750Y0155750D03*
X0242750Y0141250D03*
X0239250Y0172750D03*
X0250750Y0192350D03*
X0292250Y0149250D03*
X0250750Y0095350D03*
X0270250Y0092400D03*
X0282829Y0087837D03*
X0287750Y0071750D03*
X0282750Y0063250D03*
X0274250Y0051750D03*
X0280750Y0049750D03*
X0272750Y0040750D03*
X0263242Y0040758D03*
X0262915Y0044734D03*
X0252750Y0055250D03*
X0240750Y0055750D03*
X0232750Y0058750D03*
X0242750Y0044250D03*
X0239250Y0075750D03*
X0200250Y0052250D03*
X0188750Y0049750D03*
X0182250Y0051750D03*
X0170915Y0044734D03*
X0171242Y0040758D03*
X0180750Y0040750D03*
X0160750Y0055250D03*
X0148750Y0055750D03*
X0140750Y0058750D03*
X0150750Y0044250D03*
X0147250Y0075750D03*
X0158750Y0095350D03*
X0178250Y0092400D03*
X0190829Y0087837D03*
X0195750Y0071750D03*
X0190750Y0063250D03*
X0180750Y0137750D03*
X0171242Y0137758D03*
X0170915Y0141734D03*
X0182250Y0148750D03*
X0188750Y0146750D03*
X0200250Y0149250D03*
X0190750Y0160250D03*
X0195750Y0168750D03*
X0190829Y0184837D03*
X0178250Y0189400D03*
X0158750Y0192350D03*
X0147250Y0172750D03*
X0140750Y0155750D03*
X0148750Y0152750D03*
X0150750Y0141250D03*
X0160750Y0152250D03*
X0108250Y0149250D03*
X0096750Y0146750D03*
X0090250Y0148750D03*
X0088750Y0137750D03*
X0079242Y0137758D03*
X0078915Y0141734D03*
X0068750Y0152250D03*
X0056750Y0152750D03*
X0048750Y0155750D03*
X0058750Y0141250D03*
X0055250Y0172750D03*
X0066750Y0192350D03*
X0086250Y0189400D03*
X0098829Y0184837D03*
X0103750Y0168750D03*
X0098750Y0160250D03*
X0066750Y0095350D03*
X0086250Y0092400D03*
X0098829Y0087837D03*
X0103750Y0071750D03*
X0098750Y0063250D03*
X0090250Y0051750D03*
X0096750Y0049750D03*
X0088750Y0040750D03*
X0079242Y0040758D03*
X0078915Y0044734D03*
X0068750Y0055250D03*
X0056750Y0055750D03*
X0048750Y0058750D03*
X0058750Y0044250D03*
X0055250Y0075750D03*
X0108250Y0052250D03*
X0292250Y0052250D03*
X0180750Y0234750D03*
X0171242Y0234758D03*
X0170915Y0238734D03*
X0182250Y0245750D03*
X0188750Y0243750D03*
X0200250Y0246250D03*
X0190750Y0257250D03*
X0195750Y0265750D03*
X0190829Y0281837D03*
X0178250Y0286400D03*
X0158750Y0289350D03*
X0147250Y0269750D03*
X0140750Y0252750D03*
X0148750Y0249750D03*
X0150750Y0238250D03*
X0160750Y0249250D03*
X0108250Y0246250D03*
X0096750Y0243750D03*
X0090250Y0245750D03*
X0088750Y0234750D03*
X0079242Y0234758D03*
X0078915Y0238734D03*
X0068750Y0249250D03*
X0056750Y0249750D03*
X0048750Y0252750D03*
X0058750Y0238250D03*
X0055250Y0269750D03*
X0066750Y0289350D03*
X0086250Y0286400D03*
X0098829Y0281837D03*
X0103750Y0265750D03*
X0098750Y0257250D03*
D14*
X0103750Y0265750D02*
X0092750Y0276750D01*
X0090250Y0276750D01*
X0063750Y0276750D01*
X0062250Y0276750D01*
X0055250Y0269750D01*
X0062250Y0179750D02*
X0055250Y0172750D01*
X0062250Y0179750D02*
X0063750Y0179750D01*
X0090250Y0179750D01*
X0092750Y0179750D01*
X0103750Y0168750D01*
X0147250Y0172750D02*
X0154250Y0179750D01*
X0155750Y0179750D01*
X0182250Y0179750D01*
X0184750Y0179750D01*
X0195750Y0168750D01*
X0239250Y0172750D02*
X0246250Y0179750D01*
X0247750Y0179750D01*
X0274250Y0179750D01*
X0276750Y0179750D01*
X0287750Y0168750D01*
X0276750Y0082750D02*
X0274250Y0082750D01*
X0247750Y0082750D01*
X0246250Y0082750D01*
X0239250Y0075750D01*
X0276750Y0082750D02*
X0287750Y0071750D01*
X0195750Y0071750D02*
X0184750Y0082750D01*
X0182250Y0082750D01*
X0155750Y0082750D01*
X0154250Y0082750D01*
X0147250Y0075750D01*
X0103750Y0071750D02*
X0092750Y0082750D01*
X0090250Y0082750D01*
X0063750Y0082750D01*
X0062250Y0082750D01*
X0055250Y0075750D01*
X0195750Y0265750D02*
X0184750Y0276750D01*
X0182250Y0276750D01*
X0155750Y0276750D01*
X0154250Y0276750D01*
X0147250Y0269750D01*
X0239250Y0269750D02*
X0246250Y0276750D01*
X0247750Y0276750D01*
X0274250Y0276750D01*
X0276750Y0276750D01*
X0287750Y0265750D01*
D15*
X0277750Y0250750D02*
X0277750Y0247750D01*
X0275750Y0245750D01*
X0274250Y0245750D01*
X0280750Y0243750D02*
X0275734Y0238734D01*
X0262915Y0238734D01*
X0263242Y0234758D02*
X0263235Y0234750D01*
X0240644Y0234750D01*
X0232750Y0242644D01*
X0232750Y0252750D01*
X0240750Y0249750D02*
X0240750Y0240250D01*
X0242750Y0238250D01*
X0272750Y0234750D02*
X0288771Y0234750D01*
X0292250Y0238229D01*
X0247750Y0276750D02*
X0247750Y0283750D01*
X0245350Y0286150D01*
X0232750Y0286150D01*
X0232750Y0289350D02*
X0250750Y0289350D01*
X0257750Y0289350D01*
X0282750Y0289350D01*
X0270250Y0286400D02*
X0270000Y0286150D01*
X0257750Y0286150D01*
X0200250Y0238229D02*
X0196771Y0234750D01*
X0180750Y0234750D01*
X0183734Y0238734D02*
X0188750Y0243750D01*
X0185750Y0247750D02*
X0185750Y0250750D01*
X0185750Y0247750D02*
X0183750Y0245750D01*
X0182250Y0245750D01*
X0183734Y0238734D02*
X0170915Y0238734D01*
X0171242Y0234758D02*
X0171235Y0234750D01*
X0148644Y0234750D01*
X0140750Y0242644D01*
X0140750Y0252750D01*
X0148750Y0249750D02*
X0148750Y0240250D01*
X0150750Y0238250D01*
X0155750Y0276750D02*
X0155750Y0283750D01*
X0153350Y0286150D01*
X0140750Y0286150D01*
X0140750Y0289350D02*
X0158750Y0289350D01*
X0165750Y0289350D01*
X0190750Y0289350D01*
X0178250Y0286400D02*
X0178000Y0286150D01*
X0165750Y0286150D01*
X0108250Y0238229D02*
X0104771Y0234750D01*
X0088750Y0234750D01*
X0091734Y0238734D02*
X0096750Y0243750D01*
X0093750Y0247750D02*
X0093750Y0250750D01*
X0093750Y0247750D02*
X0091750Y0245750D01*
X0090250Y0245750D01*
X0091734Y0238734D02*
X0078915Y0238734D01*
X0079242Y0234758D02*
X0079235Y0234750D01*
X0056644Y0234750D01*
X0048750Y0242644D01*
X0048750Y0252750D01*
X0056750Y0249750D02*
X0056750Y0240250D01*
X0058750Y0238250D01*
X0063750Y0276750D02*
X0063750Y0283750D01*
X0061350Y0286150D01*
X0048750Y0286150D01*
X0048750Y0289350D02*
X0066750Y0289350D01*
X0073750Y0289350D01*
X0098750Y0289350D01*
X0086250Y0286400D02*
X0086000Y0286150D01*
X0073750Y0286150D01*
X0073750Y0192350D02*
X0066750Y0192350D01*
X0048750Y0192350D01*
X0048750Y0189150D02*
X0061350Y0189150D01*
X0063750Y0186750D01*
X0063750Y0179750D01*
X0073750Y0189150D02*
X0086000Y0189150D01*
X0086250Y0189400D01*
X0073750Y0192350D02*
X0098750Y0192350D01*
X0093750Y0153750D02*
X0093750Y0150750D01*
X0091750Y0148750D01*
X0090250Y0148750D01*
X0096750Y0146750D02*
X0091734Y0141734D01*
X0078915Y0141734D01*
X0079242Y0137758D02*
X0079235Y0137750D01*
X0056644Y0137750D01*
X0048750Y0145644D01*
X0048750Y0155750D01*
X0056750Y0152750D02*
X0056750Y0143250D01*
X0058750Y0141250D01*
X0088750Y0137750D02*
X0104771Y0137750D01*
X0108250Y0141229D01*
X0140750Y0145644D02*
X0148644Y0137750D01*
X0171235Y0137750D01*
X0171242Y0137758D01*
X0170915Y0141734D02*
X0183734Y0141734D01*
X0188750Y0146750D01*
X0185750Y0150750D02*
X0183750Y0148750D01*
X0182250Y0148750D01*
X0185750Y0150750D02*
X0185750Y0153750D01*
X0180750Y0137750D02*
X0196771Y0137750D01*
X0200250Y0141229D01*
X0232750Y0145644D02*
X0240644Y0137750D01*
X0263235Y0137750D01*
X0263242Y0137758D01*
X0262915Y0141734D02*
X0275734Y0141734D01*
X0280750Y0146750D01*
X0277750Y0150750D02*
X0277750Y0153750D01*
X0277750Y0150750D02*
X0275750Y0148750D01*
X0274250Y0148750D01*
X0272750Y0137750D02*
X0288771Y0137750D01*
X0292250Y0141229D01*
X0247750Y0179750D02*
X0247750Y0186750D01*
X0245350Y0189150D01*
X0232750Y0189150D01*
X0232750Y0192350D02*
X0250750Y0192350D01*
X0257750Y0192350D01*
X0282750Y0192350D01*
X0270250Y0189400D02*
X0270000Y0189150D01*
X0257750Y0189150D01*
X0232750Y0155750D02*
X0232750Y0145644D01*
X0240750Y0143250D02*
X0240750Y0152750D01*
X0240750Y0143250D02*
X0242750Y0141250D01*
X0250750Y0095350D02*
X0232750Y0095350D01*
X0232750Y0092150D02*
X0245350Y0092150D01*
X0247750Y0089750D01*
X0247750Y0082750D01*
X0257750Y0092150D02*
X0270000Y0092150D01*
X0270250Y0092400D01*
X0257750Y0095350D02*
X0282750Y0095350D01*
X0257750Y0095350D02*
X0250750Y0095350D01*
X0232750Y0058750D02*
X0232750Y0048644D01*
X0240644Y0040750D01*
X0263235Y0040750D01*
X0263242Y0040758D01*
X0262915Y0044734D02*
X0275734Y0044734D01*
X0280750Y0049750D01*
X0277750Y0053750D02*
X0277750Y0056750D01*
X0277750Y0053750D02*
X0275750Y0051750D01*
X0274250Y0051750D01*
X0272750Y0040750D02*
X0288771Y0040750D01*
X0292250Y0044229D01*
X0242750Y0044250D02*
X0240750Y0046250D01*
X0240750Y0055750D01*
X0200250Y0044229D02*
X0196771Y0040750D01*
X0180750Y0040750D01*
X0183734Y0044734D02*
X0188750Y0049750D01*
X0185750Y0053750D02*
X0185750Y0056750D01*
X0185750Y0053750D02*
X0183750Y0051750D01*
X0182250Y0051750D01*
X0183734Y0044734D02*
X0170915Y0044734D01*
X0171242Y0040758D02*
X0171235Y0040750D01*
X0148644Y0040750D01*
X0140750Y0048644D01*
X0140750Y0058750D01*
X0148750Y0055750D02*
X0148750Y0046250D01*
X0150750Y0044250D01*
X0155750Y0082750D02*
X0155750Y0089750D01*
X0153350Y0092150D01*
X0140750Y0092150D01*
X0140750Y0095350D02*
X0158750Y0095350D01*
X0165750Y0095350D01*
X0190750Y0095350D01*
X0178250Y0092400D02*
X0178000Y0092150D01*
X0165750Y0092150D01*
X0150750Y0141250D02*
X0148750Y0143250D01*
X0148750Y0152750D01*
X0140750Y0155750D02*
X0140750Y0145644D01*
X0155750Y0179750D02*
X0155750Y0186750D01*
X0153350Y0189150D01*
X0140750Y0189150D01*
X0140750Y0192350D02*
X0158750Y0192350D01*
X0165750Y0192350D01*
X0190750Y0192350D01*
X0178250Y0189400D02*
X0178000Y0189150D01*
X0165750Y0189150D01*
X0098750Y0095350D02*
X0073750Y0095350D01*
X0066750Y0095350D01*
X0048750Y0095350D01*
X0048750Y0092150D02*
X0061350Y0092150D01*
X0063750Y0089750D01*
X0063750Y0082750D01*
X0073750Y0092150D02*
X0086000Y0092150D01*
X0086250Y0092400D01*
X0093750Y0056750D02*
X0093750Y0053750D01*
X0091750Y0051750D01*
X0090250Y0051750D01*
X0096750Y0049750D02*
X0091734Y0044734D01*
X0078915Y0044734D01*
X0079242Y0040758D02*
X0079235Y0040750D01*
X0056644Y0040750D01*
X0048750Y0048644D01*
X0048750Y0058750D01*
X0056750Y0055750D02*
X0056750Y0046250D01*
X0058750Y0044250D01*
X0088750Y0040750D02*
X0104771Y0040750D01*
X0108250Y0044229D01*
D16*
X0093750Y0060750D02*
X0093750Y0075250D01*
X0090250Y0078750D01*
X0090250Y0082750D01*
X0098750Y0087915D02*
X0098750Y0088750D01*
X0098750Y0087915D02*
X0098829Y0087837D01*
X0093750Y0157750D02*
X0093750Y0172250D01*
X0090250Y0175750D01*
X0090250Y0179750D01*
X0098750Y0184915D02*
X0098750Y0185750D01*
X0098750Y0184915D02*
X0098829Y0184837D01*
X0093750Y0254750D02*
X0093750Y0269250D01*
X0090250Y0272750D01*
X0090250Y0276750D01*
X0098750Y0281915D02*
X0098750Y0282750D01*
X0098750Y0281915D02*
X0098829Y0281837D01*
X0182250Y0276750D02*
X0182250Y0272750D01*
X0185750Y0269250D01*
X0185750Y0254750D01*
X0190829Y0281837D02*
X0190750Y0281915D01*
X0190750Y0282750D01*
X0274250Y0276750D02*
X0274250Y0272750D01*
X0277750Y0269250D01*
X0277750Y0254750D01*
X0282829Y0281837D02*
X0282750Y0281915D01*
X0282750Y0282750D01*
X0282750Y0185750D02*
X0282750Y0184915D01*
X0282829Y0184837D01*
X0274250Y0179750D02*
X0274250Y0175750D01*
X0277750Y0172250D01*
X0277750Y0157750D01*
X0282750Y0088750D02*
X0282750Y0087915D01*
X0282829Y0087837D01*
X0274250Y0082750D02*
X0274250Y0078750D01*
X0277750Y0075250D01*
X0277750Y0060750D01*
X0190829Y0087837D02*
X0190750Y0087915D01*
X0190750Y0088750D01*
X0182250Y0082750D02*
X0182250Y0078750D01*
X0185750Y0075250D01*
X0185750Y0060750D01*
X0185750Y0157750D02*
X0185750Y0172250D01*
X0182250Y0175750D01*
X0182250Y0179750D01*
X0190750Y0184915D02*
X0190750Y0185750D01*
X0190750Y0184915D02*
X0190829Y0184837D01*
D17*
X0190750Y0185750D02*
X0190750Y0189150D01*
X0200250Y0149250D02*
X0200250Y0141229D01*
X0190750Y0092150D02*
X0190750Y0088750D01*
X0200250Y0052250D02*
X0200250Y0044229D01*
X0282750Y0088750D02*
X0282750Y0092150D01*
X0292250Y0052250D02*
X0292250Y0044229D01*
X0292250Y0141229D02*
X0292250Y0149250D01*
X0282750Y0185750D02*
X0282750Y0189150D01*
X0292250Y0238229D02*
X0292250Y0246250D01*
X0282750Y0282750D02*
X0282750Y0286150D01*
X0200250Y0246250D02*
X0200250Y0238229D01*
X0190750Y0282750D02*
X0190750Y0286150D01*
X0108250Y0246250D02*
X0108250Y0238229D01*
X0098750Y0282750D02*
X0098750Y0286150D01*
X0098750Y0189150D02*
X0098750Y0185750D01*
X0108250Y0149250D02*
X0108250Y0141229D01*
X0098750Y0092150D02*
X0098750Y0088750D01*
X0108250Y0052250D02*
X0108250Y0044229D01*
M02*
