G75*
%MOIN*%
%OFA0B0*%
%FSLAX25Y25*%
%IPPOS*%
%LPD*%
%AMOC8*
5,1,8,0,0,1.08239X$1,22.5*
%
%ADD10R,0.03937X0.04331*%
%ADD11C,0.01181*%
%ADD12R,0.07874X0.04724*%
%ADD13R,0.05315X0.02362*%
%ADD14R,0.04331X0.03937*%
%ADD15R,0.01772X0.01181*%
D10*
X0063750Y0055404D03*
X0063750Y0062096D03*
X0083750Y0062096D03*
X0083750Y0055404D03*
X0103750Y0057096D03*
X0103750Y0050404D03*
X0113750Y0050404D03*
X0113750Y0057096D03*
X0155750Y0055404D03*
X0155750Y0062096D03*
X0175750Y0062096D03*
X0175750Y0055404D03*
X0195750Y0057096D03*
X0195750Y0050404D03*
X0205750Y0050404D03*
X0205750Y0057096D03*
X0247750Y0055404D03*
X0247750Y0062096D03*
X0267750Y0062096D03*
X0267750Y0055404D03*
X0287750Y0057096D03*
X0287750Y0050404D03*
X0297750Y0050404D03*
X0297750Y0057096D03*
X0297750Y0147404D03*
X0297750Y0154096D03*
X0287750Y0154096D03*
X0287750Y0147404D03*
X0267750Y0152404D03*
X0267750Y0159096D03*
X0247750Y0159096D03*
X0247750Y0152404D03*
X0205750Y0154096D03*
X0205750Y0147404D03*
X0195750Y0147404D03*
X0195750Y0154096D03*
X0175750Y0152404D03*
X0175750Y0159096D03*
X0155750Y0159096D03*
X0155750Y0152404D03*
X0113750Y0154096D03*
X0113750Y0147404D03*
X0103750Y0147404D03*
X0103750Y0154096D03*
X0083750Y0152404D03*
X0083750Y0159096D03*
X0063750Y0159096D03*
X0063750Y0152404D03*
X0103750Y0244404D03*
X0103750Y0251096D03*
X0113750Y0251096D03*
X0113750Y0244404D03*
X0083750Y0249404D03*
X0083750Y0256096D03*
X0063750Y0256096D03*
X0063750Y0249404D03*
X0155750Y0249404D03*
X0155750Y0256096D03*
X0175750Y0256096D03*
X0175750Y0249404D03*
X0195750Y0251096D03*
X0195750Y0244404D03*
X0205750Y0244404D03*
X0205750Y0251096D03*
X0247750Y0249404D03*
X0247750Y0256096D03*
X0267750Y0256096D03*
X0267750Y0249404D03*
X0287750Y0251096D03*
X0287750Y0244404D03*
X0297750Y0244404D03*
X0297750Y0251096D03*
D11*
X0227581Y0244128D02*
X0227581Y0241372D01*
X0224825Y0241372D01*
X0224825Y0244128D01*
X0227581Y0244128D01*
X0227581Y0242494D02*
X0224825Y0242494D01*
X0224825Y0243616D02*
X0227581Y0243616D01*
X0220675Y0244128D02*
X0220675Y0241372D01*
X0217919Y0241372D01*
X0217919Y0244128D01*
X0220675Y0244128D01*
X0220675Y0242494D02*
X0217919Y0242494D01*
X0217919Y0243616D02*
X0220675Y0243616D01*
X0135581Y0244128D02*
X0135581Y0241372D01*
X0132825Y0241372D01*
X0132825Y0244128D01*
X0135581Y0244128D01*
X0135581Y0242494D02*
X0132825Y0242494D01*
X0132825Y0243616D02*
X0135581Y0243616D01*
X0128675Y0244128D02*
X0128675Y0241372D01*
X0125919Y0241372D01*
X0125919Y0244128D01*
X0128675Y0244128D01*
X0128675Y0242494D02*
X0125919Y0242494D01*
X0125919Y0243616D02*
X0128675Y0243616D01*
X0043581Y0244128D02*
X0043581Y0241372D01*
X0040825Y0241372D01*
X0040825Y0244128D01*
X0043581Y0244128D01*
X0043581Y0242494D02*
X0040825Y0242494D01*
X0040825Y0243616D02*
X0043581Y0243616D01*
X0036675Y0244128D02*
X0036675Y0241372D01*
X0033919Y0241372D01*
X0033919Y0244128D01*
X0036675Y0244128D01*
X0036675Y0242494D02*
X0033919Y0242494D01*
X0033919Y0243616D02*
X0036675Y0243616D01*
X0036675Y0147128D02*
X0036675Y0144372D01*
X0033919Y0144372D01*
X0033919Y0147128D01*
X0036675Y0147128D01*
X0036675Y0145494D02*
X0033919Y0145494D01*
X0033919Y0146616D02*
X0036675Y0146616D01*
X0043581Y0147128D02*
X0043581Y0144372D01*
X0040825Y0144372D01*
X0040825Y0147128D01*
X0043581Y0147128D01*
X0043581Y0145494D02*
X0040825Y0145494D01*
X0040825Y0146616D02*
X0043581Y0146616D01*
X0128675Y0147128D02*
X0128675Y0144372D01*
X0125919Y0144372D01*
X0125919Y0147128D01*
X0128675Y0147128D01*
X0128675Y0145494D02*
X0125919Y0145494D01*
X0125919Y0146616D02*
X0128675Y0146616D01*
X0135581Y0147128D02*
X0135581Y0144372D01*
X0132825Y0144372D01*
X0132825Y0147128D01*
X0135581Y0147128D01*
X0135581Y0145494D02*
X0132825Y0145494D01*
X0132825Y0146616D02*
X0135581Y0146616D01*
X0220675Y0147128D02*
X0220675Y0144372D01*
X0217919Y0144372D01*
X0217919Y0147128D01*
X0220675Y0147128D01*
X0220675Y0145494D02*
X0217919Y0145494D01*
X0217919Y0146616D02*
X0220675Y0146616D01*
X0227581Y0147128D02*
X0227581Y0144372D01*
X0224825Y0144372D01*
X0224825Y0147128D01*
X0227581Y0147128D01*
X0227581Y0145494D02*
X0224825Y0145494D01*
X0224825Y0146616D02*
X0227581Y0146616D01*
X0227581Y0050128D02*
X0227581Y0047372D01*
X0224825Y0047372D01*
X0224825Y0050128D01*
X0227581Y0050128D01*
X0227581Y0048494D02*
X0224825Y0048494D01*
X0224825Y0049616D02*
X0227581Y0049616D01*
X0220675Y0050128D02*
X0220675Y0047372D01*
X0217919Y0047372D01*
X0217919Y0050128D01*
X0220675Y0050128D01*
X0220675Y0048494D02*
X0217919Y0048494D01*
X0217919Y0049616D02*
X0220675Y0049616D01*
X0135581Y0050128D02*
X0135581Y0047372D01*
X0132825Y0047372D01*
X0132825Y0050128D01*
X0135581Y0050128D01*
X0135581Y0048494D02*
X0132825Y0048494D01*
X0132825Y0049616D02*
X0135581Y0049616D01*
X0128675Y0050128D02*
X0128675Y0047372D01*
X0125919Y0047372D01*
X0125919Y0050128D01*
X0128675Y0050128D01*
X0128675Y0048494D02*
X0125919Y0048494D01*
X0125919Y0049616D02*
X0128675Y0049616D01*
X0043581Y0050128D02*
X0043581Y0047372D01*
X0040825Y0047372D01*
X0040825Y0050128D01*
X0043581Y0050128D01*
X0043581Y0048494D02*
X0040825Y0048494D01*
X0040825Y0049616D02*
X0043581Y0049616D01*
X0036675Y0050128D02*
X0036675Y0047372D01*
X0033919Y0047372D01*
X0033919Y0050128D01*
X0036675Y0050128D01*
X0036675Y0048494D02*
X0033919Y0048494D01*
X0033919Y0049616D02*
X0036675Y0049616D01*
D12*
X0034281Y0062726D03*
X0034281Y0084774D03*
X0113219Y0084774D03*
X0126281Y0084774D03*
X0126281Y0062726D03*
X0113219Y0062726D03*
X0205219Y0062726D03*
X0218281Y0062726D03*
X0218281Y0084774D03*
X0205219Y0084774D03*
X0205219Y0159726D03*
X0218281Y0159726D03*
X0218281Y0181774D03*
X0205219Y0181774D03*
X0205219Y0256726D03*
X0218281Y0256726D03*
X0218281Y0278774D03*
X0205219Y0278774D03*
X0126281Y0278774D03*
X0113219Y0278774D03*
X0113219Y0256726D03*
X0126281Y0256726D03*
X0126281Y0181774D03*
X0113219Y0181774D03*
X0113219Y0159726D03*
X0126281Y0159726D03*
X0034281Y0159726D03*
X0034281Y0181774D03*
X0034281Y0256726D03*
X0034281Y0278774D03*
X0297219Y0278774D03*
X0297219Y0256726D03*
X0297219Y0181774D03*
X0297219Y0159726D03*
X0297219Y0084774D03*
X0297219Y0062726D03*
D13*
X0282750Y0067844D03*
X0282750Y0071781D03*
X0282750Y0075719D03*
X0282750Y0079656D03*
X0232750Y0079656D03*
X0232750Y0075719D03*
X0232750Y0071781D03*
X0232750Y0067844D03*
X0190750Y0067844D03*
X0190750Y0071781D03*
X0190750Y0075719D03*
X0190750Y0079656D03*
X0140750Y0079656D03*
X0140750Y0075719D03*
X0140750Y0071781D03*
X0140750Y0067844D03*
X0098750Y0067844D03*
X0098750Y0071781D03*
X0098750Y0075719D03*
X0098750Y0079656D03*
X0048750Y0079656D03*
X0048750Y0075719D03*
X0048750Y0071781D03*
X0048750Y0067844D03*
X0048750Y0164844D03*
X0048750Y0168781D03*
X0048750Y0172719D03*
X0048750Y0176656D03*
X0098750Y0176656D03*
X0098750Y0172719D03*
X0098750Y0168781D03*
X0098750Y0164844D03*
X0140750Y0164844D03*
X0140750Y0168781D03*
X0140750Y0172719D03*
X0140750Y0176656D03*
X0190750Y0176656D03*
X0190750Y0172719D03*
X0190750Y0168781D03*
X0190750Y0164844D03*
X0232750Y0164844D03*
X0232750Y0168781D03*
X0232750Y0172719D03*
X0232750Y0176656D03*
X0282750Y0176656D03*
X0282750Y0172719D03*
X0282750Y0168781D03*
X0282750Y0164844D03*
X0282750Y0261844D03*
X0282750Y0265781D03*
X0282750Y0269719D03*
X0282750Y0273656D03*
X0232750Y0273656D03*
X0232750Y0269719D03*
X0232750Y0265781D03*
X0232750Y0261844D03*
X0190750Y0261844D03*
X0190750Y0265781D03*
X0190750Y0269719D03*
X0190750Y0273656D03*
X0140750Y0273656D03*
X0140750Y0269719D03*
X0140750Y0265781D03*
X0140750Y0261844D03*
X0098750Y0261844D03*
X0098750Y0265781D03*
X0098750Y0269719D03*
X0098750Y0273656D03*
X0048750Y0273656D03*
X0048750Y0269719D03*
X0048750Y0265781D03*
X0048750Y0261844D03*
D14*
X0035404Y0043750D03*
X0042096Y0043750D03*
X0070404Y0086250D03*
X0077096Y0086250D03*
X0127404Y0043750D03*
X0134096Y0043750D03*
X0162404Y0086250D03*
X0169096Y0086250D03*
X0219404Y0043750D03*
X0226096Y0043750D03*
X0254404Y0086250D03*
X0261096Y0086250D03*
X0226096Y0140750D03*
X0219404Y0140750D03*
X0254404Y0183250D03*
X0261096Y0183250D03*
X0226096Y0237750D03*
X0219404Y0237750D03*
X0254404Y0280250D03*
X0261096Y0280250D03*
X0169096Y0280250D03*
X0162404Y0280250D03*
X0134096Y0237750D03*
X0127404Y0237750D03*
X0077096Y0280250D03*
X0070404Y0280250D03*
X0042096Y0237750D03*
X0035404Y0237750D03*
X0070404Y0183250D03*
X0077096Y0183250D03*
X0042096Y0140750D03*
X0035404Y0140750D03*
X0127404Y0140750D03*
X0134096Y0140750D03*
X0162404Y0183250D03*
X0169096Y0183250D03*
D15*
X0169589Y0173309D03*
X0169589Y0170750D03*
X0169589Y0168191D03*
X0161911Y0168191D03*
X0161911Y0170750D03*
X0161911Y0173309D03*
X0077589Y0173309D03*
X0077589Y0170750D03*
X0077589Y0168191D03*
X0069911Y0168191D03*
X0069911Y0170750D03*
X0069911Y0173309D03*
X0069911Y0265191D03*
X0069911Y0267750D03*
X0069911Y0270309D03*
X0077589Y0270309D03*
X0077589Y0267750D03*
X0077589Y0265191D03*
X0161911Y0265191D03*
X0161911Y0267750D03*
X0161911Y0270309D03*
X0169589Y0270309D03*
X0169589Y0267750D03*
X0169589Y0265191D03*
X0253911Y0265191D03*
X0253911Y0267750D03*
X0253911Y0270309D03*
X0261589Y0270309D03*
X0261589Y0267750D03*
X0261589Y0265191D03*
X0261589Y0173309D03*
X0261589Y0170750D03*
X0261589Y0168191D03*
X0253911Y0168191D03*
X0253911Y0170750D03*
X0253911Y0173309D03*
X0253911Y0076309D03*
X0253911Y0073750D03*
X0253911Y0071191D03*
X0261589Y0071191D03*
X0261589Y0073750D03*
X0261589Y0076309D03*
X0169589Y0076309D03*
X0169589Y0073750D03*
X0169589Y0071191D03*
X0161911Y0071191D03*
X0161911Y0073750D03*
X0161911Y0076309D03*
X0077589Y0076309D03*
X0077589Y0073750D03*
X0077589Y0071191D03*
X0069911Y0071191D03*
X0069911Y0073750D03*
X0069911Y0076309D03*
M02*
