G75*
%MOIN*%
%OFA0B0*%
%FSLAX25Y25*%
%IPPOS*%
%LPD*%
%AMOC8*
5,1,8,0,0,1.08239X$1,22.5*
%
%ADD10R,0.04737X0.05131*%
%ADD11C,0.01990*%
%ADD12C,0.08200*%
%ADD13R,0.08674X0.05524*%
%ADD14R,0.06115X0.03162*%
%ADD15R,0.05131X0.04737*%
%ADD16C,0.13800*%
%ADD17R,0.03300X0.05800*%
%ADD18C,0.00500*%
%ADD19R,0.02572X0.01981*%
%ADD20C,0.04737*%
%ADD21C,0.05000*%
%ADD22C,0.06706*%
D10*
X0061250Y0055404D03*
X0061250Y0062096D03*
X0086250Y0062096D03*
X0086250Y0055404D03*
X0103750Y0057096D03*
X0103750Y0050404D03*
X0113750Y0050404D03*
X0113750Y0057096D03*
X0153250Y0055404D03*
X0153250Y0062096D03*
X0178250Y0062096D03*
X0178250Y0055404D03*
X0195750Y0057096D03*
X0195750Y0050404D03*
X0205750Y0050404D03*
X0205750Y0057096D03*
X0245250Y0055404D03*
X0245250Y0062096D03*
X0270250Y0062096D03*
X0270250Y0055404D03*
X0287750Y0057096D03*
X0287750Y0050404D03*
X0297750Y0050404D03*
X0297750Y0057096D03*
X0297750Y0147404D03*
X0297750Y0154096D03*
X0287750Y0154096D03*
X0287750Y0147404D03*
X0270250Y0152404D03*
X0270250Y0159096D03*
X0245250Y0159096D03*
X0245250Y0152404D03*
X0205750Y0154096D03*
X0205750Y0147404D03*
X0195750Y0147404D03*
X0195750Y0154096D03*
X0178250Y0152404D03*
X0178250Y0159096D03*
X0153250Y0159096D03*
X0153250Y0152404D03*
X0113750Y0154096D03*
X0113750Y0147404D03*
X0103750Y0147404D03*
X0103750Y0154096D03*
X0086250Y0152404D03*
X0086250Y0159096D03*
X0061250Y0159096D03*
X0061250Y0152404D03*
X0103750Y0244404D03*
X0103750Y0251096D03*
X0113750Y0251096D03*
X0113750Y0244404D03*
X0086250Y0249404D03*
X0086250Y0256096D03*
X0061250Y0256096D03*
X0061250Y0249404D03*
X0153250Y0249404D03*
X0153250Y0256096D03*
X0178250Y0256096D03*
X0178250Y0249404D03*
X0195750Y0251096D03*
X0195750Y0244404D03*
X0205750Y0244404D03*
X0205750Y0251096D03*
X0245250Y0249404D03*
X0245250Y0256096D03*
X0270250Y0256096D03*
X0270250Y0249404D03*
X0287750Y0251096D03*
X0287750Y0244404D03*
X0297750Y0244404D03*
X0297750Y0251096D03*
D11*
X0227576Y0244123D02*
X0227576Y0241377D01*
X0224830Y0241377D01*
X0224830Y0244123D01*
X0227576Y0244123D01*
X0227576Y0243267D02*
X0224830Y0243267D01*
X0220670Y0244123D02*
X0220670Y0241377D01*
X0217924Y0241377D01*
X0217924Y0244123D01*
X0220670Y0244123D01*
X0220670Y0243267D02*
X0217924Y0243267D01*
X0135576Y0244123D02*
X0135576Y0241377D01*
X0132830Y0241377D01*
X0132830Y0244123D01*
X0135576Y0244123D01*
X0135576Y0243267D02*
X0132830Y0243267D01*
X0128670Y0244123D02*
X0128670Y0241377D01*
X0125924Y0241377D01*
X0125924Y0244123D01*
X0128670Y0244123D01*
X0128670Y0243267D02*
X0125924Y0243267D01*
X0043576Y0244123D02*
X0043576Y0241377D01*
X0040830Y0241377D01*
X0040830Y0244123D01*
X0043576Y0244123D01*
X0043576Y0243267D02*
X0040830Y0243267D01*
X0036670Y0244123D02*
X0036670Y0241377D01*
X0033924Y0241377D01*
X0033924Y0244123D01*
X0036670Y0244123D01*
X0036670Y0243267D02*
X0033924Y0243267D01*
X0036670Y0147123D02*
X0036670Y0144377D01*
X0033924Y0144377D01*
X0033924Y0147123D01*
X0036670Y0147123D01*
X0036670Y0146267D02*
X0033924Y0146267D01*
X0043576Y0147123D02*
X0043576Y0144377D01*
X0040830Y0144377D01*
X0040830Y0147123D01*
X0043576Y0147123D01*
X0043576Y0146267D02*
X0040830Y0146267D01*
X0128670Y0147123D02*
X0128670Y0144377D01*
X0125924Y0144377D01*
X0125924Y0147123D01*
X0128670Y0147123D01*
X0128670Y0146267D02*
X0125924Y0146267D01*
X0135576Y0147123D02*
X0135576Y0144377D01*
X0132830Y0144377D01*
X0132830Y0147123D01*
X0135576Y0147123D01*
X0135576Y0146267D02*
X0132830Y0146267D01*
X0220670Y0147123D02*
X0220670Y0144377D01*
X0217924Y0144377D01*
X0217924Y0147123D01*
X0220670Y0147123D01*
X0220670Y0146267D02*
X0217924Y0146267D01*
X0227576Y0147123D02*
X0227576Y0144377D01*
X0224830Y0144377D01*
X0224830Y0147123D01*
X0227576Y0147123D01*
X0227576Y0146267D02*
X0224830Y0146267D01*
X0227576Y0050123D02*
X0227576Y0047377D01*
X0224830Y0047377D01*
X0224830Y0050123D01*
X0227576Y0050123D01*
X0227576Y0049267D02*
X0224830Y0049267D01*
X0220670Y0050123D02*
X0220670Y0047377D01*
X0217924Y0047377D01*
X0217924Y0050123D01*
X0220670Y0050123D01*
X0220670Y0049267D02*
X0217924Y0049267D01*
X0135576Y0050123D02*
X0135576Y0047377D01*
X0132830Y0047377D01*
X0132830Y0050123D01*
X0135576Y0050123D01*
X0135576Y0049267D02*
X0132830Y0049267D01*
X0128670Y0050123D02*
X0128670Y0047377D01*
X0125924Y0047377D01*
X0125924Y0050123D01*
X0128670Y0050123D01*
X0128670Y0049267D02*
X0125924Y0049267D01*
X0043576Y0050123D02*
X0043576Y0047377D01*
X0040830Y0047377D01*
X0040830Y0050123D01*
X0043576Y0050123D01*
X0043576Y0049267D02*
X0040830Y0049267D01*
X0036670Y0050123D02*
X0036670Y0047377D01*
X0033924Y0047377D01*
X0033924Y0050123D01*
X0036670Y0050123D01*
X0036670Y0049267D02*
X0033924Y0049267D01*
D12*
X0053750Y0033750D03*
X0063750Y0033750D03*
X0073750Y0033750D03*
X0083750Y0033750D03*
X0093750Y0033750D03*
X0145750Y0033750D03*
X0155750Y0033750D03*
X0165750Y0033750D03*
X0175750Y0033750D03*
X0185750Y0033750D03*
X0237750Y0033750D03*
X0247750Y0033750D03*
X0257750Y0033750D03*
X0267750Y0033750D03*
X0277750Y0033750D03*
X0277750Y0130750D03*
X0267750Y0130750D03*
X0257750Y0130750D03*
X0247750Y0130750D03*
X0237750Y0130750D03*
X0185750Y0130750D03*
X0175750Y0130750D03*
X0165750Y0130750D03*
X0155750Y0130750D03*
X0145750Y0130750D03*
X0093750Y0130750D03*
X0083750Y0130750D03*
X0073750Y0130750D03*
X0063750Y0130750D03*
X0053750Y0130750D03*
X0053750Y0227750D03*
X0063750Y0227750D03*
X0073750Y0227750D03*
X0083750Y0227750D03*
X0093750Y0227750D03*
X0145750Y0227750D03*
X0155750Y0227750D03*
X0165750Y0227750D03*
X0175750Y0227750D03*
X0185750Y0227750D03*
X0237750Y0227750D03*
X0247750Y0227750D03*
X0257750Y0227750D03*
X0267750Y0227750D03*
X0277750Y0227750D03*
D13*
X0297219Y0256726D03*
X0297219Y0278774D03*
X0218281Y0278774D03*
X0205219Y0278774D03*
X0205219Y0256726D03*
X0218281Y0256726D03*
X0218281Y0181774D03*
X0205219Y0181774D03*
X0205219Y0159726D03*
X0218281Y0159726D03*
X0218281Y0084774D03*
X0205219Y0084774D03*
X0205219Y0062726D03*
X0218281Y0062726D03*
X0297219Y0062726D03*
X0297219Y0084774D03*
X0297219Y0159726D03*
X0297219Y0181774D03*
X0126281Y0181774D03*
X0113219Y0181774D03*
X0113219Y0159726D03*
X0126281Y0159726D03*
X0126281Y0084774D03*
X0113219Y0084774D03*
X0113219Y0062726D03*
X0126281Y0062726D03*
X0034281Y0062726D03*
X0034281Y0084774D03*
X0034281Y0159726D03*
X0034281Y0181774D03*
X0034281Y0256726D03*
X0034281Y0278774D03*
X0113219Y0278774D03*
X0126281Y0278774D03*
X0126281Y0256726D03*
X0113219Y0256726D03*
D14*
X0098750Y0261844D03*
X0098750Y0265781D03*
X0098750Y0269719D03*
X0098750Y0273656D03*
X0140750Y0273656D03*
X0140750Y0269719D03*
X0140750Y0265781D03*
X0140750Y0261844D03*
X0190750Y0261844D03*
X0190750Y0265781D03*
X0190750Y0269719D03*
X0190750Y0273656D03*
X0232750Y0273656D03*
X0232750Y0269719D03*
X0232750Y0265781D03*
X0232750Y0261844D03*
X0282750Y0261844D03*
X0282750Y0265781D03*
X0282750Y0269719D03*
X0282750Y0273656D03*
X0282750Y0176656D03*
X0282750Y0172719D03*
X0282750Y0168781D03*
X0282750Y0164844D03*
X0232750Y0164844D03*
X0232750Y0168781D03*
X0232750Y0172719D03*
X0232750Y0176656D03*
X0190750Y0176656D03*
X0190750Y0172719D03*
X0190750Y0168781D03*
X0190750Y0164844D03*
X0140750Y0164844D03*
X0140750Y0168781D03*
X0140750Y0172719D03*
X0140750Y0176656D03*
X0098750Y0176656D03*
X0098750Y0172719D03*
X0098750Y0168781D03*
X0098750Y0164844D03*
X0048750Y0164844D03*
X0048750Y0168781D03*
X0048750Y0172719D03*
X0048750Y0176656D03*
X0048750Y0261844D03*
X0048750Y0265781D03*
X0048750Y0269719D03*
X0048750Y0273656D03*
X0048750Y0079656D03*
X0048750Y0075719D03*
X0048750Y0071781D03*
X0048750Y0067844D03*
X0098750Y0067844D03*
X0098750Y0071781D03*
X0098750Y0075719D03*
X0098750Y0079656D03*
X0140750Y0079656D03*
X0140750Y0075719D03*
X0140750Y0071781D03*
X0140750Y0067844D03*
X0190750Y0067844D03*
X0190750Y0071781D03*
X0190750Y0075719D03*
X0190750Y0079656D03*
X0232750Y0079656D03*
X0232750Y0075719D03*
X0232750Y0071781D03*
X0232750Y0067844D03*
X0282750Y0067844D03*
X0282750Y0071781D03*
X0282750Y0075719D03*
X0282750Y0079656D03*
D15*
X0035404Y0043750D03*
X0042096Y0043750D03*
X0070404Y0086250D03*
X0077096Y0086250D03*
X0127404Y0043750D03*
X0134096Y0043750D03*
X0162404Y0086250D03*
X0169096Y0086250D03*
X0219404Y0043750D03*
X0226096Y0043750D03*
X0254404Y0086250D03*
X0261096Y0086250D03*
X0226096Y0140750D03*
X0219404Y0140750D03*
X0254404Y0183250D03*
X0261096Y0183250D03*
X0226096Y0237750D03*
X0219404Y0237750D03*
X0254404Y0280250D03*
X0261096Y0280250D03*
X0169096Y0280250D03*
X0162404Y0280250D03*
X0134096Y0237750D03*
X0127404Y0237750D03*
X0077096Y0280250D03*
X0070404Y0280250D03*
X0042096Y0237750D03*
X0035404Y0237750D03*
X0070404Y0183250D03*
X0077096Y0183250D03*
X0042096Y0140750D03*
X0035404Y0140750D03*
X0127404Y0140750D03*
X0134096Y0140750D03*
X0162404Y0183250D03*
X0169096Y0183250D03*
D16*
X0200750Y0210750D03*
X0222750Y0210750D03*
X0292750Y0210750D03*
X0292750Y0113750D03*
X0222750Y0113750D03*
X0200750Y0113750D03*
X0130750Y0113750D03*
X0108750Y0113750D03*
X0038750Y0113750D03*
X0038750Y0210750D03*
X0108750Y0210750D03*
X0130750Y0210750D03*
X0130750Y0307750D03*
X0108750Y0307750D03*
X0038750Y0307750D03*
X0200750Y0307750D03*
X0222750Y0307750D03*
X0292750Y0307750D03*
D17*
X0292750Y0230250D03*
X0288750Y0230250D03*
X0296750Y0230250D03*
X0204750Y0230250D03*
X0200750Y0230250D03*
X0196750Y0230250D03*
X0112750Y0230250D03*
X0108750Y0230250D03*
X0104750Y0230250D03*
X0104750Y0133250D03*
X0108750Y0133250D03*
X0112750Y0133250D03*
X0196750Y0133250D03*
X0200750Y0133250D03*
X0204750Y0133250D03*
X0288750Y0133250D03*
X0292750Y0133250D03*
X0296750Y0133250D03*
X0296750Y0036250D03*
X0292750Y0036250D03*
X0288750Y0036250D03*
X0204750Y0036250D03*
X0200750Y0036250D03*
X0196750Y0036250D03*
X0112750Y0036250D03*
X0108750Y0036250D03*
X0104750Y0036250D03*
D18*
X0106000Y0036228D02*
X0107500Y0036228D01*
X0107500Y0035750D02*
X0107500Y0036750D01*
X0106000Y0036750D01*
X0106000Y0035750D01*
X0107500Y0035750D01*
X0107500Y0036726D02*
X0106000Y0036726D01*
X0110000Y0036726D02*
X0111500Y0036726D01*
X0111500Y0036750D02*
X0111500Y0035750D01*
X0110000Y0035750D01*
X0110000Y0036750D01*
X0111500Y0036750D01*
X0111500Y0036228D02*
X0110000Y0036228D01*
X0198000Y0036228D02*
X0199500Y0036228D01*
X0199500Y0035750D02*
X0199500Y0036750D01*
X0198000Y0036750D01*
X0198000Y0035750D01*
X0199500Y0035750D01*
X0199500Y0036726D02*
X0198000Y0036726D01*
X0202000Y0036726D02*
X0203500Y0036726D01*
X0203500Y0036750D02*
X0203500Y0035750D01*
X0202000Y0035750D01*
X0202000Y0036750D01*
X0203500Y0036750D01*
X0203500Y0036228D02*
X0202000Y0036228D01*
X0290000Y0036228D02*
X0291500Y0036228D01*
X0291500Y0035750D02*
X0291500Y0036750D01*
X0290000Y0036750D01*
X0290000Y0035750D01*
X0291500Y0035750D01*
X0291500Y0036726D02*
X0290000Y0036726D01*
X0294000Y0036726D02*
X0295500Y0036726D01*
X0295500Y0036750D02*
X0295500Y0035750D01*
X0294000Y0035750D01*
X0294000Y0036750D01*
X0295500Y0036750D01*
X0295500Y0036228D02*
X0294000Y0036228D01*
X0294000Y0132750D02*
X0294000Y0133750D01*
X0295500Y0133750D01*
X0295500Y0132750D01*
X0294000Y0132750D01*
X0294000Y0132939D02*
X0295500Y0132939D01*
X0295500Y0133437D02*
X0294000Y0133437D01*
X0291500Y0133437D02*
X0290000Y0133437D01*
X0290000Y0133750D02*
X0291500Y0133750D01*
X0291500Y0132750D01*
X0290000Y0132750D01*
X0290000Y0133750D01*
X0290000Y0132939D02*
X0291500Y0132939D01*
X0203500Y0132939D02*
X0202000Y0132939D01*
X0202000Y0132750D02*
X0202000Y0133750D01*
X0203500Y0133750D01*
X0203500Y0132750D01*
X0202000Y0132750D01*
X0202000Y0133437D02*
X0203500Y0133437D01*
X0199500Y0133437D02*
X0198000Y0133437D01*
X0198000Y0133750D02*
X0199500Y0133750D01*
X0199500Y0132750D01*
X0198000Y0132750D01*
X0198000Y0133750D01*
X0198000Y0132939D02*
X0199500Y0132939D01*
X0111500Y0132939D02*
X0110000Y0132939D01*
X0110000Y0132750D02*
X0110000Y0133750D01*
X0111500Y0133750D01*
X0111500Y0132750D01*
X0110000Y0132750D01*
X0110000Y0133437D02*
X0111500Y0133437D01*
X0107500Y0133437D02*
X0106000Y0133437D01*
X0106000Y0133750D02*
X0107500Y0133750D01*
X0107500Y0132750D01*
X0106000Y0132750D01*
X0106000Y0133750D01*
X0106000Y0132939D02*
X0107500Y0132939D01*
X0107500Y0229750D02*
X0107500Y0230750D01*
X0106000Y0230750D01*
X0106000Y0229750D01*
X0107500Y0229750D01*
X0107500Y0230149D02*
X0106000Y0230149D01*
X0106000Y0230647D02*
X0107500Y0230647D01*
X0110000Y0230647D02*
X0111500Y0230647D01*
X0111500Y0230750D02*
X0111500Y0229750D01*
X0110000Y0229750D01*
X0110000Y0230750D01*
X0111500Y0230750D01*
X0111500Y0230149D02*
X0110000Y0230149D01*
X0198000Y0230149D02*
X0199500Y0230149D01*
X0199500Y0229750D02*
X0199500Y0230750D01*
X0198000Y0230750D01*
X0198000Y0229750D01*
X0199500Y0229750D01*
X0199500Y0230647D02*
X0198000Y0230647D01*
X0202000Y0230647D02*
X0203500Y0230647D01*
X0203500Y0230750D02*
X0203500Y0229750D01*
X0202000Y0229750D01*
X0202000Y0230750D01*
X0203500Y0230750D01*
X0203500Y0230149D02*
X0202000Y0230149D01*
X0290000Y0230149D02*
X0291500Y0230149D01*
X0291500Y0229750D02*
X0291500Y0230750D01*
X0290000Y0230750D01*
X0290000Y0229750D01*
X0291500Y0229750D01*
X0291500Y0230647D02*
X0290000Y0230647D01*
X0294000Y0230647D02*
X0295500Y0230647D01*
X0295500Y0230750D02*
X0295500Y0229750D01*
X0294000Y0229750D01*
X0294000Y0230750D01*
X0295500Y0230750D01*
X0295500Y0230149D02*
X0294000Y0230149D01*
D19*
X0261589Y0265191D03*
X0261589Y0267750D03*
X0261589Y0270309D03*
X0253911Y0270309D03*
X0253911Y0267750D03*
X0253911Y0265191D03*
X0169589Y0265191D03*
X0169589Y0267750D03*
X0169589Y0270309D03*
X0161911Y0270309D03*
X0161911Y0267750D03*
X0161911Y0265191D03*
X0077589Y0265191D03*
X0077589Y0267750D03*
X0077589Y0270309D03*
X0069911Y0270309D03*
X0069911Y0267750D03*
X0069911Y0265191D03*
X0069911Y0173309D03*
X0069911Y0170750D03*
X0069911Y0168191D03*
X0077589Y0168191D03*
X0077589Y0170750D03*
X0077589Y0173309D03*
X0161911Y0173309D03*
X0161911Y0170750D03*
X0161911Y0168191D03*
X0169589Y0168191D03*
X0169589Y0170750D03*
X0169589Y0173309D03*
X0253911Y0173309D03*
X0253911Y0170750D03*
X0253911Y0168191D03*
X0261589Y0168191D03*
X0261589Y0170750D03*
X0261589Y0173309D03*
X0261589Y0076309D03*
X0261589Y0073750D03*
X0261589Y0071191D03*
X0253911Y0071191D03*
X0253911Y0073750D03*
X0253911Y0076309D03*
X0169589Y0076309D03*
X0169589Y0073750D03*
X0169589Y0071191D03*
X0161911Y0071191D03*
X0161911Y0073750D03*
X0161911Y0076309D03*
X0077589Y0076309D03*
X0077589Y0073750D03*
X0077589Y0071191D03*
X0069911Y0071191D03*
X0069911Y0073750D03*
X0069911Y0076309D03*
D20*
X0055750Y0326000D03*
X0275750Y0326000D03*
D21*
X0052185Y0020500D02*
X0052187Y0020619D01*
X0052193Y0020738D01*
X0052203Y0020857D01*
X0052217Y0020975D01*
X0052235Y0021093D01*
X0052256Y0021210D01*
X0052282Y0021326D01*
X0052312Y0021442D01*
X0052345Y0021556D01*
X0052382Y0021669D01*
X0052423Y0021781D01*
X0052468Y0021892D01*
X0052516Y0022001D01*
X0052568Y0022108D01*
X0052624Y0022213D01*
X0052683Y0022317D01*
X0052745Y0022418D01*
X0052811Y0022518D01*
X0052880Y0022615D01*
X0052952Y0022709D01*
X0053028Y0022802D01*
X0053106Y0022891D01*
X0053187Y0022978D01*
X0053272Y0023063D01*
X0053359Y0023144D01*
X0053448Y0023222D01*
X0053541Y0023298D01*
X0053635Y0023370D01*
X0053732Y0023439D01*
X0053832Y0023505D01*
X0053933Y0023567D01*
X0054037Y0023626D01*
X0054142Y0023682D01*
X0054249Y0023734D01*
X0054358Y0023782D01*
X0054469Y0023827D01*
X0054581Y0023868D01*
X0054694Y0023905D01*
X0054808Y0023938D01*
X0054924Y0023968D01*
X0055040Y0023994D01*
X0055157Y0024015D01*
X0055275Y0024033D01*
X0055393Y0024047D01*
X0055512Y0024057D01*
X0055631Y0024063D01*
X0055750Y0024065D01*
X0055869Y0024063D01*
X0055988Y0024057D01*
X0056107Y0024047D01*
X0056225Y0024033D01*
X0056343Y0024015D01*
X0056460Y0023994D01*
X0056576Y0023968D01*
X0056692Y0023938D01*
X0056806Y0023905D01*
X0056919Y0023868D01*
X0057031Y0023827D01*
X0057142Y0023782D01*
X0057251Y0023734D01*
X0057358Y0023682D01*
X0057463Y0023626D01*
X0057567Y0023567D01*
X0057668Y0023505D01*
X0057768Y0023439D01*
X0057865Y0023370D01*
X0057959Y0023298D01*
X0058052Y0023222D01*
X0058141Y0023144D01*
X0058228Y0023063D01*
X0058313Y0022978D01*
X0058394Y0022891D01*
X0058472Y0022802D01*
X0058548Y0022709D01*
X0058620Y0022615D01*
X0058689Y0022518D01*
X0058755Y0022418D01*
X0058817Y0022317D01*
X0058876Y0022213D01*
X0058932Y0022108D01*
X0058984Y0022001D01*
X0059032Y0021892D01*
X0059077Y0021781D01*
X0059118Y0021669D01*
X0059155Y0021556D01*
X0059188Y0021442D01*
X0059218Y0021326D01*
X0059244Y0021210D01*
X0059265Y0021093D01*
X0059283Y0020975D01*
X0059297Y0020857D01*
X0059307Y0020738D01*
X0059313Y0020619D01*
X0059315Y0020500D01*
X0059313Y0020381D01*
X0059307Y0020262D01*
X0059297Y0020143D01*
X0059283Y0020025D01*
X0059265Y0019907D01*
X0059244Y0019790D01*
X0059218Y0019674D01*
X0059188Y0019558D01*
X0059155Y0019444D01*
X0059118Y0019331D01*
X0059077Y0019219D01*
X0059032Y0019108D01*
X0058984Y0018999D01*
X0058932Y0018892D01*
X0058876Y0018787D01*
X0058817Y0018683D01*
X0058755Y0018582D01*
X0058689Y0018482D01*
X0058620Y0018385D01*
X0058548Y0018291D01*
X0058472Y0018198D01*
X0058394Y0018109D01*
X0058313Y0018022D01*
X0058228Y0017937D01*
X0058141Y0017856D01*
X0058052Y0017778D01*
X0057959Y0017702D01*
X0057865Y0017630D01*
X0057768Y0017561D01*
X0057668Y0017495D01*
X0057567Y0017433D01*
X0057463Y0017374D01*
X0057358Y0017318D01*
X0057251Y0017266D01*
X0057142Y0017218D01*
X0057031Y0017173D01*
X0056919Y0017132D01*
X0056806Y0017095D01*
X0056692Y0017062D01*
X0056576Y0017032D01*
X0056460Y0017006D01*
X0056343Y0016985D01*
X0056225Y0016967D01*
X0056107Y0016953D01*
X0055988Y0016943D01*
X0055869Y0016937D01*
X0055750Y0016935D01*
X0055631Y0016937D01*
X0055512Y0016943D01*
X0055393Y0016953D01*
X0055275Y0016967D01*
X0055157Y0016985D01*
X0055040Y0017006D01*
X0054924Y0017032D01*
X0054808Y0017062D01*
X0054694Y0017095D01*
X0054581Y0017132D01*
X0054469Y0017173D01*
X0054358Y0017218D01*
X0054249Y0017266D01*
X0054142Y0017318D01*
X0054037Y0017374D01*
X0053933Y0017433D01*
X0053832Y0017495D01*
X0053732Y0017561D01*
X0053635Y0017630D01*
X0053541Y0017702D01*
X0053448Y0017778D01*
X0053359Y0017856D01*
X0053272Y0017937D01*
X0053187Y0018022D01*
X0053106Y0018109D01*
X0053028Y0018198D01*
X0052952Y0018291D01*
X0052880Y0018385D01*
X0052811Y0018482D01*
X0052745Y0018582D01*
X0052683Y0018683D01*
X0052624Y0018787D01*
X0052568Y0018892D01*
X0052516Y0018999D01*
X0052468Y0019108D01*
X0052423Y0019219D01*
X0052382Y0019331D01*
X0052345Y0019444D01*
X0052312Y0019558D01*
X0052282Y0019674D01*
X0052256Y0019790D01*
X0052235Y0019907D01*
X0052217Y0020025D01*
X0052203Y0020143D01*
X0052193Y0020262D01*
X0052187Y0020381D01*
X0052185Y0020500D01*
D22*
X0055750Y0020500D03*
M02*
